<?xml version="1.0" encoding="utf-8"?>
<!-- Generator: Adobe Illustrator 16.0.0, SVG Export Plug-In . SVG Version: 6.00 Build 0)  -->
<!DOCTYPE svg PUBLIC "-//W3C//DTD SVG 1.1//EN" "http://www.w3.org/Graphics/SVG/1.1/DTD/svg11.dtd">
<svg version="1.1" id="Layer_1" xmlns="http://www.w3.org/2000/svg" xmlns:xlink="http://www.w3.org/1999/xlink" x="0px" y="0px"
	 width="472.244px" height="512px" viewBox="0 0 472.244 512" enable-background="new 0 0 472.244 512" xml:space="preserve">
<g>
	<path fill-rule="evenodd" clip-rule="evenodd" fill="#E8B118" d="M228.296,106.911c4.149,0.218,8.318,0.111,12.477,0.083
		c11.473-0.077,16.334-4.926,16.355-16.494c0.045-24.292-0.183-48.588,0.128-72.876c0.105-8.24-2.352-14.275-10.134-17.624
		c-7.334,0-14.666,0-22,0c-5.645,2.579-9.933,6.3-9.946,13.054c-0.054,26.954-0.138,53.91,0.069,80.862
		C215.305,101.642,220.541,106.502,228.296,106.911z"/>
	<path fill-rule="evenodd" clip-rule="evenodd" fill="#E8B118" d="M348.19,67.689c0.004,8.155-0.128,16.313,0.075,24.464
		c0.241,9.688,5.392,14.653,15.019,14.83c3.494,0.064,6.99,0.042,10.485,0.021c12.008-0.071,16.462-4.527,16.48-16.699
		c0.038-24.631-0.157-49.264,0.095-73.893C390.427,8.433,387.656,2.904,380.122,0c-7.334,0-14.666,0-22,0
		c-7.743,3.442-10.176,9.6-10.025,17.763C348.405,34.4,348.186,51.047,348.19,67.689z"/>
	<path fill-rule="evenodd" clip-rule="evenodd" fill="#E8B118" d="M82.049,92.821c0.038,8.707,4.872,13.532,13.587,13.992
		c3.82,0.202,7.658,0.115,11.486,0.081c12.049-0.106,16.879-4.937,16.906-17.134c0.055-24.144-0.098-48.29,0.083-72.433
		c0.06-7.946-2.463-13.968-9.989-17.328c-7.334,0-14.666,0-22,0c-6.43,2.649-10.206,6.97-10.17,14.394
		C82.082,40.536,81.936,66.679,82.049,92.821z"/>
	<path fill-rule="evenodd" clip-rule="evenodd" fill="#E8B118" d="M319.021,232.814c-25.557,0-32.585,22.043-32.585,80.504
		s7.028,80.822,32.585,80.822s32.585-22.361,32.585-80.822S344.578,232.814,319.021,232.814z"/>
	<path fill-rule="evenodd" clip-rule="evenodd" fill="#E8B118" d="M472.175,97.851c-0.113-31.555-23.068-55.983-54.392-58.18
		c-6.015-0.421-6.669,0.114-6.688,6.18c-0.05,15.331,0.03,30.662-0.047,45.993c-0.104,20.445-14.137,35.057-34.549,35.829
		c-5.979,0.226-12.039,0.309-17.966-0.379c-18.316-2.127-30.396-15.729-30.569-34.164c-0.145-15.496-0.017-30.995-0.07-46.492
		c-0.022-6.764-0.643-7.358-7.521-7.379c-11.998-0.037-23.997,0.101-35.993-0.05c-4.679-0.059-6.551,1.736-6.493,6.499
		c0.176,14.663,0.099,29.328,0.044,43.993c-0.089,23.723-14.249,37.871-38.056,38.077c-3.499,0.03-7.004,0.076-10.497-0.075
		c-20.913-0.898-34.726-14.951-35.026-35.927c-0.215-14.995-0.036-29.995-0.068-44.993c-0.016-6.922-0.537-7.484-7.349-7.513
		c-11.831-0.051-23.663-0.051-35.494,0.006c-6.448,0.032-7.087,0.692-7.107,7.275c-0.048,15.164,0.06,30.329-0.056,45.493
		c-0.153,20.038-12.604,33.709-32.59,35.387c-6.602,0.554-13.363,0.49-19.945-0.245c-17.809-1.989-30.267-15.896-30.511-33.819
		c-0.213-15.662-0.041-31.328-0.079-46.992c-0.017-6.782-0.324-7.021-7.192-6.582C23.083,41.768,0.11,66.477,0.073,98.376
		C-0.044,200.527,0.022,302.679,0.021,404.83c-0.001,16.164-0.059,32.328,0.026,48.492c0.152,28.811,18.528,51.348,46.756,57.504
		c1.456,0.316,2.88,0.779,4.319,1.174c123.334,0,246.666,0,370,0c9.407-2.299,18.704-4.83,26.662-10.762
		c15.891-11.842,24.368-27.553,24.387-47.441c0.076-83.488,0.043-166.975,0.045-250.462
		C472.217,168.173,472.302,133.011,472.175,97.851z M173.348,423.85h-44.724V267.635H74.636v-31.307h6.389
		c43.127,0,54.627-22.362,55.586-39.293h36.737V423.85z M319.021,429.919c-53.35,0-78.587-37.057-78.587-116.602
		c0-79.545,25.237-116.283,78.587-116.283s78.587,36.738,78.587,116.283C397.608,392.863,372.371,429.919,319.021,429.919z"/>
</g>
</svg>
