<?xml version="1.0" encoding="utf-8"?>
<!-- Generator: Adobe Illustrator 16.0.0, SVG Export Plug-In . SVG Version: 6.00 Build 0)  -->
<!DOCTYPE svg PUBLIC "-//W3C//DTD SVG 1.1//EN" "http://www.w3.org/Graphics/SVG/1.1/DTD/svg11.dtd">
<svg version="1.1" id="Layer_1" xmlns="http://www.w3.org/2000/svg" xmlns:xlink="http://www.w3.org/1999/xlink" x="0px" y="0px"
	 width="472.244px" height="512px" viewBox="0 0 472.244 512" enable-background="new 0 0 472.244 512" xml:space="preserve">
<g>
	<path fill-rule="evenodd" clip-rule="evenodd" fill="#E8B118" d="M228.296,106.911c4.148,0.218,8.318,0.111,12.477,0.083
		c11.473-0.077,16.334-4.926,16.355-16.494c0.045-24.292-0.184-48.588,0.127-72.876C257.36,9.384,254.903,3.348,247.122,0
		c-7.334,0-14.666,0-22,0c-5.645,2.579-9.934,6.3-9.947,13.054c-0.053,26.954-0.137,53.91,0.07,80.862
		C215.304,101.642,220.54,106.502,228.296,106.911z"/>
	<path fill-rule="evenodd" clip-rule="evenodd" fill="#E8B118" d="M348.19,67.689c0.004,8.155-0.129,16.313,0.074,24.464
		c0.242,9.688,5.393,14.653,15.02,14.83c3.494,0.064,6.99,0.042,10.484,0.021c12.008-0.071,16.463-4.527,16.48-16.699
		c0.039-24.631-0.156-49.264,0.096-73.893C390.427,8.433,387.655,2.904,380.122,0c-7.334,0-14.666,0-22,0
		c-7.744,3.442-10.176,9.6-10.025,17.763C348.405,34.4,348.185,51.047,348.19,67.689z"/>
	<path fill-rule="evenodd" clip-rule="evenodd" fill="#E8B118" d="M82.048,92.821c0.039,8.707,4.873,13.532,13.588,13.992
		c3.82,0.202,7.658,0.115,11.486,0.081c12.049-0.106,16.879-4.937,16.906-17.134c0.055-24.144-0.098-48.29,0.082-72.433
		C124.171,9.382,121.647,3.36,114.122,0c-7.334,0-14.666,0-22,0c-6.43,2.649-10.207,6.97-10.17,14.394
		C82.081,40.536,81.935,66.679,82.048,92.821z"/>
	<path fill-rule="evenodd" clip-rule="evenodd" fill="#E8B118" d="M472.175,97.851c-0.113-31.555-23.068-55.983-54.393-58.18
		c-6.014-0.421-6.668,0.114-6.688,6.18c-0.051,15.331,0.029,30.662-0.047,45.993c-0.104,20.445-14.137,35.057-34.549,35.829
		c-5.98,0.226-12.039,0.309-17.967-0.379c-18.316-2.127-30.395-15.729-30.568-34.164c-0.145-15.496-0.018-30.995-0.07-46.492
		c-0.023-6.764-0.643-7.358-7.521-7.379c-11.998-0.037-23.998,0.101-35.994-0.05c-4.678-0.059-6.551,1.736-6.492,6.499
		c0.176,14.663,0.098,29.328,0.043,43.993c-0.088,23.723-14.248,37.871-38.055,38.077c-3.5,0.03-7.004,0.076-10.498-0.075
		c-20.912-0.898-34.725-14.951-35.025-35.927c-0.215-14.995-0.037-29.995-0.068-44.993c-0.016-6.922-0.537-7.484-7.35-7.513
		c-11.83-0.051-23.662-0.051-35.494,0.006c-6.447,0.032-7.086,0.692-7.107,7.275c-0.047,15.164,0.061,30.329-0.055,45.493
		c-0.154,20.038-12.604,33.709-32.59,35.387c-6.602,0.554-13.363,0.49-19.945-0.245c-17.809-1.989-30.268-15.896-30.512-33.819
		c-0.213-15.662-0.041-31.328-0.078-46.992c-0.018-6.782-0.324-7.021-7.193-6.582C23.083,41.768,0.11,66.477,0.073,98.376
		C-0.044,200.527,0.022,302.679,0.021,404.83c-0.002,16.164-0.059,32.328,0.025,48.492c0.152,28.811,18.529,51.348,46.756,57.504
		c1.457,0.316,2.881,0.779,4.32,1.174c123.334,0,246.666,0,370,0c9.406-2.299,18.703-4.83,26.662-10.762
		c15.891-11.842,24.367-27.553,24.387-47.441c0.076-83.488,0.043-166.975,0.045-250.462
		C472.216,168.173,472.302,133.011,472.175,97.851z M175.425,423.85h-44.724V267.635H76.713v-31.307h6.389
		c43.127,0,54.628-22.362,55.586-39.293h36.737V423.85z M395.532,423.85H240.595c1.598-26.515,3.515-54.308,52.711-90.087
		c40.891-29.71,57.183-41.21,57.183-66.767c0-15.014-9.583-32.265-31.307-32.265c-31.307,0-32.266,25.876-32.585,42.488H243.15
		c0-73.794,53.988-80.184,74.114-80.184c43.446,0,77.948,25.557,77.948,71.559c0,38.974-25.237,58.78-47.28,73.795
		c-30.029,21.084-45.683,31.307-50.794,41.85h98.394V423.85z"/>
</g>
</svg>
