<?xml version="1.0" encoding="utf-8"?>
<!-- Generator: Adobe Illustrator 16.0.0, SVG Export Plug-In . SVG Version: 6.00 Build 0)  -->
<!DOCTYPE svg PUBLIC "-//W3C//DTD SVG 1.1//EN" "http://www.w3.org/Graphics/SVG/1.1/DTD/svg11.dtd">
<svg version="1.1" id="Layer_1" xmlns="http://www.w3.org/2000/svg" xmlns:xlink="http://www.w3.org/1999/xlink" x="0px" y="0px"
	 width="154.5px" height="170px" viewBox="0 0 154.5 170" enable-background="new 0 0 154.5 170" xml:space="preserve">
<g>
	<rect x="11.3" y="10.6" fill-rule="evenodd" clip-rule="evenodd" fill="#F39200" width="131.9" height="148.8"/>
	<rect x="21.5" y="133.2" fill-rule="evenodd" clip-rule="evenodd" fill="#EBDAC5" width="111.5" height="18.1"/>
	<g>
		<path fill-rule="evenodd" clip-rule="evenodd" fill="#634E42" d="M24.8,81.6c2.9-1.6,5.8-3.3,8.7-4.9c1.4-0.8,3.3-0.9,5.1-0.5
			c0-0.4,0.1-0.9,0-1.3c-0.3-1.9,0.4-3,2.1-3.9c2.1-1.1,4.2-2.4,6.2-3.7c1-0.7,2-0.8,3.2-0.5c0.7,0.2,1.2,0.1,1.7-0.7
			c0.9-1.6,3.1-1.8,4.6-0.8c0.3,0.2,0.9,0.3,1.3,0.1c0.3-0.1,0.5-0.6,0.5-0.9c0-1.3,0.5-2.4,1.8-2.9c1.3-0.5,2.5-0.5,3.6,0.6
			c0.2-1.1,0.5-2.2,1.7-2.6c1.1-0.4,2.1-0.3,3,0.6c1-2,2.1-2.5,4.2-1.9c-0.1-1.7-0.1-3.4,1.8-4.2c1.6-0.7,3.1-0.8,4.7,0.2
			c0.3-1.9,0.7-2.2,2.6-2.3c2.1-0.1,4.1-0.1,6.1-0.5c1.3-0.2,2.5-1,3.7-1.6c0.2-0.1,0.3-0.5,0.3-0.8c0-1.4,0-2.9,0-4.3
			c0-0.6,0.3-1.2,0.4-2c-2.6-1.1-5.5-2.4-8.3-3.6c2.2-0.1,4.4,0.8,6.8-0.2c-0.9-1.6-1.8-3-3.7-3.2c-0.2,0-0.4,0-0.6,0
			c-1.7-0.3-1.7-0.4-1.7-2.1c0,0,0-0.1,0-0.1c0-2.3-0.3-2.7-2.7-2.7c-1.8,0-3.6,0-5.2,0c2.6-2.5,6.1-2.6,8.9,0
			c0.4,0.3,0.8,0.7,1.1,1.1c1.2,1.5,2.8,2.3,4.8,2.5c2.2,0.2,2.5,0.9,1.9,3c-0.4,1.2-0.8,2.4-0.2,3.6c0.4,0.7,0.7,1.3,1.8,0.9
			c0.6-0.3,1.3-0.3,1.7-0.3c0.3-1,0.6-1.9,0.7-2.8c0.1-0.6-0.2-1.2-0.5-1.7c-0.3-0.4-0.9-0.6-1.3-0.9c-1-0.8-0.9-1.8,0.3-2.3
			c0.2-0.1,0.5-0.1,0.7-0.2c0.5-0.3,0.9-0.7,1.3-1.1c-0.5-0.4-0.9-0.7-1.4-1.1c-0.1-0.1-0.4-0.1-0.6-0.1c-1.5-0.4-1.4-0.4-1.1-1.9
			c0.2-1.1,0.2-2.4,0-3.5c-0.1-0.7-0.8-1.1-1.5-0.9c-1,0.2-2.1,0.6-3.1,0.9c-0.7,0.2-1.3,0.5-2,0.7c-1.5,0.5-2,0.2-2.7-1.2
			c-0.4-0.9-1-1.4-2-1c-1,0.4-2.1,0.8-3,1.4c-1.8,1.5-3.6,1.5-5.3,0.3c-1.4-1-2.5-0.8-3.7,0.4c-0.6,0.6-1.2,1-1.9,1.5
			c-0.9,0.6-1.4,0.5-1.9-0.6c-0.2-0.4-0.3-0.9-0.4-1.3c-0.4-1-0.8-1.2-1.7-0.5c-0.8,0.6-1.6,1.3-2.5,2c-1.3,1-2.1,0.9-3.1-0.5
			c-0.2-0.3-0.5-0.7-0.8-1c-0.6-0.8-1.3-1-2.1-0.5c-1.3,0.7-2.7,1.5-4.1,2.2c1.3-1.3,2.4-2.6,3.8-3.7c0.5-0.4,1.5-0.5,2.1-0.3
			c2.5,1,4.8,0.6,7.1-0.7c1.6-0.9,3.4-1.5,5.1-2c1.3-0.4,2.5,0,3.5,1c1.8,1.7,3.8,1.5,4.9-0.8c1-2,3.5-3,5.6-1.3
			c3.3,2.6,4.7,2.9,8.2,0c0.4-0.3,0.9-0.6,1.4-0.7c1.8-0.4,2.8,0.7,2.6,2.8c-0.2,1.9,0,2.2,1.8,2.6c0.7,0.2,1.4,0.3,2.1,0.5
			c1.2,0.4,1.6,1.4,0.9,2.6c-0.5,0.8-1.2,1.5-1.8,2.3c-0.8,1.1-0.7,1.6,0.4,2.4c2.5,1.7,2.5,1.7,0.3,3.7c-1.2,1.2-1.2,1.5,0,2.7
			c0.4,0.4,0.9,0.9,1.3,1.3c0.8,0.8,0.8,1.6-0.1,2.3c0.5,1,1.4,1.2,2.4,1.3c1,0.1,1.9,0.3,2.9,0.2c1.5-0.2,2.5,0.6,3.5,1.4
			c2.3,1.8,2.4,1.8,1.5,4.7c0,0.1,0,0.2,0,0.3c1.7-0.2,1.9-0.3,2.7-2.2c0.7,1.1,0.5,1.8-0.6,2.3c-0.6,0.3-1.3,0.5-1.9,0.8
			c-0.9,0.4-0.9,1.1-0.5,1.6c0.8-0.3,1.4-0.8,2.1-0.8c0.3,0,0.9,0.8,1,1.2c0.1,0.9-0.6,1.3-1.6,1.4c2.8,4.8,2.7,9.6-0.5,14.5
			c1.6,0,3,0,4.3,0c1.2,5.2,2.4,10.1,3.3,15.1c0.3,1.5-0.5,3.2-0.9,4.8c0,0.1-0.4,0.3-0.6,0.3c-0.4,0.1-0.8,0-1.4,0.1
			c-0.3,2.9-0.5,5.7-0.8,8.6c-0.9-0.1-1.8-0.1-2.8-0.2c0.5,0.9,0.4,2.3,2,2.1c0.1,0,0.3,0.4,0.7,0.9c-1.7,0-3,0-4.3,0
			c-1.9,0-3.9,0-5.8,0c-1.1,0-1.1,0-1.7,1.2c8.3,0,16.5,0,24.7,0c0,0.4,0,0.8,0,1.2c-16,0-32,0-47.9,0c-0.6,0-1.2,0-1.9-0.1
			c-4.5-0.3-9-0.6-13.5-0.9c-2.9-0.2-5.9-0.3-8.8-0.5c-4.6-0.3-9.1-0.6-13.7-0.9c-2.9-0.2-5.8-0.4-8.7-0.5c-3.5-0.2-7-0.4-10.5-0.6
			C24.8,93.6,24.8,87.6,24.8,81.6z M76.1,69.5c-0.2,0-0.5-0.1-1-0.1c0.6-0.3,0.9-0.5,1.2-0.7c0-0.1,0-0.1-0.1-0.2
			c-0.7,0.3-1.4,0.6-2,0.9c-1.5,0.4-3.1,0.9-4.6,1.3c-0.6,0.2-1.1,0.3-1.7,0.5c-0.4,0.1-0.8,0.2-1.2,0.4c-1.7,0.6-3.4,1.2-5.1,1.7
			c-1.4,0.3-2.8,0.6-4.1,1c-0.1,0-0.2,0.4-0.3,0.6c0.2,0.1,0.5,0.2,0.7,0.2c1.2-0.3,2.3-0.7,3.5-1.1c0.6,0,1.3,0.1,1.9-0.1
			c1.6-0.4,3.1-0.8,4.6-1.3c0.3-0.1,0.6-0.2,0.9-0.3c1.6-0.4,3.3-0.9,4.9-1.3c0.9-0.3,1.7-0.5,2.6-0.8c1.1-0.3,2.1-0.5,3.2-0.8
			c0.3,0,0.6-0.1,1-0.1c0,0.5,0,0.8,0.1,1.1c0.8,4.8,1.5,9.6,2.3,14.4c0.1,0.6,0,1.3,0,2c1.2-0.1,1.3-0.1,1-1.4
			c-0.8-4.4-1.5-8.9-2.2-13.4c-0.3-1.8-0.6-3.5-0.9-5.3c-0.1,0-0.2,0-0.3,0c-0.1,0.5-0.3,1-0.4,1.5C78.7,68.7,77.4,69.1,76.1,69.5z
			 M56.6,72.3c3.8-1.3,7.7-2.5,11.5-3.8c0-0.1-0.1-0.2-0.1-0.3c-3.8,1.3-7.7,2.7-11.5,4c-2,0.6-3.9,1.3-5.9,1.9
			c0,0.1,0.1,0.2,0.1,0.3C52.6,73.7,54.6,73,56.6,72.3z M39.6,82c-0.2,0-0.3,0-0.5,0c1.2-0.8,2.5-1.2,3.8-1.8
			c0.3-0.1,0.8-0.5,0.8-0.8c0.1-2.4,0-4.7,0-7.2c-1.4,0.6-2.7,1.3-4,1.8c-0.7,0.3-0.8,0.7-0.8,1.3c0,2.3,0,4.6,0,6.9
			c0,0.7,0,1.4,0,2.3c2-0.7,3.1,0.1,4.1,1.6c1.4-1.5,0.6-3.1,0.8-4.8c-1.7,0.6-3.1,1.1-4.6,1.6c0-0.1-0.1-0.2-0.1-0.2
			c0.2-0.2,0.5-0.3,0.7-0.5c1.3-0.4,2.7-0.9,4-1.3c0-0.1-0.1-0.3-0.1-0.4C42.3,80.9,40.9,81.5,39.6,82z M90.3,51.5
			c0.1-0.2,0.1-0.3,0.2-0.6c-3.2,1.5-6.3,3-9.4,4.3c-1.5,0.6-2.5,1.6-3.2,3c-0.8,1.7-1.6,3.3-1.3,5.3c3.1-1.1,6.1-2.2,9-3.4
			c0.3-0.1,0.7-0.6,0.7-1c0.6-2.8,1.4-5.5,3.8-7.3c-1.2,4.5-2.4,9-3.7,13.4c0.1,0.1,0.2,0.2,0.3,0.2c0.3-0.3,0.7-0.5,0.8-0.8
			c0.3-1,0.5-2,0.8-3c0.9-3.4,1.8-6.8,2.8-10.2C90.8,51.4,90.5,51.5,90.3,51.5z M73.5,58.6c1.1-1.2,0.3-2.5,0.4-3.9
			c-1.2,0.7-1.8,2.8-1.2,3.8c0.1,0.1,0.3,0.1,0.5,0.1c-0.8,0.4-1.6,0.9-2.5,1.2c-6.5,2.9-13,5.9-19.4,8.8c-0.3,0.1-0.7,0.4-0.7,0.6
			c-0.2,1.3-0.4,2.5-0.5,4.1c8-3,15.6-5.9,22.8-8.6c0.9-2.6,1.7-4.8,2.5-7C74.8,58.1,74.1,58.4,73.5,58.6z M52.8,90.7
			c0.7-1.6-0.9-3.6,1.3-4.8c-0.6-0.5-1.1-1-1.7-1.4c-1.3-0.9-2.1-0.8-3.4,0.2c-0.3,0.2-0.8,0.2-1.1,0.2c-0.8-0.2-1.5-0.2-1.9,0.8
			c-0.1,0.3-0.8,0.6-1.1,0.5c-1-0.6-1.4-0.1-1.9,0.7c-0.6,1.1-1,1.1-2,0.3c-0.8-0.7-1.8-0.8-2.3,0.2c-0.9,1.7-2.2,1.8-3.7,1.2
			c-0.6-0.2-0.9,0-1,0.5c-0.2,0.7-0.4,1.4-0.7,2.1c-0.4,1-0.9,1-1.7,0.4c-0.2-0.2-0.3-0.3-0.5-0.5c-0.8-0.7-1.3-0.7-1.9,0.2
			c-0.7,1-1.4,1.9-2.1,2.7c0.4,0,1-0.1,1.7-0.1c0.1,0.1,0.1,0.2,0.2,0.3c-1,1.4-3.2,1.6-3.6,3.7c1-0.6,2-1.1,2.8-1.7
			c0.9-0.7,1.8-0.7,2.8-0.2c0.6,0.3,1.1,0.7,1.7,1c0.5,0.2,1.1,0.6,1.4,0.4c1-0.5,2.1-1,2.8-1.8c1-1.2,2-1.3,2.9,0
			c0.4,0.6,0.9,1.3,1.4,1.8c0.7,0.7,1.3,0.5,1.7-0.4c0.2-0.6,0.4-1.3,0.6-2.1c0.7,0.4,1.2,0.7,1.7,1c1.4,1,2,0.8,2.1-1
			c0.1-1.1,0.5-1.1,1.3-0.8c0.2,0.1,0.4,0.2,0.5,0.2c2.3,0.7,2.7,0.4,2.6-2C51.8,91.6,51.8,90.8,52.8,90.7z M61.7,89.7
			c1-0.6,2-0.8,3,0c0.2,0.1,0.6,0.1,0.8,0c1.6-1.2,3.5-1.2,5.2-1c0-0.5-0.2-1.1,0-1.5c0.5-1,0.1-1.5-0.8-1.7
			c0.4-0.4,0.7-0.7,1.1-1.1c-0.4-0.4-0.7-0.7-1.1-1c0.5-0.4,0.8-0.7,1.2-1c-0.7-0.3-1.9-0.5-2.1-0.2c-0.6,1-1.1,0.7-1.8,0.3
			c-0.6-0.3-1.3-0.5-1.7,0.3c-0.4,0.9-1,0.9-1.8,0.4c-1-0.6-1.9-0.3-2.6,0.5c-0.2,0.3-0.5,0.6-0.7,0.9c-0.4-0.2-0.8-0.3-1.2-0.4
			c-0.7,1.1-1.3,2.2-1.9,3.3c0.6-0.4,0.9-1,1.5-1.3c0.4-0.3,1.1-0.2,1.6-0.3c1.5-0.9,2.1-0.9,2.8,0.2c-1.2,0.5-2.5,1.1-3.8,1.7
			c0,0.1,0.1,0.2,0.1,0.3c0.6-0.1,1.2-0.2,1.8-0.1c1.1,0.1,2,0.4,2.8-0.8c0.1-0.2,1,0,1.4,0.2c0.2,0.1,0.3,0.5,0.4,0.7
			c-0.4,0.1-0.9,0.4-1.3,0.3C63.4,88.2,62.5,88.7,61.7,89.7z M44.1,85.1c1.1-0.6,1.9-1.2,2.8-1.6c0.8-0.4,1-0.8,1-1.7
			c0-4.5,0-8.9,0-13.4c0-0.3,0-0.6,0-1.1c-1.2,0.7-2.3,1.3-3.3,2c-0.3,0.2-0.5,0.6-0.5,0.9C44.1,75.1,44.1,79.9,44.1,85.1z
			 M77.6,86.3c-2,0.3-3.9,0.5-6,0.8c0.2,2.4,0.3,4.7,0.5,6.8c2.2,0,4.1,0,6,0C77.9,91.3,77.7,88.8,77.6,86.3z M103,73.9
			c-8-1.7-10.9-7.9-10.8-12.7c0.1-5.2,3.4-10.8,10.6-12.2c-4.3,0.2-7.8,2-10.1,5.7c-2.8,4.4-2.8,9-0.1,13.4
			C94.9,71.8,98.5,73.7,103,73.9z M79.8,77.3c-2,0.7-3.8,1.4-5.6,2c-1,0.3-1.6,0.9-1.8,1.9c-0.3,1.5-0.5,3.1-0.8,4.8
			c2.3-0.5,4.3-1,6.2-1.4C78,82,78,79.6,79.8,77.3z M107.1,57.4c-1.6,0-3,1.4-3.1,3c-0.1,1.8,1.2,3.1,3.1,3.2c1.5,0.1,3-1.5,3.1-3
			C110.2,58.9,108.7,57.4,107.1,57.4z M79.8,65.5c-5.9,1.9-11.7,3.8-17.5,5.7c-3.7,1.2-7.5,2.4-11.2,3.7c-0.3,0.1-0.6,0.4-0.9,0.6
			c0.1,0.1,0.2,0.2,0.2,0.3c9.9-3.1,19.7-6.1,29.6-9.2C79.9,66.2,79.8,65.9,79.8,65.5z M35,87c1.2-0.4,2.3-0.8,3.5-1.3
			c0-2.2,0-4.7,0-7.2c0-0.3,0-0.5-0.1-0.8c-2,0-3.4,1.4-3.4,3.5C35,83.2,35,85.2,35,87z M90.1,85.7c0.1-0.1,0.2-0.2,0.3-0.3
			c0-0.2,0-0.5,0-0.7C89.2,79,88,73.3,86.8,67.6c-0.1-0.5-0.5-1-0.8-1.4c1,6.4,2.2,12.7,3.5,19C89.5,85.4,89.9,85.5,90.1,85.7z
			 M88,88.7c0,3,0,5.9,0,8.8c0,0.8,0.1,1.7,0.2,2.5c0.1,1,0.5,1.8,1.5,2.1c1.1,0.3,1.8-0.5,2.3-1.4c-0.3,0.1-0.6,0.2-0.8,0.4
			c-1.3,0.9-2.1,0.7-2.3-0.8c-0.3-2.4-0.6-4.9,0.3-7.3c0.5-1.2,0.1-2.8,0.1-4.3C89,88.7,88.6,88.7,88,88.7z M86.1,62.2
			c-2.2,0.7-4.3,1.5-6.5,2.2c0,0.1,0,0.1,0.1,0.2c2.1,0.2,4.2,0.5,6.4,0.7C86.1,64.2,86.1,63.3,86.1,62.2z M73.9,64.4
			c1.1-0.1,1.5-0.5,1.6-1.7c0.1-1.1,0.5-2.2,0.9-3.3c0.4-0.9,1-1.7,1.5-2.6C75.8,57.3,73.7,61.2,73.9,64.4z M88.7,64.9
			c0.7,0.3,0.9,0.1,1-0.6c0.3-4.7,0.7-9.3,3.8-13.2C89.5,54.9,89.5,60,88.7,64.9z M108.6,66.1c-4.8,1.5-9.3-2.6-7.4-8
			c-1.5,1.7-1.4,4.6,0.2,6.7C103.1,66.9,106.2,67.5,108.6,66.1z M93.6,91c-0.5-1.6-0.9-3.1-1.4-4.5c-0.1-0.2-0.3-0.4-0.5-0.4
			c-0.1,0-0.4,0.3-0.4,0.4c0,1.5,0,3,0,4.5C92.1,91,92.8,91,93.6,91z M61.4,93.5c0.1,0.1,0.1,0.2,0.2,0.3c3.3-0.3,6.5-0.6,9.9-0.9
			c-0.2-0.8-1.2-0.8-1.8-0.7c-2.5,0.2-4.9,0.5-7.4,0.9C62,93.1,61.7,93.4,61.4,93.5z M38.7,73.4c0.1,0.1,0.3,0.2,0.4,0.3
			c1.2-0.6,2.3-1.2,3.5-1.7c1.1-0.4,1.3-1.1,1-2.1c-0.1,0-0.1,0-0.2,0c-1.2,0.7-2.5,1.4-3.7,2.2C39.3,72.4,39,73,38.7,73.4z
			 M81.9,88.2c-2.6,0.1-4,1.9-3.8,4.5c0.2,2.1,1.9,4,3.6,3.8c-1.7-1-2.9-2.4-2.8-4.5C79,90.1,80.1,89,81.9,88.2z M60.7,81.4
			c0.1,0.2,0.1,0.3,0.2,0.5c4.9-2,9.8-4,14.8-6c0-0.1-0.1-0.2-0.1-0.3C70.6,77.6,65.7,79.5,60.7,81.4z M76.4,97.2
			c0.3,2.2,0.8,3.4,1.7,4.3c1.1,1.1,2.2,1.2,3.4,0.3c1.3-1.1,1.9-2.6,2.4-4.5c-0.8,1.2-1.3,2.2-2,3.1c-1.5,1.8-2.8,1.7-4-0.3
			C77.3,99.2,76.9,98.2,76.4,97.2z M70.1,90c-0.1-0.1-0.2-0.2-0.3-0.2c-2.8,0.9-5.7,1.2-8.4,2.4c0.2,0.2,0.3,0.2,0.5,0.2
			c2.6-0.5,5.2-1.1,7.8-1.7C69.9,90.6,70,90.2,70.1,90z M104.9,93.1c0-0.1,0-0.2,0-0.2c-0.5-0.1-1.1-0.2-1.7-0.4c0-1.4,0-2.9,0-4.3
			c-1.6,0.2-1.8,0.6-1.4,2.7c0.1,0.7,0.6,1.5,1.1,1.9C103.4,93.2,104.2,93,104.9,93.1z M81.1,77.7c-1.9,0.7-2.6,1.9-2.4,3.7
			c0.2,1.4,1.5,2.6,3.1,2.7C79.1,82,78.8,80.1,81.1,77.7z M31.5,79.1c-0.1-0.1-0.2-0.2-0.3-0.3c-1.9,1-3.8,2-5.7,3
			c-0.3,0.1-0.4,0.5-0.6,0.7c2-0.6,3.8-1.4,5.6-2.3C30.9,80,31.2,79.5,31.5,79.1z M65.9,96.8c-0.1,0-0.1,0.1-0.2,0.2
			c0.5,1,0.9,2,1.5,2.9c1.6,2.4,4.1,2.5,5.9,0.2c0.8-1.1,1.3-2.5,1.9-3.8c-0.9,1.2-1.5,2.5-2.4,3.6c-1.6,1.9-3.7,1.8-5.1-0.3
			C66.9,98.7,66.4,97.7,65.9,96.8z M87.2,101.9c-0.6-1-1.1-1.9-1.7-2.8c-0.7,0.9-1.4,1.8-2.2,2.8C84.8,101.9,86,101.9,87.2,101.9z
			 M98.5,101.9c-1.1-1.7-3.1-1.7-4.4,0C95.6,101.9,97,101.9,98.5,101.9z M95,91.7c-0.2,0.1-0.3,0.1-0.3,0.1c-0.1,2.5-0.3,5-0.3,7.5
			c0,0.2,0.3,0.3,0.7,0.7C95,97.1,95,94.4,95,91.7z M111.7,97.1c1,3.2,0.8,2.8,2.4,2.5C113.6,98.5,113.6,97,111.7,97.1z M71.6,100.4
			c0.4-0.7,1-1.2,0.9-1.5c-0.5-1-1.2-2-1.9-3c-0.1,0.1-0.2,0.1-0.4,0.2C70.7,97.4,71.1,98.7,71.6,100.4z M85.9,92.2
			c0-0.1,0-0.1,0-0.2c-0.4-0.1-0.7-0.1-1.1-0.2c-0.1-1.4-0.2-2.7-0.3-4c-0.1,0-0.3,0-0.4,0c-0.1,1.5-0.1,3-0.2,4.5
			C84.6,92.3,85.3,92.2,85.9,92.2z M78.7,95.5c0-0.2,0-0.3,0.1-0.5c-2-0.6-4-0.1-6-0.3c0,0.2,0,0.3,0,0.5
			C74.7,95.2,76.7,95.4,78.7,95.5z M97.1,91.9c-0.1,0-0.3,0-0.4,0c0.3,2.6,0.5,5.2,0.8,7.8c0.2,0,0.3,0,0.4,0
			C97.6,97.1,97.3,94.5,97.1,91.9z M95.2,45.1C95.1,45.1,95,45,94.8,45c-1,0.8-0.4,2-0.4,3c0,0.3,0.3,0.5,0.5,0.8
			c0.1-0.1,0.2-0.1,0.3-0.2c0-0.2,0-0.4,0-0.6C95.2,47.1,95.2,46.1,95.2,45.1z M69.3,96c-0.1,0-0.2,0-0.3,0c-1.2,3.2-1.5,3.7,0,4.1
			C69.1,98.6,69.2,97.3,69.3,96z M108.9,97.2c-0.5,0.2-0.8,0.3-1.2,0.4c0.4,2.4,0.4,2.4,1.8,2.1C109.3,98.8,109.1,98.1,108.9,97.2z
			 M58.9,99.7c0.8,1.4,1.9,1.9,3,1.6c1.6-0.4,2.9-2.2,3.1-4.3C63.2,101.3,61.2,102,58.9,99.7z M92.8,91.5c-0.1,0-0.2,0-0.3,0
			c-0.3,2.7-0.6,5.5-0.9,8.2c0.1,0,0.3,0,0.4,0C92.3,97,92.5,94.3,92.8,91.5z M100.1,92.5c-0.1,0-0.2,0-0.3,0.1
			c0.4,2.3,0.7,4.7,1.1,7c0.2,0,0.3-0.1,0.5-0.1C100.9,97.2,100.5,94.8,100.1,92.5z M94.8,84.2c1-2.2,0.8-5.9,0-6.9
			C94.8,79.3,94.8,81.6,94.8,84.2z M98.6,92.4c-0.1,0-0.2,0-0.3,0c0.2,2.4,0.4,4.8,0.6,7.1c0.1,0,0.3,0,0.4,0
			C99,97.1,98.8,94.8,98.6,92.4z M106.4,92.6c0-1.6,0-3.1,0-4.6c-0.1,0-0.2,0-0.3,0c0,1.6,0,3.1,0,4.7c0.7,0,1.5,0,2.3,0
			c0-0.1,0-0.1,0-0.2C107.8,92.6,107.2,92.6,106.4,92.6z M62.4,100.1c1.1-0.8,0.6-2.3-1.1-3.5C61.7,97.8,62,98.9,62.4,100.1z
			 M31.8,90.6c0,0,0.1,0,0.1,0c0-3.8,0-7.5,0-11.3c0,0-0.1,0-0.1,0C31.8,83.1,31.8,86.9,31.8,90.6z M108.7,84.1c1-2.3,0.8-6.1,0-6.8
			C108.7,79.3,108.7,81.6,108.7,84.1z M53.3,95.2c0.9-0.6,0.7-1.5,0.5-2.3c0-0.1-0.3-0.4-0.4-0.3c-0.2,0-0.4,0.2-0.5,0.4
			C52.7,93.7,52.6,94.5,53.3,95.2z M60.3,92c-0.8,0.9-0.8,1.8,0,2.6C61.2,93.7,61.2,92.9,60.3,92z M111.3,99.9
			c0.1-0.1,0.2-0.2,0.3-0.3c-0.1-0.3-0.1-0.6-0.3-0.9c-0.4-0.5,0-1.6-1.1-1.6c0.1,0.7,0,1.3,0.2,2C110.5,99.4,111,99.6,111.3,99.9z
			 M59,89.7c-1.5,1-3,1.8-4.1,3.2c1.4-0.8,2.7-1.8,4-2.8C59,90,59,89.8,59,89.7z M103.3,59.2c-0.8,1.2-0.6,2.4,0.2,3.6
			c0.7,1.1,1.8,1.6,2.8,1.4C103.4,63,102.7,61.9,103.3,59.2z M52.3,100.4c0,0.1-0.1,0.2-0.1,0.3c0.7,0.2,1.5,0.6,2.1,0.4
			c1.8-0.5,2.3-2,2.7-3.6C55,101.1,54.8,101.2,52.3,100.4z M103.9,99.6c0.1,0,0.3,0,0.4-0.1c-0.4-2-0.8-4-1.3-6
			c-0.1,0-0.2,0-0.3,0.1C103.1,95.6,103.5,97.6,103.9,99.6z M104.8,94.2c-0.1,0-0.3,0.1-0.4,0.1c0.4,1.8,0.9,3.6,1.3,5.4
			c0.1,0,0.2-0.1,0.3-0.1C105.6,97.8,105.2,96,104.8,94.2z M53.9,96.9c0.3,1,0.6,2,1,3C55.9,99.2,55.7,98.7,53.9,96.9z M79.6,53.7
			c1.2-0.5,2.5-1,3.8-1.5C81,52.1,79.8,52.6,79.6,53.7z M60.5,96.4c-1.2,2-1.3,2.9-0.3,3.6C60.4,98.9,60.4,97.8,60.5,96.4z
			 M59.3,94.1c0-0.1,0-0.3,0-0.4c-1.4,0.1-2.8,0.3-4.3,0.4c0,0.1,0,0.3,0,0.4C56.4,94.4,57.8,94.3,59.3,94.1z M99,91.6
			c0.3,0,0.6,0,0.5,0c-0.1-1.2-0.2-2.4-0.2-3.6c-0.1,0-0.2,0-0.3,0C99,89.2,99,90.3,99,91.6z M53.2,96.9c-1.2,2.1-1.2,2.4-0.3,3
			C53,98.9,53.1,97.9,53.2,96.9z M66.9,97.8c0.5-0.8,1-1.4,1.5-2.3C66.7,96.4,66.5,96.7,66.9,97.8z M96.5,97.6
			c-0.2,0.7-0.5,1.4-0.7,2.1c0.5,0,0.9,0,1.3,0C96.9,99,96.7,98.3,96.5,97.6z"/>
		<path fill-rule="evenodd" clip-rule="evenodd" fill="#634E42" d="M79.6,36.2c-0.3,0.8-0.6,1.7-1,2.4C77,41.5,75,42.2,72,40.9
			c-1-0.4-2.1-1.3-3-1.1c-0.8,0.2-1.4,1.5-2.1,2.4c-1,1.2-1.3,1.2-2.7,0.5c-1.2-0.6-2.4-1.1-3.6-1.6c-1.2-0.4-1.8,0.1-1.7,1.3
			c0.1,1.2-0.4,1.6-1.5,1.8c-2,0.5-4,0.5-6-0.1c-2.8-0.9-5.5-0.9-8.3,0c-0.1,0-0.2,0.1-0.3,0.1c-0.1,0-0.1,0-0.5-0.2
			c3-0.9,5.7-1.8,8.4-2.5c0.8-0.2,1.8,0.2,2.7,0.4c0.6,0.1,1.1,0.5,1.7,0.7c1.4,0.5,2.1,0.1,2.5-1.3c0.2-0.9,0.6-1.8,1-2.6
			c0.7-1.2,1.4-1.3,2.4-0.5c1.1,0.9,2.1,1.9,3.2,2.7c1.3,1,1.6,0.8,2.4-0.6c0.6-1,1.3-2,1.9-3c0.6-0.9,1.4-1,2.3-0.4
			c0.3,0.2,0.6,0.4,1,0.7c2.6,1.9,5.6,1.4,7.5-1.3c0.1-0.1,0.1-0.2,0.2-0.2C79.4,36.1,79.5,36.1,79.6,36.2z"/>
		<path fill-rule="evenodd" clip-rule="evenodd" fill="#634E42" d="M34,52.6c0.1-0.6,0.3-1.3,0.2-1.9c0-1,0.4-1.2,1.3-1.1
			c1.5,0.1,2.9,0.3,4.4,0.3c1.5,0,2.2-0.9,1.8-2.2c-0.4-1.2,0.3-1.6,1.1-1.7c1.4-0.2,2.8-0.3,4.2-0.1c-1.1,0.3-2.2,0.7-3.3,1
			c-0.7,0.2-1.1,0.6-0.6,1.3c0.5,0.8,0.3,1.4-0.6,1.6c-1.7,0.5-3.5,1.1-5.2,1.2c-1.5,0.1-2.7,0.2-3.2,1.8
			C34.1,52.7,34.1,52.7,34,52.6z"/>
		<path fill-rule="evenodd" clip-rule="evenodd" fill="#634E42" d="M34.1,52.7c-0.6,0.6-1.1,1.6-1.8,1.8c-2,0.5-4.1,0.6-5.8,0.8
			c2.3-0.8,4.8-1.7,7.4-2.7C34.1,52.7,34.1,52.7,34.1,52.7z"/>
		<path fill-rule="evenodd" clip-rule="evenodd" fill="#634E42" d="M69.6,70.6c1.5-0.4,3.1-0.9,4.6-1.3c0.2,0,0.5,0,0.9,0
			c-0.3,0.3-0.5,0.5-0.6,0.7c-1.9,0.5-3.7,1-5.6,1.6C68.7,71.1,68.7,71.1,69.6,70.6z"/>
		<path fill-rule="evenodd" clip-rule="evenodd" fill="#634E42" d="M61.6,73.3c1.7-0.6,3.4-1.2,5.1-1.7c0.4-0.1,0.8-0.2,1.2-0.4
			c0.4,0.4,0.4,0.5,0,0.6c-0.5,0.2-0.9,0.3-1.4,0.5c-1.6,0.5-3.3,0.9-4.9,1.3C61.6,73.5,61.6,73.4,61.6,73.3z"/>
		<path fill-rule="evenodd" clip-rule="evenodd" fill="#634E42" d="M61.6,73.3c0,0.1,0,0.3,0,0.4c-0.1,0.1-0.2,0.2-0.2,0.2
			c-1.2,0.4-2.3,0.8-3.5,1.1c-0.2,0.1-0.5-0.1-0.7-0.2c0.1-0.2,0.2-0.6,0.3-0.6C58.9,73.9,60.3,73.6,61.6,73.3z"/>
		<path fill-rule="evenodd" clip-rule="evenodd" fill="#634E42" d="M68.9,71.6c1.9-0.5,3.7-1,5.6-1.6c0.1,0,0.3,0,0.4,0.1
			c-0.1,0.1-0.1,0.3-0.2,0.4c-0.3,0.2-0.6,0.3-0.9,0.5c-1.6,0.4-3.3,0.9-4.9,1.3C68.9,72.1,68.9,71.8,68.9,71.6z"/>
		<path fill-rule="evenodd" clip-rule="evenodd" fill="#634E42" d="M61.4,73.9c0.1-0.1,0.2-0.2,0.2-0.2c1.6-0.5,3.3-0.9,4.9-1.3
			c0.4-0.1,0.8-0.2,1.2-0.2c0.1,0,0.1,0.3,0.2,0.5c-1.5,0.4-3.1,0.9-4.6,1.3C62.7,74,62,73.9,61.4,73.9z"/>
		<path fill-rule="evenodd" clip-rule="evenodd" fill="#634E42" d="M80.1,68.3c0.2,0.4,0.2,0.4-0.5,1.1c-1.1,0.3-2.1,0.5-3.2,0.8
			c-0.3,0-0.6,0-1.2-0.1c0.5-0.3,0.8-0.5,1-0.6C77.4,69.1,78.7,68.7,80.1,68.3z"/>
		<path fill-rule="evenodd" clip-rule="evenodd" fill="#634E42" d="M31.8,90.6c0-3.8,0-7.5,0-11.3c0,0,0.1,0,0.1,0
			c0,3.8,0,7.5,0,11.3C31.9,90.7,31.8,90.7,31.8,90.6z"/>
	</g>
	<g>
		<path fill="#634E42" d="M25.3,109.6v5.4h-1.1v-5.4h-0.9v-0.9h0.9v-1.1c0-0.5,0.1-0.8,0.4-1.1c0.3-0.2,0.7-0.3,1.2-0.3
			c0.1,0,0.2,0,0.2,0c0.1,0,0.2,0,0.2,0v1c-0.1,0-0.1,0-0.2,0c-0.1,0-0.2,0-0.2,0c-0.2,0-0.4,0.1-0.5,0.2c-0.1,0.1-0.1,0.3-0.1,0.6
			v0.8h1.1v0.9H25.3z"/>
		<path fill="#634E42" d="M32.3,113c0,0.1,0,0.2-0.1,0.3c0,0.1-0.1,0.3-0.2,0.5c-0.1,0.2-0.2,0.3-0.3,0.5c-0.1,0.2-0.3,0.3-0.5,0.4
			c-0.1,0-0.2,0.1-0.2,0.2c-0.1,0.1-0.2,0.1-0.3,0.1c-0.1,0-0.3,0.1-0.5,0.1c-0.2,0-0.4,0-0.7,0c-0.4,0-0.8-0.1-1.2-0.2
			c-0.3-0.2-0.6-0.4-0.9-0.7c-0.2-0.3-0.4-0.6-0.6-1c-0.1-0.4-0.2-0.8-0.2-1.3c0-0.5,0.1-0.9,0.2-1.4c0.1-0.4,0.3-0.8,0.5-1.1
			c0.2-0.3,0.6-0.6,0.9-0.7c0.4-0.2,0.8-0.3,1.4-0.3c0.5,0,0.9,0.1,1.2,0.3s0.6,0.4,0.8,0.7c0.2,0.3,0.4,0.7,0.5,1.2
			c0.1,0.5,0.2,1,0.2,1.5h-4.6c0,0.7,0.2,1.2,0.5,1.5c0.3,0.4,0.8,0.5,1.4,0.5c0.2,0,0.5,0,0.7-0.1s0.4-0.2,0.5-0.3
			c0.1-0.1,0.2-0.3,0.3-0.4s0.1-0.3,0.1-0.4H32.3z M31.3,111.3c0-0.2-0.1-0.5-0.1-0.7c-0.1-0.2-0.2-0.4-0.3-0.6
			c-0.1-0.2-0.3-0.3-0.5-0.4s-0.5-0.2-0.8-0.2c-0.2,0-0.5,0.1-0.7,0.2s-0.4,0.2-0.6,0.4c-0.2,0.2-0.3,0.4-0.4,0.6
			c-0.1,0.2-0.1,0.5-0.1,0.7H31.3z"/>
		<path fill="#634E42" d="M37.2,110.5c0-0.1,0-0.2,0-0.3c0-0.1-0.1-0.2-0.2-0.3c-0.1-0.1-0.3-0.2-0.4-0.3s-0.5-0.1-0.8-0.1
			c-0.1,0-0.2,0-0.3,0c-0.1,0-0.3,0.1-0.4,0.1c-0.1,0.1-0.3,0.2-0.4,0.3s-0.2,0.3-0.2,0.5c0,0.1,0,0.2,0.1,0.3
			c0,0.1,0.1,0.2,0.2,0.2c0.1,0.1,0.2,0.1,0.4,0.2c0.1,0,0.3,0.1,0.5,0.1l1.1,0.3c0.7,0.2,1.1,0.4,1.4,0.6c0.3,0.3,0.4,0.6,0.4,1
			c0,0.3-0.1,0.6-0.2,0.9c-0.1,0.3-0.3,0.5-0.5,0.7c-0.2,0.2-0.5,0.3-0.8,0.4c-0.3,0.1-0.6,0.1-1,0.1c-0.4,0-0.8,0-1.1-0.1
			c-0.3-0.1-0.5-0.2-0.7-0.3s-0.4-0.3-0.5-0.4s-0.2-0.3-0.3-0.5c-0.1-0.2-0.1-0.3-0.1-0.5c0-0.2,0-0.3,0-0.4h1c0,0.1,0,0.3,0.1,0.4
			s0.1,0.3,0.2,0.4c0.1,0.1,0.3,0.2,0.5,0.3c0.2,0.1,0.5,0.1,0.9,0.1c0.2,0,0.4,0,0.5-0.1c0.2,0,0.3-0.1,0.5-0.2
			c0.1-0.1,0.2-0.2,0.3-0.3c0.1-0.1,0.1-0.3,0.1-0.5c0-0.2-0.1-0.4-0.3-0.6c-0.2-0.1-0.5-0.2-1-0.3l-1.2-0.3
			c-0.4-0.1-0.8-0.3-1.1-0.5s-0.4-0.6-0.4-1c0-0.3,0.1-0.6,0.2-0.9c0.1-0.3,0.3-0.5,0.5-0.6c0.2-0.2,0.5-0.3,0.8-0.4
			s0.6-0.1,0.9-0.1c0.6,0,1,0.1,1.3,0.3c0.3,0.2,0.6,0.4,0.7,0.6c0.2,0.2,0.3,0.4,0.3,0.7c0,0.2,0.1,0.4,0.1,0.4H37.2z"/>
		<path fill="#634E42" d="M41,109.6v4.1c0,0.1,0,0.2,0.1,0.3c0,0.1,0.1,0.1,0.2,0.2c0.1,0,0.1,0.1,0.2,0.1c0.1,0,0.1,0,0.2,0H42v0.8
			c-0.2,0-0.4,0-0.5,0.1s-0.2,0-0.3,0c-0.3,0-0.5,0-0.6-0.1c-0.2-0.1-0.3-0.2-0.4-0.3s-0.2-0.3-0.2-0.4s-0.1-0.3-0.1-0.5v-4.2h-0.9
			v-0.9h0.9v-1.8H41v1.8h1v0.9H41z"/>
		<path fill="#634E42" d="M43,110.6c0-0.4,0.1-0.7,0.2-1c0.1-0.3,0.3-0.5,0.5-0.7s0.5-0.3,0.8-0.4s0.7-0.1,1.1-0.1
			c0.1,0,0.2,0,0.3,0c0.1,0,0.3,0,0.5,0.1c0.2,0,0.4,0.1,0.5,0.2s0.3,0.2,0.5,0.3c0.1,0.1,0.3,0.3,0.4,0.5c0.1,0.2,0.1,0.4,0.1,0.7
			v3.6c0,0.2,0.1,0.4,0.3,0.4c0,0,0.1,0,0.2,0c0.1,0,0.1,0,0.2,0v0.8c-0.1,0-0.2,0.1-0.3,0.1c-0.1,0-0.2,0-0.3,0
			c-0.2,0-0.4,0-0.6-0.1c-0.1-0.1-0.3-0.1-0.3-0.2c-0.1-0.1-0.1-0.2-0.2-0.3c0-0.1-0.1-0.2-0.1-0.4c-0.1,0.1-0.2,0.2-0.4,0.3
			c-0.1,0.1-0.3,0.2-0.5,0.3c-0.2,0.1-0.4,0.2-0.6,0.2c-0.2,0.1-0.5,0.1-0.8,0.1c-0.3,0-0.6,0-0.8-0.1c-0.2-0.1-0.5-0.2-0.6-0.4
			c-0.2-0.2-0.3-0.4-0.4-0.6c-0.1-0.2-0.1-0.5-0.1-0.7c0-0.1,0-0.3,0.1-0.5s0.1-0.4,0.2-0.6c0.1-0.2,0.3-0.4,0.6-0.5
			c0.3-0.2,0.6-0.3,1-0.3l1.7-0.2c0.1,0,0.1,0,0.2,0s0.1-0.1,0.2-0.1c0.1-0.1,0.1-0.1,0.1-0.2c0-0.1,0-0.2,0-0.4c0-0.7-0.5-1-1.5-1
			c-0.3,0-0.5,0-0.7,0.1c-0.2,0.1-0.3,0.2-0.4,0.3c-0.1,0.1-0.2,0.3-0.2,0.4c0,0.1-0.1,0.3-0.1,0.4H43z M46.9,111.8
			c0,0-0.1,0.1-0.2,0.1c-0.1,0-0.2,0.1-0.3,0.1c-0.1,0-0.3,0.1-0.5,0.1c-0.2,0-0.5,0.1-0.8,0.1c-0.1,0-0.3,0-0.4,0.1
			c-0.2,0-0.3,0.1-0.4,0.2s-0.3,0.2-0.3,0.3s-0.1,0.3-0.1,0.5c0,0.3,0.1,0.6,0.3,0.8c0.2,0.2,0.5,0.3,0.9,0.3c0.2,0,0.5,0,0.7-0.1
			c0.2-0.1,0.4-0.2,0.6-0.3s0.3-0.3,0.4-0.5c0.1-0.2,0.2-0.4,0.2-0.6V111.8z"/>
		<path fill="#634E42" d="M58.3,115h-1v-0.9h0c-0.1,0.2-0.2,0.4-0.4,0.5s-0.3,0.2-0.5,0.3s-0.3,0.1-0.5,0.2c-0.2,0-0.3,0-0.5,0
			c-0.5,0-1-0.1-1.3-0.3s-0.6-0.5-0.8-0.9s-0.4-0.7-0.5-1.1s-0.1-0.8-0.1-1.2c0-0.4,0.1-0.9,0.2-1.2c0.1-0.4,0.3-0.7,0.5-1
			c0.2-0.3,0.5-0.5,0.8-0.7c0.3-0.2,0.7-0.2,1.1-0.2c0.3,0,0.5,0,0.7,0.1c0.2,0.1,0.4,0.2,0.5,0.3c0.1,0.1,0.3,0.2,0.4,0.4
			c0.1,0.1,0.2,0.2,0.2,0.3h0v-3.2h1.1V115z M53.8,111.8c0,0.3,0,0.7,0.1,1c0.1,0.3,0.2,0.6,0.3,0.8c0.1,0.2,0.3,0.4,0.5,0.5
			c0.2,0.1,0.5,0.2,0.8,0.2c0.2,0,0.4,0,0.6-0.1c0.2-0.1,0.4-0.2,0.6-0.3c0.2-0.2,0.3-0.4,0.4-0.7c0.1-0.3,0.2-0.6,0.2-1
			c0-0.3,0-0.5,0-0.8c0-0.3-0.1-0.6-0.2-0.9c-0.1-0.3-0.3-0.5-0.5-0.7c-0.2-0.2-0.5-0.3-0.9-0.3c-0.4,0-0.7,0.1-1,0.3
			c-0.2,0.2-0.4,0.4-0.5,0.6c-0.1,0.2-0.2,0.5-0.2,0.8C53.8,111.4,53.8,111.6,53.8,111.8z"/>
		<path fill="#634E42" d="M65.1,113c0,0.1,0,0.2-0.1,0.3c0,0.1-0.1,0.3-0.2,0.5c-0.1,0.2-0.2,0.3-0.3,0.5c-0.1,0.2-0.3,0.3-0.5,0.4
			c-0.1,0-0.2,0.1-0.2,0.2c-0.1,0.1-0.2,0.1-0.3,0.1c-0.1,0-0.3,0.1-0.5,0.1c-0.2,0-0.4,0-0.7,0c-0.4,0-0.8-0.1-1.2-0.2
			c-0.3-0.2-0.6-0.4-0.9-0.7c-0.2-0.3-0.4-0.6-0.6-1c-0.1-0.4-0.2-0.8-0.2-1.3c0-0.5,0.1-0.9,0.2-1.4c0.1-0.4,0.3-0.8,0.5-1.1
			c0.2-0.3,0.6-0.6,0.9-0.7c0.4-0.2,0.8-0.3,1.4-0.3c0.5,0,0.9,0.1,1.2,0.3s0.6,0.4,0.8,0.7c0.2,0.3,0.4,0.7,0.5,1.2
			c0.1,0.5,0.2,1,0.2,1.5h-4.6c0,0.7,0.2,1.2,0.5,1.5c0.3,0.4,0.8,0.5,1.4,0.5c0.2,0,0.5,0,0.7-0.1s0.4-0.2,0.5-0.3
			c0.1-0.1,0.2-0.3,0.3-0.4s0.1-0.3,0.1-0.4H65.1z M64.1,111.3c0-0.2-0.1-0.5-0.1-0.7c-0.1-0.2-0.2-0.4-0.3-0.6
			c-0.1-0.2-0.3-0.3-0.5-0.4s-0.5-0.2-0.8-0.2c-0.2,0-0.5,0.1-0.7,0.2s-0.4,0.2-0.6,0.4c-0.2,0.2-0.3,0.4-0.4,0.6
			c-0.1,0.2-0.1,0.5-0.1,0.7H64.1z"/>
		<path fill="#634E42" d="M71.1,109.6v5.4h-1.1v-5.4h-0.9v-0.9h0.9v-1.1c0-0.5,0.1-0.8,0.4-1.1c0.3-0.2,0.7-0.3,1.2-0.3
			c0.1,0,0.2,0,0.2,0c0.1,0,0.2,0,0.2,0v1c-0.1,0-0.1,0-0.2,0c-0.1,0-0.2,0-0.2,0c-0.2,0-0.4,0.1-0.5,0.2c-0.1,0.1-0.1,0.3-0.1,0.6
			v0.8h1.1v0.9H71.1z"/>
		<path fill="#634E42" d="M73.2,107.5v-1.2h1.1v1.2H73.2z M74.3,115h-1.1v-6.3h1.1V115z"/>
		<path fill="#634E42" d="M81,115h-1.1v-3.9c0-0.5-0.1-1-0.3-1.2s-0.5-0.4-1.1-0.4c-0.2,0-0.3,0-0.5,0.1s-0.4,0.2-0.5,0.3
			c-0.2,0.2-0.3,0.4-0.4,0.6c-0.1,0.3-0.2,0.6-0.2,1v3.4h-1.1v-6.3h1v0.9h0c0.1-0.1,0.1-0.2,0.2-0.3s0.2-0.2,0.4-0.4
			c0.2-0.1,0.3-0.2,0.5-0.3s0.4-0.1,0.7-0.1c0.2,0,0.5,0,0.8,0.1c0.3,0.1,0.5,0.2,0.7,0.3c0.2,0.2,0.4,0.4,0.5,0.7s0.2,0.7,0.2,1.1
			V115z"/>
		<path fill="#634E42" d="M82.5,110.6c0-0.4,0.1-0.7,0.2-1c0.1-0.3,0.3-0.5,0.5-0.7s0.5-0.3,0.8-0.4c0.3-0.1,0.7-0.1,1.1-0.1
			c0.1,0,0.2,0,0.3,0c0.1,0,0.3,0,0.5,0.1c0.2,0,0.4,0.1,0.5,0.2c0.2,0.1,0.3,0.2,0.5,0.3c0.1,0.1,0.3,0.3,0.4,0.5
			c0.1,0.2,0.1,0.4,0.1,0.7v3.6c0,0.2,0.1,0.4,0.3,0.4c0,0,0.1,0,0.2,0s0.1,0,0.2,0v0.8c-0.1,0-0.2,0.1-0.3,0.1c-0.1,0-0.2,0-0.3,0
			c-0.2,0-0.4,0-0.6-0.1c-0.1-0.1-0.3-0.1-0.3-0.2c-0.1-0.1-0.1-0.2-0.2-0.3c0-0.1-0.1-0.2-0.1-0.4c-0.1,0.1-0.2,0.2-0.4,0.3
			c-0.1,0.1-0.3,0.2-0.5,0.3c-0.2,0.1-0.4,0.2-0.6,0.2c-0.2,0.1-0.5,0.1-0.8,0.1c-0.3,0-0.6,0-0.8-0.1c-0.2-0.1-0.5-0.2-0.6-0.4
			c-0.2-0.2-0.3-0.4-0.4-0.6c-0.1-0.2-0.1-0.5-0.1-0.7c0-0.1,0-0.3,0.1-0.5s0.1-0.4,0.2-0.6s0.3-0.4,0.6-0.5c0.3-0.2,0.6-0.3,1-0.3
			l1.7-0.2c0.1,0,0.1,0,0.2,0c0.1,0,0.1-0.1,0.2-0.1s0.1-0.1,0.1-0.2c0-0.1,0-0.2,0-0.4c0-0.7-0.5-1-1.5-1c-0.3,0-0.5,0-0.7,0.1
			c-0.2,0.1-0.3,0.2-0.4,0.3c-0.1,0.1-0.2,0.3-0.2,0.4c0,0.1-0.1,0.3-0.1,0.4H82.5z M86.4,111.8c0,0-0.1,0.1-0.2,0.1
			c-0.1,0-0.2,0.1-0.3,0.1c-0.1,0-0.3,0.1-0.5,0.1c-0.2,0-0.5,0.1-0.8,0.1c-0.1,0-0.3,0-0.4,0.1c-0.2,0-0.3,0.1-0.4,0.2
			c-0.1,0.1-0.3,0.2-0.3,0.3s-0.1,0.3-0.1,0.5c0,0.3,0.1,0.6,0.3,0.8c0.2,0.2,0.5,0.3,0.9,0.3c0.2,0,0.5,0,0.7-0.1
			c0.2-0.1,0.4-0.2,0.6-0.3c0.2-0.1,0.3-0.3,0.4-0.5c0.1-0.2,0.2-0.4,0.2-0.6V111.8z"/>
		<path fill="#634E42" d="M90.3,115h-1.1v-8.7h1.1V115z"/>
		<path fill="#634E42" d="M100.5,115h-1v-0.9h0c-0.1,0.2-0.2,0.4-0.4,0.5c-0.1,0.1-0.3,0.2-0.5,0.3s-0.3,0.1-0.5,0.2s-0.3,0-0.5,0
			c-0.5,0-1-0.1-1.3-0.3c-0.4-0.2-0.6-0.5-0.9-0.9c-0.2-0.3-0.4-0.7-0.5-1.1s-0.1-0.8-0.1-1.2c0-0.4,0.1-0.9,0.2-1.2
			c0.1-0.4,0.3-0.7,0.5-1c0.2-0.3,0.5-0.5,0.8-0.7c0.3-0.2,0.7-0.2,1.1-0.2c0.3,0,0.5,0,0.7,0.1c0.2,0.1,0.4,0.2,0.5,0.3
			c0.1,0.1,0.3,0.2,0.4,0.4s0.2,0.2,0.2,0.3h0v-3.2h1.1V115z M96,111.8c0,0.3,0,0.7,0.1,1c0.1,0.3,0.2,0.6,0.3,0.8s0.3,0.4,0.5,0.5
			s0.5,0.2,0.8,0.2c0.2,0,0.4,0,0.6-0.1c0.2-0.1,0.4-0.2,0.6-0.3c0.2-0.2,0.3-0.4,0.4-0.7c0.1-0.3,0.2-0.6,0.2-1c0-0.3,0-0.5,0-0.8
			c0-0.3-0.1-0.6-0.2-0.9c-0.1-0.3-0.3-0.5-0.5-0.7c-0.2-0.2-0.5-0.3-0.9-0.3c-0.4,0-0.7,0.1-1,0.3c-0.2,0.2-0.4,0.4-0.5,0.6
			c-0.1,0.2-0.2,0.5-0.2,0.8C96,111.4,96,111.6,96,111.8z"/>
		<path fill="#634E42" d="M107.3,113c0,0.1,0,0.2-0.1,0.3c0,0.1-0.1,0.3-0.2,0.5c-0.1,0.2-0.2,0.3-0.3,0.5c-0.1,0.2-0.3,0.3-0.5,0.4
			c-0.1,0-0.2,0.1-0.2,0.2c-0.1,0.1-0.2,0.1-0.3,0.1c-0.1,0-0.3,0.1-0.5,0.1c-0.2,0-0.4,0-0.7,0c-0.4,0-0.8-0.1-1.2-0.2
			c-0.3-0.2-0.6-0.4-0.9-0.7c-0.2-0.3-0.4-0.6-0.6-1c-0.1-0.4-0.2-0.8-0.2-1.3c0-0.5,0.1-0.9,0.2-1.4c0.1-0.4,0.3-0.8,0.5-1.1
			c0.2-0.3,0.6-0.6,0.9-0.7c0.4-0.2,0.8-0.3,1.4-0.3c0.5,0,0.9,0.1,1.2,0.3c0.3,0.2,0.6,0.4,0.8,0.7c0.2,0.3,0.4,0.7,0.5,1.2
			c0.1,0.5,0.2,1,0.2,1.5h-4.6c0,0.7,0.2,1.2,0.5,1.5c0.3,0.4,0.8,0.5,1.4,0.5c0.3,0,0.5,0,0.7-0.1c0.2-0.1,0.4-0.2,0.5-0.3
			c0.1-0.1,0.2-0.3,0.3-0.4c0.1-0.1,0.1-0.3,0.1-0.4H107.3z M106.3,111.3c0-0.2-0.1-0.5-0.1-0.7c-0.1-0.2-0.2-0.4-0.3-0.6
			c-0.1-0.2-0.3-0.3-0.5-0.4c-0.2-0.1-0.5-0.2-0.8-0.2c-0.2,0-0.5,0.1-0.7,0.2s-0.4,0.2-0.6,0.4c-0.2,0.2-0.3,0.4-0.4,0.6
			c-0.1,0.2-0.1,0.5-0.1,0.7H106.3z"/>
		<path fill="#634E42" d="M112,110.6c0-0.4,0.1-0.7,0.2-1c0.1-0.3,0.3-0.5,0.5-0.7c0.2-0.2,0.5-0.3,0.8-0.4s0.7-0.1,1.1-0.1
			c0.1,0,0.2,0,0.3,0c0.1,0,0.3,0,0.5,0.1c0.2,0,0.4,0.1,0.5,0.2s0.3,0.2,0.5,0.3c0.1,0.1,0.3,0.3,0.4,0.5c0.1,0.2,0.1,0.4,0.1,0.7
			v3.6c0,0.2,0.1,0.4,0.3,0.4c0,0,0.1,0,0.2,0s0.1,0,0.2,0v0.8c-0.1,0-0.2,0.1-0.3,0.1c-0.1,0-0.2,0-0.3,0c-0.2,0-0.4,0-0.6-0.1
			c-0.1-0.1-0.3-0.1-0.3-0.2c-0.1-0.1-0.1-0.2-0.2-0.3c0-0.1-0.1-0.2-0.1-0.4c-0.1,0.1-0.2,0.2-0.4,0.3c-0.1,0.1-0.3,0.2-0.5,0.3
			c-0.2,0.1-0.4,0.2-0.6,0.2c-0.2,0.1-0.5,0.1-0.8,0.1c-0.3,0-0.6,0-0.8-0.1c-0.2-0.1-0.4-0.2-0.6-0.4c-0.2-0.2-0.3-0.4-0.4-0.6
			c-0.1-0.2-0.1-0.5-0.1-0.7c0-0.1,0-0.3,0.1-0.5c0-0.2,0.1-0.4,0.2-0.6c0.1-0.2,0.3-0.4,0.6-0.5c0.3-0.2,0.6-0.3,1-0.3l1.7-0.2
			c0.1,0,0.1,0,0.2,0s0.1-0.1,0.2-0.1s0.1-0.1,0.1-0.2c0-0.1,0-0.2,0-0.4c0-0.7-0.5-1-1.5-1c-0.3,0-0.5,0-0.7,0.1
			c-0.2,0.1-0.3,0.2-0.4,0.3s-0.2,0.3-0.2,0.4c0,0.1-0.1,0.3-0.1,0.4H112z M115.9,111.8c0,0-0.1,0.1-0.2,0.1c-0.1,0-0.2,0.1-0.3,0.1
			c-0.1,0-0.3,0.1-0.5,0.1c-0.2,0-0.5,0.1-0.8,0.1c-0.1,0-0.3,0-0.4,0.1c-0.2,0-0.3,0.1-0.4,0.2c-0.1,0.1-0.3,0.2-0.3,0.3
			c-0.1,0.1-0.1,0.3-0.1,0.5c0,0.3,0.1,0.6,0.3,0.8c0.2,0.2,0.5,0.3,0.9,0.3c0.2,0,0.5,0,0.7-0.1c0.2-0.1,0.4-0.2,0.6-0.3
			s0.3-0.3,0.4-0.5c0.1-0.2,0.2-0.4,0.2-0.6V111.8z"/>
		<path fill="#634E42" d="M123.9,115h-1.1v-3.9c0-0.5-0.1-1-0.3-1.2c-0.2-0.3-0.5-0.4-1.1-0.4c-0.2,0-0.3,0-0.5,0.1
			s-0.4,0.2-0.5,0.3c-0.2,0.2-0.3,0.4-0.4,0.6c-0.1,0.3-0.2,0.6-0.2,1v3.4h-1.1v-6.3h1v0.9h0c0.1-0.1,0.1-0.2,0.2-0.3
			c0.1-0.1,0.2-0.2,0.4-0.4c0.2-0.1,0.3-0.2,0.5-0.3s0.4-0.1,0.7-0.1c0.2,0,0.5,0,0.8,0.1c0.3,0.1,0.5,0.2,0.7,0.3
			c0.2,0.2,0.4,0.4,0.5,0.7s0.2,0.7,0.2,1.1V115z"/>
		<path fill="#634E42" d="M125.1,111.8c0-0.4,0.1-0.8,0.2-1.2c0.1-0.4,0.3-0.8,0.5-1.1c0.2-0.3,0.5-0.6,0.9-0.8
			c0.4-0.2,0.8-0.3,1.3-0.3c0.5,0,0.9,0.1,1.3,0.3c0.4,0.2,0.7,0.4,0.9,0.8s0.4,0.7,0.5,1.1c0.1,0.4,0.2,0.8,0.2,1.2
			c0,0.4-0.1,0.8-0.2,1.2c-0.1,0.4-0.3,0.8-0.5,1.1c-0.2,0.3-0.5,0.6-0.9,0.8c-0.4,0.2-0.8,0.3-1.3,0.3c-0.5,0-0.9-0.1-1.3-0.3
			c-0.4-0.2-0.7-0.4-0.9-0.8c-0.2-0.3-0.4-0.7-0.5-1.1C125.1,112.7,125.1,112.2,125.1,111.8z M126.2,111.8c0,0.2,0,0.5,0.1,0.7
			c0,0.3,0.1,0.5,0.3,0.8c0.1,0.2,0.3,0.5,0.6,0.6c0.2,0.2,0.6,0.3,0.9,0.3c0.4,0,0.7-0.1,0.9-0.3c0.2-0.2,0.4-0.4,0.6-0.6
			c0.1-0.3,0.2-0.5,0.3-0.8s0.1-0.5,0.1-0.7s0-0.5-0.1-0.7s-0.1-0.5-0.3-0.8c-0.1-0.3-0.3-0.5-0.6-0.6c-0.2-0.2-0.6-0.3-0.9-0.3
			c-0.4,0-0.7,0.1-0.9,0.3c-0.2,0.2-0.4,0.4-0.6,0.6c-0.1,0.2-0.2,0.5-0.3,0.8C126.2,111.4,126.2,111.6,126.2,111.8z"/>
	</g>
	<g>
		<path fill="#634E42" d="M26.4,130.7h-2.5v-12.1h2.5V130.7z"/>
		<path fill="#634E42" d="M36.2,118.6h2.4v12.1H36l-5-8.7h0v8.7h-2.4v-12.1h2.7l4.8,8.5h0V118.6z"/>
		<path fill="#634E42" d="M46.1,130.7h-2.5v-10h-3.7v-2.1h9.9v2.1h-3.7V130.7z"/>
		<path fill="#634E42" d="M60.2,120.7h-6.4v2.6h5.9v2.1h-5.9v3.1h6.7v2.1h-9.2v-12.1h8.9V120.7z"/>
		<path fill="#634E42" d="M62.6,118.6h6.1c0.8,0,1.5,0.1,2,0.4c0.5,0.3,0.9,0.6,1.2,0.9c0.3,0.4,0.5,0.7,0.6,1.1s0.1,0.7,0.1,1
			c0,0.7-0.2,1.3-0.5,1.8c-0.3,0.5-0.8,0.9-1.4,1.1c0.2,0.1,0.5,0.2,0.7,0.3c0.2,0.1,0.4,0.3,0.5,0.5c0.1,0.2,0.2,0.5,0.3,0.9
			c0.1,0.3,0.1,0.8,0.1,1.4c0,0.4,0,0.8,0,1.1s0,0.5,0.1,0.7c0,0.2,0.1,0.3,0.2,0.4s0.2,0.2,0.3,0.2v0.3h-2.8
			c-0.1-0.3-0.2-0.6-0.2-1c0-0.4-0.1-0.8-0.1-1.5c0-0.4,0-0.8,0-1.1c0-0.3-0.1-0.5-0.2-0.7c-0.1-0.2-0.3-0.3-0.6-0.4
			c-0.3-0.1-0.6-0.1-1.1-0.1h-2.6v4.8h-2.5V118.6z M68.1,123.9c0.7,0,1.2-0.1,1.5-0.4c0.3-0.2,0.5-0.7,0.5-1.3c0-0.2,0-0.3-0.1-0.5
			c0-0.2-0.1-0.4-0.3-0.5c-0.1-0.2-0.3-0.3-0.5-0.4c-0.2-0.1-0.5-0.2-0.9-0.2h-3.2v3.2H68.1z"/>
		<path fill="#634E42" d="M77.3,128.5h6v2.2h-8.6v-12.1h2.5V128.5z"/>
		<path fill="#634E42" d="M86.8,130.7h-2.7l4.3-12.1h2.9l4.3,12.1H93l-0.8-2.5h-4.5L86.8,130.7z M88.4,126.1h3.1l-1.5-4.8h0
			L88.4,126.1z"/>
		<path fill="#634E42" d="M100.1,130.7h-2.5v-12.1h2.5v4.9l4.6-4.9h3.3l-5,5l5.2,7.2H105l-3.8-5.3l-1.2,1.2V130.7z"/>
		<path fill="#634E42" d="M118.5,120.7H112v2.6h5.9v2.1H112v3.1h6.7v2.1h-9.2v-12.1h8.9V120.7z"/>
		<path fill="#634E42" d="M128.2,118.6h2.4v12.1H128l-5-8.7h0v8.7h-2.4v-12.1h2.7l4.8,8.5h0V118.6z"/>
	</g>
	<g>
		<path fill="#634E42" d="M31.3,138.9h1.6l-5.1,8.6h-1.5l-1.3-8.6h1.7l0.8,7h0L31.3,138.9z"/>
		<path fill="#634E42" d="M33.1,141.5c0.1-0.5,0.3-1,0.6-1.3s0.5-0.7,0.9-0.9c0.4-0.2,0.8-0.4,1.2-0.5s0.9-0.2,1.5-0.2
			c0.1,0,0.3,0,0.5,0c0.2,0,0.4,0.1,0.6,0.1s0.4,0.1,0.7,0.2c0.2,0.1,0.4,0.2,0.6,0.4c0.2,0.2,0.3,0.4,0.3,0.7
			c0.1,0.3,0.1,0.6,0,0.9l-1.1,4.9c-0.1,0.3,0.1,0.5,0.4,0.5c0.1,0,0.1,0,0.2,0c0.1,0,0.2,0,0.3,0l-0.2,1.1c-0.1,0-0.3,0.1-0.4,0.1
			s-0.3,0.1-0.4,0.1c-0.3,0-0.6,0-0.7-0.1c-0.2-0.1-0.3-0.2-0.4-0.3c-0.1-0.1-0.1-0.3-0.1-0.4c0-0.2,0-0.3,0-0.5
			c-0.2,0.2-0.4,0.3-0.6,0.5c-0.2,0.2-0.5,0.3-0.7,0.5c-0.3,0.1-0.6,0.2-0.9,0.3c-0.3,0.1-0.7,0.1-1.1,0.1c-0.4,0-0.7-0.1-1.1-0.2
			c-0.3-0.1-0.6-0.3-0.7-0.5c-0.2-0.2-0.3-0.5-0.4-0.8c-0.1-0.3-0.1-0.6,0-1c0-0.2,0.1-0.4,0.2-0.7s0.3-0.6,0.5-0.8
			c0.2-0.3,0.6-0.5,0.9-0.7s0.9-0.4,1.5-0.4l2.4-0.3c0.1,0,0.2,0,0.3-0.1c0.1,0,0.2-0.1,0.3-0.1c0.1-0.1,0.2-0.2,0.2-0.3
			c0.1-0.1,0.1-0.3,0.2-0.5c0.2-0.9-0.4-1.4-1.7-1.4c-0.4,0-0.8,0.1-1,0.2c-0.3,0.1-0.5,0.3-0.7,0.4c-0.2,0.2-0.3,0.4-0.4,0.5
			c-0.1,0.2-0.2,0.4-0.2,0.5H33.1z M38,143.1c-0.1,0-0.1,0.1-0.2,0.1c-0.1,0-0.2,0.1-0.4,0.1s-0.4,0.1-0.7,0.1
			c-0.3,0-0.7,0.1-1.1,0.2c-0.2,0-0.4,0.1-0.6,0.1c-0.2,0-0.4,0.1-0.6,0.2c-0.2,0.1-0.4,0.2-0.6,0.4s-0.3,0.4-0.3,0.7
			c-0.1,0.5-0.1,0.8,0.1,1.1c0.2,0.3,0.6,0.4,1.1,0.4c0.3,0,0.7-0.1,1-0.2c0.3-0.1,0.7-0.2,0.9-0.4c0.3-0.2,0.5-0.4,0.7-0.6
			c0.2-0.2,0.3-0.5,0.4-0.8L38,143.1z"/>
		<path fill="#634E42" d="M42.8,138.9h1.4l-0.3,1.2h0c0.1-0.1,0.2-0.3,0.4-0.4c0.2-0.2,0.4-0.3,0.6-0.5c0.2-0.2,0.5-0.3,0.8-0.4
			c0.3-0.1,0.7-0.2,1-0.2c0.4,0,0.7,0.1,0.9,0.2c0.2,0.1,0.4,0.2,0.6,0.4c0.1,0.1,0.2,0.3,0.3,0.5s0.1,0.3,0.2,0.4
			c0.2-0.2,0.4-0.4,0.7-0.6c0.2-0.2,0.4-0.3,0.6-0.4s0.5-0.2,0.7-0.3c0.3-0.1,0.6-0.1,0.9-0.1c0.2,0,0.5,0,0.8,0.1
			c0.3,0.1,0.6,0.2,0.8,0.4c0.2,0.2,0.4,0.5,0.5,0.9c0.1,0.4,0.1,0.9,0,1.5l-1.3,5.9h-1.4l1.2-5.6c0.1-0.3,0.1-0.6,0.1-0.8
			c0-0.3,0-0.5-0.1-0.6c-0.1-0.2-0.2-0.3-0.4-0.4c-0.2-0.1-0.4-0.1-0.7-0.1c-0.3,0-0.6,0.1-0.9,0.2c-0.3,0.1-0.5,0.3-0.7,0.5
			c-0.2,0.2-0.4,0.5-0.6,0.7c-0.2,0.3-0.3,0.6-0.3,0.8l-1.1,5.2H46l1.3-5.9c0-0.2,0-0.4,0-0.5c0-0.2,0-0.4-0.1-0.5
			c-0.1-0.2-0.2-0.3-0.3-0.4c-0.2-0.1-0.4-0.1-0.6-0.1c-0.2,0-0.5,0-0.7,0.1c-0.3,0.1-0.6,0.2-0.8,0.4c-0.3,0.2-0.5,0.5-0.8,0.9
			c-0.2,0.4-0.4,0.8-0.5,1.4l-1,4.7H41L42.8,138.9z"/>
		<path fill="#634E42" d="M55.1,143.2c0.1-0.6,0.3-1.1,0.6-1.7s0.6-1,1-1.5s0.9-0.8,1.5-1s1.2-0.4,1.9-0.4c0.7,0,1.3,0.1,1.7,0.4
			c0.4,0.3,0.8,0.6,1,1c0.2,0.4,0.4,0.9,0.4,1.5c0,0.5,0,1.1-0.1,1.7c-0.1,0.6-0.3,1.1-0.6,1.7c-0.3,0.5-0.6,1-1,1.5
			c-0.4,0.4-0.9,0.8-1.5,1c-0.6,0.3-1.2,0.4-1.9,0.4c-0.7,0-1.3-0.1-1.7-0.4c-0.4-0.3-0.8-0.6-1-1c-0.2-0.4-0.4-0.9-0.4-1.5
			C54.9,144.3,55,143.7,55.1,143.2z M56.6,143.2c-0.1,0.3-0.1,0.6-0.1,1c0,0.4,0,0.7,0.1,1.1s0.3,0.6,0.6,0.9
			c0.3,0.2,0.7,0.4,1.2,0.4c0.5,0,1-0.1,1.3-0.4c0.4-0.2,0.7-0.5,0.9-0.9c0.3-0.3,0.5-0.7,0.6-1.1c0.1-0.4,0.3-0.7,0.3-1
			c0.1-0.3,0.1-0.6,0.1-1c0-0.4,0-0.7-0.1-1.1c-0.1-0.3-0.3-0.6-0.6-0.9c-0.3-0.2-0.7-0.4-1.2-0.4s-1,0.1-1.3,0.4
			c-0.4,0.2-0.7,0.5-0.9,0.9s-0.5,0.7-0.6,1.1C56.8,142.6,56.7,142.9,56.6,143.2z"/>
		<path fill="#634E42" d="M70,141.3c0-0.1,0-0.3,0-0.5c0-0.2-0.1-0.3-0.2-0.5c-0.1-0.1-0.3-0.3-0.5-0.4c-0.2-0.1-0.6-0.1-1.1-0.1
			c-0.1,0-0.3,0-0.5,0s-0.4,0.1-0.6,0.2s-0.4,0.2-0.6,0.4s-0.3,0.4-0.3,0.6c0,0.2,0,0.3,0,0.4s0.1,0.2,0.2,0.3
			c0.1,0.1,0.3,0.2,0.4,0.2c0.2,0.1,0.4,0.1,0.7,0.2l1.4,0.4c0.8,0.2,1.4,0.5,1.7,0.9c0.3,0.4,0.4,0.8,0.2,1.4
			c-0.1,0.4-0.3,0.8-0.5,1.2c-0.2,0.4-0.5,0.6-0.9,0.9c-0.4,0.2-0.8,0.4-1.2,0.6c-0.4,0.1-0.9,0.2-1.4,0.2c-0.9,0-1.5-0.1-1.9-0.3
			c-0.4-0.2-0.7-0.5-0.9-0.8c-0.2-0.3-0.3-0.6-0.3-1c0-0.3,0-0.7,0.1-0.9h1.4c0,0.2,0,0.3,0,0.6c0,0.2,0.1,0.4,0.2,0.6
			c0.1,0.2,0.3,0.3,0.6,0.4c0.3,0.1,0.7,0.2,1.2,0.2c0.3,0,0.5,0,0.8-0.1s0.5-0.1,0.7-0.2s0.4-0.3,0.5-0.4c0.1-0.2,0.2-0.4,0.3-0.6
			c0.1-0.3,0-0.6-0.2-0.8c-0.2-0.2-0.6-0.3-1.2-0.5l-1.6-0.4c-0.6-0.2-1-0.4-1.3-0.7c-0.3-0.3-0.4-0.8-0.3-1.4
			c0.1-0.5,0.3-0.9,0.5-1.2c0.3-0.3,0.6-0.6,0.9-0.9s0.7-0.4,1.1-0.5c0.4-0.1,0.8-0.2,1.3-0.2c0.8,0,1.3,0.1,1.7,0.4
			c0.4,0.2,0.7,0.5,0.8,0.8s0.2,0.6,0.2,0.9c0,0.3,0,0.5,0,0.6H70z"/>
		<path fill="#634E42" d="M83.7,147.5h-1.4l0.2-1.2h0c-0.2,0.3-0.4,0.5-0.7,0.7c-0.2,0.2-0.5,0.3-0.7,0.4c-0.2,0.1-0.5,0.2-0.7,0.2
			s-0.4,0.1-0.7,0.1c-0.7,0-1.3-0.2-1.7-0.5s-0.7-0.7-0.9-1.2c-0.2-0.5-0.3-1-0.3-1.5c0-0.6,0.1-1.1,0.2-1.6
			c0.1-0.6,0.3-1.2,0.6-1.7c0.3-0.5,0.6-1,1-1.4c0.4-0.4,0.8-0.7,1.3-0.9c0.5-0.2,1-0.3,1.6-0.3c0.4,0,0.7,0.1,1,0.2
			s0.5,0.2,0.6,0.4c0.2,0.2,0.3,0.3,0.4,0.5c0.1,0.2,0.2,0.3,0.2,0.4h0l1-4.4h1.4L83.7,147.5z M78.5,143.2c-0.1,0.5-0.1,0.9-0.1,1.3
			c0,0.4,0.1,0.8,0.2,1.1c0.1,0.3,0.3,0.5,0.6,0.7c0.3,0.2,0.6,0.3,1,0.3c0.2,0,0.5,0,0.8-0.1c0.3-0.1,0.6-0.2,0.9-0.5
			c0.3-0.2,0.5-0.5,0.8-0.9c0.2-0.4,0.4-0.8,0.5-1.4c0.1-0.3,0.1-0.7,0.2-1.2c0-0.4,0-0.8,0-1.2c-0.1-0.4-0.2-0.7-0.5-0.9
			s-0.6-0.4-1.2-0.4c-0.6,0-1,0.1-1.4,0.3c-0.4,0.2-0.7,0.5-0.9,0.8s-0.4,0.7-0.5,1.1C78.7,142.6,78.6,142.9,78.5,143.2z"/>
		<path fill="#634E42" d="M93.6,144.8c0,0.1-0.1,0.2-0.2,0.4s-0.2,0.4-0.4,0.6s-0.4,0.5-0.6,0.7c-0.2,0.2-0.5,0.4-0.8,0.6
			c-0.2,0.1-0.5,0.3-0.9,0.4c-0.4,0.1-0.9,0.2-1.6,0.2c-0.6,0-1.1-0.1-1.6-0.3c-0.4-0.2-0.8-0.5-1-0.9c-0.2-0.4-0.4-0.8-0.5-1.4
			c-0.1-0.5,0-1.1,0.1-1.7c0.1-0.7,0.4-1.3,0.6-1.9c0.3-0.6,0.6-1.1,1.1-1.5c0.4-0.4,0.9-0.8,1.5-1c0.6-0.2,1.2-0.4,1.9-0.4
			c0.6,0,1.1,0.1,1.6,0.4s0.7,0.6,0.9,1c0.2,0.4,0.3,1,0.4,1.6c0,0.6,0,1.3-0.2,2.1h-6.3c-0.2,0.9-0.1,1.6,0.2,2.1
			c0.3,0.5,0.9,0.7,1.7,0.7c0.3,0,0.7-0.1,1-0.2s0.6-0.3,0.8-0.4s0.4-0.4,0.6-0.6c0.1-0.2,0.2-0.4,0.3-0.5H93.6z M92.7,142.5
			c0.1-0.3,0.1-0.7,0-1s-0.1-0.6-0.2-0.8c-0.1-0.2-0.3-0.4-0.6-0.6c-0.3-0.1-0.6-0.2-1.1-0.2c-0.3,0-0.7,0.1-1,0.2
			c-0.3,0.1-0.6,0.3-0.9,0.6c-0.3,0.2-0.5,0.5-0.7,0.8c-0.2,0.3-0.3,0.6-0.4,1H92.7z"/>
		<path fill="#634E42" d="M102.8,140.1l-1.2,5.6c0,0.2,0,0.3,0,0.4c0,0.1,0.1,0.2,0.2,0.2c0.1,0,0.2,0.1,0.3,0.1c0.1,0,0.2,0,0.3,0
			h0.5l-0.2,1.1c-0.3,0-0.5,0-0.7,0.1c-0.2,0-0.3,0-0.4,0c-0.4,0-0.6,0-0.8-0.1c-0.2-0.1-0.4-0.2-0.5-0.4s-0.1-0.4-0.1-0.6
			c0-0.2,0-0.5,0.1-0.7l1.2-5.7h-1.2l0.2-1.2h1.2l0.5-2.4h1.4l-0.5,2.4h1.4l-0.2,1.2H102.8z"/>
		<path fill="#634E42" d="M105.7,147.5h-1.4l1.8-8.6h1.4l-0.3,1.4h0c0.4-0.5,0.8-0.9,1.3-1.2c0.4-0.3,0.9-0.5,1.5-0.5
			c0.1,0,0.2,0,0.2,0s0.1,0,0.2,0l-0.3,1.5h-0.5c-0.3,0-0.7,0.1-1,0.2c-0.3,0.1-0.6,0.3-0.8,0.5c-0.2,0.2-0.4,0.5-0.6,0.7
			s-0.3,0.6-0.3,0.9L105.7,147.5z"/>
		<path fill="#634E42" d="M117.4,144.8c0,0.1-0.1,0.2-0.2,0.4c-0.1,0.2-0.2,0.4-0.4,0.6s-0.4,0.5-0.6,0.7c-0.2,0.2-0.5,0.4-0.8,0.6
			c-0.2,0.1-0.5,0.3-0.9,0.4c-0.4,0.1-0.9,0.2-1.6,0.2c-0.6,0-1.1-0.1-1.6-0.3c-0.4-0.2-0.8-0.5-1-0.9s-0.4-0.8-0.5-1.4
			c-0.1-0.5,0-1.1,0.1-1.7c0.1-0.7,0.4-1.3,0.6-1.9c0.3-0.6,0.6-1.1,1.1-1.5c0.4-0.4,0.9-0.8,1.5-1s1.2-0.4,1.9-0.4
			c0.6,0,1.1,0.1,1.6,0.4c0.4,0.2,0.7,0.6,0.9,1c0.2,0.4,0.3,1,0.4,1.6c0,0.6,0,1.3-0.2,2.1h-6.3c-0.2,0.9-0.1,1.6,0.2,2.1
			c0.3,0.5,0.9,0.7,1.7,0.7c0.3,0,0.7-0.1,1-0.2s0.6-0.3,0.8-0.4c0.2-0.2,0.4-0.4,0.6-0.6s0.2-0.4,0.3-0.5H117.4z M116.5,142.5
			c0.1-0.3,0.1-0.7,0-1s-0.1-0.6-0.2-0.8c-0.1-0.2-0.3-0.4-0.6-0.6s-0.6-0.2-1.1-0.2c-0.3,0-0.7,0.1-1,0.2s-0.6,0.3-0.9,0.6
			c-0.3,0.2-0.5,0.5-0.7,0.8s-0.3,0.6-0.4,1H116.5z"/>
		<path fill="#634E42" d="M120.4,138.9h1.4l-0.3,1.2h0c0.1-0.1,0.2-0.3,0.4-0.4s0.4-0.3,0.6-0.5c0.2-0.2,0.5-0.3,0.8-0.4
			c0.3-0.1,0.7-0.2,1-0.2c0.4,0,0.7,0.1,0.9,0.2c0.2,0.1,0.4,0.2,0.6,0.4s0.2,0.3,0.3,0.5c0.1,0.2,0.1,0.3,0.2,0.4
			c0.2-0.2,0.4-0.4,0.7-0.6c0.2-0.2,0.4-0.3,0.6-0.4c0.2-0.1,0.5-0.2,0.7-0.3c0.3-0.1,0.6-0.1,0.9-0.1c0.2,0,0.5,0,0.8,0.1
			c0.3,0.1,0.6,0.2,0.8,0.4c0.2,0.2,0.4,0.5,0.5,0.9c0.1,0.4,0.1,0.9,0,1.5l-1.3,5.9h-1.4l1.2-5.6c0.1-0.3,0.1-0.6,0.1-0.8
			c0-0.3,0-0.5-0.1-0.6s-0.2-0.3-0.4-0.4c-0.2-0.1-0.4-0.1-0.7-0.1c-0.3,0-0.6,0.1-0.9,0.2c-0.3,0.1-0.5,0.3-0.7,0.5
			c-0.2,0.2-0.4,0.5-0.6,0.7c-0.2,0.3-0.3,0.6-0.3,0.8l-1.1,5.2h-1.4l1.3-5.9c0-0.2,0-0.4,0-0.5c0-0.2,0-0.4-0.1-0.5
			c-0.1-0.2-0.2-0.3-0.3-0.4c-0.2-0.1-0.4-0.1-0.6-0.1c-0.2,0-0.5,0-0.7,0.1c-0.3,0.1-0.6,0.2-0.8,0.4c-0.3,0.2-0.5,0.5-0.8,0.9
			c-0.2,0.4-0.4,0.8-0.5,1.4l-1,4.7h-1.4L120.4,138.9z"/>
	</g>
	<path fill-rule="evenodd" clip-rule="evenodd" fill="#EBDAC5" d="M151.1,5.7c-0.2,0.7-0.5,1.8-0.8,3c-0.8,2.6-0.4,3.7,1.7,5.4
		c3.4,2.7,3.4,4.9-0.2,7.4c-2.4,1.6-2.6,3.9-0.6,6c0.5,0.5,1.1,1,1.7,1.5c2.2,1.8,2.3,3.9,0.2,5.8c-0.4,0.4-1,0.7-1.5,1.1
		c-2.1,1.6-2.4,3.8-0.7,5.7c0.5,0.6,1.1,1,1.7,1.5c2.2,1.9,2.2,4.1,0.1,6.1c-4.2,4-4.2,4.7,0.1,8.6c2.2,2.1,1.8,4.4-1.1,6.5
		c-2.7,1.9-3,4.2-0.7,6.6c0.4,0.4,0.9,0.8,1.4,1.2c2.1,1.7,2.1,4.3,0,6.1c-0.3,0.2-0.6,0.4-0.8,0.6c-2.7,1.9-2.8,4.3-0.4,6.5
		c0.4,0.3,0.7,0.6,1.1,0.9c2.3,2,2.2,4.4-0.1,6.3c-3.6,3-3.5,4.9,0.1,7.8c2.5,2,2.4,4.4-0.1,6.4c-0.5,0.4-1.1,0.8-1.6,1.2
		c-1.8,1.4-2.1,3.4-0.7,5.3c0.6,0.8,1.4,1.4,2.1,2.1c1.9,2,1.8,4.2-0.4,5.9c-0.3,0.2-0.6,0.4-0.8,0.6c-2.8,1.9-2.8,4.7,0,6.8
		c3.4,2.6,3.6,4.6,0.1,7c-2.9,2-1.9,5.4,0.4,7.6c0.8,0.8,1.6,1.9,1.8,2.9c0.4,1.8-0.6,3-2,4.1c-3.2,2.4-3.3,4.8,0.1,7
		c3.3,2.2,2.8,5.8,0.6,8.6c-0.3,0.4-1.6,0.5-2.3,0.2c-4.5-1.9-5.2-1.7-7.6,2.4c-1.3,2.3-2.8,2.3-4.3,0.2c-0.1-0.2-0.2-0.3-0.3-0.5
		c-2.8-4.6-4.4-4.6-7.4,0c-1.4,2.1-2.8,2.2-4.4,0.1c-0.6-0.8-0.9-1.7-1.5-2.4c-1.2-1.7-2.8-1.9-4.3-0.4c-0.8,0.8-1.4,1.8-2,2.8
		c-1.4,2.2-3.1,2.1-4.4-0.2c-0.4-0.6-0.6-1.3-1-2c-1.2-2-3-2.3-4.7-0.6c-0.7,0.7-1,1.8-1.7,2.5c-0.7,0.7-1.6,1.7-2.5,1.7
		c-0.8,0-1.6-1.1-2.3-1.9c-0.4-0.5-0.6-1.2-0.9-1.8c-1.5-2.3-3.8-2.3-5.3,0c-0.4,0.6-0.6,1.2-1,1.8c-1.6,2.3-3.3,2.2-4.5-0.2
		c-0.3-0.5-0.5-1.1-0.8-1.6c-1.6-2.4-4.1-2.5-5.8-0.1c-0.5,0.7-0.7,1.6-1.3,2.3c-0.5,0.6-1.4,1.4-2.1,1.3c-0.8-0.1-1.4-1-2.1-1.6
		c-0.3-0.3-0.3-0.7-0.5-1.1c-1.2-2.9-3.8-3.3-5.8-0.9c-0.6,0.7-1,1.6-1.5,2.4c-1.1,1.7-2.3,1.7-3.5,0.2c-0.5-0.7-0.9-1.5-1.4-2.2
		c-1.5-2.4-4.1-2.4-5.7-0.2c-0.5,0.7-0.9,1.5-1.4,2.2c-1.2,1.8-2.8,1.7-3.9-0.2c-0.3-0.5-0.5-1.1-0.8-1.7c-1.4-2.6-4.3-2.8-6-0.4
		c-0.5,0.7-0.8,1.5-1.3,2.3c-1.2,1.8-2.9,1.7-4-0.1c-0.4-0.6-0.6-1.2-0.9-1.8c-1.4-2.4-4-2.7-5.8-0.5c-0.6,0.7-0.9,1.5-1.5,2.1
		c-0.6,0.6-1.5,1.5-2,1.3c-0.8-0.2-1.5-1.1-2.1-1.9c-0.7-0.9-1.1-2.2-2-2.8c-1.7-1.1-3.3-0.5-4.8,1.6c-3.1,4.2-3.1,4.2-5.8-0.3
		c-1.1-1.8-3.3-2.4-5-1.1c-0.9,0.7-1.5,1.7-2.2,2.6c-0.7,0.9-1.1,2.1-2.6,1.7c-1.9-0.6-3.3-2.1-3.1-3.8c0.1-1.1,0.5-2.2,0.8-3.3
		c0.8-2.8,0.4-4-1.9-5.8c-3-2.4-3.1-4.7,0-7c3-2.2,3.1-4.7,0.2-7.1c-0.4-0.3-0.9-0.6-1.3-1c-1.5-1.3-1.7-3.1-0.4-4.6
		c0.5-0.6,1.2-1.1,1.8-1.6c2.5-2,2.6-4.3,0.3-6.4c-4-3.5-3.9-4.6,0.3-8c1.7-1.4,2-3.4,0.7-5.2c-0.5-0.6-1.1-1.2-1.7-1.7
		c-2.4-2-2.5-4.5-0.1-6.5c0.3-0.2,0.5-0.4,0.8-0.6c2.8-2.2,2.8-4.6,0.1-6.8c-3.6-2.9-3.6-4.9,0.1-7.5c2.3-1.6,2.6-3.9,0.8-6.1
		c-0.4-0.5-1-0.9-1.5-1.4c-2.4-2-2.4-4.6,0.1-6.4C6,75.3,6,73.1,2.6,70.3c-2.7-2.2-2.7-4.5,0.1-6.6c0.4-0.3,0.9-0.6,1.3-1
		c2.4-2.1,2.4-4.4,0-6.5c-0.4-0.4-0.9-0.7-1.2-1c-1.9-1.8-1.8-4.1,0.1-5.8c0.3-0.3,0.7-0.5,1-0.7c2.9-2.2,2.8-5-0.2-7.1
		c-3.1-2.2-3.1-4.1-0.2-6.6c2.6-2.2,2.7-4.7,0.5-7.2c-0.3-0.3-0.7-0.7-1-1c-2.1-2.1-1.9-4.6,0.5-6.4c3.6-2.8,3.6-4.7-0.1-7.6
		c-2.7-2.1-2.8-6.4-0.1-8.6C3.5,3.9,4.3,3.9,4.9,4c0.7,0.2,1.3,0.6,2,0.9c2.4,0.9,3.8,0.3,5.1-1.8c0.3-0.6,0.6-1.2,1-1.8
		c1.1-1.7,2.5-1.8,3.8-0.2c0.6,0.7,1,1.6,1.5,2.4C19.9,6,22,6.1,23.8,3.7c0.4-0.5,0.7-1.2,1.1-1.7c1.3-2.1,3-2.1,4.5-0.1
		c0.4,0.6,0.7,1.3,1.1,1.9c1.5,2.4,3.8,2.5,5.3,0.2c0.5-0.7,0.8-1.6,1.3-2.2c0.6-0.6,1.5-1.5,2.1-1.5c0.8,0.1,1.6,1,2.2,1.7
		c0.4,0.4,0.4,1.1,0.7,1.7c1.1,2.3,3.5,2.7,5.2,0.7c0.6-0.7,1-1.6,1.5-2.4c1.5-2.3,3.2-2.3,4.6,0.1c0.4,0.7,0.7,1.4,1.2,2.1
		c1.4,2,3.8,2,5.2-0.1c0.4-0.6,0.7-1.3,1.1-1.9c1.4-2.1,3.1-2,4.4,0.2c0.4,0.7,0.7,1.5,1.2,2.1c1.6,2.2,3.9,2.2,5.5-0.1
		c0.5-0.7,0.7-1.7,1.3-2.3c0.6-0.6,1.5-1.4,2.2-1.3c0.7,0,1.4,1,2,1.6c0.3,0.3,0.4,0.9,0.6,1.3c1.3,2.6,4.1,2.9,5.8,0.6
		c0.5-0.6,0.8-1.4,1.2-2.1c1.2-1.9,2.9-1.9,4.1,0c0.4,0.6,0.7,1.3,1,2c1.3,2.2,3.7,2.4,5.3,0.4c0.7-0.8,1.1-1.8,1.7-2.7
		c1.2-1.8,2.9-1.7,3.9,0.2c0.1,0.1,0.1,0.2,0.2,0.4c0.7,1.7,1.4,3.5,3.7,3.5c2.1,0,2.9-1.6,3.9-3.1c0.6-0.9,1.6-2.1,2.4-2.1
		c0.9,0.1,1.7,1.3,2.5,2.1c0.3,0.3,0.3,0.7,0.5,1.1c1.4,2.4,3.7,2.7,5.6,0.5c0.7-0.8,1.2-1.8,1.8-2.7c1.2-1.7,2.8-1.5,3.7,0.3
		c0.2,0.5,0.4,1,0.6,1.5c0.5,1.4,1.4,2.5,2.9,2.4c1.1-0.1,2.2-0.9,3.2-1.6c0.5-0.4,0.7-1.2,1.2-1.6c0.7-0.6,1.6-1.6,2.3-1.5
		c0.7,0.1,1.5,1.1,2.1,1.9c0.6,0.8,0.9,1.9,1.6,2.5c1.4,1.1,3.4,0.8,4.7-0.7c0.5-0.6,0.8-1.2,1.2-1.8c0.7-1,1.3-2.6,2.9-1.8
		C149.7,2,151.2,3,151.1,5.7z M77.1,14.1C77.1,14.1,77.1,14.2,77.1,14.1c-18.9,0.1-37.9,0.1-56.8,0.1c-3.9,0-4.7,0.7-4.7,4.7
		c0,3.9,0.2,7.8,0.2,11.7c0.1,30.5,0.3,61,0.4,91.5c0,9.8-0.1,19.5-0.2,29.3c0,3.8,0.6,4.6,4.4,4.5c23,0,46.1-0.1,69.1-0.1
		c10.7,0,21.4,0,32.1,0c4.6,0,9.2,0.1,13.7,0c2.3,0,3.2-0.8,3.3-3.1c0.1-0.7,0-1.3,0-2c-0.1-26.5-0.3-53-0.4-79.6
		c-0.1-17.5,0-35,0-52.5c0-4.1-0.4-4.6-4.5-4.6C115,14.1,96,14.1,77.1,14.1z"/>
</g>
</svg>
