<svg id="Layer_1" data-name="Layer 1" xmlns="http://www.w3.org/2000/svg" xmlns:xlink="http://www.w3.org/1999/xlink" viewBox="-656 -216 4096 2160"><defs><style>.cls-1{fill:#3c3c3b;}.cls-2{fill:url(#linear-gradient);}.cls-3{fill:#754c28;}.cls-4{fill:#4d4c4c;}</style><linearGradient id="linear-gradient" x1="778.53" y1="212.7" x2="1565.79" y2="1576.27" gradientUnits="userSpaceOnUse"><stop offset="0" stop-color="#94c131"/><stop offset="1" stop-color="#53ad32"/></linearGradient></defs><title>logo</title><path class="cls-1" d="M3072.34,1474.68l144.94,190.24H3081.4l-152.49-202.31L2957.6,1440a439,439,0,0,0,105.68-145.69q37.72-83.8,37.75-180.42,0-92.07-35.48-174.38t-97.38-142.68q-61.93-60.36-144.19-95.87t-175.89-35.47q-93.62,0-176.64,35.47t-144.94,95.87q-61.92,60.4-97.38,142.68t-35.48,174.38q0,93.63,35.48,175.13t97.38,141.92q61.89,60.4,144.94,95.87t176.64,35.48a433.4,433.4,0,0,0,102.67-12.08,504.28,504.28,0,0,0,95.12-33.21l58.88,89.07a532.18,532.18,0,0,1-122.3,46,564.47,564.47,0,0,1-134.37,15.86q-116.27,0-218.15-43.79t-178.16-119.27q-76.26-75.48-120-175.89T2088,1113.85q0-114.72,43.78-215.9t120-175.89q76.21-74.73,178.16-118.52t218.15-43.78q114.73,0,216.66,43.78T3042.9,722.06q76.21,74.75,120,175.89t43.78,215.9q0,104.18-35.48,195.51A567.94,567.94,0,0,1,3072.34,1474.68Z" transform="translate(-656.83 -215.84)"/><path class="cls-1" d="M3439.2,683.56H3338.05V511.45H3439.2Zm0,984.38H3338.05V831.52H3439.2Z" transform="translate(-656.83 -215.84)"/><path class="cls-2" d="M1263.61,442.73C1008.2,419.12,807,240.72,789.73,224.15S765.22,217.3,762,240c-3.17,22.17-105.15,449.17-105.15,781.53,0,620.11,610.66,706.82,777.65,626.61,1.31-.63,86.2-23,109.26-123.21,8.24-35.78,82.28-277.29-186.77-489,409.31,132.61,340.93,470.32,343.7,456.08C2025.94,1178.31,1915.46,503,1263.61,442.73Z" transform="translate(-656.83 -215.84)"/><path class="cls-3" d="M1535.52,1622.86c-4.66,144.55-83.93,265.79-18.65,275.12s139.89,46.63,158.54-70,28-261.13,18.66-303.1C1661.43,1562.24,1596.14,1604.21,1535.52,1622.86Z" transform="translate(-656.83 -215.84)"/><path class="cls-4" d="M1923.55,1846.81q.18-12.84-7.56-19.52-7.58-6.6-20.51-6.6-21.09.52-31.76,18a69.22,69.22,0,0,0-10.84,38q0,14.74,7.9,23.43,7.56,8.94,22.52,9.11,24.62-.17,35-27.94h3.45q-3.95,14.54-14.29,22.66a37.39,37.39,0,0,1-24.11,8.73q-33.54-.95-33.87-36,0-23.21,12-41,11.68-17.92,34-18.44,30.84.16,31.52,29.57Z" transform="translate(-656.83 -215.84)"/><path class="cls-4" d="M1937.14,1876.66q0-23.21,12.08-41,11.64-17.94,34-18.45,16.18.16,25.07,10.3t9,27.1a69.46,69.46,0,0,1-11.75,39q-11.81,18.44-34.46,19Q1937.49,1911.71,1937.14,1876.66Zm3.45,0q0,14.74,7.88,23.43,7.62,8.94,22.54,9.11a32.82,32.82,0,0,0,18.7-5.38,43.51,43.51,0,0,0,13.41-12.93,66.89,66.89,0,0,0,10.65-36.27q-.76-33.4-30.6-33.93-21.14.52-31.77,18A69.33,69.33,0,0,0,1940.59,1876.66Z" transform="translate(-656.83 -215.84)"/><path class="cls-4" d="M2043.92,1819.32h3.6l-2.18,11.29-2.27,10.26.34.34q11-23.45,35.75-24,11.49,0,18.72,6.41t7.22,18.44a48.19,48.19,0,0,1-.51,6.84q-.66,3.72-1.51,7.44l-11,54.12h-3.61l11.17-55a56.14,56.14,0,0,0,2-13.43q-.17-10.66-6.29-16t-16.2-5.29q-19.22.52-28.87,15.26a82.78,82.78,0,0,0-13.19,32.5l-9.09,42h-3.72Z" transform="translate(-656.83 -215.84)"/><path class="cls-4" d="M2184.34,1846.58q1.72-13.85-5.51-20.08-7.2-5.8-20.14-5.81a46.31,46.31,0,0,0-8.94.87,26.4,26.4,0,0,0-8.68,3.55,18.56,18.56,0,0,0-8.94,16.28A14.36,14.36,0,0,0,2134,1849a18.51,18.51,0,0,0,4.58,5.37,50.5,50.5,0,0,0,6.48,3.55l7.32,3.37q4.56,1.56,9.56,3.38a44.64,44.64,0,0,1,9.14,4.42,22.36,22.36,0,0,1,6.82,6.58,19.54,19.54,0,0,1,2.75,10.82q-.34,14.12-10,20a41.38,41.38,0,0,1-22.48,6.06q-13.41,0-22.55-5.71-9.24-5.88-9.57-20.58.16-3.3.34-6.67h3.63q-2,15.92,5.87,22.67,7.7,6.92,22.29,6.74a38.06,38.06,0,0,0,19.86-5.19q9-5.1,9.14-17.3a18.19,18.19,0,0,0-1.75-8.39,15.64,15.64,0,0,0-4.9-5.27,38.48,38.48,0,0,0-6.66-3.72q-3.9-1.65-7.82-2.86-4.41-1.72-9.23-3.54a48.68,48.68,0,0,1-8.81-4.41,22.33,22.33,0,0,1-6.66-6.75,17.67,17.67,0,0,1-2.74-10.12q.16-12.54,9.45-18.6a37.57,37.57,0,0,1,20.57-5.62q14.05-.18,22.26,6.39,8.4,6.64,6.85,22.95Z" transform="translate(-656.83 -215.84)"/><path class="cls-4" d="M2262.1,1910.49h-3.72l2.25-11.34,2.34-10.3-.33-.34q-5.88,11.33-14.27,17.57-8.64,6.4-21.48,6.57-11.52-.17-18.6-6.58-7.24-6.22-7.41-18.27a33.68,33.68,0,0,1,.84-7.44c.45-2.37.85-4.68,1.18-6.93l11-54.11h3.63l-11.23,55a56.54,56.54,0,0,0-2,13.53q.34,10.65,6.64,15.95t15.87,5.37q19.58-.35,29.23-15.52a80.75,80.75,0,0,0,12.68-32.24l8.66-42.12h3.78Z" transform="translate(-656.83 -215.84)"/><path class="cls-4" d="M2284,1910.49l25.66-126.59h3.76l-25.66,126.59Z" transform="translate(-656.83 -215.84)"/><path class="cls-4" d="M2337.33,1790.66h3.61l-5.79,28.66h19.21l-.67,3.45h-19.22l-13.76,66.65a71,71,0,0,0-1.75,10.5c.12,3.93,1.48,6.25,4.11,6.94a24.63,24.63,0,0,0,7.8.87,42.27,42.27,0,0,0,8.22-.7l-.67,3.48a66.53,66.53,0,0,1-9.48.67,19.73,19.73,0,0,1-9.06-2.08q-4.37-2-4.36-8.23a49.14,49.14,0,0,1,1.42-10.4l13.93-67.7H2314.1l.68-3.45h16.76Z" transform="translate(-656.83 -215.84)"/><path class="cls-4" d="M2354.39,1876.66q0-23.21,12.08-41,11.64-17.94,34-18.45,16.17.16,25.07,10.3t9,27.1a69.53,69.53,0,0,1-11.74,39q-11.82,18.44-34.46,19Q2354.73,1911.71,2354.39,1876.66Zm3.45,0q0,14.74,7.88,23.43,7.62,8.94,22.55,9.11a32.79,32.79,0,0,0,18.69-5.38,43.51,43.51,0,0,0,13.41-12.93,66.89,66.89,0,0,0,10.65-36.27q-.75-33.4-30.6-33.93-21.12.52-31.77,18A69.33,69.33,0,0,0,2357.84,1876.66Z" transform="translate(-656.83 -215.84)"/><path class="cls-4" d="M2439.51,1910.49l19.31-91.17h3.9l-2.52,11.75-2.6,11.14.35.35a54.36,54.36,0,0,1,13.86-17.89,30.59,30.59,0,0,1,19.3-6.74,35,35,0,0,1,7.25.68l-.67,3.47a23.51,23.51,0,0,0-6.4-.69,26.29,26.29,0,0,0-11.35,2.68,33.64,33.64,0,0,0-9.43,6.76,87.64,87.64,0,0,0-6.93,8.15c-1.85,3-3.32,5.43-4.42,7.46a80.24,80.24,0,0,0-6.14,18.29l-9.79,45.76Z" transform="translate(-656.83 -215.84)"/><path class="cls-4" d="M2491.49,1910.49h-3.76l18.8-91.17h3.77Zm21.94-126.59h3.72l-3.88,18.35h-3.72Z" transform="translate(-656.83 -215.84)"/><path class="cls-4" d="M2524.37,1845.81q7.73-29.26,36.09-28.57,12.52,0,20,5.29,7.16,5.55,7.33,17.42a54.85,54.85,0,0,1-1.39,11.18L2576,1895.68a24.72,24.72,0,0,0-.7,6.24q0,3.55,1.74,4.59a6.13,6.13,0,0,0,3.73,1.22,28.26,28.26,0,0,0,6.26-.7v3.48a30.72,30.72,0,0,1-5.95.67q-9.22,0-9.22-9.31a21.94,21.94,0,0,1,.66-5.87c.34-1.38.71-2.73,1.1-4h-.42q-11.49,20.7-36.06,20.7a30.36,30.36,0,0,1-18-5.35q-8-5.28-8.21-17.2,0-9.16,3.45-15a21.45,21.45,0,0,1,8.6-8.82q11.64-6,26.64-5.44,7.08-.43,13.23-.61a43.79,43.79,0,0,0,11.13-1.57,12.86,12.86,0,0,0,7.76-5.91q2.7-4.44,2.7-12.79-.18-11-6.56-15.31-6.66-3.91-17.31-3.92-26.88.52-32.67,25.12Zm56.4,13.33-.35-.35a11.31,11.31,0,0,1-5.14,2.87,49,49,0,0,1-8.07,1.56q-9.51.87-17.59.87a121.72,121.72,0,0,0-12.45,1.13,36.6,36.6,0,0,0-11.35,3.72,20.71,20.71,0,0,0-8.08,7.62q-3.1,5.1-3.45,13.59.18,9.78,6.89,14.2a26.05,26.05,0,0,0,16,4.85q16.53-.17,26.52-9.78,9.73-9.45,13.35-24.51Z" transform="translate(-656.83 -215.84)"/><path class="cls-4" d="M2720.66,1884.28q2.78-5.9,4.79-11.35,1.76-5.36,3.26-11h3.45a92.11,92.11,0,0,1-9.06,25.41l14.6,23.14h-4.29L2721,1890.9a58.3,58.3,0,0,1-15.62,16.06q-9.15,6.39-21.83,6.56-13.28-.18-22.59-8.14-9.57-7.79-9.74-22.51a32.48,32.48,0,0,1,3.61-15.85,36.65,36.65,0,0,1,8.91-10.82,84.85,84.85,0,0,1,12.44-8.14q6.47-3.37,13.19-6.58-3.45-5.79-7.73-13.76-4.45-8.06-4.62-15.24,0-11.18,7.39-17.92,7.21-6.58,18.39-6.76a27.75,27.75,0,0,1,17.21,5.44q7.4,5.7,7.56,16.84a21.4,21.4,0,0,1-3.11,10.84,37.88,37.88,0,0,1-8.22,8.84,91.59,91.59,0,0,1-10.67,7.11q-5.7,3.21-11,6.08Zm-29.38-40q-6,3.21-12.27,6.42a82.24,82.24,0,0,0-12,7.63,31.27,31.27,0,0,0-8.74,10,27.7,27.7,0,0,0-3.62,14.57q.18,12.57,8.57,19.69,8.07,7.46,20.33,7.45a33.84,33.84,0,0,0,20.41-6.59,46.69,46.69,0,0,0,14.78-15.78Zm32.82-34.25q-.17-9.28-6.38-14a25.33,25.33,0,0,0-30,.34q-6.72,5.39-7.22,16a34.26,34.26,0,0,0,4.28,13.08q3.6,7.27,7.89,14.37a149.93,149.93,0,0,0,20.32-11.86,36.65,36.65,0,0,0,8-8.14A18.55,18.55,0,0,0,2724.1,1810.08Z" transform="translate(-656.83 -215.84)"/><path class="cls-4" d="M2876,1846.81q.18-12.84-7.56-19.52-7.56-6.6-20.5-6.6-21.09.52-31.76,18a69.23,69.23,0,0,0-10.85,38q0,14.74,7.9,23.43,7.56,8.94,22.52,9.11,24.63-.17,35-27.94h3.44q-3.95,14.54-14.28,22.66a37.39,37.39,0,0,1-24.12,8.73q-33.53-.95-33.86-36,0-23.21,12-41,11.67-17.92,34-18.44,30.84.16,31.51,29.57Z" transform="translate(-656.83 -215.84)"/><path class="cls-4" d="M2889.56,1876.66q0-23.21,12.08-41,11.66-17.94,34-18.45,16.18.16,25.07,10.3t9,27.1a69.45,69.45,0,0,1-11.74,39q-11.82,18.44-34.46,19Q2889.9,1911.71,2889.56,1876.66Zm3.46,0q0,14.74,7.87,23.43,7.64,8.94,22.55,9.11a32.79,32.79,0,0,0,18.69-5.38,43.43,43.43,0,0,0,13.42-12.93,67,67,0,0,0,10.64-36.27q-.75-33.4-30.6-33.93-21.12.52-31.76,18A69.33,69.33,0,0,0,2893,1876.66Z" transform="translate(-656.83 -215.84)"/><path class="cls-4" d="M2990.63,1845.81q7.73-29.26,36.08-28.57,12.54,0,20,5.29,7.17,5.55,7.34,17.42a55.56,55.56,0,0,1-1.39,11.18l-10.49,44.55a25.22,25.22,0,0,0-.69,6.24q0,3.55,1.73,4.59a6.16,6.16,0,0,0,3.74,1.22,28.26,28.26,0,0,0,6.26-.7v3.48a30.72,30.72,0,0,1-5.95.67q-9.23,0-9.23-9.31a21.49,21.49,0,0,1,.67-5.87c.34-1.38.7-2.73,1.1-4h-.42q-11.49,20.7-36.06,20.7a30.34,30.34,0,0,1-18-5.35q-8-5.28-8.22-17.2,0-9.16,3.46-15a21.39,21.39,0,0,1,8.6-8.82q11.63-6,26.64-5.44,7.08-.43,13.23-.61a43.79,43.79,0,0,0,11.13-1.57,12.89,12.89,0,0,0,7.76-5.91q2.68-4.44,2.69-12.79-.17-11-6.56-15.31-6.65-3.91-17.3-3.92-26.88.52-32.67,25.12Zm56.39,13.33-.35-.35a11.27,11.27,0,0,1-5.13,2.87,48.9,48.9,0,0,1-8.08,1.56q-9.49.87-17.58.87a121.72,121.72,0,0,0-12.45,1.13,36.6,36.6,0,0,0-11.35,3.72,20.71,20.71,0,0,0-8.08,7.62c-2.08,3.4-3.22,7.93-3.45,13.59q.16,9.78,6.88,14.2a26.1,26.1,0,0,0,16,4.85q16.54-.17,26.53-9.78,9.74-9.45,13.35-24.51Z" transform="translate(-656.83 -215.84)"/><path class="cls-4" d="M3142,1846.81q.16-12.84-7.56-19.52t-20.51-6.6q-21.09.52-31.76,18a69.22,69.22,0,0,0-10.84,38q0,14.74,7.9,23.43,7.56,8.94,22.52,9.11,24.61-.17,34.95-27.94h3.45q-4,14.54-14.29,22.66a37.39,37.39,0,0,1-24.11,8.73q-33.54-.95-33.87-36,0-23.21,12-41,11.67-17.92,34-18.44,30.84.16,31.52,29.57Z" transform="translate(-656.83 -215.84)"/><path class="cls-4" d="M3177.67,1783.9h3.61l-9.57,46.75-2.26,10.31.34.34q11-23.54,35.74-24.06,11.5,0,18.72,6.41t7.22,18.44a49.65,49.65,0,0,1-.5,6.84q-.67,3.72-1.51,7.44l-11,54.12h-3.61l11.17-55a55.64,55.64,0,0,0,2-13.43c-.1-7.11-2.21-12.46-6.29-16s-9.54-5.29-16.2-5.29q-19.22.52-28.86,15.26a82.8,82.8,0,0,0-13.2,32.5l-9.09,42h-3.72Z" transform="translate(-656.83 -215.84)"/><path class="cls-4" d="M3243.39,1910.49h-3.76l18.8-91.17h3.77Zm21.94-126.59h3.72l-3.88,18.35h-3.72Z" transform="translate(-656.83 -215.84)"/><path class="cls-4" d="M3282,1819.32h3.61l-2.18,11.29-2.27,10.26.34.34q11-23.45,35.74-24,11.51,0,18.72,6.41t7.23,18.44a48.19,48.19,0,0,1-.51,6.84q-.67,3.72-1.51,7.44l-11,54.12h-3.62l11.18-55a56.14,56.14,0,0,0,2-13.43q-.16-10.66-6.29-16t-16.21-5.29q-19.21.52-28.86,15.26a82.63,82.63,0,0,0-13.19,32.5l-9.09,42h-3.72Z" transform="translate(-656.83 -215.84)"/><path class="cls-4" d="M3440.6,1819.32,3423,1903.74q-7.41,40.42-42.76,40.26-13.47,0-21.38-7.09-7.9-6.92-7.74-21.08h3.46q-.51,12.83,6.74,18.64,7.07,6.08,18.93,6.07,12.82,0,20.61-4.59a32.46,32.46,0,0,0,12.21-11.87,75.87,75.87,0,0,0,7.1-17.76q1.38-4.77,2.51-10.14t1.9-10.66l-.34-.34q-10.83,20.53-34,20.89-16.3-.18-24.49-10.48-8.36-10.12-8.35-26.41a58.41,58.41,0,0,1,11.51-35.14q11.18-16.29,33.19-16.8,12.43,0,20.5,7.44,7.89,7.6,9.08,21.79h.3l2.43-13.32,2.77-13.83Zm-11.35,32.62q-.51-14.58-7.22-22.92-6.72-8.14-22-8.33-18,.36-28.37,15.11a56,56,0,0,0-10.83,33.41q0,14.4,7.22,23.6,7.22,9.63,22,9.81a31,31,0,0,0,17-4.77,42.74,42.74,0,0,0,12.18-12A61.31,61.31,0,0,0,3429.25,1851.94Z" transform="translate(-656.83 -215.84)"/></svg>
