<svg id="Layer_1" data-name="Layer 1" xmlns="http://www.w3.org/2000/svg" viewBox="-1181 -216 4096 2160"><defs><style>.cls-1{fill:#195567;}.cls-2{fill:#2f3c5e;}.cls-3{fill:#472356;}.cls-4{fill:#5d194d;}.cls-5{fill:#00acb0;}.cls-6{fill:#00a099;}.cls-7{fill:#00807a;}.cls-8{fill:#007072;}</style></defs><title>logo-1</title><path class="cls-1" d="M2370.05,1116.45a473.73,473.73,0,0,0-76.88-231.91q-6.35-9.69-13.2-19.16a480.53,480.53,0,0,0-44.64-52.92,472.88,472.88,0,0,0-60.89-52.65,473.2,473.2,0,0,1,86,210.87,479.24,479.24,0,0,1,5,69.05q0,11.7-.57,23.25a475.86,475.86,0,0,1-755,361.82l.05.06c93,128.08,238,196.08,385.1,196.18a473.4,473.4,0,0,0,211-49.31,478.18,478.18,0,0,0,160-128.44,477,477,0,0,0,104.07-326.84Z" transform="translate(-1181.33 -216)"/><path class="cls-2" d="M2489.94,1007.24A478.62,478.62,0,0,0,2409.67,866a473.62,473.62,0,0,0-198.51-142.43q-10.82-4.11-21.94-7.74A480.64,480.64,0,0,0,2122,699.24a472.25,472.25,0,0,0-80.22-6.81,473.32,473.32,0,0,1,193.54,120A480.53,480.53,0,0,1,2280,865.38q6.87,9.47,13.2,19.16a475.55,475.55,0,0,1-118.49,645.61,479.37,479.37,0,0,1-68.7,41.58A473.4,473.4,0,0,1,1895,1621l.07,0c150.57,48.92,307.83,18.72,426.87-67.64a473.53,473.53,0,0,0,141.69-163.89,478.58,478.58,0,0,0,53.94-198A474.34,474.34,0,0,0,2489.94,1007.24Z" transform="translate(-1181.33 -216)"/><path class="cls-3" d="M2645.91,1031.89A478.35,478.35,0,0,0,2573.2,840a475.36,475.36,0,0,0-523-198.53q-11.16,3-22.29,6.65a479.11,479.11,0,0,0-64.13,26.09,472.73,472.73,0,0,0-68.89,41.65A473.16,473.16,0,0,1,2122,699.24a480.64,480.64,0,0,1,67.21,16.57q11.13,3.62,21.94,7.74A475.86,475.86,0,0,1,2322,1553.42l.07,0c150.57-48.92,260-165.79,305.58-305.63A473.32,473.32,0,0,0,2645.91,1031.89Z" transform="translate(-1181.33 -216)"/><path class="cls-4" d="M2695.23,820.82a473.54,473.54,0,0,0-112.08-185.4A478.47,478.47,0,0,0,2411.55,523a475.33,475.33,0,0,0-539.81,146.8q-7.24,9-14.13,18.48a479.26,479.26,0,0,0-36.54,58.8,472.42,472.42,0,0,0-31.26,74.19,473.53,473.53,0,0,1,174-147,479.11,479.11,0,0,1,64.13-26.09q11.11-3.61,22.29-6.65a475.86,475.86,0,0,1,577.42,606.26l0-.06C2720.71,1119.62,2740.58,960.72,2695.23,820.82Z" transform="translate(-1181.33 -216)"/><path class="cls-5" d="M1773.53,1048a478.68,478.68,0,0,1-44.64-52.92q-6.87-9.47-13.2-19.15a475.85,475.85,0,0,1,398.15-736.5l-.07,0c-150.57-48.92-307.83-18.71-426.87,67.65A473.35,473.35,0,0,0,1545.21,471a476.27,476.27,0,0,0,54,523.54,473.77,473.77,0,0,0,198.51,142.44q10.82,4.1,21.94,7.73a479.29,479.29,0,0,0,67.21,16.58,473.28,473.28,0,0,0,80.22,6.81,473.15,473.15,0,0,1-193.54-120Z" transform="translate(-1181.33 -216)"/><path class="cls-6" d="M1967.07,1168.05a473.28,473.28,0,0,1-80.22-6.81,479.29,479.29,0,0,1-67.21-16.58q-11.13-3.62-21.94-7.73a475.86,475.86,0,0,1-110.8-829.87l-.07,0c-150.57,48.92-260,165.8-305.58,305.63A473.51,473.51,0,0,0,1363,828.59a478.48,478.48,0,0,0,72.71,191.86,475.37,475.37,0,0,0,523,198.52q11.16-3,22.29-6.64a479.15,479.15,0,0,0,64.13-26.1,472.68,472.68,0,0,0,68.89-41.64A474.37,474.37,0,0,1,1967.07,1168.05Z" transform="translate(-1181.33 -216)"/><path class="cls-7" d="M2114,1144.59a472.68,472.68,0,0,1-68.89,41.64,479.15,479.15,0,0,1-64.13,26.1q-11.12,3.62-22.29,6.64a475.51,475.51,0,0,1-577.4-312.2A479.67,479.67,0,0,1,1363,828.59a473.51,473.51,0,0,1,18.3-215.88l0,.06c-93.06,128.08-112.93,287-67.58,426.88a473.47,473.47,0,0,0,112.08,185.4,478.27,478.27,0,0,0,171.6,112.48,475.33,475.33,0,0,0,539.81-146.8q7.24-9,14.13-18.48a479.37,479.37,0,0,0,36.54-58.81,471.92,471.92,0,0,0,31.26-74.18A474.16,474.16,0,0,1,2114,1144.59Z" transform="translate(-1181.33 -216)"/><path class="cls-8" d="M2260.46,970.68a474,474,0,0,0-18.31-78.39,473.37,473.37,0,0,1-54.36,221.15,479.37,479.37,0,0,1-36.54,58.81q-6.87,9.46-14.13,18.48a475.86,475.86,0,0,1-823.49-151.08v.08c0,158.31,77.32,298.55,196.24,385.07a473.54,473.54,0,0,0,199.66,84.11,476.28,476.28,0,0,0,481.24-213.12A473.8,473.8,0,0,0,2264.89,1063q.56-11.55.57-23.25A479.24,479.24,0,0,0,2260.46,970.68Z" transform="translate(-1181.33 -216)"/><path class="cls-4" d="M1367.47,1464.69c-5,1.44-13,3.22-14.8,3.56-2.73.4-6.69,0-10.43-4.84l-13-17a4.69,4.69,0,0,0-6.38-.85L1276.48,1481l20.8,27.23-15,3.34c-2.73.4-6.69.06-10.43-4.83l-7.8-10.21a4.58,4.58,0,0,0-6.54-1.07l-60.21,46a5.65,5.65,0,0,1-7.88-1.05l-8.13-10.64,144.46-110.33a5.65,5.65,0,0,1,7.88,1.06Z" transform="translate(-1181.33 -216)"/><path class="cls-4" d="M1354.54,1689.84c-4.84,2.09-12.29,5.42-14,6.05-2.62.86-6.59.83-11.12-3.35L1298,1663.48l123.53-133.72a5.86,5.86,0,0,1,8,.07l36.77,34-14.17,5.86c-2.42,1-6.58,1.21-11.1-3l-11.41-10.53a4.35,4.35,0,0,0-6.43.25l-37.78,40.9,21.23,19.62c-4.84,2.09-12.47,5.61-14.15,6.24-2.61.87-6.4,1-10.92-3.16l-5.9-5.45a4.68,4.68,0,0,0-6.43.25l-44.14,47.78Zm86.86-160.3c.4.37,4,4.39,11.65,2.38l7.14-1.42-1,7.06c-1.4,7.82,3.1,11.24,3.49,11.6l5.7,5.27,3.85-27-9.82-9.09-26.67,6Z" transform="translate(-1181.33 -216)"/><path class="cls-4" d="M1479.33,1803l-7.43-4.79c-8.78-5.66-5.63-13.5-4.27-17.09l32.87-89-56.72,88-16.21-10.45,101.55-157.5,7.43,4.79c9,5.8,7.82,11.09,5.82,16.17l-36.16,92.64,58.46-90.68,16.2,10.45Z" transform="translate(-1181.33 -216)"/><path class="cls-4" d="M1673.18,1692.13a7.36,7.36,0,0,1,4.11,10l-72.21,164.77-12.51-5.48c-4.17-1.83-3.83-4.6-3.53-5.93l73.6-168Z" transform="translate(-1181.33 -216)"/><path class="cls-4" d="M1732.32,1911.55l-21.51-5.55,53.59-88.75-2.36-91.57,14.52,3.75c.77.2,5.44,1.4,5.65,8.09l.78,51.63,24.88-45c3.42-5.76,8.09-4.55,8.86-4.35l14.52,3.74-45.4,79.52,2.21,102.87-20.22-5.22.14-70.18Z" transform="translate(-1181.33 -216)"/><path class="cls-5" d="M2107.45,1943.08l-8.26.75-1.33.12c-9.6.88-12.24-10.44-12.66-12l-42.46-171.12,14.66-1.33c1.33-.13,4.63.65,6.25,6.68l28.52,115.41,7.62-126,19.19-1.74Z" transform="translate(-1181.33 -216)"/><path class="cls-5" d="M2211.08,1734.9a7.34,7.34,0,0,1,9.37,5.36l44.22,174.38-13.23,3.35c-4.41,1.12-5.85-1.27-6.44-2.51l-45.08-177.75Z" transform="translate(-1181.33 -216)"/><path class="cls-5" d="M2438.25,1852.15l-19.45,8.3-66.11-112.1,35.08,125.32-19.46,8.29L2321,1698.44l9.6-4.09c7.39-3.15,10.62,1,13.35,5.37Z" transform="translate(-1181.33 -216)"/><path class="cls-5" d="M2505.36,1656.49c3.48,5.41,2.68,9.11,1.15,11.68-.7,1.4-5.12,8.38-8.24,12.94l-23.16-36a10.17,10.17,0,1,0-17.11,11l74.12,115.29a10.17,10.17,0,0,0,17.12-11L2519,1713.3l-.68.44c-3.6,2.32-9.18-1.42-9.18-1.42l-12.65-7.78,20.27-13c5-3.18,9.62-2.37,13.53,3.71l36.92,57.42c6.95,10.81,3.81,25.24-6.71,32.64l-9.91,6.37a23.87,23.87,0,0,1-32.92-7.15L2440,1663.8a23.88,23.88,0,0,1,7.16-32.92l9.91-6.37c11.1-6.5,25.52-3.37,32.47,7.44Z" transform="translate(-1181.33 -216)"/><path class="cls-5" d="M2708.84,1639.54c1.68,5,4.4,12.68,4.9,14.41.65,2.67.3,6.64-4.23,10.81l-31.5,29-123.34-133.87a5.86,5.86,0,0,1,.71-7.93l36.81-33.91,4.71,14.59c.84,2.49.67,6.65-3.86,10.83L2581.63,1554a4.36,4.36,0,0,0-.27,6.43l37.73,40.94,21.26-19.58c1.69,5,4.59,12.88,5.09,14.6.64,2.68.49,6.46-4,10.63l-5.91,5.44a4.71,4.71,0,0,0-.26,6.44l44.08,47.83Z" transform="translate(-1181.33 -216)"/><path class="cls-5" d="M2831.78,1524.2l-5.37,7c-6.35,8.29-13.91,4.52-17.37,2.88l-86.07-40,83.1,63.64-11.73,15.3-148.76-113.93,5.37-7c6.51-8.5,11.69-6.89,16.59-4.49l89.4,43.52-85.64-65.59,11.72-15.3Z" transform="translate(-1181.33 -216)"/><path class="cls-5" d="M2788.17,1325.81l-19.23-10a10.18,10.18,0,1,0-9.4,18l15.91,8.28c9.74,5.07,26.16,4.26,26.16,4.26l49.1-.4c19.53-.4,30.32,6.13,30.32,6.13l21.14,11a23.94,23.94,0,0,1,10,32.37l-5.57,10.69a24.32,24.32,0,0,1-31.89,9.66l-17.1-8.9c-5.46-2.84-6.71-6.82-6.79-9.57.27-1.67.77-10.17,1.09-15.43l29,15.08a10.17,10.17,0,1,0,9.15-18.17l-19-9.89c-9.74-5.07-26.4-4.38-26.4-4.38l-48.87.52c-19.52.4-30.31-6.13-30.31-6.13l-17.1-8.9c-11.64-6.06-17.14-21-11-32.87l5.56-10.69c6.17-11.27,21.44-15.09,32.84-9.16l6.42,3.34c5.46,2.84,6.71,6.81,6.79,9.57C2789,1312.06,2788.62,1320.31,2788.17,1325.81Z" transform="translate(-1181.33 -216)"/><rect class="cls-5" x="2355.21" y="1813.16" width="54.25" height="19.39" transform="translate(-1706.61 869.21) rotate(-23.19)"/></svg>
