<svg id="Layer_1" data-name="Layer 1" xmlns="http://www.w3.org/2000/svg" viewBox="-216 -752 4096 2160"><defs><style>.cls-1{fill:#195567;}.cls-2{fill:#2f3c5e;}.cls-3{fill:#472356;}.cls-4{fill:#5d194d;}.cls-5{fill:#00acb0;}.cls-6{fill:#00a099;}.cls-7{fill:#00807a;}.cls-8{fill:#007072;}</style></defs><title>logo-2</title><path class="cls-1" d="M711.27,1163.46A217.39,217.39,0,0,0,676,1057.08q-2.91-4.44-6.06-8.78A220.18,220.18,0,0,0,649.48,1024a217.09,217.09,0,0,0-27.94-24.16A217.07,217.07,0,0,1,661,1096.6a220.45,220.45,0,0,1,2.3,31.67c0,3.58-.1,7.13-.27,10.67a218.27,218.27,0,0,1-346.32,166l0,0a218.38,218.38,0,0,0,273.41,67.37,219.59,219.59,0,0,0,73.39-58.92,218.77,218.77,0,0,0,47.74-149.92Z" transform="translate(-216 -750.43)"/><path class="cls-2" d="M766.26,1113.37A217.7,217.7,0,0,0,638.39,983.24q-5-1.87-10.06-3.55a221.48,221.48,0,0,0-30.83-7.6A216.65,216.65,0,0,0,560.7,969,217.06,217.06,0,0,1,649.48,1024,220.18,220.18,0,0,1,670,1048.3q3.15,4.34,6.06,8.78a218.13,218.13,0,0,1-54.36,296.14,220.5,220.5,0,0,1-31.51,19.08,217.26,217.26,0,0,1-96.76,22.61h0a218.23,218.23,0,0,0,272.85-281.55Z" transform="translate(-216 -750.43)"/><path class="cls-3" d="M837.8,1124.67a219.32,219.32,0,0,0-33.35-88,218,218,0,0,0-239.9-91.06q-5.12,1.39-10.22,3a220.82,220.82,0,0,0-29.42,12,217.72,217.72,0,0,0-31.6,19.11,217.17,217.17,0,0,1,104.19-7.64,221.48,221.48,0,0,1,30.83,7.6q5.1,1.66,10.06,3.55a218.27,218.27,0,0,1,50.82,380.65h0A218.34,218.34,0,0,0,837.8,1124.67Z" transform="translate(-216 -750.43)"/><path class="cls-4" d="M860.43,1027.86A218.16,218.16,0,0,0,646,877.16a219.41,219.41,0,0,0-73,15,217.24,217.24,0,0,0-90.27,66.4q-3.33,4.14-6.48,8.48a218.66,218.66,0,0,0-31.1,61,217.3,217.3,0,0,1,79.79-67.42,220.82,220.82,0,0,1,29.42-12q5.1-1.67,10.22-3a218.27,218.27,0,0,1,264.86,278.08l0,0A218,218,0,0,0,860.43,1027.86Z" transform="translate(-216 -750.43)"/><path class="cls-5" d="M437.65,1132.07a219.37,219.37,0,0,1-20.47-24.28c-2.11-2.89-4.12-5.82-6.06-8.78A218.28,218.28,0,0,1,593.75,761.18h0a218.3,218.3,0,0,0-145,411.69c3.31,1.25,6.66,2.44,10.06,3.54a218.4,218.4,0,0,0,67.63,10.73,217.14,217.14,0,0,1-88.78-55.06Z" transform="translate(-216 -750.43)"/><path class="cls-6" d="M526.43,1187.13a218.4,218.4,0,0,1-67.63-10.73c-3.4-1.1-6.75-2.29-10.06-3.54A218.27,218.27,0,0,1,397.92,792.2h0a218.3,218.3,0,0,0,124.69,418.28q5.13-1.4,10.23-3a218.86,218.86,0,0,0,29.41-12,216.26,216.26,0,0,0,31.6-19.1A217.65,217.65,0,0,1,526.43,1187.13Z" transform="translate(-216 -750.43)"/><path class="cls-7" d="M593.81,1176.37a216.26,216.26,0,0,1-31.6,19.1,218.86,218.86,0,0,1-29.41,12q-5.1,1.66-10.23,3A218.26,218.26,0,0,1,257.72,932.4l0,0a218.29,218.29,0,0,0,346.73,265.1c2.21-2.76,4.38-5.58,6.48-8.48a219.89,219.89,0,0,0,16.76-27,216.57,216.57,0,0,0,14.34-34A217.45,217.45,0,0,1,593.81,1176.37Z" transform="translate(-216 -750.43)"/><path class="cls-8" d="M661,1096.6a216.51,216.51,0,0,0-8.4-36,217.08,217.08,0,0,1-24.93,101.44,219.89,219.89,0,0,1-16.76,27c-2.1,2.9-4.27,5.72-6.48,8.48a218.26,218.26,0,0,1-377.73-69.3v0A218.29,218.29,0,0,0,663,1138.94c.17-3.54.27-7.09.27-10.67A220.45,220.45,0,0,0,661,1096.6Z" transform="translate(-216 -750.43)"/><path class="cls-4" d="M1126.2,960.07c-2.79,7.18-8,18.34-9.17,20.73-2,3.59-6,8-15.14,8H1070a7,7,0,0,0-6.77,6.78v86.88h51l-9.57,20.73c-2,3.58-6,8-15.15,8H1070.4c-4,0-7.17,2.79-7.17,6.77v112.8a8.42,8.42,0,0,1-8.37,8.37h-19.93V968.44a8.42,8.42,0,0,1,8.37-8.37Z" transform="translate(-216 -750.43)"/><path class="cls-4" d="M1363.72,1210.77c-3.19,7.17-8,18.33-9.17,20.72-2,3.59-6.38,7.58-15.55,7.58h-63.76V968a8.72,8.72,0,0,1,8.77-8h74.52L1349,980.8c-1.59,3.59-6,8-15.14,8h-23.12a6.48,6.48,0,0,0-6.77,6.78v82.9h43c-3.19,7.17-8,18.73-9.17,21.12-2,3.59-6,7.57-15.15,7.57h-12a7,7,0,0,0-6.77,6.78v96.85Zm-67-263c.8,0,8.77.8,15.14-9.17l6.38-8.77,6,8.77c6.38,10,14.74,9.17,15.54,9.17h11.56l-23.12-33.48h-19.92l-23.12,33.48Z" transform="translate(-216 -750.43)"/><path class="cls-4" d="M1592.47,1239.07h-13.16c-15.54,0-17.94-12.36-19.13-17.94l-30.69-137.9v155.84H1500.8v-279H1514c15.94,0,18.73,7.58,20.33,15.55l29.49,145.07V960.07h28.7Z" transform="translate(-216 -750.43)"/><path class="cls-4" d="M1768.6,960.07c8.37,0,11.56,6.38,11.56,11.16v267.84h-20.32c-6.78,0-8-4-8.38-6v-273Z" transform="translate(-216 -750.43)"/><path class="cls-4" d="M1958.7,1239.07h-33.08l44.24-147.87-37.47-131.13h22.32c1.2,0,8.37,0,11.16,9.57l20.33,74.13,19.13-74.13c2.79-9.57,10-9.57,11.16-9.57h22.32l-35.87,131.53,41.45,147.47H2013.3l-25.9-101.24Z" transform="translate(-216 -750.43)"/><path class="cls-5" d="M2474.39,1239.07H2460c-14.35,0-16.74-17.14-17.14-19.53L2403,960.07H2425c2,0,6.77,1.6,8.37,10.77l26.7,175,28.3-185.73H2517Z" transform="translate(-216 -750.43)"/><path class="cls-5" d="M2678.83,960.07c8.37,0,11.56,6.38,11.56,11.16v267.84h-20.33c-6.78,0-8-4-8.37-6v-273Z" transform="translate(-216 -750.43)"/><path class="cls-5" d="M3162.24,1036.2c0,9.57-4,13.55-8,15.54-2,1.2-13.16,6.38-20.73,9.57V997.54a15.15,15.15,0,1,0-30.29,0V1201.6a15.15,15.15,0,1,0,30.29,0v-83.3h-1.19c-6.38,0-10.36-9.17-10.36-9.17l-9.57-19.92h35.87c8.77,0,13.95,4.78,13.95,15.54v101.63c0,19.13-15.55,34.68-34.68,35.47H3110a35.55,35.55,0,0,1-35.47-35.47V992.76A35.55,35.55,0,0,1,3110,957.29h17.53c19.13.79,34.68,16.34,34.68,35.47Z" transform="translate(-216 -750.43)"/><path class="cls-5" d="M3413.71,1210.77c-3.19,7.17-8,18.33-9.17,20.72-2,3.59-6.38,7.58-15.55,7.58h-63.76V968a8.71,8.71,0,0,1,8.76-8h74.53L3399,980.8c-1.59,3.59-6,8-15.15,8H3360.7a6.49,6.49,0,0,0-6.78,6.78v82.9h43c-3.19,7.17-8,18.73-9.17,21.12-2,3.59-6,7.57-15.15,7.57h-12a7,7,0,0,0-6.78,6.78v96.85Z" transform="translate(-216 -750.43)"/><path class="cls-5" d="M2943.85,1239.07h-31.48L2887.26,1047l-25.11,192.11h-31.49l42.25-279h15.54c12,0,14,7.58,15.15,15.15Z" transform="translate(-216 -750.43)"/><path class="cls-5" d="M2852.21,1143.94h70.09v28.7h-70.09" transform="translate(-216 -750.43)"/><path class="cls-5" d="M3642.46,1239.07h-13.15c-15.55,0-17.94-12.36-19.14-17.94l-30.68-137.9v155.84h-28.7v-279h13.15c15.94,0,18.74,7.58,20.33,15.55l29.49,145.07V960.07h28.7Z" transform="translate(-216 -750.43)"/><path class="cls-5" d="M3850.88,1030.22V997.94a15.15,15.15,0,1,0-30.29,0v26.7c0,16.34,12.35,37.47,12.35,37.47l34.28,64.56c14,25.51,12.75,44.24,12.75,44.24v35.47a35.63,35.63,0,0,1-35.87,35.47h-17.93a36.2,36.2,0,0,1-34.68-35.47v-28.69c0-9.17,4.39-13.55,8-15.55,2.4-.79,13.95-6,21.13-9.16v48.62a15.15,15.15,0,1,0,30.29-.4v-31.88c0-16.34-12.36-37.87-12.36-37.87l-34.27-64.16c-13.95-25.51-12.76-44.24-12.76-44.24v-28.7c0-19.53,15.94-37.06,35.87-37.06h17.94c19.13.39,34.67,17.93,34.67,37.06v10.76c0,9.17-4.38,13.55-8,15.54C3869.61,1021.85,3858.45,1027,3850.88,1030.22Z" transform="translate(-216 -750.43)"/></svg>
