<svg id="Layer_1" data-name="Layer 1" xmlns="http://www.w3.org/2000/svg" viewBox="-245 -320 4096 2160"><defs><style>.cls-1{fill:#195567;}.cls-2{fill:#2f3c5e;}.cls-3{fill:#472356;}.cls-4{fill:#5d194d;}.cls-5{fill:#00acb0;}.cls-6{fill:#00a099;}.cls-7{fill:#00807a;}.cls-8{fill:#007072;}</style></defs><title>logo</title><path class="cls-1" d="M1303.42,1008.36a421.71,421.71,0,0,0-66.53-204.08q-5.51-8.52-11.43-16.86a421.36,421.36,0,0,0-38.63-46.57,411,411,0,0,0-52.7-46.33,420.21,420.21,0,0,1,74.43,185.56,428.86,428.86,0,0,1,4.33,60.76q0,10.3-.5,20.46c-11.06,231-204.2,409.13-431.38,397.87a407.42,407.42,0,0,1-222-79.48l0,.06c80.49,112.7,206,172.54,333.28,172.63A404.16,404.16,0,0,0,1074.92,1409a415.16,415.16,0,0,0,138.47-113,424.49,424.49,0,0,0,90.07-287.61Z" transform="translate(-274.62 -216)"/><path class="cls-2" d="M1407.18,912.25A423.05,423.05,0,0,0,1337.71,788a410.14,410.14,0,0,0-171.8-125.34q-9.36-3.61-19-6.81a410.8,410.8,0,0,0-58.17-14.6,402,402,0,0,0-69.43-6,408.52,408.52,0,0,1,167.5,105.6,419.9,419.9,0,0,1,38.67,46.59q5.94,8.34,11.42,16.86c120.44,186.85,75.3,436.94-102.54,568.12a413.06,413.06,0,0,1-59.46,36.59,404.33,404.33,0,0,1-182.62,43.36h.06c130.31,43,266.41,16.47,369.43-59.53a414.79,414.79,0,0,0,122.63-144.21,424.65,424.65,0,0,0,22.77-336.36Z" transform="translate(-274.62 -216)"/><path class="cls-3" d="M1542.16,933.94a425,425,0,0,0-62.93-168.85c-97.63-151.89-280.45-222.46-452.62-174.7q-9.66,2.64-19.29,5.85A409.59,409.59,0,0,0,892.2,655.85a403,403,0,0,1,196.55-14.63,410.26,410.26,0,0,1,58.16,14.58q9.64,3.19,19,6.81c212.65,82.07,319.6,323.87,238.9,540.09a418.11,418.11,0,0,1-143,190.18h.06c130.31-43.05,225-145.89,264.46-269A423.25,423.25,0,0,0,1542.16,933.94Z" transform="translate(-274.62 -216)"/><path class="cls-4" d="M1584.84,748.21a418.16,418.16,0,0,0-97-163.15,413.66,413.66,0,0,0-148.51-98.92c-166.8-64.54-355.5-12.36-467.18,129.18q-6.25,7.92-12.22,16.26a421.62,421.62,0,0,0-58.68,117,410.53,410.53,0,0,1,206.09-152.31q9.61-3.18,19.29-5.85c219.47-60.68,445.77,71,505.45,294.2a425.44,425.44,0,0,1-5.73,239.29v0C1606.9,1011.14,1624.09,871.32,1584.84,748.21Z" transform="translate(-274.62 -216)"/><path class="cls-5" d="M787.17,948.12a418.23,418.23,0,0,1-38.63-46.57q-6-8.32-11.43-16.85c-124.58-193.48-71.32-453,119-579.69a407,407,0,0,1,225.61-68.41h-.06c-130.31-43-266.41-16.46-369.43,59.53A414.63,414.63,0,0,0,589.57,440.38C512.71,589.54,531.11,771,636.31,901.08A410.34,410.34,0,0,0,808.1,1026.42q9.38,3.61,19,6.8a408.06,408.06,0,0,0,58.17,14.59,403,403,0,0,0,69.42,6,408.48,408.48,0,0,1-167.49-105.6Z" transform="translate(-274.62 -216)"/><path class="cls-6" d="M954.67,1053.76a403,403,0,0,1-69.43-6,409.41,409.41,0,0,1-58.17-14.59q-9.63-3.18-19-6.8C595.45,944.3,488.51,702.49,569.23,486.28a418.1,418.1,0,0,1,143-190.17h-.06c-130.31,43.05-225,145.9-264.46,268.95a425,425,0,0,0,47.13,358.82c97.64,151.88,280.45,222.44,452.62,174.69q9.66-2.64,19.29-5.84a410.29,410.29,0,0,0,115.12-59.61A404.22,404.22,0,0,1,954.67,1053.76Z" transform="translate(-274.62 -216)"/><path class="cls-7" d="M1081.83,1033.12a410.16,410.16,0,0,1-115.13,59.61q-9.62,3.18-19.29,5.84c-212,58.75-432-62.19-499.7-274.73a428.18,428.18,0,0,1-15.83-68.79,423.32,423.32,0,0,1,15.84-190v0C367.18,677.84,350,817.68,389.23,940.77a418,418,0,0,0,97,163.15,413.38,413.38,0,0,0,148.51,99c166.8,64.54,355.49,12.36,467.17-129.18q6.27-7.92,12.23-16.26a422.61,422.61,0,0,0,58.68-117A414.25,414.25,0,0,1,1081.83,1033.12Z" transform="translate(-274.62 -216)"/><path class="cls-8" d="M1208.58,880.08a422.84,422.84,0,0,0-15.85-69,422,422,0,0,1-78.67,246.36q-5.94,8.32-12.23,16.26c-142.48,180.26-401.7,209-579,64.07a419,419,0,0,1-133.69-197v.07c0,139.31,66.92,262.72,169.84,338.85a406.2,406.2,0,0,0,172.79,74c163.28,28.24,327.32-45.63,416.49-187.54a421.86,421.86,0,0,0,64.14-204.85q.48-10.17.49-20.46A427.66,427.66,0,0,0,1208.58,880.08Z" transform="translate(-274.62 -216)"/><path class="cls-4" d="M435.75,1314.8c-4.33,1.26-11.25,2.83-12.81,3.13-2.36.35-5.79,0-9-4.26l-11.25-15a4,4,0,0,0-5.52-.75L357,1329.15l18,24-13,2.94c-2.36.35-5.79,0-9-4.25l-6.75-9a3.93,3.93,0,0,0-5.51-1.06l-.15.11-52.11,40.48a4.83,4.83,0,0,1-6.82-.92l-7-9.36,125-97.09a4.84,4.84,0,0,1,6.82.93Z" transform="translate(-274.62 -216)"/><path class="cls-4" d="M424.56,1512.92c-4.19,1.84-10.64,4.77-12.12,5.33-2.26.75-5.7.73-9.62-3l-27.19-25.57,106.91-117.67a5,5,0,0,1,6.92.06L521.28,1402,509,1407.19c-2.1.88-5.7,1.07-9.61-2.64l-9.87-9.26a3.73,3.73,0,0,0-5.33,0l-.24.27-32.69,36,18.37,17.26c-4.19,1.84-10.79,4.94-12.25,5.5-2.26.76-5.54.88-9.45-2.79l-5.1-4.79a4,4,0,0,0-5.57.22l-38.2,42Zm75.17-141.06c.35.33,3.46,3.87,10.08,2.1l6.18-1.25-.86,6.21c-1.21,6.88,2.68,9.89,3,10.21l4.93,4.64,3.33-23.76-8.5-8-23.08,5.28Z" transform="translate(-274.62 -216)"/><path class="cls-4" d="M532.56,1612.5l-6.43-4.21c-7.6-5-4.88-11.88-3.7-15l28.45-78.32-49.09,77.44-14-9.2,87.89-138.59,6.43,4.21c7.79,5.1,6.77,9.76,5,14.23l-31.29,81.52,50.59-79.8,14,9.2Z" transform="translate(-274.62 -216)"/><path class="cls-4" d="M700.32,1514.94a6.5,6.5,0,0,1,3.75,8.33c-.06.16-.12.31-.19.47l-62.49,145-10.83-4.82c-3.61-1.61-3.31-4.05-3.06-5.22l63.7-147.84Z" transform="translate(-274.62 -216)"/><path class="cls-4" d="M751.5,1708l-18.61-4.88,46.38-78.1-2-80.58,12.56,3.3c.67.18,4.71,1.23,4.89,7.12l.68,45.43,21.53-39.6c3-5.06,7-4,7.67-3.82l12.56,3.29-39.29,70,1.91,90.53-17.49-4.6.12-61.75Z" transform="translate(-274.62 -216)"/><path class="cls-5" d="M1076.16,1735.77l-7.15.66-1.15.1c-8.31.78-10.6-9.18-11-10.56l-36.75-150.58,12.69-1.17c1.15-.11,4,.57,5.41,5.88l24.68,101.56,6.6-110.88,16.61-1.53Z" transform="translate(-274.62 -216)"/><path class="cls-5" d="M1165.84,1552.57a6.34,6.34,0,0,1,8,4.21c0,.17.09.34.13.51l38.27,153.45-11.45,3c-3.82,1-5.06-1.12-5.57-2.21l-39-156.42Z" transform="translate(-274.62 -216)"/><path class="cls-5" d="M1362.44,1655.75l-16.83,7.31-57.21-98.65,30.36,110.28-16.84,7.29-41-161.49,8.31-3.6c6.39-2.77,9.19.88,11.55,4.73Z" transform="translate(-274.62 -216)"/><path class="cls-5" d="M1420.52,1483.58c3,4.76,2.32,8,1,10.27-.61,1.24-4.43,7.38-7.13,11.39l-20.05-31.68a8.71,8.71,0,0,0-12.16-2.69,9,9,0,0,0-2.64,12.37l64.14,101.45a8.73,8.73,0,0,0,12.17,2.7,9.05,9.05,0,0,0,2.65-12.38h0l-26.17-41.44-.59.38c-3.12,2-8-1.25-8-1.25l-10.94-6.84,17.54-11.44c4.33-2.8,8.33-2.09,11.71,3.26l32,50.53a21.45,21.45,0,0,1-5.81,28.72l-8.57,5.61a20.46,20.46,0,0,1-28.49-6.29L1364,1490a21.23,21.23,0,0,1,6.19-29l8.58-5.61a20.67,20.67,0,0,1,28.1,6.55Z" transform="translate(-274.62 -216)"/><path class="cls-5" d="M1596.62,1468.66c1.46,4.4,3.81,11.16,4.24,12.68.57,2.35.26,5.84-3.66,9.51l-27.26,25.52-106.74-117.8a5.23,5.23,0,0,1,.61-7l31.86-29.84,4.08,12.84c.72,2.19.58,5.85-3.35,9.53l-9.87,9.27a3.87,3.87,0,0,0-.46,5.4c.07.09.15.17.23.26l32.65,36,18.4-17.23c1.46,4.4,4,11.34,4.4,12.85.56,2.36.43,5.68-3.46,9.35l-5.11,4.79a4.2,4.2,0,0,0-.23,5.67l38.15,42.09Z" transform="translate(-274.62 -216)"/><path class="cls-5" d="M1703,1367.16l-4.65,6.16c-5.49,7.3-12,4-15,2.54l-74.49-35.2,71.92,56-10.15,13.46-128.75-100.25,4.65-6.16c5.64-7.48,10.12-6.06,14.36-4l77.37,38.29-74.12-57.71,10.15-13.47Z" transform="translate(-274.62 -216)"/><path class="cls-5" d="M1665.28,1192.59l-16.64-8.8a8.73,8.73,0,0,0-12.13,2.91,9,9,0,0,0,2.86,12.33,11.05,11.05,0,0,0,1.13.6l13.77,7.28c8.43,4.46,22.64,3.75,22.64,3.75l42.49-.35c16.9-.35,26.24,5.39,26.24,5.39l18.3,9.68a21.25,21.25,0,0,1,8.67,28.46l0,0-4.82,9.4a20.87,20.87,0,0,1-27.6,8.51l-14.8-7.84c-4.72-2.5-5.8-6-5.87-8.42.23-1.47.66-9,.94-13.58l25.1,13.27a8.73,8.73,0,0,0,11.82-4,9,9,0,0,0-3.9-12l-16.45-8.7c-8.43-4.46-22.84-3.85-22.84-3.85l-42.3.46c-16.89.35-26.23-5.4-26.23-5.4l-14.8-7.83c-10.07-5.33-14.83-18.48-9.52-28.93l4.81-9.4c5.34-9.92,18.56-13.28,28.43-8.06l5.55,2.94c4.73,2.5,5.81,6,5.88,8.42C1666,1180.49,1665.67,1187.75,1665.28,1192.59Z" transform="translate(-274.62 -216)"/><polygon class="cls-5" points="1014.59 1415.36 1057.74 1396.57 1064.35 1412.25 1021.19 1431.05 1014.59 1415.36"/><path class="cls-1" d="M2483.05,1022.06a95.68,95.68,0,0,0-15.55-46.9q-1.27-2-2.67-3.87a95.68,95.68,0,0,0-21.34-21.37,95.69,95.69,0,0,1,17.4,42.66,97.32,97.32,0,0,1,1,14c0,1.58,0,3.15-.11,4.71a96.23,96.23,0,0,1-152.68,73.18h0A96.24,96.24,0,0,0,2483,1022.06Z" transform="translate(-274.62 -216)"/><path class="cls-2" d="M2507.29,1000a96,96,0,0,0-56.37-57.37c-1.47-.54-2.94-1.07-4.43-1.56a98,98,0,0,0-13.59-3.35,94.9,94.9,0,0,0-16.23-1.36,96,96,0,0,1,48.19,35q1.38,1.9,2.67,3.87A96.23,96.23,0,0,1,2387,1124.09h0A96.2,96.2,0,0,0,2507.3,1000Z" transform="translate(-274.62 -216)"/><path class="cls-3" d="M2538.83,1005A96.2,96.2,0,0,0,2418.37,926c-1.5.4-3,.84-4.51,1.32a98.51,98.51,0,0,0-13,5.29,97.15,97.15,0,0,0-13.93,8.42,95.89,95.89,0,0,1,59.53,0c1.5.48,3,1,4.43,1.56a96.23,96.23,0,0,1,22.41,167.81h0A96.26,96.26,0,0,0,2538.83,1005Z" transform="translate(-274.62 -216)"/><path class="cls-4" d="M2548.81,962.28a96.22,96.22,0,0,0-166.51-30.56q-1.47,1.83-2.86,3.74a96.64,96.64,0,0,0-13.71,26.89,95.84,95.84,0,0,1,35.18-29.72,97.41,97.41,0,0,1,13-5.29q2.25-.74,4.5-1.32a96.22,96.22,0,0,1,116.77,122.59h0A96.12,96.12,0,0,0,2548.81,962.28Z" transform="translate(-274.62 -216)"/><path class="cls-5" d="M2362.43,1008.22a97.08,97.08,0,0,1-9-10.71c-.93-1.27-1.81-2.56-2.67-3.87a96.22,96.22,0,0,1,80.51-148.93h0a96.24,96.24,0,0,0-63.92,181.49c1.46.55,2.94,1.08,4.43,1.56a95.87,95.87,0,0,0,29.82,4.73,95.62,95.62,0,0,1-39.14-24.27Z" transform="translate(-274.62 -216)"/><path class="cls-6" d="M2401.56,1032.49a96.45,96.45,0,0,1-29.81-4.73c-1.5-.48-3-1-4.44-1.56a96.23,96.23,0,0,1-22.4-167.82h0a96.24,96.24,0,0,0,55,184.4c1.51-.41,3-.85,4.51-1.32a96.91,96.91,0,0,0,26.9-13.71A96.2,96.2,0,0,1,2401.56,1032.49Z" transform="translate(-274.62 -216)"/><path class="cls-7" d="M2431.27,1027.75a96.25,96.25,0,0,1-13.93,8.42,97.41,97.41,0,0,1-13,5.29c-1.5.49-3,.93-4.51,1.32A96.22,96.22,0,0,1,2283.1,920.19h0A96.23,96.23,0,0,0,2436,1037.06c1-1.21,1.93-2.46,2.86-3.74a98.39,98.39,0,0,0,7.39-11.9,95.74,95.74,0,0,0,6.32-15A96,96,0,0,1,2431.27,1027.75Z" transform="translate(-274.62 -216)"/><path class="cls-8" d="M2460.89,992.58a95.72,95.72,0,0,0-3.7-15.87,95.7,95.7,0,0,1-11,44.72,97.15,97.15,0,0,1-7.39,11.9c-.93,1.28-1.88,2.52-2.86,3.74a96.22,96.22,0,0,1-166.52-30.55h0a96.23,96.23,0,0,0,192.34,4.73q.12-2.34.12-4.71A97.31,97.31,0,0,0,2460.89,992.58Z" transform="translate(-274.62 -216)"/><path class="cls-4" d="M2666,932.39c-1.23,3.17-3.53,8.09-4.05,9.14-.88,1.58-2.64,3.53-6.67,3.53H2641.2a3.08,3.08,0,0,0-3,3v38.31h22.48l-4.22,9.14c-.88,1.57-2.65,3.52-6.68,3.52h-8.42a3,3,0,0,0-3.16,3v49.72a3.71,3.71,0,0,1-3.69,3.69h-8.79V936.08a3.71,3.71,0,0,1,3.69-3.69Z" transform="translate(-274.62 -216)"/><path class="cls-4" d="M2770.69,1042.91c-1.41,3.16-3.53,8.08-4,9.14-.89,1.58-2.82,3.34-6.86,3.34h-28.11V935.89a3.84,3.84,0,0,1,3.87-3.53h32.85l-4.2,9.17c-.7,1.58-2.65,3.53-6.68,3.53h-10.19a2.84,2.84,0,0,0-3,2.72,1.13,1.13,0,0,0,0,.26v36.55h19c-1.4,3.16-3.52,8.26-4,9.31-.88,1.59-2.64,3.34-6.68,3.34h-5.29a3.08,3.08,0,0,0-3,3v42.7ZM2741.15,927c.35,0,3.87.35,6.67-4l2.82-3.87,2.64,3.87c2.82,4.4,6.5,4,6.85,4h5.1L2755,912.21h-8.78L2736.06,927Z" transform="translate(-274.62 -216)"/><path class="cls-4" d="M2871.53,1055.39h-5.8c-6.85,0-7.91-5.45-8.43-7.91l-13.53-60.79v68.7h-12.65v-123h5.82c7,0,8.26,3.34,9,6.86l13,64V932.39h12.66Z" transform="translate(-274.62 -216)"/><path class="cls-4" d="M2949.18,932.39a4.82,4.82,0,0,1,5.1,4.92v118.08h-9c-3,0-3.53-1.77-3.7-2.65V932.39Z" transform="translate(-274.62 -216)"/><path class="cls-4" d="M3033,1055.39H3018.4l19.51-65.19-16.52-57.81h9.84c.53,0,3.69,0,4.92,4.22l9,32.68,8.43-32.68c1.23-4.22,4.41-4.22,4.92-4.22h9.84l-15.81,58,18.27,65h-13.7l-11.42-44.63Z" transform="translate(-274.62 -216)"/><path class="cls-5" d="M3260.33,1055.39H3254c-6.33,0-7.38-7.56-7.56-8.61l-17.57-114.39h9.7c.88,0,3,.71,3.69,4.75l11.77,77.15,12.47-81.88h12.63Z" transform="translate(-274.62 -216)"/><path class="cls-5" d="M3350.46,932.39a4.82,4.82,0,0,1,5.1,4.92v118.08h-9c-3,0-3.52-1.77-3.69-2.65V932.39Z" transform="translate(-274.62 -216)"/><path class="cls-5" d="M3563.57,966c0,4.22-1.76,6-3.52,6.85-.89.53-5.81,2.82-9.14,4.22V948.91a6.68,6.68,0,0,0-13.36-.34v90.3a6.68,6.68,0,1,0,13.36.34v-37.06h-.53c-2.81,0-4.56-4-4.56-4l-4.22-8.78h15.81c3.87,0,6.15,2.11,6.15,6.85V1041a15.83,15.83,0,0,1-15.29,15.63h-7.73a15.66,15.66,0,0,1-15.63-15.63V946.8a15.66,15.66,0,0,1,15.63-15.64h7.73a15.85,15.85,0,0,1,15.29,15.64Z" transform="translate(-274.62 -216)"/><path class="cls-5" d="M3674.43,1042.91c-1.4,3.16-3.52,8.08-4,9.14-.88,1.58-2.81,3.34-6.85,3.34h-28.11V935.89a3.84,3.84,0,0,1,3.86-3.53h32.86l-4.2,9.17c-.7,1.58-2.65,3.53-6.68,3.53h-10.21a2.84,2.84,0,0,0-3,2.72,1.13,1.13,0,0,0,0,.26v36.55h19c-1.4,3.16-3.52,8.26-4,9.31-.88,1.59-2.65,3.34-6.68,3.34H3651a3.09,3.09,0,0,0-3,3v42.7Z" transform="translate(-274.62 -216)"/><path class="cls-5" d="M3467.29,1055.39h-13.87l-11.07-84.68-11.07,84.7h-13.89l18.63-123h6.85c5.29,0,6.17,3.34,6.68,6.68Z" transform="translate(-274.62 -216)"/><path class="cls-5" d="M3426.89,1013.45h30.9v12.65h-30.9" transform="translate(-274.62 -216)"/><path class="cls-5" d="M3775.28,1055.39h-5.8c-6.85,0-7.91-5.45-8.44-7.91l-13.52-60.79v68.7h-12.65v-123h5.79c7,0,8.27,3.34,9,6.86l13,64V932.39h12.65Z" transform="translate(-274.62 -216)"/><path class="cls-5" d="M3867.16,963.32V949.09a6.68,6.68,0,0,0-13.35-.35v12.12c0,7.2,5.44,16.51,5.44,16.51l15.12,28.47c6.17,11.24,5.62,19.5,5.62,19.5V1041a15.71,15.71,0,0,1-15.78,15.63h-7.94A16,16,0,0,1,3841,1041v-12.65c0-4,1.94-6,3.53-6.86,1-.34,6.15-2.64,9.31-4v21.43a6.68,6.68,0,1,0,13.36.12v-14.35c0-7.2-5.45-16.7-5.45-16.7l-15.11-28.28c-6.15-11.25-5.63-19.5-5.63-19.5V947.5c0-8.61,7-16.34,15.82-16.34h7.91c8.43.18,15.28,7.91,15.28,16.34v4.75c0,4-1.93,6-3.53,6.85C3875.42,959.63,3870.5,961.9,3867.16,963.32Z" transform="translate(-274.62 -216)"/></svg>
