<?xml version="1.0" encoding="utf-8"?>
<!-- Generator: Adobe Illustrator 23.0.1, SVG Export Plug-In . SVG Version: 6.00 Build 0)  -->
<svg version="1.1" id="Layer_1" xmlns="http://www.w3.org/2000/svg" xmlns:xlink="http://www.w3.org/1999/xlink" x="0px" y="0px"
	 viewBox="-561 -216 4096 2160" style="enable-background:new 0 0 2973.2 1727.6;" xml:space="preserve">
<style type="text/css">
	.st0{fill:url(#SVGID_1_);}
	.st1{fill:url(#SVGID_2_);}
	.st2{enable-background:new    ;}
</style>
<title>logo</title>
<linearGradient id="SVGID_1_" gradientUnits="userSpaceOnUse" x1="2040.1678" y1="1436.72" x2="2040.1678" y2="44.2598" gradientTransform="matrix(1 0 0 -1 -561.63 1513.5701)">
	<stop  offset="0" style="stop-color:#FBB034"/>
	<stop  offset="1" style="stop-color:#F26522"/>
</linearGradient>
<path class="st0" d="M1991.8,377.5c-87.4,0-155.6,25.3-204.7,75.9c-49.1,50.6-73.6,113.5-73.6,188.6c0,113.5,65.9,195.5,197.8,246.1
	c119.6,32.2,240,64.4,361.1,96.6c130.3,44.5,195.5,116.6,195.5,216.2c0,56.8-21.5,101.6-64.6,134.6s-110,49.4-200.7,49.4h-781.2
	c-64.4,0-115.8-19.9-154.1-59.8c-38.3-39.9-57.5-93.5-57.5-161V461.9h385v-84.4h-385V76.9h-89.7v300.6h-174
	c-105.9,0-201,29.1-285.3,87.2S515.1,600.9,476.7,698.9C436.8,599.4,375,521,291.4,463.6S113.1,377.5,7.2,377.5v82.6
	c112,0,210.5,45.5,295.7,136.6s127.7,199.3,127.7,324.8c0,127.1-43,235.7-128.9,326C215.9,1337.8,117.7,1383,7.2,1383v82.6
	c105.8,0,201-29.1,285.3-87.2s145.7-136.2,184.1-234.1c39.9,99.5,101.6,177.9,185.2,235.3c83.6,57.4,178.3,86.1,284.2,86.1v-79.1
	c-111.9,0-210.4-45.6-295.5-136.8C565.6,1158.4,523,1049.9,523,924.2c0-127.3,42.9-236.1,128.8-326.6s184-135.7,294.3-135.7h179.3
	V1157c0,99.5,27.2,176.5,81.6,230.8s133,81.5,235.7,81.5h741.7c124.5,0,219.4-23.4,284.7-70.2c65.3-46.8,98-116.9,98-210.4
	c0-121.1-65.9-208.5-197.8-262.2c-121.1-32.2-244.1-65.9-369.1-101.2c-124.9-35.3-187.4-96.6-187.4-184
	c0-56.7,18.8-100.8,56.3-132.2s81.6-47.2,132.2-47.2h859.1c102.2,0,88.6-84.4,88.6-84.4L1991.8,377.5z"/>
<linearGradient id="SVGID_2_" gradientUnits="userSpaceOnUse" x1="3465.9148" y1="1513.5701" x2="3465.9148" y2="1375.83" gradientTransform="matrix(1 0 0 -1 -561.63 1513.5701)">
	<stop  offset="0" style="stop-color:#FBB034"/>
	<stop  offset="1" style="stop-color:#F26522"/>
</linearGradient>
<path class="st1" d="M2953.6,19.5c-13-13-29.5-19.5-49.4-19.5c-19.9,0-36.3,6.5-49.4,19.5c-13,13-19.5,29.5-19.5,49.4
	c0,19.9,6.5,36.3,19.5,49.4c13,13,29.4,19.5,49.4,19.5c19.9,0,36.4-6.5,49.4-19.5c13-13,19.5-29.4,19.5-49.4
	S2966.7,32.5,2953.6,19.5z"/>
<g class="st2">
	<path d="M65.7,1591.2c-11.5,0-23.2,4.9-31.3,13.3c-8.4,8.7-12.6,19.5-12.6,32.4c0,10.1,2.5,18.7,7.5,25.9
		c8.7,12.4,22.1,19.5,37,19.5c13.8,0,25.9-5.7,35.9-17.3v17.3c-10.9,7.8-23.6,12-37,12c-11.7,0-22.9-3.5-32.4-10.1
		c-16-11-24.7-27.6-24.7-47.1c0-17,5.7-30.7,17.2-41.9c11.2-10.7,24.7-16.1,40.8-16.1c13,0,24.7,4,36,11.8v17
		C91.6,1596.4,79.9,1591.2,65.7,1591.2z"/>
	<path d="M357.6,1677.4c-11.2,10.9-26.2,16.9-41.6,16.9c-15.5,0-30.4-6.1-41.4-16.9c-11.2-10.9-17.2-25-17.2-40.7s6-29.9,17.2-40.8
		c11-10.7,25.9-16.7,41.4-16.7s30.5,6,41.6,16.7c11.2,10.9,17,25.2,17,40.8S368.6,1666.7,357.6,1677.4z M347.7,1668.7
		c8.6-8.6,13.2-19.6,13.2-31.9s-4.6-23.6-13.2-32.2c-8.6-8.6-19.6-13.2-31.8-13.2s-23.3,4.6-31.8,13.2c-8.6,8.7-13.2,19.9-13.2,32.2
		s4.6,23.2,13.2,31.9c8.7,8.7,19.6,13.3,31.8,13.3C327.9,1682,339,1677.4,347.7,1668.7z"/>
	<path d="M551,1616.8l-13.8,74.6h-12.7l22.2-114l38.3,90.7l38.3-90.7l22.2,114h-12.7l-14-74.6l-33.9,78.8L551,1616.8z"/>
	<path d="M813.1,1581.7v68.3c0,21.9,9.1,32.2,29.5,32.2s29.3-10.3,29.5-32.2v-68.3h13v68.3c0,29.6-14,44.3-42.5,44.3
		s-42.5-14.7-42.5-44.3v-68.3H813.1z"/>
	<path d="M1049,1577.4l79.6,87.6v-83.3h13v114l-79.6-86.7v82.4h-13V1577.4z"/>
	<path d="M1306.1,1581.7h13v109.7h-13V1581.7z"/>
	<path d="M1536.2,1591.2c-11.5,0-23.2,4.9-31.3,13.3c-8.4,8.7-12.6,19.5-12.6,32.4c0,10.1,2.5,18.7,7.5,25.9
		c8.7,12.4,22.1,19.5,37,19.5c13.8,0,25.9-5.7,35.9-17.3v17.3c-10.9,7.8-23.6,12-37,12c-11.7,0-22.9-3.5-32.4-10.1
		c-16-11-24.7-27.6-24.7-47.1c0-17,5.7-30.7,17.2-41.9c11.2-10.7,24.7-16.1,40.8-16.1c13,0,24.7,4,36,11.8v17
		C1562.1,1596.4,1550.5,1591.2,1536.2,1591.2z"/>
	<path d="M1817.5,1691.4h-14.1l-14.3-33.6h-42.8l-14.3,33.6H1718l49.7-114L1817.5,1691.4z M1750.2,1646.6h35l-17.5-40.3
		L1750.2,1646.6z"/>
	<path d="M2019.4,1591.2c-11.5,0-23.2,4.9-31.3,13.3c-8.4,8.7-12.6,19.5-12.6,32.4c0,10.1,2.5,18.7,7.5,25.9
		c8.7,12.4,22.1,19.5,37,19.5c13.8,0,25.9-5.7,35.9-17.3v17.3c-10.9,7.8-23.6,12-37,12c-11.7,0-22.9-3.5-32.4-10.1
		c-16-11-24.7-27.6-24.7-47.1c0-17,5.7-30.7,17.2-41.9c11.2-10.7,24.7-16.1,40.8-16.1c13,0,24.7,4,36,11.8v17
		C2045.3,1596.4,2033.6,1591.2,2019.4,1591.2z M1999.6,1715.8c9,2.1,15.2,2.9,18.4,2.9c6,0,9.1-2,9.1-6.1c0-4.4-3.2-6.4-10-6.4
		c-1.2,0-2.5,0-4,0.2v-14.9h5.7v7.7h2.1c11,0,16.7,4.8,16.7,13.5c0,9-6.4,14.1-18.7,14.1c-4.8,0-11.4-1.1-19.3-3.4V1715.8z"/>
	<path d="M2300.7,1691.4h-14.1l-14.3-33.6h-42.8l-14.3,33.6h-14.1l49.7-114L2300.7,1691.4z M2258.2,1565.6c-1.5,0-3.2-0.3-4.9-0.8
		l-7.2-2c-1.5-0.5-2.8-0.6-3.7-0.6c-3.1,0-5.4,1.7-6.7,5.1h-6.6c1.8-10,7.1-15.3,14.4-15.3c1.5,0,3.1,0.2,4.4,0.6l7.4,2.1
		c1.7,0.5,2.9,0.8,4,0.8c3.4,0,5.7-1.8,7.1-5.5h6.6C2270.9,1560.2,2265.7,1565.6,2258.2,1565.6z M2233.3,1646.6h35l-17.5-40.3
		L2233.3,1646.6z"/>
	<path d="M2545.2,1677.4c-11.2,10.9-26.2,16.9-41.6,16.9c-15.5,0-30.4-6.1-41.4-16.9c-11.2-10.9-17.2-25-17.2-40.7s6-29.9,17.2-40.8
		c11-10.7,25.9-16.7,41.4-16.7s30.5,6,41.6,16.7c11.2,10.9,17,25.2,17,40.8S2556.2,1666.7,2545.2,1677.4z M2535.4,1668.7
		c8.6-8.6,13.2-19.6,13.2-31.9s-4.6-23.6-13.2-32.2c-8.6-8.6-19.6-13.2-31.8-13.2s-23.3,4.6-31.8,13.2c-8.6,8.7-13.2,19.9-13.2,32.2
		s4.6,23.2,13.2,31.9c8.7,8.7,19.6,13.3,31.8,13.3C2515.6,1682,2526.6,1677.4,2535.4,1668.7z"/>
</g>
</svg>
