<?xml version="1.0" encoding="utf-8"?>
<!-- Generator: Adobe Illustrator 21.1.0, SVG Export Plug-In . SVG Version: 6.00 Build 0)  -->
<svg version="1.1" id="Layer_1" xmlns="http://www.w3.org/2000/svg" xmlns:xlink="http://www.w3.org/1999/xlink" x="0px" y="0px"
	 viewBox="0 0 64 64" style="enable-background:new 0 0 64 64;" xml:space="preserve">
<style type="text/css">
	.st0{opacity:0.2;}
	.st1{fill:#231F20;}
	.st2{fill:#9B59B6;}
</style>
<g id="Layer_1_1_">
	<g class="st0">
		<g>
			<path class="st1" d="M32,2.9c-13.7,0-24.7,11-24.7,24.4C7.3,48.7,32,64,32,64s24.7-14.9,24.7-36.7C56.7,13.9,45.7,2.9,32,2.9z
				 M32,37.8c-6.4,0-11.6-5.2-11.6-11.6S25.6,14.5,32,14.5s11.6,5.2,11.6,11.6S38.4,37.8,32,37.8z"/>
		</g>
	</g>
	<g>
		<path class="st2" d="M32,0C18.3,0,7.3,10.9,7.3,24.4C7.3,45.8,32,61.1,32,61.1s24.7-14.9,24.7-36.7C56.7,10.9,45.7,0,32,0z
			 M32,34.9c-6.4,0-11.6-5.2-11.6-11.6S25.6,11.6,32,11.6s11.6,5.2,11.6,11.6S38.4,34.9,32,34.9z"/>
	</g>
</g>
<g id="Layer_2">
</g>
</svg>
