<?xml version="1.0" encoding="utf-8"?>
<!-- Generator: Adobe Illustrator 21.1.0, SVG Export Plug-In . SVG Version: 6.00 Build 0)  -->
<svg version="1.1" id="Layer_1" xmlns="http://www.w3.org/2000/svg" xmlns:xlink="http://www.w3.org/1999/xlink" x="0px" y="0px"
	 viewBox="0 0 226.8 226.8" style="enable-background:new 0 0 226.8 226.8;" xml:space="preserve">
<style type="text/css">
	.st0{fill:#9B59B6;}
	.st1{fill:#222222;}
	.st2{fill:#F1C40F;}
	.st3{fill:#ECF0F1;}
</style>
<g>
	<path class="st0" d="M67.5,219.9c-17.9,0-24.3-14-24.3-27.1v-0.2l-3.9-47.9c0-1.1-1-3.5-1.6-4.5c-2.1-0.6-2.9-2.6-2.9-3.7
		c0-2.1,1.6-4,3.7-4.2c0.2,0,0.3,0,0.3,0c0.2,0,0.2,0,0.3,0c7.9,0,140.7-1.9,155-2.3c0.3,0,0.6,0,0.8,0c0.3,0,0.5,0,0.8,0
		c2.1,0.3,3.5,2.1,3.5,4c0,0.8-0.3,3.4-3.5,3.9c-0.5,0.5-1,1.6-1,2.3c-2.1,20.9-6,49.8-6.3,51.6c-3.1,16.9-6.1,28-22.4,28
		L67.5,219.9L67.5,219.9z"/>
	<g>
		<path class="st1" d="M195.1,134c0.2,0,0.2,0,0.3,0c0.2,0-0.2,0-0.6,0C194.8,134,194.9,134,195.1,134 M194.6,134.2
			c-1.9,0.5-3.7,3.9-3.9,5.8c-2.1,20.3-6,49.3-6.3,51.2c-3.1,17.2-5.8,24.7-18.4,24.7H67.3c-18.7,0-20.3-17.6-20.3-23
			c0-0.2,0-0.2,0-0.3l-3.9-48c-0.2-2.1-1.9-7.7-4.2-8.1l0,0C46.9,136.4,183.3,134.5,194.6,134.2 M39,136.4h0.2
			C38.8,136.4,38.8,136.4,39,136.4L39,136.4 M195.1,125.9L195.1,125.9c-0.3,0-0.8,0-1.1,0c-15.1,0.3-146.1,2.3-154.5,2.3
			c-0.2,0-0.3,0-0.5,0c-0.2,0-0.5,0-0.6,0c-4.4,0.3-7.6,4-7.6,8.4c0.2,2.6,1.5,5.2,3.9,6.6c0.3,0.6,0.5,1.5,0.5,1.9l3.9,47.7
			c0,14.3,7.4,31.1,28.4,31.1h98.8c20.8,0,23.7-16.6,26.3-31.3c0,0,0,0,0-0.2c0.5-2.4,4.2-31.1,6.3-51.2c4.5-1.9,4.7-6.9,4.7-7.1
			c0.2-4.2-3.1-7.7-7.1-8.2C195.9,125.9,195.6,125.9,195.1,125.9L195.1,125.9z"/>
	</g>
</g>
<g>
	<path class="st2" d="M114.2,207.9c-6.8,0-16.1-9.3-22.2-22.2c-7.1-15-7.7-29.6-1.3-32.9c1.1-0.6,2.3-0.6,2.7-0.6
		c6.4,0,15.3,8.7,21.6,21.1c6.3-12.4,15.1-21.1,21.6-21.1c0.5,0,1.6,0,2.7,0.6c1,0.5,2.6,1.6,3.5,4.4c1.9,5.3,1.1,16.1-4.8,28.7
		c-6,12.9-15.3,22.2-22.2,22.2h-1.6V207.9z"/>
	<g>
		<path class="st1" d="M136.8,156.2c0.3,0,0.6,0,1,0.2c3.2,1.5,3.7,13.4-3.1,27.6c-5.8,12.4-14.2,20-18.5,20c0,0-0.2,0-0.3,0
			c-0.2,0-0.3,0-0.5,0c-0.2,0-0.5,0-0.8,0c0,0-0.2,0-0.3,0c-4.4,0-12.7-7.7-18.5-20c-6.8-14.2-6.3-25.9-3.1-27.6
			c0.3-0.2,0.6-0.2,1-0.2c4.2,0,12.1,7.1,18,18.9c0.6,1.5,2.1,2.3,3.5,2.3c1.5,0,2.9-1,3.5-2.3C124.7,163.3,132.6,156.2,136.8,156.2
			 M136.8,148.2c-8.1,0-16,8.1-21.6,16.9c-5.6-8.7-13.5-16.9-21.6-16.9c-0.6,0-2.6,0-4.5,1c-9.8,5-7.7,23.4-0.6,38.2
			c8.1,16.9,18.7,24.5,25.8,24.5h0.3h0.8h0.5h0.3c7.1,0,17.9-7.6,25.8-24.7c5.6-11.9,7.6-24.3,4.8-31.7c-1.5-3.9-3.9-5.6-5.6-6.6
			C139.3,148.2,137.6,148.2,136.8,148.2L136.8,148.2z"/>
	</g>
</g>
<g>
	<g>
		<path class="st2" d="M68.6,123.5c-9,0-16.8,0-22.2,0c-2.7,0-4.8,0-6.4,0c-2.6,0-6.1,0-6.3-3.9c-0.2-2.1,1.5-4,3.5-4.2l0,0l0,0
			c-0.3-0.3-0.5-0.5-0.6-1c-0.8-1.5-1.1-3.7-1.3-5.2c-0.5-5.8,3.1-10.6,8.2-11.3l0,0c-1.6-3.2-2.4-6.4-2.7-9.7
			c-0.5-6.3,1.6-12.7,6-17.7c4.2-4.8,10.3-7.7,16.6-8.1h0.2c0,0,0.2,0,0.3-0.2c0,0,0,0,0-0.2V62c-0.2-0.8-0.3-1.6-0.3-2.4
			c-0.8-11.4,7.3-21.3,17.7-22.1c0.2,0,0.2,0,0.3,0c1.5,0,7.9-1,10.8-4.8c1.6-2.1,2.1-4.5,1.5-7.6l0,0l-5.3-10
			c-0.5-0.8-0.6-1.9-0.3-2.9c0.3-1.3,1-3.1,2.6-4c1-0.8,2.3-1.1,3.9-1.1c0.8,0,1.6,0.2,2.6,0.3c0.5,0.2,1,0.3,1.3,0.6
			c1.6,1.1,10.5,6.9,20,11c0.2,0,0.3,0,0.5,0.2c1,0.3,24.3,9,28.5,21.9c0.3,0,0.3,0,0.5,0c9.5,0,17.7,11.3,18.7,25.6
			c0,0.2,0,0.2,0,0.3v3.9V71l0,0c1.8-0.8,3.5-1.3,5.5-1.3c0.3,0,0.5,0,0.8,0c11.4,0,20.9,11.6,22.1,27.1c0.2,5-2.1,14.3-3.7,19
			c1.8,0.6,2.7,2.6,2.4,4.5c-0.5,3.4-2.9,3.4-7.4,3.4c-2.3,0-5.3,0-9.3,0c-7.9,0-18.9,0-31.3,0C121.1,123.5,90.8,123.5,68.6,123.5z"
			/>
		<path class="st1" d="M94.5,11.1c0.5,0,1.1,0,1.8,0.2c2.4,1.6,11.4,7.4,21.1,11.4h0.2c6.1,2.3,23,10.2,26.1,19.3
			c0.6,1.6,2.1,2.7,3.7,2.7c0.2,0,0.2,0,0.3,0c0.2,0,0.2,0,0.3,0c7.1,0,13.9,9.8,14.7,21.9c0,1.1,0,2.4,0,3.9s0.6,2.7,1.8,3.5
			c0.6,0.5,1.5,0.6,2.1,0.6c0.6,0,1.1-0.2,1.8-0.3c1.3-0.6,2.7-1,4-1c0.2,0,0.5,0,0.6,0c9.2,0,17.1,10.3,18,23.4
			c0.2,4.2-1.9,12.9-3.5,17.4c-0.8,2.1,0.3,4.4,2.3,5.2c0.3,0.2-76.5,0.2-121,0.2c-18.4,0-31.3,0-30.9,0c1.1,0,2.3-0.6,2.9-1.6
			c0.2-0.2,0.2-0.5,0.3-0.6c0.8-1.5,0.5-3.4-0.6-4.5c-0.3-0.6-0.6-1.9-0.8-3.7c-0.3-3.5,1.8-6.6,4.7-6.9c1.3-0.2,2.4-1,3.1-2.1
			c0.6-1.1,0.6-2.6,0-3.7c-1.3-2.6-2.1-5.3-2.3-8.1c-0.5-5.5,1.5-10.8,5-14.8c3.5-4,8.5-6.4,13.9-6.8c0.2,0,0.3,0,0.3,0
			c1.3-0.2,2.3-0.8,3.1-1.6c0.8-0.8,1-2.1,0.8-3.2c-0.2-1-0.3-1.8-0.3-2.4c-0.6-9.2,5.6-17.2,14-17.9c1,0,9.7-0.6,14-6.4
			c1.6-2.1,3.2-5.6,2.1-10.8c0-0.3-0.2-0.6-0.3-1l-5.5-10.2c0.2-0.6,0.5-1.5,1-1.8C93.4,11.1,93.9,11.1,94.5,11.1 M94.5,3
			c-2.9,0-4.8,1-6.1,1.9c-2.6,1.8-3.7,4.5-4.2,6.4c-0.5,1.9-0.2,4,0.8,5.8l5.2,9.5c0.3,1.6,0,2.7-0.6,3.7l0,0
			c-1.6,2.3-6,3.1-7.7,3.2c-0.2,0-0.3,0-0.5,0c-12.6,1-21.9,12.4-21.4,25.6c-6,1.1-11.6,4.4-15.6,9c-5,5.8-7.6,13.4-6.9,20.8
			c0.2,2.3,0.6,4.7,1.3,6.9c-4.5,2.6-7.4,8.1-6.8,14c0.2,1.5,0.3,2.7,0.6,3.9c-1.6,1.6-2.6,3.9-2.4,6.3c0.2,2.6,2.1,7.6,8.5,7.6
			c0.3,0,1,0,1.8,0c1.5,0,3.7,0,6.4,0c5.5,0,13.2,0,22.2,0c21.9,0,52.2,0,77.2,0c12.4,0,23.4,0,31.3,0c4,0,7.1,0,9.3,0
			c1.1,0,1.9,0,2.6,0c7.1-0.2,8.5-5.2,8.7-6.8c0.3-2.4-0.3-4.7-1.8-6.4c1.6-5.3,3.4-13.1,3.1-17.7c0-0.2,0-0.2,0-0.3
			c-1.3-17.6-12.6-30.8-26.1-30.8c-0.3,0-0.6,0-0.8,0c-0.5,0-1,0-1.5,0.2c-1.3-15.1-10-27.2-20.5-28.7c-2.4-4.8-7.1-9.5-14.2-13.9
			c-5.6-3.5-11.8-6.4-15.8-7.9c-0.2,0-0.3-0.2-0.6-0.2c-9-3.9-17.4-9.3-19-10.3c-0.8-0.5-1.8-1-2.7-1.1C96.8,3,95.5,3,94.5,3L94.5,3
			z"/>
	</g>
</g>
<g>
	<g>
		<path class="st0" d="M60.1,103.1c-1.6,0-3.1-1-3.7-2.4l-5-11.3c-1-2.1,0-4.4,2.1-5.3c2.1-1,4.4,0,5.3,2.1l5,11.3
			c1,2.1,0,4.4-2.1,5.3C61.2,102.9,60.7,103.1,60.1,103.1z"/>
	</g>
	<g>
		<path class="st0" d="M75.4,82.8c-2.3,0-4-1.8-4-4V65.5c0-2.3,1.8-4,4-4s4,1.8,4,4v13.2C79.4,81,77.5,82.8,75.4,82.8z"/>
	</g>
	<g>
		<path class="st0" d="M97.9,91.8c-0.8,0-1.6-0.2-2.3-0.6c-1.8-1.3-2.3-3.7-1.1-5.6l5.2-7.6c1.3-1.8,3.7-2.3,5.6-1.1
			c1.8,1.3,2.3,3.7,1.1,5.6l-5.2,7.6C100.5,91.1,99.2,91.8,97.9,91.8z"/>
	</g>
	<g>
		<path class="st0" d="M122.7,49.4c-1.5,0-2.7-0.8-3.5-2.1L113.6,37c-1.1-1.9-0.3-4.4,1.6-5.5c1.9-1.1,4.4-0.3,5.5,1.6l5.6,10.3
			c1.1,1.9,0.3,4.4-1.6,5.5C124,49.2,123.4,49.4,122.7,49.4z"/>
	</g>
	<g>
		<path class="st0" d="M108.9,59.9c-2.3,0-4-1.8-4-4V45.4c0-2.3,1.8-4,4-4s4,1.8,4,4v10.5C112.9,58.1,111,59.9,108.9,59.9z"/>
	</g>
	<g>
		<path class="st0" d="M171.1,97.4c-0.5,0-1.1-0.2-1.6-0.3c-2.1-0.8-2.9-3.2-2.1-5.3l4.2-9.5c1-2.1,3.2-2.9,5.3-2.1
			c2.1,0.8,2.9,3.2,2.1,5.3l-4.2,9.5C174.1,96.5,172.7,97.4,171.1,97.4z"/>
	</g>
	<g>
		<path class="st0" d="M144.3,103.1c-1.5,0-2.7-0.8-3.5-2.1l-6.1-11.3c-1.1-1.9-0.3-4.4,1.6-5.5c1.9-1.1,4.4-0.3,5.5,1.6l6.1,11.3
			c1.1,1.9,0.3,4.4-1.6,5.5C145.6,102.9,145,103.1,144.3,103.1z"/>
	</g>
	<g>
		<path class="st0" d="M153.7,76.1c-1,0-1.8-0.3-2.6-1l-9.3-7.9c-1.8-1.5-1.9-4-0.5-5.6c1.5-1.8,4-1.9,5.6-0.5l9.3,7.9
			c1.8,1.5,1.9,4,0.5,5.6C155.9,75.7,154.8,76.1,153.7,76.1z"/>
	</g>
</g>
<g>
	<path class="st3" d="M178.7,141.7c-11.1,0-17.4-3.4-21.9-5.8l-0.8-0.5c-3.2-1.6-5-2.6-9.7-2.6c-4.5,0-6.4,1-9.7,2.6l-0.8,0.5
		l-0.2,0.2c-4.5,2.4-10.8,5.8-21.9,5.8s-17.4-3.4-21.9-5.8l-0.3-0.2c-3.4-1.9-5.2-2.9-10.2-2.9c-4.8,0-6.6,1-10.2,2.9l-0.3,0.2
		c-4.5,2.4-10.8,5.8-21.9,5.8s-17.4-3.4-21.9-5.8l-0.8-0.5c-3.2-1.6-5-2.6-9.7-2.6c-6.3,0-11.4-4.5-11.4-10.2s5.2-10.2,11.4-10.2
		c11.1,0,17.4,3.4,21.9,5.8l0.8,0.5c3.2,1.6,5,2.6,9.7,2.6c4.8,0,6.6-1,10.2-2.9l0.3-0.2c4.5-2.4,10.8-5.8,21.9-5.8
		s17.4,3.4,21.9,5.8l0.8,0.5c3.2,1.6,5,2.6,9.7,2.6c4.8,0,6.6-1,10.2-2.9l0.3-0.2c4.5-2.4,10.8-5.8,21.9-5.8
		c11.1,0,17.4,3.4,21.9,5.8l0.8,0.5c3.2,1.6,5,2.6,9.7,2.6c5,0,6.8-1,10.3-2.9l0.3-0.2c4.5-2.4,10.8-5.8,21.9-5.8
		c6.3,0,11.4,4.5,11.4,10.2S217.3,133,211,133c-4.8,0-6.6,1-10.2,2.9l-0.3,0.2C195.9,138.3,189.6,141.7,178.7,141.7z"/>
	<g>
		<path class="st1" d="M211,116.6c4,0,7.4,2.7,7.4,6.1s-3.4,6.1-7.4,6.1c-5.8,0-8.4,1.3-12.1,3.4c-4.5,2.4-10,5.5-20.3,5.5
			s-15.8-3.1-20.3-5.5c-3.7-1.9-6.1-3.4-12.1-3.4c-6,0-8.4,1.5-12.2,3.4c-4.5,2.4-10,5.5-20.3,5.5s-15.8-3.1-20.3-5.5
			c-3.7-2.1-6.1-3.4-12.1-3.4c-5.8,0-8.4,1.3-12.1,3.4c-4.5,2.4-10,5.5-20.3,5.5s-15.8-3.1-20.3-5.5c-3.7-1.9-6.1-3.4-12.1-3.4
			c-4,0-7.4-2.7-7.4-6.1s3.4-6.1,7.4-6.1c10.3,0,15.8,3.1,20.3,5.5c3.7,1.9,6.1,3.4,12.1,3.4c5.8,0,8.4-1.3,12.1-3.4
			c4.5-2.4,10-5.5,20.3-5.5s15.8,3.1,20.3,5.5c3.7,1.9,6.1,3.4,12.1,3.4c5.8,0,8.4-1.3,12.1-3.4c4.5-2.4,10-5.5,20.3-5.5
			c10.3,0,15.8,3.1,20.3,5.5c3.7,1.9,6.1,3.4,12.1,3.4c6,0,8.5-1.3,12.2-3.4C195.3,119.7,200.7,116.6,211,116.6 M211,108.5
			c-12.1,0-18.9,3.7-23.8,6.3l-0.3,0.2c0,0-0.2,0-0.2,0.2c-2.9,1.6-4.2,2.4-8.2,2.4c-3.7,0-4.8-0.6-7.7-2.1l-0.6-0.3l-0.3-0.2
			c-5-2.6-11.8-6.3-23.8-6.3s-18.9,3.7-23.8,6.3l-0.3,0.2c0,0-0.2,0-0.2,0.2c-2.9,1.6-4.2,2.4-8.1,2.4c-3.7,0-4.8-0.6-7.7-2.1
			l-0.6-0.3l-0.3-0.2c-5-2.6-11.8-6.3-23.8-6.3s-18.9,3.7-23.8,6.3l-0.3,0.2c0,0-0.2,0-0.2,0.2c-2.9,1.6-4.2,2.4-8.1,2.4
			c-3.7,0-4.8-0.6-7.7-2.1l-0.6-0.3l-0.3-0.2c-5-2.6-11.8-6.3-23.8-6.3c-8.5,0-15.5,6.3-15.5,14.2s6.9,14.2,15.5,14.2
			c3.7,0,4.8,0.6,7.7,2.1l0.6,0.3l0.3,0.2c5,2.6,11.8,6.3,23.8,6.3s18.9-3.7,23.8-6.3l0.3-0.2c0,0,0.2,0,0.2-0.2
			c2.9-1.6,4.2-2.4,8.1-2.4c4,0,5,0.6,8.1,2.4c0,0,0.2,0,0.2,0.2l0.3,0.2c5,2.6,11.8,6.3,23.8,6.3s18.9-3.7,23.8-6.3l0.2-0.2
			l0.6-0.3c3.1-1.6,4.2-2.1,7.7-2.1c3.7,0,4.8,0.6,7.7,2.1l0.6,0.3l0.3,0.2c5,2.6,11.8,6.3,23.8,6.3s18.9-3.7,23.8-6.3l0.3-0.2
			c0,0,0.2,0,0.2-0.2c2.9-1.6,4.2-2.4,8.1-2.4c8.5,0,15.5-6.3,15.5-14.2S219.4,108.5,211,108.5L211,108.5z"/>
	</g>
</g>
</svg>
