<svg id="Layer_1" data-name="Layer 1" xmlns="http://www.w3.org/2000/svg" viewBox="-216 -598 4096 2160"><defs><style>.cls-1{fill:#b3b3b3;}.cls-2{fill:#c11435;}.cls-3{fill:#e21b39;}.cls-4{fill:#cacaca;}.cls-5{fill:#fff;}.cls-6{fill:#ccc;}</style></defs><title>logo</title><path class="cls-1" d="M3741,720.84c.44-.05.87,0,1.31-.08a155.3,155.3,0,0,0,.3-21,160.2,160.2,0,0,1-2.11,21.22C3740.63,720.9,3740.79,720.86,3741,720.84Z" transform="translate(-216 -508.13)"/><path class="cls-1" d="M3403.89,761.49a119.43,119.43,0,0,0,17.74-3.46c9.32-11.27,15.45-18.7,15.45-18.71a120.29,120.29,0,0,1-166.75-97c-.21-1.81-.22-3.59-.34-5.38a119.62,119.62,0,0,0,133.9,124.58Z" transform="translate(-216 -508.13)"/><path class="cls-1" d="M3769.41,968.73A124.77,124.77,0,0,1,3631.24,859L3570.13,991.6l-.09,0a266.81,266.81,0,0,0-231.72-119.3c-6.88,8.32-11.22,13.55-11.22,13.55l.44.22c99.25-7.57,190.8,40.51,242.7,118.83l.09,0,61.12-132.59a124.68,124.68,0,0,0,248.26-22.63A124.68,124.68,0,0,1,3769.41,968.73Z" transform="translate(-216 -508.13)"/><path class="cls-2" d="M3638.25,1130.1a143.22,143.22,0,0,0-58.1-88.41l-2.33-1.64-2.4-1.52-2.4-1.5a149.63,149.63,0,0,0-6.29-13.58l-.69-1.32-.72-1.29a141.67,141.67,0,0,0-72-63q-5-1.92-10-3.47a140.52,140.52,0,0,0-50.13-38.44,143.53,143.53,0,0,0-101.66-6.76c-1.16.35-2.26.82-3.41,1.2a144.57,144.57,0,0,0-18.94-21.86,143,143,0,0,0-90.48-39,146.43,146.43,0,0,0-102.32-43,142.69,142.69,0,0,0-34.61,4.28,140.1,140.1,0,0,0-68.89,40.37l-21.8.17A139.53,139.53,0,0,0,2890.38,894a142.27,142.27,0,0,0-51.05,29.88c-23.36-10.8-49.75-16.33-78.7-16.33A198.85,198.85,0,0,0,2672,928.41a180.71,180.71,0,0,0-61-16.32q-7.34-.68-14.52-.68a167.78,167.78,0,0,0-52,8.48,190.39,190.39,0,0,0-35.36-7.53,170.09,170.09,0,0,0-19.28-1.1,177.7,177.7,0,0,0-59.86,10.56,205.89,205.89,0,0,0-27.49,11.85,143.76,143.76,0,0,0-43.08,14.3,140.36,140.36,0,0,0-44.23-32.06,143.53,143.53,0,0,0-101.66-6.76c-2.9.88-5.72,2-8.54,3a138.7,138.7,0,0,0-38.6-5.64,141.06,141.06,0,0,0-56.58,11.86L2107,919.6a142.9,142.9,0,0,0-37.83-9.75,201.26,201.26,0,0,0-19.59-41.33,254.71,254.71,0,0,0-83.91-82.38A315.3,315.3,0,0,0,1865.44,747a388.28,388.28,0,0,0-78.77-8.48c-5,0-10,.11-14.9.33A353.83,353.83,0,0,0,1674,757.17a262.92,262.92,0,0,0-102.93,63.73,249.91,249.91,0,0,0-72.67,188.24,207.63,207.63,0,0,0,7.14,45.71,164.17,164.17,0,0,0-21.44,12.57,157.28,157.28,0,0,0-57.71,74.47l-.23.61-.22.61a156.66,156.66,0,0,0-9.55,62.39,227.78,227.78,0,0,0,3.51,29.23l.28,1.53.32,1.52a296.12,296.12,0,0,0,99.75,165,302.39,302.39,0,0,0,87.85,50.07,329.13,329.13,0,0,0,95.11,19.32c6.33.34,12.71.51,19,.51a349.1,349.1,0,0,0,75.51-8.27,409.62,409.62,0,0,0,87.3-30.52,381.31,381.31,0,0,0,83.09-53.94c2.67-2.29,5.26-4.64,7.85-7a158.66,158.66,0,0,0,23,6,161.81,161.81,0,0,0,28.81,2.62,176.25,176.25,0,0,0,54.87-9,170.55,170.55,0,0,0,48.13,6.66c1.85,0,3.75,0,5.68-.09,25.49-.69,50.67-7.91,75-21.28a173.94,173.94,0,0,0,91,26.36,173.53,173.53,0,0,0,28.85-2.42c2.44.12,4.88.41,7.33.41a143,143,0,0,0,49.06-8.3l12.11,6.9h17.64a15.43,15.43,0,0,1,2,0,153.87,153.87,0,0,0,21.87,1.43,143.92,143.92,0,0,0,36.26-4.66,125.26,125.26,0,0,0,26.74-9.71c5.35,2.84,10.93,6.75,16.73,9,18.52,7.18,38.41,12.12,59.41,12.12h6c14,0,28-3.58,41.7-7.94,7.47-2.1,14.81-4.08,22.08-7.08,27.58,9.49,55.69,15,83.6,15h7c8.59,0,17.18-2.07,25.61-3.44,5.9-.82,11.73-3.62,17.54-4.86,31.73,27.48,72.3,41,116,41h2c37,0,73.22-9.84,104.64-30.36l2.62-1.2,2.52-1.59c1.36-1,2.66-1.94,4-3a182.51,182.51,0,0,0,36.29,3.9c26,0,51.35-3.94,75.7-14.54,25.91,8.34,52.24,14,78.39,14h7c8.59,0,17.18-2.07,25.61-3.44,30.22-4.2,59.37-14.65,86.88-29.64a176.07,176.07,0,0,0,94.86,28.48,169.37,169.37,0,0,0,57.87-10.1l.94-.38.93-.38c25.63-9.75,49.16-25.24,69.95-46a327.59,327.59,0,0,0,36.11-43.41c8.21-11.67,17.09-24.92,27.12-40.46l.23-.35.22-.35,3.85-6.06A140.36,140.36,0,0,0,3638.25,1130.1Z" transform="translate(-216 -508.13)"/><path class="cls-2" d="M1551.86,1107.18a142.58,142.58,0,0,0-44.39-60.11,146.69,146.69,0,0,0-7.72-20.64l-3.29-7.13-4.17-6.66c-.84-1.34-1.37-2.28-1.66-2.83-7.78-14.56-18-27.92-32.29-42.2l-.65-.65-.65-.64c-32.48-31.52-73.52-51-119.43-56.92A139.91,139.91,0,0,0,1273,826.66a141.67,141.67,0,0,0-107.46-15.95,143.84,143.84,0,0,0-21,7.17,141.42,141.42,0,0,0-90.21-7.17,140.09,140.09,0,0,0-87.48,65.2c-8,12.74-15.38,25-22.57,37a204.67,204.67,0,0,0-75.35-3.37,201.9,201.9,0,0,0-19.5-41,254.71,254.71,0,0,0-83.91-82.38A315.12,315.12,0,0,0,665.28,747a388.11,388.11,0,0,0-78.76-8.48c-5,0-10,.11-14.91.33a353.76,353.76,0,0,0-97.77,18.35A262.85,262.85,0,0,0,370.91,820.9a249.81,249.81,0,0,0-72.67,188.24,206.45,206.45,0,0,0,7.14,45.71,164.17,164.17,0,0,0-21.44,12.57,157.22,157.22,0,0,0-57.71,74.47l-.23.61-.23.61a156.83,156.83,0,0,0-9.55,62.39,229.66,229.66,0,0,0,3.52,29.23l.28,1.53.32,1.52a296,296,0,0,0,99.75,165,302.39,302.39,0,0,0,87.85,50.07,329.06,329.06,0,0,0,95.1,19.32c6.34.34,12.71.51,19,.51a349,349,0,0,0,75.51-8.27,409.51,409.51,0,0,0,87.31-30.52,381.31,381.31,0,0,0,83.09-53.94c4-3.47,8-7.05,11.83-10.7.91.36,1.76.81,2.67,1.16l1.11.41,1.11,1.78c28.27,10,57.13,16.42,85.76,16.42h7c8.58,0,17.18-2.07,25.61-3.44,15.16-2.11,30-6.36,44.58-11.21,3.27,1.16,6.45,2.12,9.81,3.11a163.73,163.73,0,0,0,53,8.28,182.48,182.48,0,0,0,56.18-9.26c.7.21,1.35.47,2.05.68a163.73,163.73,0,0,0,53,8.43,183.71,183.71,0,0,0,60.08-10.56,172.58,172.58,0,0,0,49.11,7.19,178.7,178.7,0,0,0,47.78-6.4,165.25,165.25,0,0,0,62.09,11.76,167.35,167.35,0,0,0,62.92-12.48c43.65-16.6,81.29-49.85,115-101.55l1-1.6,1-1.63c7.69-12.64,13.92-23.51,19.07-33.24a236.06,236.06,0,0,0,11.89-24.89A143.07,143.07,0,0,0,1551.86,1107.18Z" transform="translate(-216 -508.13)"/><path class="cls-3" d="M3638.25,1089.18a143.22,143.22,0,0,0-58.1-88.41l-2.33-1.64-2.4-1.53-2.4-1.49a149.63,149.63,0,0,0-6.29-13.58l-.69-1.32-.72-1.29c-16-28.76-112.46-96-132.07-104.93a143.53,143.53,0,0,0-101.66-6.76c-1.16.35-2.26.82-3.41,1.2a144.57,144.57,0,0,0-18.94-21.86,143,143,0,0,0-90.48-39,146.43,146.43,0,0,0-102.32-43,142.69,142.69,0,0,0-34.61,4.28,140.1,140.1,0,0,0-68.89,40.37l-21.8.17a139.52,139.52,0,0,0-100.76,42.71,142.44,142.44,0,0,0-51.05,29.89c-23.36-10.8-49.75-16.33-78.7-16.33A198.85,198.85,0,0,0,2672,887.49a180.71,180.71,0,0,0-61-16.32q-7.34-.69-14.52-.68a167.78,167.78,0,0,0-52,8.48,189.58,189.58,0,0,0-35.36-7.53,170.09,170.09,0,0,0-19.28-1.1,177.7,177.7,0,0,0-59.86,10.56,205.89,205.89,0,0,0-27.49,11.85,143.76,143.76,0,0,0-43.08,14.3A140.2,140.2,0,0,0,2315.1,875a143.53,143.53,0,0,0-101.66-6.76c-2.9.88-5.72,2-8.54,3a139.06,139.06,0,0,0-38.6-5.63,141.06,141.06,0,0,0-56.58,11.86l-2.71,1.21a142.9,142.9,0,0,0-37.83-9.75,201.26,201.26,0,0,0-19.59-41.33,254.71,254.71,0,0,0-83.91-82.38,315.3,315.3,0,0,0-100.24-39.17,388.28,388.28,0,0,0-78.77-8.48c-5,0-10,.11-14.9.33A353.83,353.83,0,0,0,1674,716.25,262.92,262.92,0,0,0,1571.06,780a249.91,249.91,0,0,0-72.67,188.24,207.63,207.63,0,0,0,7.14,45.71,164.17,164.17,0,0,0-21.44,12.57,157.23,157.23,0,0,0-57.71,74.47l-.23.61-.22.61a156.66,156.66,0,0,0-9.55,62.39,227.78,227.78,0,0,0,3.51,29.23l.28,1.53.32,1.52a296.12,296.12,0,0,0,99.75,165,302.62,302.62,0,0,0,87.85,50.07,329.13,329.13,0,0,0,95.11,19.32c6.33.34,12.71.51,19,.51a349.1,349.1,0,0,0,75.51-8.27,409.62,409.62,0,0,0,87.3-30.52,381.31,381.31,0,0,0,83.09-53.94c2.67-2.29,5.26-4.64,7.85-7a158.69,158.69,0,0,0,23,6,161.81,161.81,0,0,0,28.81,2.62,176.25,176.25,0,0,0,54.87-9,170.55,170.55,0,0,0,48.13,6.66c1.85,0,3.75,0,5.68-.09,25.49-.69,50.67-7.91,75-21.28a173.94,173.94,0,0,0,91,26.36,172.47,172.47,0,0,0,28.85-2.43c2.44.13,4.88.42,7.33.42a143,143,0,0,0,49.06-8.3l12.11,6.9h17.64a17.36,17.36,0,0,1,2,0,152.43,152.43,0,0,0,21.87,1.44,143.92,143.92,0,0,0,36.26-4.66,125.26,125.26,0,0,0,26.74-9.71c5.35,2.84,10.93,6.75,16.73,9,18.52,7.18,38.41,12.12,59.41,12.12h6c14,0,28-3.58,41.7-7.94,7.47-2.1,14.81-4.08,22.08-7.08,27.58,9.49,55.69,15,83.6,15h7c8.59,0,17.18-2.07,25.61-3.44,5.9-.82,11.73-3.62,17.54-4.86,31.73,27.47,72.3,41,116,41h2c37,0,73.22-9.84,104.64-30.36l2.62-1.2,2.52-1.59c1.36-1,2.66-1.94,4-3a182.51,182.51,0,0,0,36.29,3.9c26,0,51.35-3.94,75.7-14.54,25.91,8.34,52.24,14,78.39,14h7c8.59,0,17.18-2.07,25.61-3.44,30.22-4.2,59.37-14.65,86.88-29.64a176.07,176.07,0,0,0,94.86,28.48,169.61,169.61,0,0,0,57.87-10.1l.94-.38.93-.38c25.63-9.75,49.16-25.24,69.95-46a327.59,327.59,0,0,0,36.11-43.41c8.21-11.67,17.09-24.92,27.12-40.46l.23-.35.22-.35,3.85-6.06A140.36,140.36,0,0,0,3638.25,1089.18Z" transform="translate(-216 -508.13)"/><path class="cls-3" d="M1551.86,1066.26a142.58,142.58,0,0,0-44.39-60.11,146.69,146.69,0,0,0-7.72-20.64l-3.29-7.13-4.17-6.66c-.84-1.34-1.37-2.28-1.66-2.83-7.78-14.56-18-27.92-32.29-42.2l-.65-.65-.65-.64c-32.48-31.52-73.52-50.95-119.43-56.92A139.88,139.88,0,0,0,1273,785.74a141.67,141.67,0,0,0-107.46-16,143.84,143.84,0,0,0-21,7.17,141.42,141.42,0,0,0-90.21-7.17A140.09,140.09,0,0,0,966.85,835c-8,12.74-15.38,25-22.57,37a204.67,204.67,0,0,0-75.35-3.37,201.9,201.9,0,0,0-19.5-41,254.71,254.71,0,0,0-83.91-82.38,315.12,315.12,0,0,0-100.24-39.17,388.11,388.11,0,0,0-78.76-8.48c-5,0-10,.11-14.91.33a353.76,353.76,0,0,0-97.77,18.35A262.85,262.85,0,0,0,370.91,780a249.81,249.81,0,0,0-72.67,188.24,206.45,206.45,0,0,0,7.14,45.71,164.17,164.17,0,0,0-21.44,12.57A157.17,157.17,0,0,0,226.23,1101l-.23.61-.23.61a156.83,156.83,0,0,0-9.55,62.39,229.66,229.66,0,0,0,3.52,29.23l.28,1.53.32,1.52a296,296,0,0,0,99.75,165,302.62,302.62,0,0,0,87.85,50.07,329.06,329.06,0,0,0,95.1,19.32c6.34.34,12.71.51,19,.51a349,349,0,0,0,75.51-8.27,409.51,409.51,0,0,0,87.31-30.52A381.31,381.31,0,0,0,767.94,1339c4-3.47,8-7.06,11.83-10.7.91.36,1.76.81,2.67,1.15l1.11.42,1.11,1.77c28.27,10,57.13,16.43,85.76,16.43h7c8.58,0,17.18-2.07,25.61-3.44,15.16-2.11,30-6.36,44.58-11.21,3.27,1.16,6.45,2.12,9.81,3.11a163.73,163.73,0,0,0,53,8.28,182.48,182.48,0,0,0,56.18-9.26c.7.21,1.35.47,2.05.68a163.73,163.73,0,0,0,53,8.43,183.71,183.71,0,0,0,60.08-10.56,172.58,172.58,0,0,0,49.11,7.19,178.7,178.7,0,0,0,47.78-6.4,165.25,165.25,0,0,0,62.09,11.76,167.35,167.35,0,0,0,62.92-12.48c43.65-16.6,81.29-49.85,115-101.55l1-1.6,1-1.63c7.69-12.64,13.92-23.51,19.07-33.24a236.06,236.06,0,0,0,11.89-24.89A143.07,143.07,0,0,0,1551.86,1066.26Z" transform="translate(-216 -508.13)"/><path class="cls-4" d="M409.49,1148.38A333.28,333.28,0,0,0,443,1189.25a138.06,138.06,0,0,0,43.55,30.14,140.8,140.8,0,0,0,52.93,12.4,240.37,240.37,0,0,0,54.94-4.36,221.94,221.94,0,0,0,30.82-8,161.92,161.92,0,0,0,30.48-13.73,141.92,141.92,0,0,0,26.13-19.43,79.35,79.35,0,0,0,18.42-26.46,77.79,77.79,0,0,0,6-22.11,52.8,52.8,0,0,0-2-22.11q-5.37-15.4-18.76-23.12a103.48,103.48,0,0,0-27.46-11,154.56,154.56,0,0,0-34.84-4,58.19,58.19,0,0,1-18.76-.34q-9.39-1.65-10.72-14.4-.68-9.37,4.35-13.06a29.82,29.82,0,0,1,12.4-5,.6.6,0,0,1,.67-.67q5.36-.66,11.39-1.34a84.27,84.27,0,0,0,11.39-2,186.93,186.93,0,0,0,29.48-9.38,120.54,120.54,0,0,0,26.8-15.07A95,95,0,0,0,711,994.62a69.07,69.07,0,0,0,11.38-29.14q5.35-30.81-13.39-53.6a78.71,78.71,0,0,0-24.13-19.43,262.58,262.58,0,0,0-28.14-12.73A229.63,229.63,0,0,0,591.05,869a155.86,155.86,0,0,0-64.32,12.06,115.25,115.25,0,0,0-44.88,31.49q-18.11,20.78-19.43,50.25a72,72,0,0,0,.67,17.08,36.77,36.77,0,0,0,27.8,30.82,50.41,50.41,0,0,0,26.46.33,80.46,80.46,0,0,0,24.46-12,117.5,117.5,0,0,0,20.43-19.1,153.29,153.29,0,0,0,16.42-23.45q7-12.39,12.39-24.45l3.35-6.7a6,6,0,0,0,.67-2.68q4.68-8,11.39-11.39a18.13,18.13,0,0,1,11.72-1.34,20,20,0,0,1,9.72,5.36,22.4,22.4,0,0,1,5.69,10,20.27,20.27,0,0,1-.33,12.06q-3.36,10-7.71,19.76t-9.71,19.1q-6.71,14.73-12.4,29.81t-11.05,30.48q-12.74,33.51-23.45,67a697.28,697.28,0,0,0-18.09,68.34,38.5,38.5,0,0,1-4,10.72,15,15,0,0,1-8.71,6.7,16.14,16.14,0,0,1-12.39,1.67,18.48,18.48,0,0,1-10.39-7q-6.71-8.7-3.35-22.11l8-34.84q5.36-20.1,11.73-40.2t13.73-40.2a97.78,97.78,0,0,1-44.89,9.38,80.53,80.53,0,0,1-31.15-7.37,79.37,79.37,0,0,1-24.79-17.75,89.65,89.65,0,0,1-16.75-25.46,83,83,0,0,1-7-30.48,127,127,0,0,1,36.85-95.81A140.46,140.46,0,0,1,513,844.88a230,230,0,0,1,64-12.06q29.47-1.34,63.31,5.7a191.92,191.92,0,0,1,61.3,23.78,132.33,132.33,0,0,1,43.89,42.88q16.41,26.13,11.72,63a112.28,112.28,0,0,1-22.44,52.25,130.27,130.27,0,0,1-43.89,36.18A124.8,124.8,0,0,1,716.33,1072a76.52,76.52,0,0,1,19.43,22.11,79.45,79.45,0,0,1,9.38,24.79,109.2,109.2,0,0,1,2,26.8,127.21,127.21,0,0,1-17.08,62,192.08,192.08,0,0,1-41.87,50.25,256.93,256.93,0,0,1-56.28,36.51,285,285,0,0,1-61,21.44,226,226,0,0,1-61.3,5A205.71,205.71,0,0,1,450,1308.84,179.13,179.13,0,0,1,397.76,1279a173.46,173.46,0,0,1-57.28-95.13,107.19,107.19,0,0,1-1.67-13.74,36.74,36.74,0,0,1,15.07-30.48,39.51,39.51,0,0,1,18.76-7,44.9,44.9,0,0,1,20.1,2.69A35.23,35.23,0,0,1,409.49,1148.38Z" transform="translate(-216 -508.13)"/><path class="cls-4" d="M870.42,1234.8a134.26,134.26,0,0,1-44.89-8q-26.79-10-38.18-35.5t-4.69-61.64a182.8,182.8,0,0,1,14.06-43.88,187.34,187.34,0,0,1,25.47-40.54q34.15-43.53,75-43.55,17.41,0,28.14,5.37t16.08,11.38q14.73,16.08,14.74,39.53a90.83,90.83,0,0,1-7,34.17,124.82,124.82,0,0,1-19.76,32.83q-14.07,16.08-30.15,24.79a78.77,78.77,0,0,1-38.86,10q-12.74,1.35-28.14-6.7l-11.39-7.37a42.62,42.62,0,0,0-.33,14.07c.67,4.47,1.44,8.49,2.34,12.06q4.68,12.74,16.76,17.42,23.43,8.71,43.54,5a92.41,92.41,0,0,0,36.18-14.74,120.31,120.31,0,0,0,27.8-26.46,134.41,134.41,0,0,0,17.76-30.15,22.47,22.47,0,0,1,10.72-11.06,17.78,17.78,0,0,1,15.4-.33,22.28,22.28,0,0,1,11.06,11,17.1,17.1,0,0,1,.33,15.08,183.83,183.83,0,0,1-27.8,45.22,149.68,149.68,0,0,1-38.52,33.17,132.57,132.57,0,0,1-51.59,18.08,36.45,36.45,0,0,1-7,.67Zm-28.14-149.4a11.75,11.75,0,0,1-1.34,3.35q-3.36,7.38-2.68,12.06a24.17,24.17,0,0,0,2,7.37,25.92,25.92,0,0,0,10.05,9q6,3,8.71,3h.67q14.07,0,23.79-7.7a122.65,122.65,0,0,0,15.07-13.74,78.19,78.19,0,0,0,12.73-20.43q4.68-11.05,4.69-20.44a34.68,34.68,0,0,0-.67-6.7,10.23,10.23,0,0,0-2.68-5.36,19.25,19.25,0,0,0-7.7-3.68,34.91,34.91,0,0,0-7.71-1q-20.78,0-44.22,29.48Q847.63,1077.37,842.28,1085.4Z" transform="translate(-216 -508.13)"/><path class="cls-4" d="M1010.44,1234.13c-6.26,0-11.38-.9-15.41-2.67q-24.78-6-34.84-29.49-8-22.1-1.33-56.27,3.35-14.07,8.7-31.49a320,320,0,0,1,14.08-36.85q28.79-68.34,90.44-166.82a18.27,18.27,0,0,1,12.06-9.38,19.08,19.08,0,0,1,15.41,2.68,18.27,18.27,0,0,1,9.38,12.06q2,8-3.35,15.41-29.49,48.24-51.26,88.77t-35.84,73.36a389.6,389.6,0,0,0-15.07,40.2q-5,16.75-6.37,27.47a97.85,97.85,0,0,0-1,16.75c.22,4,.77,6.93,1.67,8.7a10.12,10.12,0,0,0,7.37,6.71,17.3,17.3,0,0,0,5.36.67q11.38,0,22.45-10.39a164.77,164.77,0,0,0,17.75-19.09,133,133,0,0,0,10.72-15.08c3.12-5.12,5.8-9.71,8-13.73l6.7-13.4a20.15,20.15,0,0,1,37.18,1,18.66,18.66,0,0,1-.33,15.08c0,.45-.79,2.24-2.35,5.36s-3.68,7-6.36,11.72-5.93,9.95-9.72,15.75-7.93,11.62-12.39,17.41q-20.1,26.82-38.52,36.18T1010.44,1234.13Z" transform="translate(-216 -508.13)"/><path class="cls-4" d="M1121.65,1234.13q-9.39,0-15.41-2.67-24.79-6-34.84-29.49-8-22.1-1.34-56.27,3.36-14.07,8.71-31.49a321.72,321.72,0,0,1,14.07-36.85q28.8-68.34,90.45-166.82a18.23,18.23,0,0,1,12-9.38,19.07,19.07,0,0,1,15.41,2.68,18.27,18.27,0,0,1,9.38,12.06c1.35,5.36.22,10.5-3.35,15.41q-29.47,48.24-51.25,88.77t-35.84,73.36a390,390,0,0,0-15.08,40.2q-5,16.75-6.36,27.47a99.1,99.1,0,0,0-1,16.75c.22,4,.78,6.93,1.68,8.7a10.1,10.1,0,0,0,7.37,6.71,17.3,17.3,0,0,0,5.36.67q11.38,0,22.44-10.39a165,165,0,0,0,17.76-19.09,134.3,134.3,0,0,0,10.72-15.08c3.12-5.12,5.8-9.71,8-13.73l6.71-13.4a20.15,20.15,0,0,1,37.18,1,18.66,18.66,0,0,1-.34,15.08q0,.68-2.34,5.36t-6.37,11.72q-4,7-9.71,15.75t-12.39,17.41q-20.1,26.82-38.53,36.18T1121.65,1234.13Z" transform="translate(-216 -508.13)"/><path class="cls-4" d="M1230.84,1230.78q-13.41,0-26.8-7.37-22.11-13.38-26.12-39.52-4-20.76,4-47.57,6.71-22.11,20.44-45.9a257.12,257.12,0,0,1,31.15-43.21q18.75-20.76,36.85-32.16,22.11-13.38,43.55-13.4,34.83,2,57.61,24.13,8,8,10.72,13.06t6,10.38q4,8.71.67,15.75a21.66,21.66,0,0,1-10,10.38,20.7,20.7,0,0,1-14.74,1.34c-5.35-1.34-9.61-5.36-12.72-12.06l-1.35-1.34h-.66q-1.35-2.67-7.37-10-10.07-10-29.48-11.39-9.39,0-22.78,8.71t-26.8,23.79a239,239,0,0,0-25.12,34.17,165.57,165.57,0,0,0-17.76,39.19,68.44,68.44,0,0,0-2.34,9.71,69.4,69.4,0,0,0-1,12.06,39,39,0,0,0,1.68,11.73,13.47,13.47,0,0,0,6.36,8,7.09,7.09,0,0,0,4.35,1.67,16.52,16.52,0,0,0,7-1q7.36-2,21.11-12.73t35.17-41.54q5.36-8.7,10.38-16.42a148.07,148.07,0,0,0,8.38-14.4q2.67-5.36,5-10a69.79,69.79,0,0,1,5.7-9.38q4.68-8.7,16.08-10.05h2.67a7.45,7.45,0,0,0,3.36.67,4.57,4.57,0,0,1,3.35,1.34h.66c0,.45.45.67,1.35.67q6.69,4.7,8.7,11.39,2.67,6-.66,15.41l-11.39,20.1a165.62,165.62,0,0,0-12.06,37.52q-3.37,18.09,0,28.13a8.27,8.27,0,0,0,1.33,3.36c.44.45.9.9,1.35,1.34a11.83,11.83,0,0,0,3,1c1.11.23,2.79-.1,5-1q7.38-3.35,17.09-13.4a172.06,172.06,0,0,0,19.76-25.46q8.7-14.73,13.4-23.45l5.36-10.72a20.16,20.16,0,0,1,37.19,1,20.33,20.33,0,0,1-.34,15.75q0,.68-6,12.06t-15.41,26.8q-28.82,44.21-56.94,54.26a45.93,45.93,0,0,1-18.1,4,41.85,41.85,0,0,1-20.09-4.68q-18.09-7.38-25.46-29.49a10.61,10.61,0,0,1-1.34-4.68l-2,2q-22.79,22.11-43.55,28.8A54.69,54.69,0,0,1,1230.84,1230.78Zm119.25-167.49c0,.9.22,1.34.67,1.34C1350.31,1064.63,1350.09,1064.19,1350.09,1063.29Z" transform="translate(-216 -508.13)"/><path class="cls-4" d="M1609.64,1148.38a332.44,332.44,0,0,0,33.5,40.87,137.83,137.83,0,0,0,43.55,30.14,140.75,140.75,0,0,0,52.92,12.4,240.33,240.33,0,0,0,54.94-4.36,221.94,221.94,0,0,0,30.82-8,162,162,0,0,0,30.49-13.73,141.84,141.84,0,0,0,26.12-19.43,79.52,79.52,0,0,0,18.43-26.46,77.79,77.79,0,0,0,6-22.11,52.8,52.8,0,0,0-2-22.11q-5.37-15.4-18.76-23.12a103.54,103.54,0,0,0-27.47-11,154.56,154.56,0,0,0-34.84-4,58.19,58.19,0,0,1-18.76-.34q-9.39-1.65-10.71-14.4-.69-9.37,4.35-13.06a29.72,29.72,0,0,1,12.39-5,.6.6,0,0,1,.67-.67q5.35-.66,11.39-1.34a84.27,84.27,0,0,0,11.39-2,186.6,186.6,0,0,0,29.48-9.38,120.54,120.54,0,0,0,26.8-15.07,94.58,94.58,0,0,0,20.77-21.44,69,69,0,0,0,11.39-29.14q5.36-30.81-13.4-53.6A78.55,78.55,0,0,0,1885,892.45a262.58,262.58,0,0,0-28.14-12.73A229.75,229.75,0,0,0,1791.2,869a155.78,155.78,0,0,0-64.31,12.06A115.35,115.35,0,0,0,1682,912.55q-18.09,20.78-19.43,50.25a72,72,0,0,0,.67,17.08,36.77,36.77,0,0,0,27.8,30.82,50.45,50.45,0,0,0,26.47.33A80.52,80.52,0,0,0,1742,999a117.15,117.15,0,0,0,20.43-19.1,152.6,152.6,0,0,0,16.42-23.45q7-12.39,12.39-24.45l3.35-6.7a6,6,0,0,0,.67-2.68q4.68-8,11.39-11.39a18.16,18.16,0,0,1,11.73-1.34,20,20,0,0,1,9.71,5.36,22.41,22.41,0,0,1,5.7,10,20.27,20.27,0,0,1-.34,12.06q-3.36,10-7.7,19.76T1816,976.2q-6.71,14.73-12.39,29.81t-11.06,30.48q-12.74,33.51-23.44,67a700.15,700.15,0,0,0-18.1,68.34,37.88,37.88,0,0,1-4,10.72,14.93,14.93,0,0,1-8.7,6.7,16.16,16.16,0,0,1-12.4,1.67,18.46,18.46,0,0,1-10.38-7q-6.7-8.7-3.35-22.11l8-34.84q5.36-20.1,11.72-40.2t13.74-40.2a97.78,97.78,0,0,1-44.89,9.38,80.58,80.58,0,0,1-31.16-7.37,79.44,79.44,0,0,1-24.78-17.75,89.44,89.44,0,0,1-16.75-25.46,83,83,0,0,1-7-30.48,127.14,127.14,0,0,1,36.85-95.81,140.53,140.53,0,0,1,55.27-34.17,230,230,0,0,1,64-12.06q29.47-1.34,63.32,5.7a192,192,0,0,1,61.3,23.78,132.3,132.3,0,0,1,43.88,42.88q16.41,26.13,11.73,63a112.3,112.3,0,0,1-22.45,52.25,130.23,130.23,0,0,1-43.88,36.18,125.07,125.07,0,0,1,25.46,15.41,76.34,76.34,0,0,1,19.42,22.11,79.21,79.21,0,0,1,9.38,24.79,108.72,108.72,0,0,1,2,26.8,127.1,127.1,0,0,1-17.08,62,191.89,191.89,0,0,1-41.87,50.25,256.93,256.93,0,0,1-56.28,36.51,285.13,285.13,0,0,1-61,21.44,226.08,226.08,0,0,1-61.31,5,205.64,205.64,0,0,1-59.62-12.05,179.13,179.13,0,0,1-52.26-29.82,173.3,173.3,0,0,1-57.28-95.13,105.55,105.55,0,0,1-1.68-13.74,36.72,36.72,0,0,1,15.08-30.48,39.47,39.47,0,0,1,18.76-7,44.86,44.86,0,0,1,20.09,2.69A35.19,35.19,0,0,1,1609.64,1148.38Z" transform="translate(-216 -508.13)"/><path class="cls-4" d="M2027.7,1230.11a39.77,39.77,0,0,1-7-.66,35.46,35.46,0,0,1-7-2q-24.8-7.37-33.5-31.49-15.41-38.84,20.77-116.57a476.29,476.29,0,0,1,23.12-46.56q11.06-19.09,12.39-20.43a17.18,17.18,0,0,1,12.06-9,20.15,20.15,0,0,1,15.41,3,19.34,19.34,0,0,1,9,12.72,20.19,20.19,0,0,1-3,15.41q-.67,0-11.06,18.09t-21.77,43.55a360.87,360.87,0,0,0-14.07,36.51,195,195,0,0,0-6.36,25.13q-1.68,10-1,15.74a26.43,26.43,0,0,0,2,8.38q1.33,5.37,8,7.37,4.68,1.35,12.06-2.69t16.75-13.39q20.76-20.76,44.22-61l18.76-34.17q1.33-3.35,2.68-6t3.35-6q6-13.4,12.39-26.46t11.72-26.47a20.81,20.81,0,0,1,11.06-10.71,17.83,17.83,0,0,1,15.08,0,20.86,20.86,0,0,1,10.71,11,17.81,17.81,0,0,1,0,15.07q-.67,1.35-9,20.77t-22.44,46.9q-6.7,14.75-12.73,28.14t-10.05,24.79q-6.71,18.09-7,25.79t1,9.71c0,1.35,1.11,2.25,3.35,2.69q3.34,1.34,11.39-4t20.09-21.44a167.51,167.51,0,0,0,18.1-26.8q6.69-12.72,6.69-13.4a20.81,20.81,0,0,1,11.73-10,17.94,17.94,0,0,1,15.07,1.34,17.08,17.08,0,0,1,10.39,11.39,21.57,21.57,0,0,1-1,15.41q-.67.67-8.37,15.07a237.72,237.72,0,0,1-20.44,31.16,217.19,217.19,0,0,1-15.74,17.75,128.71,128.71,0,0,1-15.07,13.06q-15.43,10.74-27.47,11.06t-19.43-3q-19.44-7.35-26.8-25.45V1198l-4,3.36a107.08,107.08,0,0,1-15.07,13.73,84,84,0,0,1-15.08,9Q2039.08,1230.11,2027.7,1230.11Z" transform="translate(-216 -508.13)"/><path class="cls-4" d="M2302.38,1232.79a44.08,44.08,0,0,1-18.76-4q-21.43-8.68-27.46-34.16-5.37-21.43,1.67-50.59a232.49,232.49,0,0,1,22.45-57.28,22.84,22.84,0,0,1-4-.34,24.68,24.68,0,0,0-4-.33q-14.05-2-24.11-8l-30.82,66.33a18.23,18.23,0,0,1-11.39,10.05,20.36,20.36,0,0,1-15.41-.67,18.21,18.21,0,0,1-10.05-11.39,20.45,20.45,0,0,1,.67-15.41l54.27-114.56a5.33,5.33,0,0,0,.67-2,506.39,506.39,0,0,1,1.34-2.69,19.45,19.45,0,0,1,11.72-9.71,20.75,20.75,0,0,1,15.07,1,17.12,17.12,0,0,1,9.72,11,20.74,20.74,0,0,1-1,15.07l-.68,3.35a21.54,21.54,0,0,0-2.67,8c-1.35,4.92-1.35,7.37,0,7.37a4.12,4.12,0,0,1,2,1c.89.67,2.9,1.24,6,1.67a82.64,82.64,0,0,0,15.08,0,197.19,197.19,0,0,0,25.79-4,20.45,20.45,0,0,1,12.06,1,18,18,0,0,1,9.38,8.37q6.69,12.74-2.68,23.45a181.74,181.74,0,0,0-20.43,27.81,203.31,203.31,0,0,0-21.78,60.29q-2,13.07,0,21.78,1.34,5.37,3.35,6.7a12.39,12.39,0,0,0,6.7,1q4-.33,12.06-9.71,9.38-8.7,19.43-23.79t22.78-33.16a41.7,41.7,0,0,0,4-7.37,20.17,20.17,0,0,1,36.52,7.37,18.3,18.3,0,0,1-3,14.74l-4.69,7.37q-13.41,20.77-24.45,36.51a205,205,0,0,1-22.45,27.14q-12.74,12.72-26.8,18.08A46.94,46.94,0,0,1,2302.38,1232.79Z" transform="translate(-216 -508.13)"/><path class="cls-4" d="M2580.42,1234.8a40.87,40.87,0,0,1-14.74-2.34,26.7,26.7,0,0,1-9.38-5.7,40.24,40.24,0,0,1-15.41-29.47q-.67-11.38,5.36-28.14a170.52,170.52,0,0,1,12.39-27.14q7.7-13.71,16.42-27.8,6-10.71,12.39-21.78t11.06-20.43q5.35-12.06,5.69-17.08t.33-6.37l-1.33-1.34a22.19,22.19,0,0,0-5-1.34q-3.69-.66-12.39,4.69-14.07,7.38-34.84,31.49-10.05,11.4-19.77,24.79t-18.76,27.47q-9,14.07-17.41,27.47t-15.08,25.46q-6.71,10-11.72,18.75a129.6,129.6,0,0,1-9.72,14.74l-2,2.68c-1.79,2.68-3.58,4.25-5.36,4.69a3.83,3.83,0,0,1-2.68,1.35q-5.37,2-12.73.66a10.16,10.16,0,0,1-4-1.34H2431a18.25,18.25,0,0,1-9.38-12.06q-2.68-8,2.69-16.75a140.45,140.45,0,0,1,9-16.41q5.68-9,12.4-19.76,10-16.08,20.76-33.5a332.23,332.23,0,0,0,18.76-34.84q11.38-22.77,13.07-32.83c1.1-6.7,1.22-11.16.33-13.4,0-.44-.45-1.11-1.34-2a11.82,11.82,0,0,0-5.36-1.67c-2.24-.22-5.14.33-8.71,1.67q-5.37,1.35-13.4,6.7t-20.1,16.75q-17.43,18.77-37.52,47.57l-14.06,21.44-42.21,80.4q-5.36,10.73-17.42,10.71a19.22,19.22,0,0,1-8.71-2,19.51,19.51,0,0,1-10.39-10.71,17.93,17.93,0,0,1,.34-14.74q6-15.4,17.42-37.52a504.65,504.65,0,0,1,26.8-45.56q18.75-36.18,31.15-59.63t12.4-24.12a19.42,19.42,0,0,1,12-9.71,19.62,19.62,0,0,1,15.41,1.67,2.06,2.06,0,0,1,1.35.67q18.07-14.71,34.16-20.1a53.24,53.24,0,0,1,24.46-3.35,66.85,66.85,0,0,1,22.44,6.71,44.13,44.13,0,0,1,19.43,26.12q14.73-14.71,28.81-22.77,19.43-11.38,33.83-10.06t23.12,6.71q16.07,9.38,20.09,25.45a52.49,52.49,0,0,1,.67,22.11,117.38,117.38,0,0,1-7,23.79,231.8,231.8,0,0,1-12.06,25.12q-7,12.74-15.07,26.13-7.38,11.4-12.73,21.44t-10.05,19.43q-4,8.72-4.69,13.06a48.29,48.29,0,0,0-.67,5.7c1.34,0,4.12-.78,8.37-2.35s9.93-5.24,17.08-11a187.12,187.12,0,0,0,22.45-25.8,253.16,253.16,0,0,0,20.43-33.16,18.29,18.29,0,0,1,11.39-10,20.45,20.45,0,0,1,15.41.67,18.29,18.29,0,0,1,10.05,11.39,20.45,20.45,0,0,1-.67,15.41q-18.76,37.53-43.54,62.64t-49.58,31.16a16.81,16.81,0,0,1-6,1.33Z" transform="translate(-216 -508.13)"/><path class="cls-4" d="M2733.83,1234.8a134.26,134.26,0,0,1-44.89-8q-26.8-10-38.19-35.5t-4.69-61.64a182.39,182.39,0,0,1,14.07-43.88,187.29,187.29,0,0,1,25.46-40.54q34.17-43.53,75-43.55,17.41,0,28.14,5.37t16.08,11.38q14.73,16.08,14.73,39.53a90.81,90.81,0,0,1-7,34.17,124.82,124.82,0,0,1-19.76,32.83q-14.07,16.08-30.15,24.79a78.77,78.77,0,0,1-38.86,10q-12.74,1.35-28.14-6.7l-11.39-7.37a42.62,42.62,0,0,0-.33,14.07q1,6.7,2.34,12.06,4.68,12.74,16.75,17.42,23.44,8.71,43.55,5a92.3,92.3,0,0,0,36.17-14.74,120.16,120.16,0,0,0,27.81-26.46,134.34,134.34,0,0,0,17.75-30.15,22.47,22.47,0,0,1,10.72-11.06,17.8,17.8,0,0,1,15.41-.33,22.32,22.32,0,0,1,11.06,11,17.13,17.13,0,0,1,.33,15.08,183.83,183.83,0,0,1-27.8,45.22,149.72,149.72,0,0,1-38.53,33.17,132.53,132.53,0,0,1-51.58,18.08,36.48,36.48,0,0,1-7,.67Zm-28.14-149.4a11.75,11.75,0,0,1-1.34,3.35q-3.36,7.38-2.68,12.06a24.17,24.17,0,0,0,2,7.37,25.92,25.92,0,0,0,10.05,9q6,3,8.71,3h.67q14.07,0,23.78-7.7A123.59,123.59,0,0,0,2762,1098.8a78.72,78.72,0,0,0,12.73-20.43q4.68-11.05,4.69-20.44a34.69,34.69,0,0,0-.68-6.7,10.14,10.14,0,0,0-2.67-5.36,19.35,19.35,0,0,0-7.71-3.68,34.83,34.83,0,0,0-7.7-1q-20.77,0-44.22,29.48Q2711,1077.37,2705.69,1085.4Z" transform="translate(-216 -508.13)"/><path class="cls-4" d="M2902,1272.32h-2q-28.14,0-44.22-22.11-13.41-16.76-13.4-42.21a74.76,74.76,0,0,1,5-27.13,77.25,77.25,0,0,1,13.73-23.11,67.53,67.53,0,0,1,23.45-18.09,69.33,69.33,0,0,1,30.15-6.7h7.37q-18.77-24.12-24.79-50.25-8,12.06-16.42,26.46t-16.41,30.49a17.16,17.16,0,0,1-11.39,9.71,21.46,21.46,0,0,1-15.41-1,18.19,18.19,0,0,1-10.05-11.06,17.94,17.94,0,0,1,1.34-15.07q14.07-28.14,28.14-50.92t26.46-39.86q12.39-17.09,21.78-27.81t13.4-14.73l2-2a19.9,19.9,0,1,1,28.14,28.13l-.68.68c0,.45-.11.67-.33.67s-.34.22-.34.66a50,50,0,0,0-12.39,22.11,61.42,61.42,0,0,0-1,24.79,90.93,90.93,0,0,0,7.7,24.79,132.48,132.48,0,0,0,13.07,22.11,55.65,55.65,0,0,1,8.7,13.07q3.35,7,6.7,14.4a18.62,18.62,0,0,0,6,.33c1.79-.22,3.79-.55,6-1a48.42,48.42,0,0,0,8.71-4q4.68-2.67,8.71-11.39a19.49,19.49,0,0,1,11.06-10.39,18.64,18.64,0,0,1,15.07.34,18.12,18.12,0,0,1,10.72,11A21.47,21.47,0,0,1,3036,1139q-14.07,31.5-45.56,37.52a42.21,42.21,0,0,1-13.4,2q0,29.49-12.06,51.58-10.73,20.1-25.45,30.82A67.33,67.33,0,0,1,2902,1272.32Zm12.73-99.15q-17.43,0-24.46,12.06t-7.7,22.77c0,1.8.1,4,.33,6.71a21.89,21.89,0,0,0,2.35,8,21.37,21.37,0,0,0,5.69,7q3.68,3,10.39,3h.67q11.39,0,17.75-7.7a128.61,128.61,0,0,0,9.72-13.06,71.07,71.07,0,0,0,6.36-16.75,54.64,54.64,0,0,0,1-20.11A128.4,128.4,0,0,0,2914.72,1173.17Z" transform="translate(-216 -508.13)"/><path class="cls-4" d="M2992.43,986.25a19,19,0,0,1-14.41-6,21.55,21.55,0,0,1-.33-28.81,17.94,17.94,0,0,1,14.07-6l87.09-.67q5.36-8.7,10.39-17.08t10.38-17.09a18.27,18.27,0,0,1,12.06-9.38,19.08,19.08,0,0,1,15.41,2.68,17.16,17.16,0,0,1,9,12.06,21.89,21.89,0,0,1-2.34,15.41l-8,13.4,84.42-1.34h.67a19.89,19.89,0,0,1,14.07,5.69,18.23,18.23,0,0,1,6,13.74,19.49,19.49,0,0,1-20.1,20.1l-108.54,2q-32.84,58.29-51.59,106.52-9.39,24.12-13.4,40.87a201.37,201.37,0,0,0-5,28.14,102.27,102.27,0,0,0-.34,18.09c.44,4.47,1.12,7.59,2,9.38a14.06,14.06,0,0,0,9.38,8.71q24.78,7.37,50.92-28.14A173.59,173.59,0,0,0,3113,1138q6.69-14.4,6.7-15.07a20.8,20.8,0,0,1,11.06-10.72,21.35,21.35,0,0,1,15.74-.67,21,21,0,0,1,10.72,10.72,18.58,18.58,0,0,1,0,15.41,29.3,29.3,0,0,1-2,5.36q-2,4.7-5.7,12.39t-9.38,17.09q-5.7,9.39-13.06,19.43-18.77,24.1-37.52,34.83-18.77,11.38-37.51,11.39a72.5,72.5,0,0,1-20.11-3.35q-25.45-7.36-35.5-32.83-8.7-22.76-2.68-56.27,4.7-28.8,19.43-69,8-20.76,18.75-43.54t24.12-47.57Z" transform="translate(-216 -508.13)"/><path class="cls-4" d="M3206.15,1234.8a134.26,134.26,0,0,1-44.89-8q-26.81-10-38.19-35.5t-4.69-61.64a182.39,182.39,0,0,1,14.07-43.88,187.29,187.29,0,0,1,25.46-40.54q34.17-43.53,75-43.55,17.41,0,28.13,5.37t16.09,11.38q14.72,16.08,14.73,39.53a90.81,90.81,0,0,1-7,34.17,124.86,124.86,0,0,1-19.77,32.83Q3251,1141,3235,1149.72a78.8,78.8,0,0,1-38.86,10q-12.73,1.35-28.14-6.7l-11.39-7.37a42.35,42.35,0,0,0-.33,14.07q1,6.7,2.34,12.06,4.68,12.74,16.75,17.42,23.45,8.71,43.54,5a92.35,92.35,0,0,0,36.18-14.74,120.16,120.16,0,0,0,27.81-26.46,134.34,134.34,0,0,0,17.75-30.15,22.47,22.47,0,0,1,10.72-11.06,17.8,17.8,0,0,1,15.41-.33,22.32,22.32,0,0,1,11.06,11,17.13,17.13,0,0,1,.33,15.08,183.83,183.83,0,0,1-27.8,45.22,149.72,149.72,0,0,1-38.53,33.17,132.53,132.53,0,0,1-51.58,18.08,36.48,36.48,0,0,1-7,.67ZM3178,1085.4a11.75,11.75,0,0,1-1.34,3.35q-3.36,7.38-2.68,12.06a24.17,24.17,0,0,0,2,7.37,25.92,25.92,0,0,0,10.05,9q6,3,8.71,3h.67q14.07,0,23.78-7.7a122.65,122.65,0,0,0,15.07-13.74,78.49,78.49,0,0,0,12.74-20.43q4.67-11.05,4.68-20.44a34.68,34.68,0,0,0-.67-6.7,10.22,10.22,0,0,0-2.67-5.36,19.35,19.35,0,0,0-7.71-3.68,34.83,34.83,0,0,0-7.7-1q-20.79,0-44.22,29.48Q3183.36,1077.37,3178,1085.4Z" transform="translate(-216 -508.13)"/><path class="cls-4" d="M3420.53,1232.79a44,44,0,0,1-18.75-4q-21.45-8.68-27.47-34.16-5.37-21.43,1.67-50.59a232.49,232.49,0,0,1,22.45-57.28,22.65,22.65,0,0,1-4-.34,24.87,24.87,0,0,0-4-.33q-14.07-2-24.12-8l-30.82,66.33a18.23,18.23,0,0,1-11.39,10.05,20.36,20.36,0,0,1-15.41-.67,18.21,18.21,0,0,1-10.05-11.39,20.45,20.45,0,0,1,.67-15.41l54.27-114.56a5.33,5.33,0,0,0,.67-2,506.39,506.39,0,0,1,1.34-2.69,19.45,19.45,0,0,1,11.72-9.71,20.74,20.74,0,0,1,15.07,1,17.12,17.12,0,0,1,9.72,11,20.74,20.74,0,0,1-1,15.07l-.67,3.35a21.37,21.37,0,0,0-2.68,8c-1.34,4.92-1.34,7.37,0,7.37a4.12,4.12,0,0,1,2,1c.9.67,2.91,1.24,6,1.67a82.64,82.64,0,0,0,15.08,0,197.55,197.55,0,0,0,25.8-4,20.43,20.43,0,0,1,12.05,1,18,18,0,0,1,9.38,8.37q6.69,12.74-2.68,23.45a181.74,181.74,0,0,0-20.43,27.81,203.31,203.31,0,0,0-21.78,60.29q-2,13.07,0,21.78c.9,3.58,2,5.81,3.35,6.7a12.43,12.43,0,0,0,6.71,1q4-.33,12.05-9.71,9.38-8.7,19.43-23.79t22.78-33.16a41.7,41.7,0,0,0,4-7.37,20.17,20.17,0,0,1,36.52,7.37,18.3,18.3,0,0,1-3,14.74l-4.69,7.37q-13.41,20.77-24.45,36.51a205,205,0,0,1-22.45,27.14q-12.73,12.72-26.79,18.08A47,47,0,0,1,3420.53,1232.79Z" transform="translate(-216 -508.13)"/><path class="cls-5" d="M409.49,1136.1A333.28,333.28,0,0,0,443,1177a138.08,138.08,0,0,0,43.55,30.15,141,141,0,0,0,52.93,12.39,240.36,240.36,0,0,0,54.94-4.35,223.35,223.35,0,0,0,30.82-8,162,162,0,0,0,30.48-13.74A141.42,141.42,0,0,0,681.83,1174a79.49,79.49,0,0,0,18.42-26.47,77.79,77.79,0,0,0,6-22.11,52.8,52.8,0,0,0-2-22.11q-5.37-15.4-18.76-23.11a103.15,103.15,0,0,0-27.46-11.05,154.56,154.56,0,0,0-34.84-4,58.48,58.48,0,0,1-18.76-.34q-9.39-1.66-10.72-14.4-.68-9.37,4.35-13.07a29.81,29.81,0,0,1,12.4-5,.59.59,0,0,1,.67-.67q5.36-.66,11.39-1.34a84.27,84.27,0,0,0,11.39-2,188,188,0,0,0,29.48-9.38,120.54,120.54,0,0,0,26.8-15.07A95.21,95.21,0,0,0,711,982.35a69.06,69.06,0,0,0,11.38-29.15q5.35-30.81-13.39-53.59a78.42,78.42,0,0,0-24.13-19.43,262.58,262.58,0,0,0-28.14-12.73,229.63,229.63,0,0,0-65.65-10.72,155.86,155.86,0,0,0-64.32,12.06,115.25,115.25,0,0,0-44.88,31.49Q463.74,921,462.42,950.52a72.05,72.05,0,0,0,.67,17.09,36.8,36.8,0,0,0,27.8,30.82,50.62,50.62,0,0,0,26.46.33,80.71,80.71,0,0,0,24.46-12.06,117.44,117.44,0,0,0,20.43-19.09,153.29,153.29,0,0,0,16.42-23.45q7-12.39,12.39-24.46L594.4,913a6.08,6.08,0,0,0,.67-2.69c3.12-5.36,6.92-9.14,11.39-11.39a18.12,18.12,0,0,1,11.72-1.33A20,20,0,0,1,627.9,903,22.43,22.43,0,0,1,633.59,913a20.23,20.23,0,0,1-.33,12q-3.36,10.05-7.71,19.77t-9.71,19.09q-6.71,14.75-12.4,29.82t-11.05,30.48q-12.74,33.51-23.45,67a697.28,697.28,0,0,0-18.09,68.34,38.5,38.5,0,0,1-4,10.72,15,15,0,0,1-8.71,6.7,16.18,16.18,0,0,1-12.39,1.68,18.54,18.54,0,0,1-10.39-7q-6.71-8.7-3.35-22.11l8-34.84q5.36-20.1,11.73-40.19t13.73-40.2a97.78,97.78,0,0,1-44.89,9.38,80.53,80.53,0,0,1-31.15-7.37,79.56,79.56,0,0,1-24.79-17.76,89.51,89.51,0,0,1-16.75-25.46,83,83,0,0,1-7-30.48,127,127,0,0,1,36.85-95.8A140.46,140.46,0,0,1,513,832.61a230,230,0,0,1,64-12.06q29.47-1.34,63.31,5.69A191.94,191.94,0,0,1,701.59,850a132.4,132.4,0,0,1,43.89,42.87q16.41,26.13,11.72,63a112.27,112.27,0,0,1-22.44,52.26,130.27,130.27,0,0,1-43.89,36.18,124.8,124.8,0,0,1,25.46,15.41,76.62,76.62,0,0,1,19.43,22.1,79.64,79.64,0,0,1,9.38,24.79,109.24,109.24,0,0,1,2,26.8,127.18,127.18,0,0,1-17.08,62,192.08,192.08,0,0,1-41.87,50.25,256.57,256.57,0,0,1-56.28,36.51,285.61,285.61,0,0,1-61,21.45,226,226,0,0,1-61.3,5A205.39,205.39,0,0,1,450,1296.56a178.91,178.91,0,0,1-52.26-29.82,173.46,173.46,0,0,1-57.28-95.13,107.05,107.05,0,0,1-1.67-13.73,36.74,36.74,0,0,1,15.07-30.49,39.39,39.39,0,0,1,18.76-7,44.89,44.89,0,0,1,20.1,2.68A35.29,35.29,0,0,1,409.49,1136.1Z" transform="translate(-216 -508.13)"/><path class="cls-5" d="M870.42,1222.53a134.26,134.26,0,0,1-44.89-8q-26.79-10-38.18-35.51t-4.69-61.63a182.73,182.73,0,0,1,14.06-43.89,187.27,187.27,0,0,1,25.47-40.53q34.15-43.55,75-43.55,17.41,0,28.14,5.36t16.08,11.39q14.73,16.08,14.74,39.53a90.78,90.78,0,0,1-7,34.16,124.66,124.66,0,0,1-19.76,32.83q-14.07,16.08-30.15,24.79a78.77,78.77,0,0,1-38.86,10q-12.74,1.35-28.14-6.7l-11.39-7.37a42.62,42.62,0,0,0-.33,14.07c.67,4.47,1.44,8.49,2.34,12.06q4.68,12.73,16.76,17.42,23.43,8.71,43.54,5a92.39,92.39,0,0,0,36.18-14.73,120.36,120.36,0,0,0,27.8-26.47,134.41,134.41,0,0,0,17.76-30.15,22.45,22.45,0,0,1,10.72-11.05,17.74,17.74,0,0,1,15.4-.34,22.3,22.3,0,0,1,11.06,11.06,17.08,17.08,0,0,1,.33,15.07,183.89,183.89,0,0,1-27.8,45.23,149.64,149.64,0,0,1-38.52,33.16,132.43,132.43,0,0,1-51.59,18.09,36.45,36.45,0,0,1-7,.67Zm-28.14-149.4a11.75,11.75,0,0,1-1.34,3.35c-2.24,4.91-3.13,8.94-2.68,12.06a24.17,24.17,0,0,0,2,7.37,25.92,25.92,0,0,0,10.05,9q6,3,8.71,3h.67q14.07,0,23.79-7.71a121.89,121.89,0,0,0,15.07-13.73,78.24,78.24,0,0,0,12.73-20.44Q916,1055,916,1045.66a34.68,34.68,0,0,0-.67-6.7,10.23,10.23,0,0,0-2.68-5.36,19.26,19.26,0,0,0-7.7-3.69,34.84,34.84,0,0,0-7.71-1q-20.78,0-44.22,29.48Q847.63,1065.09,842.28,1073.13Z" transform="translate(-216 -508.13)"/><path class="cls-5" d="M1010.44,1221.86c-6.26,0-11.38-.9-15.41-2.68q-24.78-6-34.84-29.48-8-22.11-1.33-56.28,3.35-14.07,8.7-31.48a320,320,0,0,1,14.08-36.85q28.79-68.34,90.44-166.82a18.27,18.27,0,0,1,12.06-9.38,19.08,19.08,0,0,1,15.41,2.67,18.31,18.31,0,0,1,9.38,12.07q2,8-3.35,15.41-29.49,48.23-51.26,88.77t-35.84,73.36a388.68,388.68,0,0,0-15.07,40.19q-5,16.76-6.37,27.47a97.85,97.85,0,0,0-1,16.75c.22,4,.77,6.93,1.67,8.71a10.13,10.13,0,0,0,7.37,6.7,17.3,17.3,0,0,0,5.36.67q11.38,0,22.45-10.38a164.77,164.77,0,0,0,17.75-19.1,132.93,132.93,0,0,0,10.72-15.07q4.68-7.69,8-13.74l6.7-13.4a20.15,20.15,0,0,1,37.18,1,18.64,18.64,0,0,1-.33,15.07c0,.46-.79,2.25-2.35,5.36s-3.68,7-6.36,11.73-5.93,9.94-9.72,15.74-7.93,11.62-12.39,17.42q-20.1,26.81-38.52,36.18T1010.44,1221.86Z" transform="translate(-216 -508.13)"/><path class="cls-5" d="M1121.65,1221.86q-9.39,0-15.41-2.68-24.79-6-34.84-29.48-8-22.11-1.34-56.28,3.36-14.07,8.71-31.48a321.72,321.72,0,0,1,14.07-36.85q28.8-68.34,90.45-166.82a18.23,18.23,0,0,1,12-9.38,19.07,19.07,0,0,1,15.41,2.67,18.31,18.31,0,0,1,9.38,12.07c1.35,5.35.22,10.49-3.35,15.41q-29.47,48.23-51.25,88.77t-35.84,73.36a389,389,0,0,0-15.08,40.19q-5,16.76-6.36,27.47a99.1,99.1,0,0,0-1,16.75c.22,4,.78,6.93,1.68,8.71a10.11,10.11,0,0,0,7.37,6.7,17.3,17.3,0,0,0,5.36.67q11.38,0,22.44-10.38a165,165,0,0,0,17.76-19.1,134.2,134.2,0,0,0,10.72-15.07q4.68-7.69,8-13.74l6.71-13.4a20.15,20.15,0,0,1,37.18,1,18.64,18.64,0,0,1-.34,15.07q0,.69-2.34,5.36t-6.37,11.73q-4,7-9.71,15.74t-12.39,17.42q-20.1,26.81-38.53,36.18T1121.65,1221.86Z" transform="translate(-216 -508.13)"/><path class="cls-5" d="M1230.84,1218.51q-13.41,0-26.8-7.37-22.11-13.4-26.12-39.53-4-20.76,4-47.57a220.26,220.26,0,0,1,20.44-45.89,256.71,256.71,0,0,1,31.15-43.21q18.75-20.76,36.85-32.16,22.11-13.39,43.55-13.4,34.83,2,57.61,24.12,8,8,10.72,13.07c1.78,3.34,3.79,6.81,6,10.38q4,8.71.67,15.74a21.69,21.69,0,0,1-10,10.39,20.7,20.7,0,0,1-14.74,1.34c-5.35-1.34-9.61-5.36-12.72-12.06l-1.35-1.34h-.66q-1.35-2.67-7.37-10-10.07-10-29.48-11.39-9.39,0-22.78,8.71t-26.8,23.78a239.55,239.55,0,0,0-25.12,34.17,165.75,165.75,0,0,0-17.76,39.19,68.61,68.61,0,0,0-2.34,9.72,69.4,69.4,0,0,0-1,12.06,39,39,0,0,0,1.68,11.72,13.47,13.47,0,0,0,6.36,8,7.1,7.1,0,0,0,4.35,1.68,16.55,16.55,0,0,0,7-1q7.36-2,21.11-12.73t35.17-41.54q5.36-8.7,10.38-16.41a150.49,150.49,0,0,0,8.38-14.4q2.67-5.37,5-10a69.17,69.17,0,0,1,5.7-9.38q4.68-8.7,16.08-10.05h2.67a7.45,7.45,0,0,0,3.36.67,4.57,4.57,0,0,1,3.35,1.34h.66c0,.45.45.67,1.35.67q6.69,4.7,8.7,11.39,2.67,6-.66,15.41l-11.39,20.09a165.62,165.62,0,0,0-12.06,37.52q-3.37,18.09,0,28.14a8.21,8.21,0,0,0,1.33,3.35c.44.45.9.9,1.35,1.34a11.45,11.45,0,0,0,3,1c1.11.24,2.79-.1,5-1q7.38-3.35,17.09-13.4a171.53,171.53,0,0,0,19.76-25.46q8.7-14.73,13.4-23.45l5.36-10.72a20.16,20.16,0,0,1,37.19,1,20.33,20.33,0,0,1-.34,15.75q0,.66-6,12t-15.41,26.8q-28.82,44.22-56.94,54.27a45.93,45.93,0,0,1-18.1,4,41.74,41.74,0,0,1-20.09-4.69q-18.09-7.37-25.46-29.48a10.68,10.68,0,0,1-1.34-4.69l-2,2q-22.79,22.11-43.55,28.81A54.69,54.69,0,0,1,1230.84,1218.51ZM1350.09,1051c0,.9.22,1.34.67,1.34C1350.31,1052.36,1350.09,1051.92,1350.09,1051Z" transform="translate(-216 -508.13)"/><path class="cls-5" d="M1609.64,1136.1a332.44,332.44,0,0,0,33.5,40.87,137.85,137.85,0,0,0,43.55,30.15,140.93,140.93,0,0,0,52.92,12.39,240.32,240.32,0,0,0,54.94-4.35,223.35,223.35,0,0,0,30.82-8,162,162,0,0,0,30.49-13.74A141.34,141.34,0,0,0,1882,1174a79.66,79.66,0,0,0,18.43-26.47,77.79,77.79,0,0,0,6-22.11,52.8,52.8,0,0,0-2-22.11q-5.37-15.4-18.76-23.11a103.21,103.21,0,0,0-27.47-11.05,154.56,154.56,0,0,0-34.84-4,58.48,58.48,0,0,1-18.76-.34q-9.39-1.66-10.71-14.4-.69-9.37,4.35-13.07a29.71,29.71,0,0,1,12.39-5,.59.59,0,0,1,.67-.67q5.35-.66,11.39-1.34a84.27,84.27,0,0,0,11.39-2,187.65,187.65,0,0,0,29.48-9.38,120.54,120.54,0,0,0,26.8-15.07,94.79,94.79,0,0,0,20.77-21.44,68.94,68.94,0,0,0,11.39-29.15q5.36-30.81-13.4-53.59A78.26,78.26,0,0,0,1885,880.18a262.58,262.58,0,0,0-28.14-12.73,229.75,229.75,0,0,0-65.66-10.72,155.78,155.78,0,0,0-64.31,12.06A115.35,115.35,0,0,0,1682,900.28q-18.09,20.76-19.43,50.24a72.05,72.05,0,0,0,.67,17.09,36.8,36.8,0,0,0,27.8,30.82,50.66,50.66,0,0,0,26.47.33A80.78,80.78,0,0,0,1742,986.7a117.08,117.08,0,0,0,20.43-19.09,152.6,152.6,0,0,0,16.42-23.45q7-12.39,12.39-24.46l3.35-6.69a6.08,6.08,0,0,0,.67-2.69c3.12-5.36,6.92-9.14,11.39-11.39a18.15,18.15,0,0,1,11.73-1.33,20,20,0,0,1,9.71,5.35,22.45,22.45,0,0,1,5.7,10.06,20.24,20.24,0,0,1-.34,12q-3.36,10.05-7.7,19.77T1816,963.92q-6.71,14.75-12.39,29.82t-11.06,30.48q-12.74,33.51-23.44,67a700.15,700.15,0,0,0-18.1,68.34,37.88,37.88,0,0,1-4,10.72,14.93,14.93,0,0,1-8.7,6.7,16.21,16.21,0,0,1-12.4,1.68,18.52,18.52,0,0,1-10.38-7q-6.7-8.7-3.35-22.11l8-34.84q5.36-20.1,11.72-40.19t13.74-40.2a97.78,97.78,0,0,1-44.89,9.38,80.58,80.58,0,0,1-31.16-7.37,79.63,79.63,0,0,1-24.78-17.76,89.3,89.3,0,0,1-16.75-25.46,83,83,0,0,1-7-30.48,127.14,127.14,0,0,1,36.85-95.8,140.53,140.53,0,0,1,55.27-34.17,230,230,0,0,1,64-12.06q29.47-1.34,63.32,5.69a192,192,0,0,1,61.3,23.79,132.36,132.36,0,0,1,43.88,42.87q16.41,26.13,11.73,63a112.29,112.29,0,0,1-22.45,52.26,130.23,130.23,0,0,1-43.88,36.18,125.07,125.07,0,0,1,25.46,15.41,76.43,76.43,0,0,1,19.42,22.1,79.39,79.39,0,0,1,9.38,24.79,108.75,108.75,0,0,1,2,26.8,127.07,127.07,0,0,1-17.08,62,191.89,191.89,0,0,1-41.87,50.25,256.57,256.57,0,0,1-56.28,36.51,285.72,285.72,0,0,1-61,21.45,226.08,226.08,0,0,1-61.31,5,205.32,205.32,0,0,1-59.62-12.06,178.91,178.91,0,0,1-52.26-29.82,173.3,173.3,0,0,1-57.28-95.13,105.41,105.41,0,0,1-1.68-13.73,36.72,36.72,0,0,1,15.08-30.49,39.35,39.35,0,0,1,18.76-7,44.85,44.85,0,0,1,20.09,2.68A35.25,35.25,0,0,1,1609.64,1136.1Z" transform="translate(-216 -508.13)"/><path class="cls-5" d="M2027.7,1217.84a38.89,38.89,0,0,1-7-.67,35.44,35.44,0,0,1-7-2q-24.8-7.37-33.5-31.49-15.41-38.85,20.77-116.57a476.57,476.57,0,0,1,23.12-46.57q11.06-19.08,12.39-20.43a17.23,17.23,0,0,1,12.06-9.05,20.24,20.24,0,0,1,15.41,3,19.38,19.38,0,0,1,9,12.73,20.19,20.19,0,0,1-3,15.41q-.67,0-11.06,18.09t-21.77,43.54a360.92,360.92,0,0,0-14.07,36.52,194.93,194.93,0,0,0-6.36,25.12q-1.68,10.05-1,15.75a26.36,26.36,0,0,0,2,8.37q1.33,5.37,8,7.37,4.68,1.35,12.06-2.68t16.75-13.4q20.76-20.76,44.22-61l18.76-34.17q1.33-3.35,2.68-6t3.35-6q6-13.4,12.39-26.47t11.72-26.46a20.8,20.8,0,0,1,11.06-10.72,17.83,17.83,0,0,1,15.08,0,20.9,20.9,0,0,1,10.71,11.05,17.83,17.83,0,0,1,0,15.08q-.67,1.35-9,20.77T2153,1083.84q-6.7,14.76-12.73,28.14t-10.05,24.79q-6.71,18.09-7,25.8c-.23,5.14.11,8.37,1,9.71,0,1.34,1.11,2.24,3.35,2.68q3.34,1.35,11.39-4T2159,1149.5a167.51,167.51,0,0,0,18.1-26.8q6.69-12.72,6.69-13.39a20.79,20.79,0,0,1,11.73-10.06,18,18,0,0,1,15.07,1.34A17.1,17.1,0,0,1,2221,1112a21.56,21.56,0,0,1-1,15.41q-.67.67-8.37,15.08a237.67,237.67,0,0,1-20.44,31.15,213.89,213.89,0,0,1-15.74,17.75,127.92,127.92,0,0,1-15.07,13.07q-15.43,10.72-27.47,11.06t-19.43-3q-19.44-7.37-26.8-25.46v-1.34l-4,3.35a106.48,106.48,0,0,1-15.07,13.73,84,84,0,0,1-15.08,9Q2039.08,1217.84,2027.7,1217.84Z" transform="translate(-216 -508.13)"/><path class="cls-5" d="M2302.38,1220.52a44.23,44.23,0,0,1-18.76-4q-21.43-8.7-27.46-34.17-5.37-21.43,1.67-50.58a232.34,232.34,0,0,1,22.45-57.28,23.83,23.83,0,0,1-4-.34,24.68,24.68,0,0,0-4-.33q-14.05-2-24.11-8l-30.82,66.32a18.23,18.23,0,0,1-11.39,10.05,20.36,20.36,0,0,1-15.41-.67,18.21,18.21,0,0,1-10.05-11.39,20.46,20.46,0,0,1,.67-15.41l54.27-114.56a5.22,5.22,0,0,0,.67-2,1.94,1.94,0,0,1,.67-1.34,1.94,1.94,0,0,1,.67-1.34,19.47,19.47,0,0,1,11.72-9.72,20.8,20.8,0,0,1,15.07,1,17.14,17.14,0,0,1,9.72,11.06,20.74,20.74,0,0,1-1,15.07l-.68,3.35a21.48,21.48,0,0,0-2.67,8c-1.35,4.92-1.35,7.37,0,7.37a4.08,4.08,0,0,1,2,1c.89.67,2.9,1.24,6,1.68a82.64,82.64,0,0,0,15.08,0,198.92,198.92,0,0,0,25.79-4,20.45,20.45,0,0,1,12.06,1,18.06,18.06,0,0,1,9.38,8.38q6.69,12.73-2.68,23.45a181.65,181.65,0,0,0-20.43,27.8,203.23,203.23,0,0,0-21.78,60.3q-2,13.07,0,21.77,1.34,5.37,3.35,6.7a12.39,12.39,0,0,0,6.7,1q4-.33,12.06-9.72,9.38-8.7,19.43-23.78t22.78-33.17a41,41,0,0,0,4-7.37,20.17,20.17,0,0,1,36.52,7.37,18.31,18.31,0,0,1-3,14.75l-4.69,7.36q-13.41,20.78-24.45,36.52a204.9,204.9,0,0,1-22.45,27.13q-12.74,12.74-26.8,18.09A46.94,46.94,0,0,1,2302.38,1220.52Z" transform="translate(-216 -508.13)"/><path class="cls-5" d="M2580.42,1222.53a40.86,40.86,0,0,1-14.74-2.35,26.84,26.84,0,0,1-9.38-5.69,40.24,40.24,0,0,1-15.41-29.48q-.67-11.38,5.36-28.14a170.43,170.43,0,0,1,12.39-27.13q7.7-13.73,16.42-27.8,6-10.73,12.39-21.78t11.06-20.43q5.35-12.06,5.69-17.09c.22-3.35.33-5.46.33-6.36l-1.33-1.34a22.19,22.19,0,0,0-5-1.34q-3.69-.66-12.39,4.69-14.07,7.38-34.84,31.49-10.05,11.38-19.77,24.79T2512.41,1122q-9,14.07-17.41,27.47T2479.92,1175q-6.71,10.05-11.72,18.76a130.5,130.5,0,0,1-9.72,14.74l-2,2.68c-1.79,2.68-3.58,4.25-5.36,4.69a3.85,3.85,0,0,1-2.68,1.34q-5.37,2-12.73.67a10.16,10.16,0,0,1-4-1.34H2431a18.27,18.27,0,0,1-9.38-12.06q-2.68-8,2.69-16.75a139.65,139.65,0,0,1,9-16.41q5.68-9,12.4-19.77,10-16.08,20.76-33.5a333.1,333.1,0,0,0,18.76-34.83q11.38-22.77,13.07-32.83c1.1-6.7,1.22-11.16.33-13.4,0-.44-.45-1.11-1.34-2a11.82,11.82,0,0,0-5.36-1.68q-3.36-.33-8.71,1.68-5.37,1.35-13.4,6.7t-20.1,16.75q-17.43,18.77-37.52,47.57l-14.06,21.43-42.21,80.4q-5.36,10.73-17.42,10.72a19.22,19.22,0,0,1-8.71-2,19.53,19.53,0,0,1-10.39-10.72,17.93,17.93,0,0,1,.34-14.74q6-15.4,17.42-37.52A503.17,503.17,0,0,1,2364,1108q18.75-36.2,31.15-59.63t12.4-24.12a20.19,20.19,0,0,1,27.46-8,2,2,0,0,1,1.35.67q18.07-14.73,34.16-20.1A53,53,0,0,1,2495,993.4a67.06,67.06,0,0,1,22.44,6.7,44.18,44.18,0,0,1,19.43,26.13q14.73-14.73,28.81-22.78,19.43-11.38,33.83-10.05t23.12,6.7q16.07,9.39,20.09,25.46a52.49,52.49,0,0,1,.67,22.11,117.3,117.3,0,0,1-7,23.78,231.92,231.92,0,0,1-12.06,25.13q-7,12.74-15.07,26.12-7.38,11.4-12.73,21.44t-10.05,19.43q-4,8.72-4.69,13.07a48,48,0,0,0-.67,5.69c1.34,0,4.12-.78,8.37-2.35s9.93-5.24,17.08-11a187,187,0,0,0,22.45-25.79,253.29,253.29,0,0,0,20.43-33.17,18.3,18.3,0,0,1,11.39-10,20.45,20.45,0,0,1,15.41.66,18.31,18.31,0,0,1,10.05,11.39,20.45,20.45,0,0,1-.67,15.41q-18.76,37.53-43.54,62.65t-49.58,31.15a16.63,16.63,0,0,1-6,1.34Z" transform="translate(-216 -508.13)"/><path class="cls-5" d="M2733.83,1222.53a134.26,134.26,0,0,1-44.89-8q-26.8-10-38.19-35.51t-4.69-61.63a182.32,182.32,0,0,1,14.07-43.89,187.23,187.23,0,0,1,25.46-40.53q34.17-43.55,75-43.55,17.41,0,28.14,5.36t16.08,11.39q14.73,16.08,14.73,39.53a90.76,90.76,0,0,1-7,34.16,124.66,124.66,0,0,1-19.76,32.83q-14.07,16.08-30.15,24.79a78.77,78.77,0,0,1-38.86,10q-12.74,1.35-28.14-6.7l-11.39-7.37a42.62,42.62,0,0,0-.33,14.07q1,6.71,2.34,12.06,4.68,12.73,16.75,17.42,23.44,8.71,43.55,5a92.29,92.29,0,0,0,36.17-14.73,120.2,120.2,0,0,0,27.81-26.47,134.34,134.34,0,0,0,17.75-30.15,22.45,22.45,0,0,1,10.72-11.05,17.77,17.77,0,0,1,15.41-.34,22.34,22.34,0,0,1,11.06,11.06,17.11,17.11,0,0,1,.33,15.07,183.89,183.89,0,0,1-27.8,45.23,149.68,149.68,0,0,1-38.53,33.16,132.39,132.39,0,0,1-51.58,18.09,36.48,36.48,0,0,1-7,.67Zm-28.14-149.4a11.75,11.75,0,0,1-1.34,3.35c-2.24,4.91-3.13,8.94-2.68,12.06a24.17,24.17,0,0,0,2,7.37,25.92,25.92,0,0,0,10.05,9q6,3,8.71,3h.67q14.07,0,23.78-7.71a122.82,122.82,0,0,0,15.08-13.73,78.77,78.77,0,0,0,12.73-20.44q4.68-11.05,4.69-20.43a34.69,34.69,0,0,0-.68-6.7,10.14,10.14,0,0,0-2.67-5.36,19.37,19.37,0,0,0-7.71-3.69,34.76,34.76,0,0,0-7.7-1q-20.77,0-44.22,29.48Q2711,1065.09,2705.69,1073.13Z" transform="translate(-216 -508.13)"/><path class="cls-5" d="M2902,1260.05h-2q-28.14,0-44.22-22.11-13.41-16.76-13.4-42.21a74.81,74.81,0,0,1,5-27.14,77.37,77.37,0,0,1,13.73-23.11,67.65,67.65,0,0,1,23.45-18.09,69.33,69.33,0,0,1,30.15-6.7h7.37q-18.77-24.12-24.79-50.25-8,12.07-16.42,26.47t-16.41,30.48a17.17,17.17,0,0,1-11.39,9.72,21.47,21.47,0,0,1-15.41-1,18.17,18.17,0,0,1-10.05-11A18,18,0,0,1,2829,1110q14.07-28.14,28.14-50.91t26.46-39.86q12.39-17.09,21.78-27.81t13.4-14.74l2-2a19.9,19.9,0,1,1,28.14,28.14l-.68.67c0,.45-.11.67-.33.67s-.34.23-.34.67a50,50,0,0,0-12.39,22.11,61.42,61.42,0,0,0-1,24.79,91,91,0,0,0,7.7,24.79,132.48,132.48,0,0,0,13.07,22.11,55.59,55.59,0,0,1,8.7,13.06q3.35,7,6.7,14.4a18.37,18.37,0,0,0,6,.34c1.79-.22,3.79-.56,6-1a47.73,47.73,0,0,0,8.71-4q4.68-2.67,8.71-11.39a19.48,19.48,0,0,1,11.06-10.38,18.64,18.64,0,0,1,15.07.34,18.1,18.1,0,0,1,10.72,11,21.47,21.47,0,0,1-.67,15.75q-14.07,31.49-45.56,37.51a42.21,42.21,0,0,1-13.4,2q0,29.49-12.06,51.59-10.73,20.1-25.45,30.82A67.33,67.33,0,0,1,2902,1260.05Zm12.73-99.16q-17.43,0-24.46,12.06t-7.7,22.78c0,1.79.1,4,.33,6.7a21.94,21.94,0,0,0,2.35,8,21.37,21.37,0,0,0,5.69,7q3.68,3,10.39,3h.67q11.39,0,17.75-7.71a128.61,128.61,0,0,0,9.72-13.06,70.73,70.73,0,0,0,6.36-16.75,54.6,54.6,0,0,0,1-20.1A127.45,127.45,0,0,0,2914.72,1160.89Z" transform="translate(-216 -508.13)"/><path class="cls-5" d="M2992.43,974a19,19,0,0,1-14.41-6,21.55,21.55,0,0,1-.33-28.81,17.94,17.94,0,0,1,14.07-6l87.09-.66q5.36-8.72,10.39-17.09t10.38-17.08a18.27,18.27,0,0,1,12.06-9.38,19.08,19.08,0,0,1,15.41,2.67,17.2,17.2,0,0,1,9,12.07,21.91,21.91,0,0,1-2.34,15.41l-8,13.4,84.42-1.35h.67a19.9,19.9,0,0,1,14.07,5.7,18.21,18.21,0,0,1,6,13.73,19.48,19.48,0,0,1-20.1,20.1l-108.54,2q-32.84,58.29-51.59,106.53-9.39,24.1-13.4,40.86a201.37,201.37,0,0,0-5,28.14,102.27,102.27,0,0,0-.34,18.09c.44,4.47,1.12,7.6,2,9.38a14.06,14.06,0,0,0,9.38,8.71q24.78,7.38,50.92-28.14a173.54,173.54,0,0,0,18.76-30.48q6.69-14.4,6.7-15.08a20.78,20.78,0,0,1,11.06-10.71,21.4,21.4,0,0,1,15.74-.68,21.07,21.07,0,0,1,10.72,10.72,18.58,18.58,0,0,1,0,15.41,29.3,29.3,0,0,1-2,5.36q-2,4.69-5.7,12.4t-9.38,17.08q-5.7,9.39-13.06,19.43-18.77,24.12-37.52,34.84-18.77,11.38-37.51,11.39a72.5,72.5,0,0,1-20.11-3.35q-25.45-7.37-35.5-32.83-8.7-22.77-2.68-56.28,4.7-28.8,19.43-69,8-20.76,18.75-43.55t24.12-47.57Z" transform="translate(-216 -508.13)"/><path class="cls-5" d="M3206.15,1222.53a134.26,134.26,0,0,1-44.89-8q-26.81-10-38.19-35.51t-4.69-61.63a182.32,182.32,0,0,1,14.07-43.89,187.23,187.23,0,0,1,25.46-40.53q34.17-43.55,75-43.55,17.41,0,28.13,5.36t16.09,11.39q14.72,16.08,14.73,39.53a90.76,90.76,0,0,1-7,34.16,124.7,124.7,0,0,1-19.77,32.83q-14.07,16.08-30.14,24.79a78.8,78.8,0,0,1-38.86,10q-12.73,1.35-28.14-6.7l-11.39-7.37a42.35,42.35,0,0,0-.33,14.07q1,6.71,2.34,12.06,4.68,12.73,16.75,17.42,23.45,8.71,43.54,5a92.33,92.33,0,0,0,36.18-14.73,120.2,120.2,0,0,0,27.81-26.47,134.34,134.34,0,0,0,17.75-30.15,22.45,22.45,0,0,1,10.72-11.05,17.77,17.77,0,0,1,15.41-.34,22.34,22.34,0,0,1,11.06,11.06,17.11,17.11,0,0,1,.33,15.07,183.89,183.89,0,0,1-27.8,45.23,149.68,149.68,0,0,1-38.53,33.16,132.39,132.39,0,0,1-51.58,18.09,36.48,36.48,0,0,1-7,.67ZM3178,1073.13a11.75,11.75,0,0,1-1.34,3.35c-2.24,4.91-3.13,8.94-2.68,12.06a24.17,24.17,0,0,0,2,7.37,25.92,25.92,0,0,0,10.05,9q6,3,8.71,3h.67q14.07,0,23.78-7.71a121.89,121.89,0,0,0,15.07-13.73,78.54,78.54,0,0,0,12.74-20.44q4.67-11.05,4.68-20.43a34.68,34.68,0,0,0-.67-6.7,10.22,10.22,0,0,0-2.67-5.36,19.37,19.37,0,0,0-7.71-3.69,34.76,34.76,0,0,0-7.7-1q-20.79,0-44.22,29.48Q3183.36,1065.09,3178,1073.13Z" transform="translate(-216 -508.13)"/><path class="cls-5" d="M3420.53,1220.52a44.15,44.15,0,0,1-18.75-4q-21.45-8.7-27.47-34.17-5.37-21.43,1.67-50.58a232.34,232.34,0,0,1,22.45-57.28,23.63,23.63,0,0,1-4-.34,24.87,24.87,0,0,0-4-.33q-14.07-2-24.12-8l-30.82,66.32a18.23,18.23,0,0,1-11.39,10.05,20.36,20.36,0,0,1-15.41-.67,18.21,18.21,0,0,1-10.05-11.39,20.46,20.46,0,0,1,.67-15.41l54.27-114.56a5.22,5.22,0,0,0,.67-2,1.94,1.94,0,0,1,.67-1.34,1.94,1.94,0,0,1,.67-1.34,19.47,19.47,0,0,1,11.72-9.72,20.79,20.79,0,0,1,15.07,1,17.14,17.14,0,0,1,9.72,11.06,20.74,20.74,0,0,1-1,15.07l-.67,3.35a21.31,21.31,0,0,0-2.68,8c-1.34,4.92-1.34,7.37,0,7.37a4.08,4.08,0,0,1,2,1c.9.67,2.91,1.24,6,1.68a82.64,82.64,0,0,0,15.08,0,199.29,199.29,0,0,0,25.8-4,20.42,20.42,0,0,1,12.05,1,18.06,18.06,0,0,1,9.38,8.38q6.69,12.73-2.68,23.45a181.65,181.65,0,0,0-20.43,27.8,203.23,203.23,0,0,0-21.78,60.3q-2,13.07,0,21.77c.9,3.58,2,5.81,3.35,6.7a12.42,12.42,0,0,0,6.71,1q4-.33,12.05-9.72,9.38-8.7,19.43-23.78t22.78-33.17a41,41,0,0,0,4-7.37A20.17,20.17,0,0,1,3518,1114a18.31,18.31,0,0,1-3,14.75l-4.69,7.36q-13.41,20.78-24.45,36.52a204.9,204.9,0,0,1-22.45,27.13q-12.73,12.74-26.79,18.09A47,47,0,0,1,3420.53,1220.52Z" transform="translate(-216 -508.13)"/><path class="cls-5" d="M3437.08,739.32a120.39,120.39,0,1,1,57.67-170.11,155.81,155.81,0,0,1,245.71,151.72c.17,0,.33-.07.5-.09A124.76,124.76,0,1,1,3631.24,859L3570.13,991.6l-.09,0c-51.9-78.32-143.45-126.41-242.7-118.84l-.44-.21S3437.1,739.39,3437.08,739.32Z" transform="translate(-216 -508.13)"/><path class="cls-6" d="M3457.78,760.78c16.81,57,82.93,93.63,143.4,82.83C3545.61,833.16,3478.82,788.71,3457.78,760.78Z" transform="translate(-216 -508.13)"/><path class="cls-6" d="M3570,991.56c-51.9-78.32-143.45-126.41-242.7-118.84l-.44-.21,18.94-22.91c95.74-7.24,185.73,37.84,238.43,111.33l-14.14,30.67Z" transform="translate(-216 -508.13)"/></svg>
