<svg id="Layer_1" data-name="Layer 1" xmlns="http://www.w3.org/2000/svg" viewBox="-216 -231 4096 2160"><defs><style>.cls-1{fill:#d51030;}.cls-2{fill:#f8b121;}.cls-3{fill:#ce9d29;}.cls-4{fill:#ffdd9d;}.cls-5{fill:#fdd179;}.cls-6{fill:#ffdc9d;}</style></defs><title>logo-2</title><path class="cls-1" d="M1857.19,476.73c-9.26,0-14.39-5.76-19.18-15.34L1808,400.32c-4.48-9.6-9-15.68-20.14-16H1747.2v68.42H1776c2.56,0,3.85,1.27,3.85,3.84V472.9a3.53,3.53,0,0,1-3.85,3.83h-80.89c-2.56,0-4.15-1.27-4.15-3.83V456.59c0-2.57,1.27-3.84,4.15-3.84h24.3V271.14h-24.3c-2.56,0-4.15-1.29-4.15-3.84V251c0-2.56,1.27-3.83,4.15-3.83h98.49c44.13,0,77,23.66,77,69.06,0,33.26-16.63,54.68-47,62.66,5.44,4.17,9.6,11.21,15,21.44l26.86,52.43H1885c2.57,0,3.86,1.27,3.86,3.84V472.9a3.53,3.53,0,0,1-3.86,3.83Zm-69.06-115.11c32.94,0,54.36-11.19,54.36-44.45,0-35.16-25.26-46-54.36-46H1747.2v90.48Z" transform="translate(-216.42 -231.15)"/><path class="cls-1" d="M1928.34,401.27c1.59,37.41,27.81,55.32,53.06,55.32,27.5,0,46.38-17.27,50.85-24.62,1.59-2.25,3.51-2.56,5.76-1l8.62,8.63c2.25,1.93,2.56,3.83,1.29,5.76-4.17,7-25.91,33.58-68.11,33.58-43.17,0-78.65-30.38-78.65-81.54,0-51.8,37.07-80.27,75.45-80.27,45.72,0,72.27,30.38,71.31,79.95,0,2.54-1.61,4.15-4.49,4.15Zm93-19.51c-1.29-25.89-16.63-43.49-44.13-43.49-22.07,0-44.44,12.8-48.28,43.49Z" transform="translate(-216.42 -231.15)"/><path class="cls-1" d="M2075.22,548.67c-2.56,0-4.15-1.27-4.15-3.83V531.09c0-2.56,1.59-3.83,4.15-3.83h17.91V340.84h-17.27c-2.56,0-4.15-1.28-4.15-3.84V323.25c0-2.56,1.59-3.83,4.15-3.83h37.41c2.56,0,4.15,1.27,4.15,3.83l-.31,25.25h.31c7-15,24.3-31.33,53.09-31.33,42.52,0,71.94,31.33,71.94,80.59,0,47.32-27.81,81.22-71.62,81.22-28.47,0-45.42-16-52.12-31.35h-1s1,10.23,1,14.72v64.91h20.79c2.54,0,4.15,1.27,4.15,3.83v13.75c0,2.56-1.61,3.83-4.15,3.83Zm141-150.28c0-36.45-21.42-58.83-49.24-58.83-24.29,0-48.93,18.86-48.93,61.08,0,36.12,24.3,55.95,48.93,55.95C2195.13,456.59,2216.23,433.56,2216.23,398.39Z" transform="translate(-216.42 -231.15)"/><path class="cls-1" d="M2399.57,476.73c-9.26,0-13.74-3.51-13.74-13.43V451.48h-1c-3.53,7.35-15.34,27.5-49.87,27.5s-55.33-22.08-55.65-55.65V340.84h-18.24c-2.54,0-3.83-1.28-3.83-3.84V323.25a3.52,3.52,0,0,1,3.83-3.83h30.7c9.3,0,13.75,3.51,13.75,13.43v84.08c0,24,11.52,39,35.17,39,32,0,42.55-26.54,42.55-27.18V340.84H2366q-3.83,0-3.82-3.84V323.25a3.51,3.51,0,0,1,3.82-3.83h39.65c2.55,0,3.82,1.27,3.82,3.83V455.31h17.92c2.54,0,4.17,1.28,4.17,3.84V472.9c0,2.56-1.63,3.83-4.17,3.83Zm-77.36-182.9c-2.27,1.29-4.49,1.29-6.08-1l-8-9.27c-1.63-1.91-1.63-4.48.64-6.07l51.46-45.09c1.94-1.91,4.17-1.59,6.08.31l9.93,12.16a4.19,4.19,0,0,1-.32,6.08Z" transform="translate(-216.42 -231.15)"/><path class="cls-1" d="M2472.31,476.73a3.52,3.52,0,0,1-3.85-3.83V268.57h-17.92c-2.55,0-4.14-1.27-4.14-3.83V251c0-2.56,1.59-3.83,4.14-3.83h39.34c2.58,0,4.17,1.27,4.17,3.83v85.06c0,1.27-1,12.45-1,12.45h1c6.4-15.33,23.64-31.33,52.09-31.33,43.51,0,71.65,32.94,71.65,79.95,0,49.87-29.41,81.86-72,81.86-28.77,0-46-16.31-52.74-32.31h-.31V472.9c0,2.56-1.63,3.83-4.17,3.83Zm119.25-79.29c0-36.14-22-57.88-49.23-57.88-26.23,0-48.92,20.78-48.92,58.2,0,36.12,21.42,58.83,48.92,58.83C2571.1,456.59,2591.56,432.92,2591.56,397.44Z" transform="translate(-216.42 -231.15)"/><path class="cls-1" d="M2641.86,476.73c-2.55,0-4.14-1.27-4.14-3.83V459.15c0-2.56,1.59-3.84,4.14-3.84h17.6V268.57h-17.6c-2.55,0-4.14-1.27-4.14-3.83V251c0-2.56,1.59-3.83,4.14-3.83h35.52c6.39,0,8.62,2.54,8.62,8V455.31h16.93c2.58,0,4.17,1.28,4.17,3.84V472.9c0,2.56-1.59,3.83-4.17,3.83Z" transform="translate(-216.42 -231.15)"/><path class="cls-1" d="M2735.62,476.73c-2.54,0-4.13-1.27-4.13-3.83V459.15c0-2.56,1.59-3.84,4.13-3.84h17.6V340.84h-17.6c-2.54,0-4.13-1.28-4.13-3.84V323.25c0-2.56,1.59-3.83,4.13-3.83h40.29c2.58,0,3.86,1.27,3.86,3.83V455.31h16.93c2.58,0,4.17,1.28,4.17,3.84V472.9c0,2.56-1.59,3.83-4.17,3.83ZM2766,302.47a17.6,17.6,0,0,1-17.92-17.58,17.9,17.9,0,1,1,35.8,0A17.59,17.59,0,0,1,2766,302.47Z" transform="translate(-216.42 -231.15)"/><path class="cls-1" d="M2967.2,439.64c2.22,1.93,2.22,3.83,1,5.76-3.82,7-25.87,33.58-68.11,33.58-43.15,0-78.64-30.38-78.64-81.54,0-51.8,37.4-80.27,76.1-80.27,29.09,0,44.11,14.07,50.82,23.67h.32l-.32-17.59a3.88,3.88,0,0,1,4.17-4.15h12.16c2.55,0,3.82,1.59,3.82,4.15v54.36a3.52,3.52,0,0,1-3.82,3.84H2950a3.54,3.54,0,0,1-3.86-3.84v-5.44c-.31-13.75-17.6-32.61-45.41-32.61-24,0-52.42,19.83-52.42,58.2,0,38,26.86,58.83,53.41,58.83,27.5,0,46.33-17.59,50.82-24.94a3.36,3.36,0,0,1,5.45-1Z" transform="translate(-216.42 -231.15)"/><path class="cls-1" d="M3122.74,476.73c-9.29,0-13.75-3.51-13.75-13.43V447h-.63c-5.76,8-23.68,32.3-62.38,32.3-29.73,0-52.42-16.62-52.42-44.44,0-36.46,35.17-50.84,85.68-50.84h26.86v-3.84c0-30.38-16.93-40-41.57-40-33.89,0-47,14.7-48.28,14.7a4,4,0,0,1-4.8-.95l-8.95-11.19c-1.59-1.92-1.27-3.52.64-5.12,1.59-1.91,19.19-20.47,62.35-20.47,41.24,0,67.15,17.27,67.15,64v74.18h17.92c2.54,0,3.82,1.28,3.82,3.84V472.9c0,2.56-1.28,3.83-3.82,3.83Zm-16.64-73.55h-25.24c-33.26,0-59.8,4.17-59.8,28.15,0,14.39,12.79,25.26,32.94,25.26,26.86,0,44.74-17.91,52.1-27.5Z" transform="translate(-216.42 -231.15)"/><path class="cls-1" d="M3419,476.73c-9.57,0-14.06-3.51-14.06-13.43V445.4h-.32c-6.08,15.66-24.28,33.58-53.4,33.58-42.52,0-71.93-32-71.93-81.86,0-47,28.77-79.95,72.24-79.95,28.49,0,45.1,16,51.82,31.33h.32s-.32-6.37-.32-10.55V268.57h-17.92c-2.55,0-4.14-1.27-4.14-3.83V251c0-2.56,1.59-3.83,4.14-3.83h39.65c2.58,0,3.86,1.27,3.86,3.83V455.31h17.88c2.58,0,3.85,1.28,3.85,3.84V472.9a3.52,3.52,0,0,1-3.85,3.83Zm-15.33-79c0-37.42-22.38-58.2-48.6-58.2-27.5,0-49.55,21.74-49.55,57.88,0,35.48,20.78,59.15,49.55,59.15C3382.56,456.59,3403.66,433.88,3403.66,397.76Z" transform="translate(-216.42 -231.15)"/><path class="cls-1" d="M3469.68,397.44c0-50.53,35.48-80.27,80-80.27s79.27,30.38,79.27,80.27S3595,479,3549.27,479C3503.89,479,3469.68,447.63,3469.68,397.44Zm132.68.32c0-36.46-25.24-58.2-52.73-58.2-27.86,0-53.09,21.74-53.09,58.2,0,36.12,24.28,58.83,52.73,58.83C3578.08,456.59,3602.36,433.88,3602.36,397.76Z" transform="translate(-216.42 -231.15)"/><path class="cls-2" d="M3097.57,941a14.72,14.72,0,0,0-10.35,0,15,15,0,0,0-8.43,6.57,440.5,440.5,0,0,1-55.37,85.37,422.41,422.41,0,0,1-73.18,69.44l-19.68,14.07q7.49-9.36,15-20.64a292.79,292.79,0,0,0,22.08-33.3q9.83-17.37,18.27-35.19c.63-1.88,1.26-3.59,1.88-5.16s1.26-3,1.89-4.22c.6-1.88,1.25-3.6,1.88-5.17s1.23-3,1.86-4.22q1.88-4.68,3.77-10.32a42,42,0,0,0,1.88-4.69,34,34,0,0,1,1.85-4.68l5.66-19.71a50.41,50.41,0,0,0,2.33-10.8,34.57,34.57,0,0,1,2.33-9.84c.63-3.12,1.26-6.58,1.89-10.33s1.25-7.18,1.88-10.32c.6-3.75,1.08-7.34,1.41-10.78s.48-7,.48-10.8a254.94,254.94,0,0,0,0-43.16c-.63-7.5-1.59-15-2.82-22.52s-2.84-15-4.69-22.5a200.46,200.46,0,0,0-16.9-44.1c-1.88-3.76-3.92-7.35-6.1-10.8s-4.55-7-7-10.78a130.13,130.13,0,0,1-8.91-9.86,74.08,74.08,0,0,0-9.87-9.85A128,128,0,0,0,2939,716.75a117.86,117.86,0,0,0-26.29-11.26c-5-1.26-9.54-2.19-13.57-2.83s-8.62-1.24-13.61-1.87h-6.1a28.5,28.5,0,0,0-7,.94h-7.51a7.66,7.66,0,0,1-3.29.93,7.76,7.76,0,0,0-3.29.94,100.93,100.93,0,0,0-25.33,8.45,79.54,79.54,0,0,0-10.32,6.1c-3.14,2.2-6.25,4.22-9.39,6.09q-9.37,7.53-16.87,14.08t-15,14.08a241.23,241.23,0,0,0-25.34,30q-2.82,3.76-5.65,7a62.57,62.57,0,0,0-5.62,8,56.61,56.61,0,0,0-6.1,7.05c-1.56,2.2-3.29,4.84-5.15,8q-5.66,7.51-10.79,15.48t-9.84,15.49a357.27,357.27,0,0,0-19.71,31c-3.14,5.64-6.29,11.11-9.4,16.42s-6.25,10.49-9.39,15.48a83.4,83.4,0,0,0-6.55,11.74,87.58,87.58,0,0,1-6.58,11.72c1.26-6.25,2.49-12.35,3.77-18.3s2.48-12,3.74-18.29l4.7-26.27a98.9,98.9,0,0,0,2.81-13.13c.63-4.37,1.25-8.77,1.88-13.15l4.7-26.26,4.69-26.27c.6-4.37,1.23-8.75,1.86-13.15s1.25-8.75,1.88-13.13l1.89-14.07.92-6.56a24.33,24.33,0,0,0,.93-7.51,58.7,58.7,0,0,0-10.32-39.41q-12.2-17.81-33.77-22.52-23.46-5.62-43.15,6.57t-25.34,35.65l-.92,1.88-11.28,49.73-12.17,50.66-11.28,50.67-12.2,51.6c-3.74,16.41-7.31,33-10.88,49.52l-3.18,4c-2.51,1.88-17.19,15.81-23.44,21.12s-10.95,9.54-14.09,12.66-6.4,6.25-9.84,9.38-6.73,5.95-9.84,8.45a82.72,82.72,0,0,1-9.87,8.45c-3.44,2.49-6.73,5-9.84,7.5q-19.7,16-40.83,30t-42.67,26.27q-10.36,5.63-21.12,11.26t-22,10.32q-11.27,4.71-22.52,8.45t-22.52,6.56a275.23,275.23,0,0,1-45.05,5.63c-6.89,1.27-37.22-.93-40.34-.93-6.9-1.26-13.13-2.35-18.77-3.29a86.28,86.28,0,0,1-16-4.22,114.19,114.19,0,0,1-13.59-4.23,39.82,39.82,0,0,1-10.8-6.09c-3.75-2.49-7.19-5-10.32-7.5a50,50,0,0,1-9.37-10.34q-10.35-11.23-16.9-28.14-3.75-8.43-7-18.29a143,143,0,0,1-5.16-20.17c-1.27-6.88-2.35-13.91-3.29-21.12a177.42,177.42,0,0,1-1.4-23v-15c.61.63,8.12,12.21,11.26,16s6.23,7.51,9.37,11.26a45,45,0,0,0,6.57,5.62,25.5,25.5,0,0,0,5.64,4.7,46.72,46.72,0,0,0,6.1,5.16,50.09,50.09,0,0,0,7,4.21,133,133,0,0,0,30,14.08,78.92,78.92,0,0,0,8,2.82c2.19.63,4.85,1.26,8,1.87l16.88,2.81a206.69,206.69,0,0,0,64.74-4.68,151.17,151.17,0,0,0,30-8.45,64.43,64.43,0,0,0,7.5-2.81,2.71,2.71,0,0,0,1.89-.94l2.81-.94c2.48-1.24,4.07-1.87,4.7-1.87a201.16,201.16,0,0,0,16.89-11.26,104.55,104.55,0,0,0,28.15-24.39A142.77,142.77,0,0,0,2361,961.62a174.31,174.31,0,0,0,17.38-29.08c4.66-10,8.91-20.33,12.65-31q1.89-7.51,4.22-15.49t4.21-16.42a209.27,209.27,0,0,0,2.82-34.71,264.21,264.21,0,0,0-2.82-37.54,167.36,167.36,0,0,0-13.13-37.52q-10.3-21.57-26.25-35.66a117.78,117.78,0,0,0-36.61-24.39,89.66,89.66,0,0,0-20.16-6.57q-9.87-1.86-19.23-2.81a73.21,73.21,0,0,0-18.31-1.4,105.84,105.84,0,0,0-17.34,2.33q-8.49,1.9-16.42,3.75c-5.33,1.27-10.5,2.51-15.5,3.76q-16.89,6.58-29.08,12.2a242.36,242.36,0,0,0-26.74,14.55q-12.67,8-24.87,17.35-5.62,4.71-11.26,8.91t-11.26,8.91c-3.14,3.14-6.56,6.43-10.32,9.86a113.49,113.49,0,0,0-10.32,10.79,232.87,232.87,0,0,0-18.76,21.1q-8.45,10.81-16.89,22.06t-16,23A266.86,266.86,0,0,0,2027,872.49a443.27,443.27,0,0,0-44.1,107c-1.4,5.28-2.32,10.89-3.43,16.37-1.15,2.07-2.29,4-3.43,6.15q-5.62,10.34-11.25,19.69t-12.2,18.77a564,564,0,0,1-52.55,73.19,65.45,65.45,0,0,0-7.51,8.45,55.15,55.15,0,0,0-3.75,4.21,50.16,50.16,0,0,1-3.75,4.22l-15.94,16a104.5,104.5,0,0,1-16,13.13,65.43,65.43,0,0,1-16.88,11.26c-3.14,1.27-6,2.51-8.45,3.75a36,36,0,0,1-7.51,2.83c-1.26,0-5.32.92-6.56.92a4.1,4.1,0,0,1-1.87-.46,4.34,4.34,0,0,0-1.89-.46c-.63-.63-1.09-1-1.4-1s-.8-.31-1.41-.94a14,14,0,0,1-2.81-3.75c-1.27-1.24-3.14-5-5.64-11.26a56.53,56.53,0,0,1-4.68-16.89,46.59,46.59,0,0,1-.94-9.39,49.05,49.05,0,0,0-.94-9.37v-20.64a113.63,113.63,0,0,1,1.88-20.65,99.22,99.22,0,0,0,1.41-10.32,88.33,88.33,0,0,1,1.4-10.32q.93-4.68,1.87-10.32c.61-3.75,1.26-7.18,1.89-10.32,1.86-6.87,3.75-13.6,5.62-20.17s3.75-13.28,5.64-20.17a449.13,449.13,0,0,1,34.7-76,180.47,180.47,0,0,1,10.32-16.42q5.64-8,11.26-15.48a239.42,239.42,0,0,1,25.34-25.33A59.75,59.75,0,0,0,1912.73,842a60.66,60.66,0,0,0,2.35-34.25q-5.64-25.32-27.21-39.4t-46-8.44l-21.58,4.68q-12.19,3.78-23,7.51c-7.2,2.51-14.54,5-22,7.51q-11.25,2.82-22.52,6.1a189.86,189.86,0,0,1-22.52,5.16q-44.1,11.26-85.37,11.26H1626.1c1.24-6.25,4.83-32,5.16-34.25a58,58,0,0,0,.46-8,50.56,50.56,0,0,0-.46-7,54.86,54.86,0,0,1-.46-8,60.15,60.15,0,0,1-1.43-7.51,23.45,23.45,0,0,0-2.33-7.5c-1.27-3.13-2.35-5.94-3.29-8.45a31,31,0,0,0-4.22-7.51q-2.82-3.72-5.63-7a41,41,0,0,0-6.57-6.1c-3.14-1.88-5.79-3.42-8-4.7a70.87,70.87,0,0,0-8-3.75c-3.13-1.24-21.9-4.68-24.39-4.68h-15s-19.69,2.5-25.33,3.74a63.41,63.41,0,0,0-16.88,6.58,99.9,99.9,0,0,0-8.45,5.62,75.71,75.71,0,0,0-7.51,6.57,31.89,31.89,0,0,1-3.75,3.29,36.55,36.55,0,0,0-3.76,3.29,56.05,56.05,0,0,1-6.56,8.43,93.11,93.11,0,0,0-13.13,40.35,97.18,97.18,0,0,0,2.81,40.34q4.71,17.83,16.88,35.65a113.52,113.52,0,0,0,24.41,27.22,155.51,155.51,0,0,0,23.45,17.83q12.18,7.51,24.39,14.07a2.72,2.72,0,0,1-.93,1.87c-3.14,7.5-6.57,15.34-10.32,23.46-1.88,3.75-3.75,7.51-5.64,11.26s-3.75,7.82-5.62,12.19c-.88,1.76-1.91,3.52-2.86,5.28-16.6,30.23-59.17,77.07-63.46,82a380,380,0,0,1-54.42,49.73,459,459,0,0,1-62.87,38,403.51,403.51,0,0,1-68.49,26.74,407.88,407.88,0,0,1-71.3,14.07q-18.77,1.89-36.59,2.35a289.41,289.41,0,0,1-36.59-1.4h-8.92a45.23,45.23,0,0,1-8.91-1h-4.69l-4.69-.94a21.78,21.78,0,0,1-4.23-.46,21.3,21.3,0,0,0-4.21-.48q-8.44-1.86-16.89-3.28c-5.64-.94-11-2-16-3.29q-8.45-2.8-16-5.62a158.81,158.81,0,0,1-15-6.56,97.45,97.45,0,0,1-14.09-6.58,147.13,147.13,0,0,1-13.13-8.44q-25.32-18.75-41.28-42.23a234.27,234.27,0,0,1-28.15-52.53,291.39,291.39,0,0,1-9.85-29.09q-4.21-15-8-31A423.62,423.62,0,0,1,917.08,910a418.76,418.76,0,0,1,0-68.49c.62-11.26,1.42-22.65,2.34-34.24s2.35-23,4.24-34.25q2.8-17.81,5.62-34.71t7.51-34.72c1.24-5.62,2.64-11.26,4.21-16.88s3.29-11.26,5.16-16.9a152.67,152.67,0,0,1,4.7-17.83c1.88-5.62,3.75-11.26,5.64-16.88q11.25-32.83,25.33-65.68a507.34,507.34,0,0,1,32.84-63.79q9.34-16,18.75-30.49t19.71-28.63a630.18,630.18,0,0,1,45-56.3q12.18-13.12,24.86-25.33t26.73-24.39q13.15-10.32,29.09-20.64,7.51-4.68,15.49-9.39c5.3-3.11,10.79-6.24,16.42-9.38a304.7,304.7,0,0,1,68.49-22.52q9.36-1.86,18.29-2.81t18.31-1.87a354,354,0,0,1,36.57,0,186.85,186.85,0,0,1,35.67,7,153.21,153.21,0,0,1,32.84,14.55q7.48,4.69,14.07,9.38a107.6,107.6,0,0,1,13.13,11.26,160.27,160.27,0,0,1,19.71,24.39A84.37,84.37,0,0,1,1481,367.71a161,161,0,0,1,5.62,27.21,91.76,91.76,0,0,1,0,26.27,98.6,98.6,0,0,1-5.62,26.28,163.94,163.94,0,0,1-29.09,47.85,189.14,189.14,0,0,1-20.63,21.1,207.1,207.1,0,0,1-24.41,18.3q-7.52,4.69-14.07,8.44t-14.07,7.5q-7.52,3.78-14.54,7.05t-14.55,7L1318.66,576a63.68,63.68,0,0,1-8.45,2.82,36.78,36.78,0,0,0-7.51,2.81l-8.45,1.87-8.43,2.82h-.94a61.92,61.92,0,0,0-34.71,28.15q-12.21,20.64-5.64,44.1,5.63,24.4,26.74,37.06t45.5,7l4.7-1.87,5.62-.94a49,49,0,0,1,5.18-1.41,45.79,45.79,0,0,0,5.16-1.4,81.26,81.26,0,0,1,10.31-3.29,77.82,77.82,0,0,0,10.32-3.28q10.32-4.68,20.18-8.45t20.17-8.45a371.73,371.73,0,0,0,76-46,352,352,0,0,0,34.24-31A288.69,288.69,0,0,0,1538.2,561q13.14-17.81,23.46-42.21,10.32-20.62,15-46.91a167,167,0,0,0,3.75-24.39q.91-12.18.93-25.34a201.34,201.34,0,0,0-9.38-49.74c-3.14-7.5-6.56-14.84-10.32-22a168.73,168.73,0,0,0-13.14-21.11,175.85,175.85,0,0,0-51.59-47.86,202.65,202.65,0,0,0-19.71-10.31,233,233,0,0,0-41.29-15,169.06,169.06,0,0,0-20.16-4.22c-6.58-.94-13.31-2-20.17-3.27a154.89,154.89,0,0,0-20.65-2.35c-6.9-.31-13.76-.78-20.64-1.4q-19.69-.94-39.41,0a282.77,282.77,0,0,0-40.34,2.81,339.8,339.8,0,0,0-39.41,6.1q-19.71,4.21-39.4,9.84-10.35,2.82-19.71,5.64t-18.77,6.56q-10.33,4.71-19.23,8.45t-18.29,8.43a401.61,401.61,0,0,0-36.59,18.77q-17.84,10.35-34.73,22.52t-32.83,25.8q-16,13.62-30,27.68a498.78,498.78,0,0,0-53.49,63.81,364.82,364.82,0,0,0-24.39,33.3q-11.26,17.37-21.58,35.19t-19.71,36.11Q857,574.14,848.59,592.9q-9.37,19.68-15.94,37.52a330.53,330.53,0,0,0-14.08,39.4,314.16,314.16,0,0,0-12.2,39.42q-4.71,19.69-9.38,40.33a787.57,787.57,0,0,0-12.2,84,479.64,479.64,0,0,0,0,84.91q1.86,21.6,4.7,43.16a349.33,349.33,0,0,0,8.43,43.16q5.63,21.6,13.61,43.16a317,317,0,0,0,19.23,42.23,203.88,203.88,0,0,0,12.2,19.69q6.56,9.41,14.08,18.77a188,188,0,0,0,15.47,18.77,168.63,168.63,0,0,0,17.36,15.94,163.77,163.77,0,0,0,17.83,15.49q9.38,7,19.71,13.6a151.77,151.77,0,0,0,21.1,11.26q10.79,4.68,21.12,9.39,11.25,4.68,22,8t22.06,6.1q22.51,3.75,44.1,5.62a132.93,132.93,0,0,0,22,1.89c7.18,0,14.22-.33,21.11-1,5,0,8.44-.33,10.32-.94h10.32a90.21,90.21,0,0,1,10.32-1.4,97.31,97.31,0,0,0,10.32-1.41q19.71-1.89,39.88-5.62t38.94-8.45q19.7-4.71,38.93-10.8t38-13.59q76.93-29.07,137.92-78.83a485,485,0,0,0,57.24-55.34c9.38-9.39,48.41-59.62,65.37-95.71l-.06,0c10.26-18.06,23.11-41.17,25.39-46.89a7.22,7.22,0,0,0,1.42-1.88,7,7,0,0,1,1.41-1.87,429.41,429.41,0,0,0,46.91,11.26,296.51,296.51,0,0,0,61.92,2.81,279.53,279.53,0,0,0,39.41-2.81q-7.51,31.89-11.26,60a599.37,599.37,0,0,0-2.82,100.4l2.82,25.33c.61,4.39,1.09,8.6,1.4,12.67a63.77,63.77,0,0,0,2.35,12.67c1.24,5,2.5,9.54,3.75,13.59s2.5,8.3,3.76,12.67a127.18,127.18,0,0,0,11.26,26.27,32.93,32.93,0,0,0,4.21,6.57,33.66,33.66,0,0,1,4.22,6.58,113.15,113.15,0,0,0,12.2,12.18,40.82,40.82,0,0,0,16,10.32,82.63,82.63,0,0,0,18.75,5.64,47.7,47.7,0,0,0,18.77,0,57.26,57.26,0,0,0,16-4.7,72.06,72.06,0,0,0,24.39-15,73,73,0,0,0,19.71-16.88c3.12-3.14,6.1-6.11,8.91-8.92a107.47,107.47,0,0,0,8-8.91,70.71,70.71,0,0,0,8-9.39q3.27-4.66,7-9.38,1.88-2.81,3.76-5.16c1.24-1.55,2.49-3.29,3.75-5.16a22.35,22.35,0,0,0,3.29-4.21q1.39-2.34,3.28-5.18,13.11-19.7,25.33-39.4c7.18-11.62,14.38-23.59,21.58-35.71,0,4.09-.29,8.17-.18,12.26a160.85,160.85,0,0,0,4.23,31.9,220.71,220.71,0,0,0,8.44,33.78c1.88,5.62,4.06,11.26,6.56,16.88a127.18,127.18,0,0,0,8.45,16q4.7,7.51,10.32,15.48a190.27,190.27,0,0,0,12.2,15.47,164.32,164.32,0,0,0,29.09,26.28q8.43,5.63,16.88,10.32a160.79,160.79,0,0,0,17.83,8.45,119.07,119.07,0,0,0,35.66,11.26,157.06,157.06,0,0,0,35.65,3.75h16.89a66.27,66.27,0,0,0,15.95-1.88q8.43-1.89,16.42-3.29c5.3-.93,10.47-2,15.49-3.28a139.41,139.41,0,0,0,15-4.69c5-1.87,10-3.76,15-5.63a334.12,334.12,0,0,0,53.48-27.21,418.69,418.69,0,0,0,47.85-31q12.16-8.46,23-16.9t21.12-17.82a513,513,0,0,0,40.34-37.06q18.76-19.23,36.58-38.94,8.48-10.32,16.9-20.64c5.62-6.88,11.28-13.75,16.9-20.63l.48-.57c-1.44,6.42-2.79,12.93-4.25,19.32l-1.88,4.69a35.8,35.8,0,0,1-1.89,6.57l-2.81,5.64-1.88,5.62c-1.86,4.38-3.59,8.45-5.15,12.2s-3.29,7.82-5.17,12.21q-11.27,23.46-23.45,46.91-5.61,12.2-11.72,23.44t-12.66,23.47q-6.59,11.26-13.16,23t-13.13,23.93c-1.88,3.75-3.88,7.51-6.1,11.26s-4.51,7.81-7,12.19c-1.88,3.75-3.88,7.65-6.1,11.74s-4.21,8.27-6.1,12.66a44.19,44.19,0,0,0-6.55,12.19c-1.25,2.5-10.17,20.79-11.75,24.87s-3.26,8.28-5.15,12.67q-11.25,24.38-20.63,49.72t-18.79,50.66a1048.39,1048.39,0,0,0-30.95,103.22l-1.89,6.56V1549l-.92,3.76-2.81,14.07a83.93,83.93,0,0,0-2.37,13.61,80.89,80.89,0,0,1-2.33,13.61c-.63,5-1.08,9.85-1.41,14.53s-.47,9.53-.47,14.55v15a36.76,36.76,0,0,1,.95,7.5c.12,2.8,5.68,22.56,8.44,27.2a18.39,18.39,0,0,1,3.29,4.7,11.91,11.91,0,0,0,4.21,4.68,23.12,23.12,0,0,0,10.32,8.45c2.52,1.88,6.88,3.44,13.13,4.7a7.92,7.92,0,0,0,3.29.94,7.52,7.52,0,0,1,3.29.93h15.94a27.63,27.63,0,0,0,10.32-1.87q11.26-2.83,17.83-6.57a56.07,56.07,0,0,0,8.46-4.23,85.58,85.58,0,0,1,7.48-4.22,147.79,147.79,0,0,0,26.29-20.63l11.24-11.27c1.89-1.88,3.62-3.75,5.18-5.63s3.29-3.76,5.14-5.63c3.14-3.75,6.1-7.67,8.92-11.72s5.8-8,8.91-11.74a385.49,385.49,0,0,0,30-49.72l11.27-25.33c1.86-4.39,3.74-8.6,5.62-12.67s3.74-8.6,5.63-13.61a87.24,87.24,0,0,1,4.69-12.67,76.27,76.27,0,0,0,4.7-13.6c1.88-4.39,3.59-8.6,5.14-12.67s3-8.28,4.25-12.67q4.66-13.14,8.43-25.79t8.44-25.8c1.25-4.38,2.51-8.61,3.77-12.66s2.48-8.3,3.74-12.67l7.5-26.28q15-51.6,28.15-102.73t26.29-102.74q7.49-31,15-62.4t14.06-62.39a55.65,55.65,0,0,0,3.29-5.64,45,45,0,0,1,3.29-5.62q4.66-7.49,8.91-15.48t8.91-15.48q10.28-15,19.68-30T2704.42,926a161.52,161.52,0,0,1,10.32-14.55,150.5,150.5,0,0,0,10.32-14.54l22.52-28.14a175.81,175.81,0,0,1,11.27-13.61c3.74-4.07,7.51-8.28,11.25-12.66a41.42,41.42,0,0,1,6.1-6.57,41.5,41.5,0,0,0,6.1-6.58l12.21-12.19q6.54-5.62,12.65-11.26a131.15,131.15,0,0,1,12.68-10.32l14.06-8.44a69.62,69.62,0,0,1,13.15-7.51,14.82,14.82,0,0,1,6.08-2.35,34.09,34.09,0,0,0,6.1-1.4,39.89,39.89,0,0,1,9.39-1h1.88v1h.93a6.54,6.54,0,0,1,2.81.47,6.42,6.42,0,0,0,2.81.47,47.11,47.11,0,0,1,7.51,4.69q6.55,3.75,11.28,12.19a8.66,8.66,0,0,1,2.33,4.23,15,15,0,0,0,2.36,5.16c.6,1.87,1.56,5.33,2.81,10.32a73.13,73.13,0,0,1,2.81,11.72,87,87,0,0,1,.93,12.67,98.45,98.45,0,0,1,0,27.22,279.27,279.27,0,0,1-8.43,58.17,36.67,36.67,0,0,0-2.37,8,61.41,61.41,0,0,1-1.4,7,58.07,58.07,0,0,0-4.67,15,17.8,17.8,0,0,0-1.4,3.76,18.55,18.55,0,0,1-1.44,3.75,16.71,16.71,0,0,0-1.85,7.51,63.61,63.61,0,0,0-2.81,7.5,64.6,64.6,0,0,0-2.82,7.51q-5.64,15-11.75,30t-12.65,30q-7.54,15-14.54,29.08t-15.49,28.15q-8.43,13.14-18.3,25.79a183.24,183.24,0,0,1-21.12,23c-3.74,3.14-7.51,6.26-11.24,9.39a83.17,83.17,0,0,1-12.21,8.43q-13.14,8.46-24.37,9.39a42.26,42.26,0,0,1-21.6,0,23,23,0,0,1-10.31-5.63,32.68,32.68,0,0,1-5.18-4.22,33.49,33.49,0,0,0-5.14-4.22,31,31,0,0,0-1.89-3.29,29.17,29.17,0,0,1-1.88-3.29,11.88,11.88,0,0,1-2.33-2.81,15.44,15.44,0,0,0-2.34-2.81c-1.28-2.5-2.36-4.83-3.29-7s-2-4.83-3.29-8a34.91,34.91,0,0,1-2.81-7.51,72.21,72.21,0,0,0-2.81-8.44c-.63-3.12-1.26-5.93-1.88-8.45s-1.26-5.3-1.89-8.44c-.63-4.37-3.74-7.18-9.39-8.44a13.51,13.51,0,0,0-8,2.33c-2.21,1.57-3.29,3.92-3.29,7a138.33,138.33,0,0,0,0,39.4,97.86,97.86,0,0,1,1.41,9.86,33.47,33.47,0,0,0,2.36,9.85c1.23,3.76,2.49,7.36,3.74,10.78s2.48,6.73,3.74,9.86q2.82,4.68,5.65,9.85a43.06,43.06,0,0,0,7.51,9.86,96.76,96.76,0,0,0,18.75,15.94,40.69,40.69,0,0,0,10.8,6.1c4.07,1.56,8,3,11.72,4.22a64.28,64.28,0,0,0,12.69,2.35q6,.47,12.65,1.4a141.58,141.58,0,0,0,45-7.51,58.42,58.42,0,0,1,11.24-3.75c2.52-1.26,4.07-1.87,4.7-1.87a121,121,0,0,0,13.61-4.22c4.07-1.57,8.28-3,12.65-4.23a446.65,446.65,0,0,0,50.69-22.52,514.68,514.68,0,0,0,91.94-58.17,407.14,407.14,0,0,0,40.8-36.58,396.71,396.71,0,0,0,35.2-41.29,445.27,445.27,0,0,0,31-45,498.46,498.46,0,0,0,25.33-47.84Q3110.66,947.56,3097.57,941ZM2086.14,898.75c2.48-7.5,5.16-15,8-22.5a169.7,169.7,0,0,1,9.85-21.6,212.25,212.25,0,0,1,27.21-39.4,190.41,190.41,0,0,1,15.95-15.94,91.41,91.41,0,0,1,18.77-14.07,103.2,103.2,0,0,1,41.27-15,57.44,57.44,0,0,1,20.67,0,93.15,93.15,0,0,0,9.84,1.41,34.52,34.52,0,0,1,9.84,2.35,54.34,54.34,0,0,1,16,7.5,16.89,16.89,0,0,1,5.62,4.22,45.32,45.32,0,0,0,3.74,4.22c1.89,3.14,2.81,5.63,2.81,7.5a9.44,9.44,0,0,1,1,4.24,16.31,16.31,0,0,0,.93,5.16,27.59,27.59,0,0,0,.48,4.68,42.11,42.11,0,0,1,.47,6.58,47.26,47.26,0,0,0,.45,7,24.18,24.18,0,0,1-.45,8v8.45a43.07,43.07,0,0,1-.95,8.45,42.66,42.66,0,0,1-.93,8.92q-.95,4.22-1.88,8.91a173.07,173.07,0,0,1-4.7,18.29,70.8,70.8,0,0,1-7.51,16.42,43.27,43.27,0,0,1-8.43,16c-1.26,1.87-2.66,3.92-4.22,6.1a45.48,45.48,0,0,1-4.21,5.16,12.45,12.45,0,0,0-2.37,2.82,5.3,5.3,0,0,1-2.33,1.88l-1,.93-.92.94a6.77,6.77,0,0,1-1.89,1.4,8.24,8.24,0,0,0-1.88,1.41c-3.11,1.88-6.07,3.75-8.92,5.64s-5.78,3.75-8.91,5.62q-9.37,4.71-18.29,8.45a181.63,181.63,0,0,1-18.3,6.57q-17.83,5.63-39.41,3.75a16.88,16.88,0,0,0-5.15-.94,15.74,15.74,0,0,1-5.16-1,6.29,6.29,0,0,1-2.82-.46,6.75,6.75,0,0,0-2.81-.46,9,9,0,0,0-2.34-.94,8,8,0,0,1-2.35-1,73.73,73.73,0,0,1-21.58-8.43c-6.9-3.75-14.07-8.14-21.58-13.15l-.94-.94Q2079.57,917.54,2086.14,898.75ZM1603.58,766c0,2.2-1.09,9.86-1.41,11.74s-2,13.46-3.29,19.69a143.9,143.9,0,0,1-14.07-4.21,55.16,55.16,0,0,1-12.19-6.1,60.42,60.42,0,0,1-6.58-3.76,62.48,62.48,0,0,0-6.56-3.75l-11.26-8.44a80.91,80.91,0,0,1-8.44-9.85,36.71,36.71,0,0,1-5.63-11.74,13,13,0,0,1,.94-5.62,9,9,0,0,1,2.81-6.57q3.75-5.62,14.07-10.32c.61,0,9.39-2.82,9.39-2.82a32.41,32.41,0,0,0,5.63-.47,29.69,29.69,0,0,1,4.69-.46q11.27,0,17.83,3.75a27.49,27.49,0,0,1,5.62,4.69,51.31,51.31,0,0,1,4.7,7.5c2.49,5,3.75,11.89,3.75,20.65Zm846.11,543.26q-2.33,9.84-4.22,20.17l-5.62,25.33-5.62,25.34q-2.83,13.11-6.1,25.33t-6.1,24.39c-1.26,4.37-2.37,8.58-3.29,12.66s-2,8-3.29,11.73c-1.23,4.37-2.34,8.6-3.29,12.67s-2,8-3.26,11.73l-1.89,5.63c0,1.24-.63,3.12-1.88,5.62l-3.74,12.2-8.47,23.47-16.86,45q-4.71,11.26-8.92,21.58a202.73,202.73,0,0,1-9.87,20.65,80.51,80.51,0,0,1-10.31,16.89,61.66,61.66,0,0,1-5.63,6.56c-1.88,1.89-9.47,10.72-13.13,11.26-.78.12-3.14-3.75-3.77-5.62a78.65,78.65,0,0,1-3.73-9.39,51.07,51.07,0,0,1-1.89-11.26c-.63-3.76-1.08-7.66-1.4-11.73a59,59,0,0,1,.47-12.66q0-6.57.45-12.67c.33-4.08.81-8,1.41-11.72.66-3.14,1.58-7.21,2.84-12.21l.93-2.81.92-3.75,1-5.64q7.5-25.32,15.94-49.26t18.76-48.31q10.35-24.4,22.07-47.38t24.85-45.51a103.34,103.34,0,0,0,6.58-11.26,57.9,57.9,0,0,1,6.55-10.31l1.89-2.82,1.88-2.82c1.26-2.5,6.07-8.44,7-10.32a17.34,17.34,0,0,1,3.29-4.68,102.64,102.64,0,0,0,7.95-10.8,60.21,60.21,0,0,1,8-9.85,25.88,25.88,0,0,1,4.7-5.63C2453,1296,2451.28,1302.68,2449.69,1309.25Z" transform="translate(-216.42 -231.15)"/><path class="cls-2" d="M3879,1059.88c-1.25-6.11-2.33-12-3.29-17.54a135.63,135.63,0,0,0-4.21-17.55q-2.82-8.34-6.07-16.72a98.84,98.84,0,0,0-8-15.88,117.45,117.45,0,0,0-10.28-15.45,112.54,112.54,0,0,0-13.15-13.8c-7.47-8.35-17.52-16.14-30-23.39a141,141,0,0,0-35.63-15,114.92,114.92,0,0,0-19.67-4.59c-6.28-.84-12.82-1.52-19.7-2.09a179.26,179.26,0,0,0-75.95,11.7c-11.38,5-42.7,18.76-77.64,55.82-5.65,6-10.95,9.54-14.09,12.67s-6.43,6.25-9.84,9.37-6.73,6-9.87,8.45a82.46,82.46,0,0,1-9.84,8.45c-3.44,2.5-6.73,5-9.84,7.51q-19.74,15.95-40.83,30t-42.68,26.27q-10.35,5.64-21.11,11.27t-22.07,10.31q-11.22,4.71-22.49,8.45t-22.53,6.57a273.87,273.87,0,0,1-45,5.62,56.33,56.33,0,0,1-20.63,0c-3.14,0-6.43-.13-9.87-.46s-6.73-.47-9.84-.47q-10.32-1.87-18.76-3.29a85.55,85.55,0,0,1-16-4.21,118.82,118.82,0,0,1-13.61-4.24,39.56,39.56,0,0,1-10.76-6.08q-5.66-3.75-10.32-7.51a50.19,50.19,0,0,1-9.39-10.33q-10.37-11.23-16.9-28.15-3.77-8.43-7-18.29a142.66,142.66,0,0,1-5.17-20.17q-1.89-10.32-3.26-21.11a173.76,173.76,0,0,1-1.44-23V968c.63.63,8.14,12.2,11.28,15.95s6.25,7.51,9.39,11.26a43.13,43.13,0,0,0,6.55,5.63c2.51,2.51,4.36,4.08,5.62,4.69a48.66,48.66,0,0,0,6.1,5.16,49.91,49.91,0,0,0,7.06,4.22,131.61,131.61,0,0,0,30,14.07,80.85,80.85,0,0,0,7.95,2.83q3.29.95,8,1.87l16.87,2.81a207,207,0,0,0,64.75-4.68,153.12,153.12,0,0,0,30-8.45,68.87,68.87,0,0,0,7.5-2.81,2.79,2.79,0,0,0,1.89-.95l2.81-.94c2.48-1.24,4.07-1.87,4.7-1.87a198,198,0,0,0,16.86-11.26,103.93,103.93,0,0,0,28.15-24.39,142.05,142.05,0,0,0,21.59-27.21,174.2,174.2,0,0,0,17.35-29.09q7-15,12.68-31c1.23-5,2.63-10.16,4.22-15.49s3-10.78,4.21-16.42a209.27,209.27,0,0,0,2.82-34.71,264,264,0,0,0-2.82-37.53,168.7,168.7,0,0,0-13.13-37.52q-10.3-21.59-26.26-35.67a117.79,117.79,0,0,0-36.6-24.39,89.61,89.61,0,0,0-20.16-6.56c-6.58-1.24-13-2.19-19.23-2.81a73.33,73.33,0,0,0-18.31-1.41,106.64,106.64,0,0,0-17.37,2.33c-5.63,1.27-11.1,2.51-16.42,3.76s-10.47,2.51-15.47,3.75q-16.9,6.6-29.1,12.2A248.88,248.88,0,0,0,3239,717.94c-8.43,5.31-16.74,11.11-24.85,17.35-3.77,3.14-7.51,6.1-11.27,8.91s-7.48,5.8-11.25,8.92q-4.71,4.71-10.32,9.85a107.7,107.7,0,0,0-10.32,10.8,238,238,0,0,0-18.78,21.1q-8.43,10.82-16.87,22t-15.94,23a264.85,264.85,0,0,0-14.09,24.87,441.53,441.53,0,0,0-44.08,107,277.28,277.28,0,0,0-6.1,29.09q-2.34,15-3.29,31t-.48,31.89a161.48,161.48,0,0,0,4.22,31.9,220.8,220.8,0,0,0,8.46,33.78,177.87,177.87,0,0,0,6.55,16.89,129.13,129.13,0,0,0,8.46,16q4.66,7.52,10.32,15.48a190.13,190.13,0,0,0,12.18,15.48,164.67,164.67,0,0,0,29.1,26.27c5.62,3.76,11.24,7.18,16.89,10.32a154.87,154.87,0,0,0,17.83,8.45,118.64,118.64,0,0,0,35.65,11.26,157.13,157.13,0,0,0,35.65,3.75h16.9a66.18,66.18,0,0,0,15.94-1.88q8.43-1.89,16.42-3.29c5.3-.93,10.47-2,15.46-3.27a137.56,137.56,0,0,0,15-4.7l15-5.62a332.54,332.54,0,0,0,53.48-27.22,414.74,414.74,0,0,0,47.85-31q12.21-8.44,23-16.89t21.12-17.83a509.12,509.12,0,0,0,40.34-37.06q18.77-19.21,36.58-38.94c5.62-6.88,11.81-13.34,16.9-20.63,18.6-26.65,47.56-64.7,64.53-78.63,8-6.57,18.41-10,29-13.36a260.35,260.35,0,0,1,31-7.53c5-.55,10.28-1,15.93-1.25a60.06,60.06,0,0,1,15.93,1.25q32.82,2.51,57.21,19.22a132.11,132.11,0,0,1,12.19,8.78,69.64,69.64,0,0,1,10.29,10.44,121,121,0,0,1,15,23.4,99,99,0,0,1,9.39,26.32,139.39,139.39,0,0,1,2.81,28,78.61,78.61,0,0,1,.48,14.63,81,81,0,0,1-2.34,14.62,49.91,49.91,0,0,0-1.43,6.69c-.3,2.22-.78,4.74-1.38,7.51a12.64,12.64,0,0,1-.47,3.34,11.9,11.9,0,0,0-.48,3.35l-.93,3.34-.92,1.68v1.66a106.29,106.29,0,0,1-4.73,13.38q-2.77,6.69-5.62,13.37c-2.51,4.46-5,8.5-7.47,12.12s-5.32,7.39-8.46,11.28q-16,21.73-42.18,41.79a263.75,263.75,0,0,1-25.82,17.12q-13.55,7.93-27.65,15.47c-9.35,5-19.07,9.6-29.08,13.79s-20.3,8.21-30.91,12.12q-30,10.85-63.79,20-32.82,9.18-66.11,16.3t-67,13.78q-33.76,5.83-68,10.46t-68.93,8.76q-34.7,4.17-68.93,7.11t-69.88,6.26q-35.6,2.52-70.3,4.6t-69.41,3.77q-70.31,3.31-141.11,5l-142.07,3.34q-70.3,1.66-141.57,2.5T2465,1372.44L2321.56,1375l-143.49.84q-143.46,1.65-286,2.5t-286,.84H1247.89l-71.26-.84-71.28-.84h-35.63l-36.57-.84H961.89L890.62,1375q-18.74,0-36.09-.42t-36.11-.42q-17.8-.84-35.63-.84t-35.63-.83L603.7,1369.1q-71.26-1.69-143.48-3.34Q399.29,1364,338.79,1362t-122.37-5.42L927.19,1929l177.22-42.61,34.71-7.53,34.68-8.35,69.4-15.88,68.44-15.89,34.71-8.35,34.69-7.52,69.39-15.88,69.39-15.88,69.39-15,69.39-15q139.73-30.9,277.09-59.75t277.07-57.23q35.68-6.72,69.88-13.38t68.93-13.37l17.82-3.34,16.85-3.35,34.68-6.69q17.84-3.35,34.73-5.84t34.67-5.85q70.3-12.54,139.71-24.24t139.71-23.4q70.35-11.71,140.67-23.39T3052,1496.12q70.35-12.54,140.66-26.32t140.64-29.67q35.68-8.37,69.88-17.13t69.83-18.8q34.69-10,68.93-21.31t68-24.66q17.79-6.69,34.22-13.79t33.3-14.62q15.91-8.37,31.86-17.13t31.87-18q16-10,31-20.9a269.91,269.91,0,0,0,28.13-23.4,242.74,242.74,0,0,0,47.83-55.14q20.58-32.61,27.17-66.87l.95-2.5v-2.51l1-1.67v-2.51a16.27,16.27,0,0,1,.45-3.75,20,20,0,0,0,.48-4.6,38.31,38.31,0,0,0,.92-8.36,36,36,0,0,1,1-8.35V1076.6A149.17,149.17,0,0,0,3879,1059.88ZM3164.45,891q3.78-11.26,8-22.51a170.27,170.27,0,0,1,9.84-21.59,213.69,213.69,0,0,1,27.22-39.41,191.81,191.81,0,0,1,15.94-15.94,92,92,0,0,1,18.78-14.07,103.18,103.18,0,0,1,41.27-15,56.82,56.82,0,0,1,20.64,0,93.79,93.79,0,0,0,9.87,1.4,35.1,35.1,0,0,1,9.84,2.35,53.55,53.55,0,0,1,15.94,7.51,17,17,0,0,1,5.65,4.21,45.32,45.32,0,0,0,3.74,4.22c1.89,3.14,2.81,5.64,2.81,7.51a9.36,9.36,0,0,1,1,4.23,16.27,16.27,0,0,0,.93,5.16,27.49,27.49,0,0,0,.48,4.68,43.69,43.69,0,0,1,.44,6.58,47.17,47.17,0,0,0,.48,7,24.29,24.29,0,0,1-.48,8v8.45a43,43,0,0,1-.92,8.45,42.49,42.49,0,0,1-.93,8.91c-.66,2.81-1.29,5.79-1.88,8.91a175.54,175.54,0,0,1-4.7,18.29,71.86,71.86,0,0,1-7.51,16.42,43.32,43.32,0,0,1-8.43,16c-1.29,1.87-2.69,3.92-4.25,6.1A39.62,39.62,0,0,1,3324,922a13.13,13.13,0,0,0-2.33,2.81,5.12,5.12,0,0,1-2.36,1.88l-.93.93-.92.94a7,7,0,0,1-1.89,1.41,8,8,0,0,0-1.88,1.4c-3.14,1.89-6.1,3.76-8.92,5.64s-5.77,3.76-8.91,5.62q-9.37,4.73-18.3,8.45a181.27,181.27,0,0,1-18.28,6.57q-17.85,5.63-39.42,3.75a16.87,16.87,0,0,0-5.14-.94,16,16,0,0,1-5.17-.94,6.29,6.29,0,0,1-2.82-.47,6.85,6.85,0,0,0-2.81-.46,8.59,8.59,0,0,0-2.36-.94,8.58,8.58,0,0,1-2.33-.94,73.59,73.59,0,0,1-21.6-8.44q-10.32-5.62-21.56-13.14l-.93-.94A201.09,201.09,0,0,1,3164.45,891Z" transform="translate(-216.42 -231.15)"/><path class="cls-3" d="M1576.33,929.55,1586.7,911c-10.93-2.79-19.59-5.52-28.16-10.32l-8.68,19.7A129.32,129.32,0,0,0,1576.33,929.55Z" transform="translate(-216.42 -231.15)"/><path class="cls-3" d="M1599.82,792.33c-.38,2.15-.94,5.09-.94,5.09,8,2.08,16.9,4.7,27.22,4.7,0,0,.51-2.66.81-4.7C1618.33,799.51,1603.37,794,1599.82,792.33Z" transform="translate(-216.42 -231.15)"/><path class="cls-3" d="M1734.94,922.22c11.7-.86,112.74-13,133.22-28.15-9.8,11.93-30.19,47.21-34.48,56-7.07,5.66-85.53,10-106.37,9C1729.22,950.37,1732.25,932.66,1734.94,922.22Z" transform="translate(-216.42 -231.15)"/><path class="cls-3" d="M1948.82,1046.65c3.57-5.77,15.73-23.68,30.67-50.83-3.22,17.69-6.74,53.59-6.24,63.32-2.91,4.89-20.8,34.13-26.53,43.64C1944.1,1081.37,1946.42,1050.53,1948.82,1046.65Z" transform="translate(-216.42 -231.15)"/><path class="cls-3" d="M2076.75,941.91c-1.47,12.74-2.81,20.79-2.81,33.78a66.84,66.84,0,0,1,5.85,8.52c-.37-16.06-.45-22.72,2.17-38.55C2078.44,943.62,2080.49,944.69,2076.75,941.91Z" transform="translate(-216.42 -231.15)"/><path class="cls-3" d="M3021.38,1035.34c6.45-8.5,19.92-22.45,36.78-50.68-3.22,17.69-7.37,53.77-6.87,63.49-2.91,4.89-17.74,22.63-27.51,33.89C3021.16,1060.63,3020.19,1040.63,3021.38,1035.34Z" transform="translate(-216.42 -231.15)"/><path class="cls-3" d="M3155.09,934.2c-1.47,12.74-2.84,20.79-2.84,33.78,1.34,1.69,2.94,3.94,6.27,9.1-1.92-16.62-1.76-23.61.86-39.44C3155.86,935.59,3158.84,937,3155.09,934.2Z" transform="translate(-216.42 -231.15)"/><path class="cls-3" d="M2500,990.56c7.73-7,17.87-16.41,23.77-22.58-2.35,4.84-12.74,51.29-13.94,63.45-6.41,7.8-18.22,22.23-26,31.69C2488.23,1036.33,2496.71,1008.86,2500,990.56Z" transform="translate(-216.42 -231.15)"/><path class="cls-3" d="M2930.56,1116.43c4.25-3,17.15-12.26,22.33-16,0,9.16-22.38,55.72-42,71.75-9.36,5.25-34.83,19.14-55.4,28.31C2909.07,1158.33,2921.41,1131.88,2930.56,1116.43Z" transform="translate(-216.42 -231.15)"/><path class="cls-3" d="M2661.26,929.72a170.17,170.17,0,0,0,8.29-15.21c-4.25,12-15.28,72.24-14.19,87.34-5.36,9.82-7.15,12.56-14.73,25.45C2652.43,996.58,2658,948,2661.26,929.72Z" transform="translate(-216.42 -231.15)"/><path class="cls-3" d="M2475.55,1120.55c7.4-15,18.93-41.18,30-69.8-2.35,4.84-49.46,226.17-50.66,238.32-6.41,7.81-12.91,16.82-20.64,26.28C2450.39,1277.18,2472.31,1138.84,2475.55,1120.55Z" transform="translate(-216.42 -231.15)"/><path class="cls-3" d="M2425.25,1373.14l10.56-.19c-13.16,50.55-45.87,192.2-80.37,243.62-7.63,1.73-13.54,2.59-18.9,3.62C2370.85,1574.71,2422,1391.43,2425.25,1373.14Z" transform="translate(-216.42 -231.15)"/><path class="cls-3" d="M2553.17,1371.4c.63,0-43.18,172.08-77.68,223.5-1.54.25-4.86.65-10.22,1.69C2499.58,1551.11,2549.93,1389.7,2553.17,1371.4Z" transform="translate(-216.42 -231.15)"/><path class="cls-3" d="M2351.34,1364.81c16.47,3.17,33,2.9,50.33,1.85-1.7,2.83-2.24,4.14-3.81,7-20.41.64-35.74.62-50.38.87C2348.68,1371.17,2350.4,1366.89,2351.34,1364.81Z" transform="translate(-216.42 -231.15)"/><path class="cls-3" d="M2281.28,1630.94c13.25-2.59,22.84-5,37.69-7.35a83.15,83.15,0,0,0,4.15,15.34c-17.45,1.46-27.42,5.65-39.48,13.11C2282.16,1646.48,2281.28,1642.56,2281.28,1630.94Z" transform="translate(-216.42 -231.15)"/><path class="cls-4" d="M1835.46,763c58.56-11.66,89.52,50.39,68,88.63C1917.12,806.23,1874.68,758.37,1835.46,763Z" transform="translate(-216.42 -231.15)"/><path class="cls-4" d="M1843.91,1169c-34.06,33.43-56.38,14.66-52.81-31C1799.58,1200.38,1819.41,1182.32,1843.91,1169Z" transform="translate(-216.42 -231.15)"/><path class="cls-5" d="M2616,675.38c51.91-13.36,86.5,26,72.36,85C2693.17,699.73,2655.25,670.8,2616,675.38Z" transform="translate(-216.42 -231.15)"/><path class="cls-4" d="M2268.58,695.39c148.55,12.8,139.46,185.07,91.83,257C2405.17,858.45,2388.9,715.85,2268.58,695.39Z" transform="translate(-216.42 -231.15)"/><path class="cls-4" d="M2885.49,708.16c135.56,23,131.83,191.79,112.9,247.48C3007.54,869.82,3008.89,752.22,2885.49,708.16Z" transform="translate(-216.42 -231.15)"/><path class="cls-4" d="M2806.82,1133c-73.22,116.76-133,51.19-133.27-5.13C2683.87,1159.07,2713.42,1240.79,2806.82,1133Z" transform="translate(-216.42 -231.15)"/><path class="cls-4" d="M2227.82,948c-75.41,64.89-132.83,26.08-140,9.23C2112.22,969.18,2151.93,994.31,2227.82,948Z" transform="translate(-216.42 -231.15)"/><path class="cls-4" d="M3308.85,940.89c-75.4,64.89-132.82,26.07-140,9.22C3193.25,962,3233,987.18,3308.85,940.89Z" transform="translate(-216.42 -231.15)"/><path class="cls-4" d="M3346.77,688.24c148.55,12.79,139.46,185.07,91.83,257C3483.36,851.29,3467.09,708.69,3346.77,688.24Z" transform="translate(-216.42 -231.15)"/><path class="cls-6" d="M3726,922.53c162.56,5.49,171.34,185.62,125.21,251.6C3884.68,1082.34,3888,958.78,3726,922.53Z" transform="translate(-216.42 -231.15)"/><path class="cls-5" d="M3605.26,1289.07c-304.43,128.5-1049.52,121.43-1049.52,121.43s4.47-9,5.74-25.24C2561.48,1385.26,3348.73,1381.59,3605.26,1289.07Z" transform="translate(-216.42 -231.15)"/><path class="cls-4" d="M2417.18,1387c-1711.06,13.62-2138.49-4-2138.49-4l93.54,59.91,2039.91-35.07Z" transform="translate(-216.42 -231.15)"/><path class="cls-4" d="M1554.36,689.87c66-1.39,75.61,45.69,73.88,78.11C1628.42,730.83,1612.19,693,1554.36,689.87Z" transform="translate(-216.42 -231.15)"/><path class="cls-4" d="M1594.53,802.12c-40.25-9.55-60.43-23.93-64.73-47.85C1535.43,766,1542.75,785.37,1594.53,802.12Z" transform="translate(-216.42 -231.15)"/><path class="cls-4" d="M1397.71,252.94c262.07,46.6,177,295.69,70.71,371.22C1652.93,427.14,1531.06,290.6,1397.71,252.94Z" transform="translate(-216.42 -231.15)"/><path class="cls-4" d="M1242,1170.29c-291.13,60.46-366.74-96.5-334-313.88C896.09,1095.81,985.88,1198.76,1242,1170.29Z" transform="translate(-216.42 -231.15)"/><path class="cls-4" d="M2286.51,1135.06c-30,8.55-185.13,55-215.81-91C2082.88,1146.86,2181.36,1187.93,2286.51,1135.06Z" transform="translate(-216.42 -231.15)"/><path class="cls-4" d="M3364.16,1127.33c-30,8.54-185.14,55-215.81-91C3160.53,1139.12,3259,1180.2,3364.16,1127.33Z" transform="translate(-216.42 -231.15)"/><path class="cls-2" d="M3726,754.27c-52.91,0-97.61-44.69-97.61-97.61s44.7-97.61,97.61-97.61,97.62,44.7,97.62,97.61S3778.89,754.27,3726,754.27Zm81.51-97.61A81.51,81.51,0,1,0,3726,738.17,81.48,81.48,0,0,0,3807.48,656.66Zm-49,55.54c-4.27,0-6.25-3.28-8.22-7.23l-16.76-32.54c-2.63-4.92-4.27-7.22-8.54-7.22H3707.9v31.87h12.15c1.33,0,2,.67,2,1.64v11.51a1.74,1.74,0,0,1-2,2H3681.6c-1,0-1.63-.66-1.63-2V698.72a1.55,1.55,0,0,1,1.63-1.64h10.19v-83.8H3681.6c-1,0-1.63-.66-1.63-2V599.8a1.54,1.54,0,0,1,1.63-1.64h48.65c21.35,0,37.46,10.52,37.46,33.85,0,16.43-8.21,27.28-22.68,31.23,2,2,3.62,5.91,5.92,9.85l12.16,23.67h10.52a1.54,1.54,0,0,1,1.64,1.64v11.83c0,1.31-.65,2-1.64,2Zm-29.25-61.12c14.78,0,22-6.25,22-18.73s-8.55-19.07-22-19.07H3707.9v37.8Z" transform="translate(-216.42 -231.15)"/></svg>
