<svg id="Layer_1" data-name="Layer 1" xmlns="http://www.w3.org/2000/svg" xmlns:xlink="http://www.w3.org/1999/xlink" viewBox="-1184 -216 4096 2160"><defs><style>.cls-1{fill:none;}.cls-2{fill:#d51030;}.cls-3{fill:#fff;}.cls-4{fill:#f8b121;}.cls-5{fill:#ce9d29;}.cls-6{fill:#ffdd9d;}.cls-7{fill:#fdd179;}.cls-8{fill:#ffdc9d;}.cls-9{fill:#392151;}.cls-10{fill:#dc9254;}.cls-11{clip-path:url(#clip-path);}.cls-12{fill:#bd6337;}.cls-13{fill:#f4a442;}.cls-14{fill:#a64835;}.cls-15{fill:#f6c45d;}.cls-16{fill:#783e39;}.cls-17{clip-path:url(#clip-path-2);}</style><clipPath id="clip-path" transform="translate(-1184 -216)"><rect class="cls-1" x="2100.98" y="1413.96" width="53.27" height="159.99" rx="5.68" transform="translate(2575.68 4054.78) rotate(-135)"/></clipPath><clipPath id="clip-path-2" transform="translate(-1184 -216)"><rect class="cls-1" x="1941.76" y="1413.96" width="53.27" height="159.99" rx="5.68" transform="translate(-479.85 1829.43) rotate(-45)"/></clipPath></defs><title>logo-1</title><circle class="cls-2" cx="864" cy="864" r="864"/><circle class="cls-3" cx="864" cy="864" r="772.48"/><path class="cls-2" d="M1891.44,866.62c-3.82,0-5.93-2.37-7.91-6.32l-12.39-25.18c-1.85-4-3.7-6.47-8.31-6.6h-16.75v28.22H1858a1.4,1.4,0,0,1,1.59,1.58V865a1.46,1.46,0,0,1-1.59,1.58h-33.36c-1,0-1.71-.52-1.71-1.58v-6.72c0-1.06.53-1.58,1.71-1.58h10V781.85h-10a1.5,1.5,0,0,1-1.71-1.58v-6.73c0-1.06.53-1.58,1.71-1.58h40.61c18.2,0,31.78,9.76,31.78,28.48,0,13.71-6.86,22.54-19.39,25.84,2.25,1.72,4,4.62,6.2,8.84l11.08,21.62h8a1.4,1.4,0,0,1,1.59,1.58V865a1.46,1.46,0,0,1-1.59,1.58ZM1863,819.16c13.58,0,22.42-4.62,22.42-18.33,0-14.5-10.42-19-22.42-19h-16.88v37.31Z" transform="translate(-1184 -216)"/><path class="cls-2" d="M1920.78,835.51c.65,15.43,11.47,22.81,21.88,22.81,11.34,0,19.12-7.12,21-10.15a1.51,1.51,0,0,1,2.38-.4l3.55,3.56c.93.79,1.06,1.58.54,2.37-1.72,2.9-10.69,13.85-28.09,13.85-17.8,0-32.43-12.53-32.43-33.62,0-21.36,15.29-33.1,31.11-33.1,18.85,0,29.8,12.53,29.41,33a1.64,1.64,0,0,1-1.85,1.71Zm38.36-8c-.53-10.67-6.86-17.93-18.19-17.93-9.11,0-18.33,5.28-19.91,17.93Z" transform="translate(-1184 -216)"/><path class="cls-2" d="M1981.34,896.29a1.5,1.5,0,0,1-1.71-1.58V889c0-1.06.66-1.58,1.71-1.58h7.39V810.59h-7.12c-1.06,0-1.72-.53-1.72-1.58v-5.67c0-1.06.66-1.58,1.72-1.58H1997c1.06,0,1.72.52,1.72,1.58l-.14,10.41h.14c2.9-6.19,10-12.92,21.89-12.92,17.53,0,29.66,12.92,29.66,33.23,0,19.51-11.47,33.49-29.53,33.49-11.74,0-18.73-6.6-21.49-12.93h-.4s.4,4.22.4,6.07v26.77h8.57c1.05,0,1.71.52,1.71,1.58v5.67a1.5,1.5,0,0,1-1.71,1.58Zm58.15-62c0-15-8.83-24.26-20.3-24.26-10,0-20.18,7.78-20.18,25.19,0,14.89,10,23.07,20.18,23.07C2030.79,858.32,2039.49,848.82,2039.49,834.32Z" transform="translate(-1184 -216)"/><path class="cls-2" d="M2115.09,866.62c-3.82,0-5.67-1.45-5.67-5.53v-4.88H2109c-1.46,3-6.33,11.34-20.57,11.34s-22.81-9.1-22.94-22.95v-34H2058a1.4,1.4,0,0,1-1.58-1.58v-5.67a1.45,1.45,0,0,1,1.58-1.58h12.65c3.84,0,5.67,1.45,5.67,5.53V842c0,9.9,4.75,16.09,14.5,16.09a18.5,18.5,0,0,0,17.55-11.2V810.59h-7.13a1.4,1.4,0,0,1-1.57-1.58v-5.67a1.45,1.45,0,0,1,1.57-1.58h16.36a1.39,1.39,0,0,1,1.57,1.58v54.45h7.39a1.5,1.5,0,0,1,1.72,1.58V865c0,1.06-.67,1.58-1.72,1.58Zm-31.9-75.42a1.72,1.72,0,0,1-2.51-.39l-3.29-3.83a1.6,1.6,0,0,1,.26-2.49l21.22-18.6a1.63,1.63,0,0,1,2.51.13l4.09,5a1.72,1.72,0,0,1-.13,2.51Z" transform="translate(-1184 -216)"/><path class="cls-2" d="M2145.08,866.62a1.45,1.45,0,0,1-1.59-1.58V780.79h-7.38c-1.05,0-1.71-.52-1.71-1.58v-5.67c0-1.06.66-1.58,1.71-1.58h16.22c1.06,0,1.72.52,1.72,1.58v35.07c0,.53-.4,5.14-.4,5.14h.4c2.63-6.33,9.75-12.92,21.48-12.92,17.94,0,29.54,13.58,29.54,33,0,20.56-12.13,33.75-29.67,33.75-11.87,0-19-6.73-21.75-13.32h-.13V865c0,1.06-.67,1.58-1.72,1.58Zm49.18-32.69c0-14.9-9.1-23.87-20.31-23.87-10.81,0-20.17,8.57-20.17,24,0,14.89,8.84,24.26,20.17,24.26C2185.82,858.32,2194.26,848.56,2194.26,833.93Z" transform="translate(-1184 -216)"/><path class="cls-2" d="M2215,866.62a1.49,1.49,0,0,1-1.7-1.58v-5.67a1.49,1.49,0,0,1,1.7-1.58h7.26v-77H2215a1.49,1.49,0,0,1-1.7-1.58v-5.67A1.49,1.49,0,0,1,2215,772h14.65c2.64,0,3.56,1,3.56,3.29v82.54h7c1.06,0,1.72.53,1.72,1.58V865c0,1.06-.66,1.58-1.72,1.58Z" transform="translate(-1184 -216)"/><path class="cls-2" d="M2253.66,866.62c-1,0-1.71-.52-1.71-1.58v-5.67a1.5,1.5,0,0,1,1.71-1.58h7.26v-47.2h-7.26A1.5,1.5,0,0,1,2252,809v-5.67c0-1.06.66-1.58,1.71-1.58h16.61a1.39,1.39,0,0,1,1.59,1.58v54.45h7c1.07,0,1.72.53,1.72,1.58V865c0,1.06-.65,1.58-1.72,1.58Zm12.53-71.85a7.27,7.27,0,0,1-7.39-7.25,7.39,7.39,0,1,1,14.77,0A7.26,7.26,0,0,1,2266.19,794.77Z" transform="translate(-1184 -216)"/><path class="cls-2" d="M2349.15,851.33a1.61,1.61,0,0,1,.39,2.37c-1.57,2.9-10.67,13.85-28.08,13.85-17.8,0-32.43-12.53-32.43-33.62,0-21.36,15.42-33.1,31.38-33.1,12,0,18.19,5.8,21,9.76h.13l-.13-7.25a1.6,1.6,0,0,1,1.72-1.72h5c1.05,0,1.57.66,1.57,1.72v22.41a1.44,1.44,0,0,1-1.57,1.58H2342a1.45,1.45,0,0,1-1.59-1.58v-2.24c-.13-5.67-7.26-13.45-18.73-13.45-9.88,0-21.61,8.18-21.61,24s11.07,24.26,22,24.26c11.34,0,19.1-7.25,21-10.28a1.38,1.38,0,0,1,2.24-.41Z" transform="translate(-1184 -216)"/><path class="cls-2" d="M2413.29,866.62c-3.83,0-5.67-1.45-5.67-5.53v-6.73h-.26a30.21,30.21,0,0,1-25.73,13.32c-12.25,0-21.61-6.86-21.61-18.33,0-15,14.5-21,35.33-21h11.07v-1.58c0-12.53-7-16.49-17.13-16.49-14,0-19.39,6.07-19.91,6.07a1.64,1.64,0,0,1-2-.4l-3.69-4.61a1.31,1.31,0,0,1,.26-2.11c.66-.79,7.91-8.44,25.71-8.44,17,0,27.69,7.12,27.69,26.37v30.59h7.39a1.39,1.39,0,0,1,1.57,1.58V865a1.39,1.39,0,0,1-1.57,1.58Zm-6.87-30.32H2396c-13.72,0-24.66,1.72-24.66,11.6,0,5.94,5.27,10.42,13.58,10.42,11.08,0,18.45-7.38,21.48-11.34Z" transform="translate(-1184 -216)"/><path class="cls-2" d="M2535.45,866.62c-3.95,0-5.8-1.45-5.8-5.53V853.7h-.13c-2.51,6.46-10,13.85-22,13.85-17.53,0-29.65-13.19-29.65-33.75,0-19.39,11.86-33,29.79-33,11.74,0,18.59,6.59,21.36,12.92h.13s-.13-2.63-.13-4.35V780.79h-7.39a1.48,1.48,0,0,1-1.7-1.58v-5.67a1.48,1.48,0,0,1,1.7-1.58H2538a1.39,1.39,0,0,1,1.59,1.58v84.25h7.38a1.4,1.4,0,0,1,1.59,1.58V865a1.45,1.45,0,0,1-1.59,1.58Zm-6.33-32.56c0-15.43-9.22-24-20-24-11.34,0-20.43,9-20.43,23.87,0,14.63,8.57,24.39,20.43,24.39C2520.42,858.32,2529.12,849,2529.12,834.06Z" transform="translate(-1184 -216)"/><path class="cls-2" d="M2556.35,833.93c0-20.84,14.63-33.1,33-33.1s32.69,12.53,32.69,33.1-14,33.62-32.83,33.62S2556.35,854.62,2556.35,833.93Zm54.71.13c0-15-10.41-24-21.75-24s-21.89,9-21.89,24,10,24.26,21.75,24.26C2601.05,858.32,2611.06,849,2611.06,834.06Z" transform="translate(-1184 -216)"/><path class="cls-4" d="M2402.91,1058.06a6,6,0,0,0-4.27,0,6.23,6.23,0,0,0-3.48,2.71,181.73,181.73,0,0,1-22.83,35.2,174.12,174.12,0,0,1-30.17,28.63l-8.12,5.8q3.09-3.86,6.18-8.51a120.9,120.9,0,0,0,9.1-13.73q4-7.15,7.54-14.51c.26-.78.52-1.48.77-2.13s.52-1.22.78-1.74c.25-.77.52-1.48.78-2.13s.5-1.22.76-1.74c.52-1.29,1-2.71,1.56-4.25a17.79,17.79,0,0,0,.77-1.94,14,14,0,0,1,.77-1.93l2.33-8.13a20.45,20.45,0,0,0,1-4.45,14,14,0,0,1,1-4.06c.26-1.28.52-2.71.78-4.26s.52-3,.78-4.25c.24-1.55.44-3,.58-4.45s.19-2.9.19-4.45a103.73,103.73,0,0,0,0-17.8c-.26-3.09-.65-6.19-1.16-9.28s-1.17-6.19-1.93-9.28a82.89,82.89,0,0,0-7-18.19q-1.17-2.33-2.52-4.45c-.9-1.41-1.87-2.9-2.89-4.45a50.65,50.65,0,0,1-3.68-4.06,30,30,0,0,0-4.07-4.06,53.25,53.25,0,0,0-8.89-6.58,49.09,49.09,0,0,0-10.84-4.64c-2.06-.52-3.94-.9-5.6-1.17s-3.55-.51-5.61-.77H2313a11.84,11.84,0,0,0-2.9.39H2307a3.16,3.16,0,0,1-1.36.38,3.19,3.19,0,0,0-1.35.39,41.53,41.53,0,0,0-10.45,3.49,32.61,32.61,0,0,0-4.25,2.51c-1.3.91-2.58,1.74-3.88,2.51q-3.86,3.11-7,5.81t-6.19,5.8a99.56,99.56,0,0,0-10.45,12.38c-.78,1-1.55,2-2.33,2.9a25.58,25.58,0,0,0-2.32,3.29,24.23,24.23,0,0,0-2.52,2.91c-.64.9-1.35,2-2.12,3.28q-2.33,3.11-4.45,6.38t-4.06,6.39a149.55,149.55,0,0,0-8.12,12.77q-1.95,3.48-3.88,6.77c-1.29,2.19-2.57,4.32-3.87,6.38a35.31,35.31,0,0,0-2.7,4.84,37.63,37.63,0,0,1-2.71,4.84c.52-2.58,1-5.1,1.55-7.55s1-5,1.54-7.54l1.94-10.84a40.19,40.19,0,0,0,1.16-5.41l.78-5.42,1.93-10.83,1.94-10.84c.24-1.8.5-3.6.76-5.42l.78-5.41.78-5.8.38-2.71a10,10,0,0,0,.38-3.09,24.22,24.22,0,0,0-4.25-16.25,22,22,0,0,0-13.93-9.29,22.52,22.52,0,0,0-17.79,2.71,22.83,22.83,0,0,0-10.45,14.7l-.38.78-4.65,20.5-5,20.89-4.65,20.89-5,21.28c-1.54,6.77-3,13.59-4.49,20.42l-1.31,1.63c-1,.78-7.09,6.52-9.67,8.71s-4.51,3.93-5.81,5.22-2.63,2.58-4,3.87-2.78,2.45-4.06,3.48a33.9,33.9,0,0,1-4.07,3.49c-1.42,1-2.78,2.06-4.06,3.09q-8.11,6.58-16.83,12.38t-17.6,10.83q-4.28,2.33-8.71,4.65c-3,1.54-6,3-9.09,4.25s-6.19,2.45-9.28,3.48-6.19,1.93-9.29,2.71a112.24,112.24,0,0,1-18.57,2.32c-2.85.52-15.35-.38-16.64-.38-2.84-.52-5.41-1-7.74-1.36a35.87,35.87,0,0,1-6.58-1.74,49.72,49.72,0,0,1-5.6-1.74,16.38,16.38,0,0,1-4.46-2.51c-1.54-1-3-2.07-4.25-3.1a20.75,20.75,0,0,1-3.87-4.26,36.36,36.36,0,0,1-7-11.6q-1.54-3.48-2.9-7.55a58.18,58.18,0,0,1-2.13-8.31q-.78-4.26-1.36-8.71a72.7,72.7,0,0,1-.58-9.48v-6.19c.26.26,3.35,5,4.65,6.58s2.57,3.1,3.86,4.64a18.58,18.58,0,0,0,2.71,2.32,10.43,10.43,0,0,0,2.33,1.94,19.87,19.87,0,0,0,2.51,2.13,21.36,21.36,0,0,0,2.9,1.73,54.66,54.66,0,0,0,12.38,5.81,33.84,33.84,0,0,0,3.29,1.16c.9.26,2,.52,3.29.77l7,1.16a85.13,85.13,0,0,0,26.7-1.93,62,62,0,0,0,12.38-3.48,26,26,0,0,0,3.09-1.16,1.12,1.12,0,0,0,.78-.39l1.16-.39a6.77,6.77,0,0,1,1.94-.77c2.57-1.55,4.89-3.09,7-4.64a43,43,0,0,0,11.61-10.06,59.12,59.12,0,0,0,8.89-11.22,71.65,71.65,0,0,0,7.17-12c1.92-4.12,3.67-8.38,5.21-12.76.52-2.07,1.1-4.19,1.74-6.39s1.22-4.44,1.74-6.77a86.19,86.19,0,0,0,1.16-14.31,108.75,108.75,0,0,0-1.16-15.48,68.92,68.92,0,0,0-5.41-15.47,45.71,45.71,0,0,0-10.83-14.71,48.39,48.39,0,0,0-15.1-10,36.91,36.91,0,0,0-8.31-2.71q-4.07-.76-7.93-1.16a30.06,30.06,0,0,0-7.55-.58,44.11,44.11,0,0,0-7.15,1c-2.33.53-4.59,1-6.77,1.55s-4.33,1-6.39,1.55q-7,2.71-12,5a101.12,101.12,0,0,0-11,6q-5.22,3.29-10.25,7.15c-1.55,1.3-3.1,2.52-4.64,3.68s-3.1,2.39-4.65,3.67c-1.29,1.3-2.7,2.65-4.25,4.07a45.6,45.6,0,0,0-4.26,4.45,95.24,95.24,0,0,0-7.74,8.7c-2.31,3-4.64,6-7,9.09s-4.52,6.26-6.58,9.48a110.76,110.76,0,0,0-5.8,10.26,182.16,182.16,0,0,0-18.18,44.1c-.58,2.18-1,4.49-1.42,6.75-.47.85-.94,1.67-1.42,2.53-1.54,2.85-3.09,5.55-4.63,8.13s-3.23,5.16-5,7.73a233.38,233.38,0,0,1-21.67,30.18,27,27,0,0,0-3.1,3.49,19.43,19.43,0,0,0-1.55,1.74,20.68,20.68,0,0,1-1.54,1.73l-6.58,6.58a42.38,42.38,0,0,1-6.58,5.42,26.79,26.79,0,0,1-7,4.64c-1.29.53-2.45,1-3.48,1.55a14.48,14.48,0,0,1-3.1,1.16c-.52,0-2.19.39-2.71.39a1.71,1.71,0,0,1-.77-.19,1.73,1.73,0,0,0-.77-.2c-.26-.25-.45-.38-.58-.38s-.33-.13-.58-.39a5.65,5.65,0,0,1-1.16-1.55c-.53-.51-1.3-2.06-2.33-4.64a23.62,23.62,0,0,1-1.93-7,19.39,19.39,0,0,1-.39-3.87,20.28,20.28,0,0,0-.38-3.86v-8.51a47.2,47.2,0,0,1,.77-8.52,37.37,37.37,0,0,0,.58-4.25,37.88,37.88,0,0,1,.58-4.26c.26-1.29.51-2.71.77-4.25s.52-3,.78-4.26c.77-2.83,1.55-5.61,2.32-8.32s1.55-5.47,2.32-8.32a184.44,184.44,0,0,1,14.32-31.33,70.32,70.32,0,0,1,4.25-6.77q2.33-3.28,4.64-6.39a99,99,0,0,1,10.45-10.44,24.62,24.62,0,0,0,7.93-11,25,25,0,0,0,1-14.12,25.23,25.23,0,0,0-11.22-16.25,23.67,23.67,0,0,0-19-3.48l-8.9,1.93q-5,1.56-9.48,3.1c-3,1-6,2.07-9.09,3.09-3.09.78-6.19,1.62-9.28,2.52a79.67,79.67,0,0,1-9.29,2.12,141.9,141.9,0,0,1-35.2,4.65h-7.74c.51-2.58,2-13.22,2.13-14.12a23.62,23.62,0,0,0,.19-3.29,20.37,20.37,0,0,0-.19-2.9,22.17,22.17,0,0,1-.19-3.29,24.16,24.16,0,0,1-.59-3.1,9.68,9.68,0,0,0-1-3.09c-.53-1.29-1-2.45-1.36-3.49a12.89,12.89,0,0,0-1.74-3.09c-.78-1-1.55-2-2.32-2.9a16.81,16.81,0,0,0-2.71-2.52c-1.29-.77-2.39-1.41-3.29-1.93a27.93,27.93,0,0,0-3.29-1.55,77.44,77.44,0,0,0-10.06-1.93h-6.19s-8.12,1-10.44,1.54a26.78,26.78,0,0,0-7,2.71c-1.28.78-2.44,1.55-3.48,2.32a33.73,33.73,0,0,0-3.1,2.71,13.53,13.53,0,0,1-1.54,1.36,16.78,16.78,0,0,0-1.55,1.35,22.05,22.05,0,0,1-2.71,3.48,38.55,38.55,0,0,0-5.41,16.64,40,40,0,0,0,1.16,16.64,47.63,47.63,0,0,0,7,14.7,46.79,46.79,0,0,0,10.06,11.22,64.47,64.47,0,0,0,9.67,7.35q5,3.09,10.06,5.8a1.11,1.11,0,0,1-.38.77c-1.3,3.1-2.71,6.33-4.26,9.68-.77,1.55-1.55,3.09-2.32,4.64s-1.55,3.23-2.32,5c-.37.72-.79,1.45-1.18,2.18-6.85,12.46-24.4,31.77-26.17,33.8a157.6,157.6,0,0,1-22.44,20.51,189.15,189.15,0,0,1-25.92,15.66,166.41,166.41,0,0,1-28.24,11,169.25,169.25,0,0,1-29.4,5.8q-7.76.78-15.09,1a118.82,118.82,0,0,1-15.09-.58h-3.68a18.57,18.57,0,0,1-3.67-.39h-1.94l-1.93-.39a8.78,8.78,0,0,1-1.74-.19,8.94,8.94,0,0,0-1.74-.19c-2.32-.52-4.65-1-7-1.35s-4.52-.84-6.58-1.36c-2.32-.77-4.52-1.55-6.58-2.32a65.35,65.35,0,0,1-6.19-2.71,38.69,38.69,0,0,1-5.81-2.71,58.6,58.6,0,0,1-5.41-3.48,72.46,72.46,0,0,1-17-17.41,96.89,96.89,0,0,1-11.6-21.66,121.67,121.67,0,0,1-4.07-12q-1.72-6.18-3.28-12.77a175.35,175.35,0,0,1-3.49-26.69,172.9,172.9,0,0,1,0-28.24c.26-4.65.59-9.35,1-14.13s1-9.47,1.75-14.12c.77-4.89,1.54-9.67,2.32-14.31s1.8-9.41,3.09-14.32q.77-3.48,1.74-7c.64-2.32,1.36-4.64,2.13-7a63.62,63.62,0,0,1,1.93-7.35l2.33-7q4.64-13.54,10.44-27.08A209.71,209.71,0,0,1,1544,878.54q3.85-6.57,7.73-12.57t8.13-11.8A258.66,258.66,0,0,1,1578.46,831q5-5.41,10.25-10.44t11-10.06q5.43-4.26,12-8.51,3.09-1.94,6.38-3.87t6.77-3.87a125.17,125.17,0,0,1,28.25-9.29q3.86-.76,7.54-1.16l7.55-.77a145.84,145.84,0,0,1,15.08,0,77.26,77.26,0,0,1,14.71,2.9,63.14,63.14,0,0,1,13.54,6q3.09,1.93,5.8,3.87a43.76,43.76,0,0,1,5.41,4.64,65.71,65.71,0,0,1,8.13,10.06,34.74,34.74,0,0,1,5.41,11.22,66,66,0,0,1,2.32,11.22,37.79,37.79,0,0,1,0,10.83,40.85,40.85,0,0,1-2.32,10.84,67.48,67.48,0,0,1-12,19.73,77.57,77.57,0,0,1-8.51,8.7,85.71,85.71,0,0,1-10.06,7.55q-3.1,1.94-5.8,3.47c-1.81,1-3.74,2.08-5.81,3.1s-4.06,2-6,2.9-3.93,1.88-6,2.9l-12.76,4.65a27.8,27.8,0,0,1-3.49,1.16,15,15,0,0,0-3.09,1.16l-3.49.77-3.48,1.16h-.38a25.53,25.53,0,0,0-14.32,11.61,22.46,22.46,0,0,0-2.32,18.19,23.19,23.19,0,0,0,11,15.28,24.54,24.54,0,0,0,18.77,2.89l1.93-.77,2.32-.38a17.88,17.88,0,0,1,2.14-.58,18.16,18.16,0,0,0,2.12-.58,32.85,32.85,0,0,1,4.26-1.36,31.25,31.25,0,0,0,4.25-1.35q4.26-1.93,8.32-3.48t8.32-3.49a153.38,153.38,0,0,0,31.34-18.95,146.41,146.41,0,0,0,14.12-12.77,118.09,118.09,0,0,0,12.18-14.71,84.49,84.49,0,0,0,9.68-17.4,71.22,71.22,0,0,0,6.19-19.35,69.84,69.84,0,0,0,1.55-10.05c.25-3.35.38-6.84.38-10.45a83.09,83.09,0,0,0-3.87-20.51q-1.93-4.64-4.25-9.09a71.51,71.51,0,0,0-5.42-8.71,72.56,72.56,0,0,0-13.54-14.31,71.28,71.28,0,0,0-7.74-5.42,83,83,0,0,0-8.12-4.25,96,96,0,0,0-17-6.19,69.22,69.22,0,0,0-8.31-1.74c-2.71-.39-5.49-.83-8.32-1.35a63.36,63.36,0,0,0-8.51-1c-2.85-.13-5.68-.32-8.51-.58q-8.13-.39-16.25,0a116.52,116.52,0,0,0-16.64,1.16,142.94,142.94,0,0,0-16.25,2.51q-8.13,1.74-16.25,4.06c-2.84.78-5.55,1.55-8.12,2.33s-5.16,1.67-7.74,2.7q-4.26,1.95-7.93,3.49t-7.54,3.48a164.87,164.87,0,0,0-15.09,7.73q-7.35,4.27-14.32,9.29t-13.54,10.64q-6.59,5.61-12.38,11.41A206.28,206.28,0,0,0,1510,856.1a150.1,150.1,0,0,0-10,13.74q-4.65,7.15-8.9,14.51t-8.13,14.89q-3.87,7.54-7.35,15.28-3.87,8.13-6.57,15.48a134,134,0,0,0-5.8,16.24,128.14,128.14,0,0,0-5,16.26q-1.94,8.12-3.86,16.63a322.18,322.18,0,0,0-5,34.63,196.8,196.8,0,0,0,0,35q.77,8.91,1.93,17.8a142.87,142.87,0,0,0,3.48,17.79q2.32,8.91,5.61,17.8a131.22,131.22,0,0,0,7.93,17.41,87.26,87.26,0,0,0,5,8.13q2.7,3.87,5.81,7.73a75.38,75.38,0,0,0,6.38,7.74,68.29,68.29,0,0,0,7.16,6.58,67.05,67.05,0,0,0,7.35,6.38q3.86,2.89,8.12,5.61a62,62,0,0,0,8.71,4.64q4.44,1.93,8.7,3.88,4.65,1.92,9.09,3.28t9.1,2.52q9.28,1.55,18.18,2.32a55.87,55.87,0,0,0,9.09.77q4.44,0,8.71-.39a15.93,15.93,0,0,0,4.25-.38h4.26a37.37,37.37,0,0,1,4.25-.58,40,40,0,0,0,4.26-.58q8.13-.78,16.44-2.32c5.55-1,10.89-2.2,16.06-3.49q8.11-1.94,16-4.45t15.67-5.6a202.25,202.25,0,0,0,56.87-32.51,199.06,199.06,0,0,0,23.61-22.82c3.86-3.87,20-24.58,27-39.46h0c4.23-7.45,9.52-17,10.46-19.34a2.88,2.88,0,0,0,.59-.77,2.78,2.78,0,0,1,.58-.77,179,179,0,0,0,19.34,4.64,122.36,122.36,0,0,0,25.54,1.16,115.44,115.44,0,0,0,16.25-1.16q-3.1,13.15-4.65,24.76a247.74,247.74,0,0,0-1.15,41.4l1.15,10.44c.26,1.81.45,3.55.58,5.23a26.17,26.17,0,0,0,1,5.22c.51,2.07,1,3.93,1.55,5.61s1,3.42,1.55,5.22a52.18,52.18,0,0,0,4.64,10.83,13.42,13.42,0,0,0,1.74,2.71,14.67,14.67,0,0,1,1.74,2.71,46.84,46.84,0,0,0,5,5,16.9,16.9,0,0,0,6.58,4.25,34.28,34.28,0,0,0,7.73,2.33,19.72,19.72,0,0,0,7.74,0,23.55,23.55,0,0,0,6.58-1.94,29.58,29.58,0,0,0,10.06-6.19,30.14,30.14,0,0,0,8.13-7c1.28-1.3,2.51-2.52,3.67-3.68a46,46,0,0,0,3.29-3.67,28.85,28.85,0,0,0,3.28-3.87q1.35-1.93,2.91-3.87c.51-.77,1-1.48,1.55-2.13s1-1.35,1.54-2.13a8.88,8.88,0,0,0,1.36-1.73c.38-.65.83-1.36,1.35-2.14q5.41-8.12,10.45-16.25c3-4.79,5.93-9.72,8.9-14.72,0,1.69-.13,3.37-.08,5.06A66.75,66.75,0,0,0,1941,1125a92.37,92.37,0,0,0,3.47,13.93q1.17,3.48,2.71,7a52.05,52.05,0,0,0,3.49,6.58q1.92,3.09,4.25,6.38a79.53,79.53,0,0,0,5,6.38,68,68,0,0,0,12,10.84c2.31,1.55,4.64,3,7,4.25a65.47,65.47,0,0,0,7.35,3.49,49,49,0,0,0,14.7,4.64,64.92,64.92,0,0,0,14.71,1.55h7a27.46,27.46,0,0,0,6.58-.78c2.32-.52,4.57-1,6.77-1.36s4.31-.83,6.39-1.35a57.88,57.88,0,0,0,6.19-1.93l6.19-2.32a138.25,138.25,0,0,0,22.05-11.22,172.62,172.62,0,0,0,19.73-12.77q5-3.48,9.47-7t8.71-7.35a210.51,210.51,0,0,0,16.64-15.28q7.72-7.92,15.08-16.05l7-8.51,7-8.51.19-.24c-.59,2.65-1.15,5.33-1.75,8l-.78,1.94a14.81,14.81,0,0,1-.77,2.7l-1.16,2.33-.78,2.32c-.76,1.8-1.48,3.48-2.12,5s-1.36,3.22-2.13,5q-4.65,9.67-9.67,19.34-2.31,5-4.84,9.67t-5.21,9.68c-1.82,3.09-3.62,6.24-5.43,9.47s-3.6,6.52-5.41,9.87c-.78,1.55-1.61,3.1-2.52,4.64s-1.86,3.22-2.9,5c-.78,1.55-1.6,3.16-2.51,4.84s-1.74,3.41-2.52,5.22a18.18,18.18,0,0,0-2.7,5c-.52,1-4.19,8.57-4.85,10.25s-1.34,3.42-2.12,5.23q-4.64,10.05-8.51,20.5t-7.74,20.89a432.65,432.65,0,0,0-12.77,42.56l-.77,2.71v1.16l-.39,1.55-1.16,5.8a34.83,34.83,0,0,0-1,5.61,32.82,32.82,0,0,1-1,5.61q-.39,3.09-.58,6c-.13,1.94-.2,3.93-.2,6v6.2a14.77,14.77,0,0,1,.39,3.09c.05,1.16,2.35,9.3,3.48,11.22a7.53,7.53,0,0,1,1.36,1.93,4.86,4.86,0,0,0,1.74,1.93,9.44,9.44,0,0,0,4.25,3.49,14,14,0,0,0,5.42,1.93,3.12,3.12,0,0,0,1.35.39,3.12,3.12,0,0,1,1.36.39h6.57a11.22,11.22,0,0,0,4.26-.78,29.86,29.86,0,0,0,7.35-2.7,24.16,24.16,0,0,0,3.49-1.75c1-.65,2.06-1.22,3.08-1.74a60.38,60.38,0,0,0,10.84-8.51l4.64-4.64c.78-.78,1.49-1.55,2.13-2.32s1.36-1.55,2.12-2.32c1.3-1.55,2.52-3.17,3.68-4.84s2.39-3.29,3.67-4.84a159.36,159.36,0,0,0,12.39-20.5l4.65-10.45c.76-1.8,1.54-3.54,2.31-5.22s1.55-3.55,2.32-5.61a35.4,35.4,0,0,1,1.94-5.22,31.62,31.62,0,0,0,1.94-5.62q1.15-2.7,2.12-5.22c.65-1.68,1.23-3.41,1.75-5.22q1.92-5.42,3.48-10.64t3.47-10.64c.52-1.8,1-3.55,1.56-5.22s1-3.42,1.54-5.22l3.1-10.84q6.2-21.27,11.6-42.36t10.84-42.36q3.09-12.78,6.19-25.73t5.8-25.73a24.34,24.34,0,0,0,1.35-2.32,20,20,0,0,1,1.36-2.32c1.28-2.06,2.5-4.19,3.68-6.38s2.38-4.32,3.67-6.39q4.24-6.18,8.12-12.38c2.57-4.12,5.29-8.13,8.12-12a66.66,66.66,0,0,1,4.26-6,61.54,61.54,0,0,0,4.25-6l9.29-11.6a69.31,69.31,0,0,1,4.65-5.61q2.31-2.52,4.64-5.23a16.68,16.68,0,0,1,2.51-2.7,17.35,17.35,0,0,0,2.52-2.72l5-5q2.7-2.32,5.22-4.64a52.61,52.61,0,0,1,5.23-4.26l5.79-3.48a29.16,29.16,0,0,1,5.43-3.1,6.13,6.13,0,0,1,2.5-1,13.48,13.48,0,0,0,2.52-.58,16.73,16.73,0,0,1,3.87-.39h.78V990h.38a2.65,2.65,0,0,1,1.16.2,2.68,2.68,0,0,0,1.16.19,19.7,19.7,0,0,1,3.09,1.94,12.66,12.66,0,0,1,4.65,5,3.61,3.61,0,0,1,1,1.75,6.07,6.07,0,0,0,1,2.13c.25.77.64,2.19,1.16,4.25a31.36,31.36,0,0,1,1.16,4.84,36.85,36.85,0,0,1,.38,5.22,40.53,40.53,0,0,1,0,11.22,115.12,115.12,0,0,1-3.48,24,14.69,14.69,0,0,0-1,3.28,27.52,27.52,0,0,1-.58,2.9,24.21,24.21,0,0,0-1.93,6.19,7.91,7.91,0,0,0-.57,1.55,7.75,7.75,0,0,1-.6,1.55,7,7,0,0,0-.76,3.09,26,26,0,0,0-1.16,3.1,27.18,27.18,0,0,0-1.16,3.1q-2.33,6.19-4.85,12.38t-5.21,12.38q-3.12,6.19-6,12c-1.93,3.87-4.07,7.74-6.39,11.61q-3.47,5.42-7.54,10.64a75.26,75.26,0,0,1-8.71,9.47c-1.54,1.3-3.1,2.59-4.64,3.88a34.24,34.24,0,0,1-5,3.47,22.4,22.4,0,0,1-10.05,3.88,17.43,17.43,0,0,1-8.9,0,9.47,9.47,0,0,1-4.26-2.33,12.84,12.84,0,0,1-2.13-1.74,14.34,14.34,0,0,0-2.12-1.74,13.48,13.48,0,0,0-.78-1.35,12.64,12.64,0,0,1-.78-1.36,4.86,4.86,0,0,1-1-1.16,6.86,6.86,0,0,0-1-1.16c-.53-1-1-2-1.36-2.9s-.84-2-1.36-3.29a14.17,14.17,0,0,1-1.15-3.09,30.73,30.73,0,0,0-1.16-3.48c-.26-1.29-.52-2.45-.78-3.49s-.52-2.19-.78-3.48c-.26-1.8-1.54-3-3.87-3.48a5.6,5.6,0,0,0-3.28,1,3.34,3.34,0,0,0-1.36,2.91,57.45,57.45,0,0,0,0,16.25,38.5,38.5,0,0,1,.58,4.06,13.94,13.94,0,0,0,1,4.06c.5,1.55,1,3,1.54,4.45s1,2.77,1.54,4.06c.78,1.29,1.55,2.64,2.33,4.07a17.68,17.68,0,0,0,3.1,4.06,39.44,39.44,0,0,0,7.73,6.57,16.76,16.76,0,0,0,4.45,2.52q2.52,1,4.84,1.74a26,26,0,0,0,5.22,1c1.67.13,3.41.32,5.22.58a58.24,58.24,0,0,0,18.57-3.1,24,24,0,0,1,4.64-1.55,7,7,0,0,1,1.94-.77,50.57,50.57,0,0,0,5.61-1.74q2.52-1,5.22-1.74a184.41,184.41,0,0,0,20.9-9.29,211.61,211.61,0,0,0,37.91-24,166.62,166.62,0,0,0,16.82-15.08,164.44,164.44,0,0,0,14.52-17,183.56,183.56,0,0,0,12.76-18.58,203.7,203.7,0,0,0,10.45-19.72C2407.41,1062.44,2406.51,1059.87,2402.91,1058.06Zm-417.06-17.42q1.53-4.64,3.28-9.28a69.69,69.69,0,0,1,4.07-8.9,87.67,87.67,0,0,1,11.21-16.25,78.45,78.45,0,0,1,6.58-6.57,37.46,37.46,0,0,1,7.74-5.8,42.66,42.66,0,0,1,17-6.2,23.91,23.91,0,0,1,8.52,0,37.77,37.77,0,0,0,4.06.58,14.34,14.34,0,0,1,4.06,1,22.3,22.3,0,0,1,6.58,3.1,7,7,0,0,1,2.32,1.74,20.68,20.68,0,0,0,1.54,1.74,6.54,6.54,0,0,1,1.16,3.09,3.91,3.91,0,0,1,.4,1.75,6.66,6.66,0,0,0,.38,2.12,11,11,0,0,0,.2,1.93,18,18,0,0,1,.19,2.72,19.09,19.09,0,0,0,.19,2.9,10.05,10.05,0,0,1-.19,3.28v3.49a17.79,17.79,0,0,1-.39,3.48,18.14,18.14,0,0,1-.38,3.68c-.26,1.15-.52,2.38-.78,3.67a71.15,71.15,0,0,1-1.94,7.54,29,29,0,0,1-3.09,6.77,17.91,17.91,0,0,1-3.48,6.58c-.52.77-1.1,1.62-1.74,2.52a18.92,18.92,0,0,1-1.74,2.13,4.93,4.93,0,0,0-1,1.15,2.23,2.23,0,0,1-1,.78l-.4.38-.38.39a2.81,2.81,0,0,1-.78.58,3.58,3.58,0,0,0-.78.58c-1.28.78-2.5,1.55-3.67,2.33s-2.39,1.54-3.68,2.31c-2.57,1.3-5.09,2.46-7.54,3.49a77.62,77.62,0,0,1-7.54,2.71,41.71,41.71,0,0,1-16.25,1.54,7,7,0,0,0-2.13-.39,6.71,6.71,0,0,1-2.13-.38,2.68,2.68,0,0,1-1.16-.19,2.65,2.65,0,0,0-1.16-.2,3.72,3.72,0,0,0-1-.38,3.2,3.2,0,0,1-1-.39,30.28,30.28,0,0,1-8.9-3.48q-4.26-2.32-8.9-5.42l-.39-.39A82.46,82.46,0,0,1,1985.85,1040.64Zm-199-54.74c0,.91-.45,4.06-.58,4.84s-.84,5.55-1.35,8.12a58,58,0,0,1-5.81-1.74,22.88,22.88,0,0,1-5-2.51,25.33,25.33,0,0,1-2.72-1.55,26.69,26.69,0,0,0-2.7-1.55L1764,988a33.75,33.75,0,0,1-3.47-4.06,15.2,15.2,0,0,1-2.33-4.84,5.39,5.39,0,0,1,.39-2.32,3.73,3.73,0,0,1,1.16-2.71c1-1.54,3-3,5.8-4.25.25,0,3.87-1.17,3.87-1.17a12.9,12.9,0,0,0,2.32-.19,12.06,12.06,0,0,1,1.94-.19,14.87,14.87,0,0,1,7.35,1.55,11.18,11.18,0,0,1,2.32,1.93,19.8,19.8,0,0,1,1.93,3.09,19.41,19.41,0,0,1,1.55,8.52Zm348.9,224q-1,4.06-1.74,8.32l-2.32,10.45-2.32,10.44q-1.17,5.42-2.52,10.45t-2.51,10c-.52,1.81-1,3.54-1.36,5.23s-.84,3.28-1.36,4.83c-.5,1.8-1,3.55-1.35,5.22a49.8,49.8,0,0,1-1.35,4.85l-.77,2.31a5.87,5.87,0,0,1-.78,2.32l-1.54,5-3.49,9.68-7,18.57q-1.93,4.63-3.67,8.89a84.5,84.5,0,0,1-4.07,8.52,33,33,0,0,1-4.26,7,24,24,0,0,1-2.32,2.71c-.77.78-3.9,4.42-5.41,4.64-.32,0-1.29-1.55-1.55-2.32a31.27,31.27,0,0,1-1.55-3.87,21.43,21.43,0,0,1-.77-4.64c-.26-1.55-.45-3.16-.58-4.84a23.68,23.68,0,0,1,.2-5.22q0-2.71.18-5.22c.14-1.69.33-3.29.58-4.84.27-1.29.65-3,1.17-5l.38-1.16.39-1.55.39-2.32q3.09-10.44,6.57-20.31t7.74-19.93q4.28-10.05,9.1-19.53c3.22-6.33,6.63-12.57,10.25-18.77a43.6,43.6,0,0,0,2.71-4.64,23.61,23.61,0,0,1,2.7-4.25l.78-1.16.78-1.17c.51-1,2.5-3.48,2.89-4.25a7.29,7.29,0,0,1,1.36-1.93,44.07,44.07,0,0,0,3.28-4.45,24.77,24.77,0,0,1,3.29-4.07,10.75,10.75,0,0,1,1.94-2.32C2137.11,1204.43,2136.41,1207.2,2135.76,1209.91Z" transform="translate(-1184 -216)"/><path class="cls-4" d="M2725.15,1107.09c-.52-2.52-1-4.94-1.36-7.24a55.92,55.92,0,0,0-1.74-7.24c-.77-2.29-1.61-4.59-2.5-6.89a41,41,0,0,0-3.3-6.55,48.28,48.28,0,0,0-4.24-6.37,46.25,46.25,0,0,0-5.42-5.69,50.73,50.73,0,0,0-12.38-9.64,57.81,57.81,0,0,0-14.69-6.21,47.05,47.05,0,0,0-8.11-1.89c-2.59-.35-5.29-.63-8.12-.87a74.11,74.11,0,0,0-31.32,4.83c-4.69,2-17.61,7.73-32,23-2.33,2.47-4.51,3.93-5.81,5.22s-2.65,2.58-4,3.87-2.78,2.45-4.07,3.48a33.81,33.81,0,0,1-4.06,3.49c-1.42,1-2.78,2.06-4.06,3.09q-8.15,6.57-16.83,12.38t-17.6,10.83q-4.28,2.32-8.71,4.64t-9.1,4.26c-3.08,1.29-6.18,2.45-9.27,3.48s-6.2,1.93-9.29,2.71a113.32,113.32,0,0,1-18.57,2.32,23.41,23.41,0,0,1-8.51,0c-1.3,0-2.66-.06-4.07-.19s-2.78-.19-4.06-.19q-4.26-.78-7.73-1.36a35.56,35.56,0,0,1-6.59-1.74,50.57,50.57,0,0,1-5.61-1.74,16.52,16.52,0,0,1-4.44-2.51c-1.55-1-3-2.07-4.26-3.1a20.75,20.75,0,0,1-3.87-4.26,36.14,36.14,0,0,1-7-11.61c-1-2.31-2-4.83-2.89-7.54a58,58,0,0,1-2.14-8.32c-.52-2.83-1-5.73-1.34-8.7a71,71,0,0,1-.59-9.48v-6.19c.25.26,3.35,5,4.65,6.58s2.57,3.09,3.87,4.64a17.58,17.58,0,0,0,2.7,2.32,10.75,10.75,0,0,0,2.32,1.94,19.67,19.67,0,0,0,2.51,2.12,20.54,20.54,0,0,0,2.91,1.74,54.34,54.34,0,0,0,12.39,5.81,33.78,33.78,0,0,0,3.28,1.16c.9.26,2,.52,3.29.77l6.95,1.16a85.09,85.09,0,0,0,26.7-1.93,63.83,63.83,0,0,0,12.39-3.48,29.8,29.8,0,0,0,3.09-1.16,1.14,1.14,0,0,0,.78-.39l1.16-.39a6.77,6.77,0,0,1,1.94-.77c2.56-1.55,4.89-3.1,7-4.64a43.13,43.13,0,0,0,11.61-10.06,58.79,58.79,0,0,0,8.9-11.22,71.26,71.26,0,0,0,7.15-12q2.91-6.18,5.23-12.76c.51-2.07,1.09-4.19,1.74-6.39s1.22-4.45,1.74-6.77a86.19,86.19,0,0,0,1.16-14.31,108.75,108.75,0,0,0-1.16-15.48,70.27,70.27,0,0,0-5.41-15.47,45.61,45.61,0,0,0-10.83-14.71,48.71,48.71,0,0,0-15.1-10.06,36.86,36.86,0,0,0-8.31-2.7c-2.71-.51-5.36-.9-7.93-1.16a30.13,30.13,0,0,0-7.55-.58,44.38,44.38,0,0,0-7.16,1q-3.48.78-6.77,1.55c-2.19.52-4.32,1-6.38,1.55-4.65,1.81-8.64,3.48-12,5a101.12,101.12,0,0,0-11,6c-3.48,2.19-6.91,4.58-10.25,7.15-1.56,1.3-3.1,2.52-4.65,3.68s-3.09,2.39-4.64,3.67q-1.93,1.95-4.25,4.06a44.48,44.48,0,0,0-4.26,4.46,96.76,96.76,0,0,0-7.74,8.7q-3.48,4.46-7,9.09t-6.57,9.48a107.43,107.43,0,0,0-5.81,10.25,182,182,0,0,0-18.18,44.11,115.61,115.61,0,0,0-2.52,12q-1,6.19-1.35,12.77t-.2,13.15a67.49,67.49,0,0,0,1.74,13.16,91.28,91.28,0,0,0,3.49,13.93,72.2,72.2,0,0,0,2.7,7,54.77,54.77,0,0,0,3.49,6.58q1.92,3.09,4.25,6.38a79.4,79.4,0,0,0,5,6.38,68.31,68.31,0,0,0,12,10.84q3.48,2.31,7,4.25a64.65,64.65,0,0,0,7.35,3.49,49.33,49.33,0,0,0,14.7,4.64,65,65,0,0,0,14.7,1.55h7a27.31,27.31,0,0,0,6.57-.78q3.48-.78,6.78-1.36c2.18-.38,4.31-.84,6.37-1.35a58,58,0,0,0,6.19-1.93l6.19-2.32a136.67,136.67,0,0,0,22.05-11.23,171,171,0,0,0,19.74-12.76q5-3.48,9.48-7c3-2.32,5.86-4.76,8.71-7.35a208.6,208.6,0,0,0,16.63-15.28q7.74-7.92,15.09-16.06c2.32-2.83,4.87-5.5,7-8.51,7.67-11,19.61-26.67,26.6-32.42,3.3-2.71,7.59-4.13,12-5.51a108.64,108.64,0,0,1,12.77-3.1q3.08-.35,6.57-.52a24.72,24.72,0,0,1,6.57.52,47.33,47.33,0,0,1,23.59,7.92,56.37,56.37,0,0,1,5,3.62,29.31,29.31,0,0,1,4.24,4.31,49.67,49.67,0,0,1,6.19,9.65,40.87,40.87,0,0,1,3.87,10.85,57.87,57.87,0,0,1,1.16,11.55,32.3,32.3,0,0,1,.19,6,33.09,33.09,0,0,1-1,6,20.91,20.91,0,0,0-.59,2.76c-.12.91-.32,2-.57,3.09a5.34,5.34,0,0,1-.19,1.38,4.8,4.8,0,0,0-.2,1.38l-.38,1.38-.39.69v.69a42.58,42.58,0,0,1-1.94,5.51q-1.16,2.76-2.32,5.52-1.56,2.76-3.08,5t-3.49,4.66a87.15,87.15,0,0,1-17.39,17.23,109.79,109.79,0,0,1-10.65,7.06c-3.72,2.18-7.53,4.31-11.4,6.38s-7.86,4-12,5.68-8.37,3.39-12.75,5q-12.39,4.47-26.3,8.27-13.53,3.78-27.26,6.72t-27.64,5.68q-13.92,2.41-28,4.31t-28.42,3.62q-14.31,1.73-28.42,2.93t-28.82,2.58q-14.67,1-29,1.9T2376,1230.8q-29,1.37-58.18,2.07l-58.59,1.38q-29,.68-58.37,1t-58.78.69l-59.15,1-59.17.35q-59.14.68-117.93,1t-117.93.35h-147.7l-29.38-.35-29.39-.35h-14.69l-15.08-.34h-29.39l-29.39-.69q-7.72,0-14.88-.17c-4.77-.12-9.72-.17-14.89-.17q-7.33-.35-14.69-.35t-14.69-.34l-59.16-1.38q-29.38-.71-59.16-1.38-25.12-.69-50.07-1.55t-50.46-2.24l293.08,236L1581,1447.9l14.31-3.11,14.3-3.44,28.62-6.55,28.22-6.55,14.31-3.44,14.31-3.1,28.61-6.55,28.61-6.55,28.62-6.2,28.61-6.21q57.62-12.73,114.26-24.64t114.25-23.6q14.71-2.76,28.81-5.51t28.43-5.51l7.34-1.38,7-1.38,14.3-2.76q7.37-1.38,14.32-2.41t14.3-2.41q29-5.17,57.61-10t57.61-9.65l58-9.64q29-4.85,58.39-10.34,29-5.17,58-10.86t58-12.23q14.71-3.45,28.82-7.06t28.79-7.76q14.31-4.12,28.42-8.78t28-10.17q7.35-2.76,14.12-5.69t13.73-6q6.55-3.45,13.13-7.06t13.14-7.41q6.59-4.14,12.77-8.62a110.52,110.52,0,0,0,11.6-9.65,99.76,99.76,0,0,0,19.72-22.73,79.23,79.23,0,0,0,11.2-27.58l.4-1v-1l.39-.69v-1a6.45,6.45,0,0,1,.19-1.54,8.66,8.66,0,0,0,.2-1.9,16.14,16.14,0,0,0,.38-3.45,14.94,14.94,0,0,1,.39-3.44V1114A61.34,61.34,0,0,0,2725.15,1107.09Zm-294.66-69.63q1.55-4.64,3.29-9.28a71,71,0,0,1,4.06-8.9,87.42,87.42,0,0,1,11.22-16.25,79.86,79.86,0,0,1,6.57-6.57,38.2,38.2,0,0,1,7.75-5.81,42.64,42.64,0,0,1,17-6.19,23.41,23.41,0,0,1,8.51,0,38,38,0,0,0,4.07.58,14.35,14.35,0,0,1,4.05,1,22.06,22.06,0,0,1,6.58,3.1,6.89,6.89,0,0,1,2.33,1.74,17.65,17.65,0,0,0,1.54,1.73,6.61,6.61,0,0,1,1.16,3.1,3.84,3.84,0,0,1,.39,1.74,6.7,6.7,0,0,0,.39,2.13,11.85,11.85,0,0,0,.19,1.93,16.8,16.8,0,0,1,.19,2.72,18.83,18.83,0,0,0,.2,2.89,10.14,10.14,0,0,1-.2,3.29v3.48a17.73,17.73,0,0,1-.38,3.49,17.35,17.35,0,0,1-.39,3.67c-.27,1.16-.53,2.39-.77,3.68a71.15,71.15,0,0,1-1.94,7.54,30,30,0,0,1-3.09,6.77,18,18,0,0,1-3.48,6.58c-.53.77-1.11,1.62-1.75,2.52a16.07,16.07,0,0,1-1.74,2.12,5.29,5.29,0,0,0-1,1.16,2.19,2.19,0,0,1-1,.78l-.38.38-.38.39a2.81,2.81,0,0,1-.78.58,3.58,3.58,0,0,0-.78.58c-1.29.78-2.51,1.55-3.67,2.32s-2.38,1.55-3.68,2.32c-2.57,1.3-5.09,2.46-7.54,3.49a75,75,0,0,1-7.54,2.7,41.52,41.52,0,0,1-16.25,1.55,7,7,0,0,0-2.13-.39,6.48,6.48,0,0,1-2.13-.39,2.53,2.53,0,0,1-1.16-.19,2.84,2.84,0,0,0-1.16-.19,3.78,3.78,0,0,0-1-.39,3.46,3.46,0,0,1-1-.38,30.62,30.62,0,0,1-8.91-3.48q-4.24-2.33-8.89-5.42l-.38-.39A82.51,82.51,0,0,1,2430.49,1037.46Z" transform="translate(-1184 -216)"/><path class="cls-5" d="M1775.62,1053.34l4.28-7.66a45.93,45.93,0,0,1-11.61-4.26l-3.58,8.12A52.59,52.59,0,0,0,1775.62,1053.34Z" transform="translate(-1184 -216)"/><path class="cls-5" d="M1785.31,996.76c-.15.89-.38,2.1-.38,2.1a42.89,42.89,0,0,0,11.22,1.94s.21-1.1.33-1.94C1793,999.72,1786.78,997.45,1785.31,996.76Z" transform="translate(-1184 -216)"/><path class="cls-5" d="M1841,1050.32c4.82-.35,46.49-5.38,54.93-11.61-4,4.92-12.45,19.47-14.22,23.08-2.91,2.33-35.26,4.12-43.86,3.69C1838.67,1061.93,1839.92,1054.62,1841,1050.32Z" transform="translate(-1184 -216)"/><path class="cls-5" d="M1929.22,1101.63c1.47-2.38,6.49-9.76,12.65-21-1.33,7.3-2.78,22.1-2.57,26.11-1.2,2-8.58,14.07-10.94,18C1927.28,1116,1928.23,1103.23,1929.22,1101.63Z" transform="translate(-1184 -216)"/><path class="cls-5" d="M1982,1058.44a107.4,107.4,0,0,0-1.16,13.93,27,27,0,0,1,2.42,3.51c-.15-6.62-.19-9.36.89-15.89A12.63,12.63,0,0,1,1982,1058.44Z" transform="translate(-1184 -216)"/><path class="cls-5" d="M2371.49,1097c2.66-3.51,8.22-9.26,15.17-20.9-1.33,7.29-3,22.17-2.84,26.18-1.2,2-7.31,9.33-11.34,14C2371.4,1107.4,2371,1099.15,2371.49,1097Z" transform="translate(-1184 -216)"/><path class="cls-5" d="M2426.63,1055.26a105.68,105.68,0,0,0-1.17,13.93c.55.7,1.21,1.62,2.58,3.75a47.33,47.33,0,0,1,.36-16.26C2427,1055.84,2428.17,1056.4,2426.63,1055.26Z" transform="translate(-1184 -216)"/><path class="cls-5" d="M2156.48,1078.5c3.19-2.89,7.37-6.77,9.8-9.31-1,2-5.25,21.15-5.75,26.16l-10.7,13.07C2151.65,1097.37,2155.15,1086.05,2156.48,1078.5Z" transform="translate(-1184 -216)"/><path class="cls-5" d="M2334,1130.4c1.75-1.25,7.07-5.05,9.21-6.61,0,3.77-9.23,23-17.33,29.59-3.86,2.16-14.36,7.89-22.84,11.67C2325.18,1147.68,2330.27,1136.77,2334,1130.4Z" transform="translate(-1184 -216)"/><path class="cls-5" d="M2223,1053.42c.62-1,1.82-3.06,3.41-6.28-1.75,4.95-6.3,29.79-5.85,36-2.21,4-2.94,5.18-6.07,10.49C2219.36,1081,2221.66,1061,2223,1053.42Z" transform="translate(-1184 -216)"/><path class="cls-5" d="M2146.42,1132.1c3-6.19,7.81-17,12.36-28.78-1,2-20.39,93.26-20.89,98.27-2.64,3.22-5.32,6.94-8.51,10.84C2136.05,1196.69,2145.08,1139.65,2146.42,1132.1Z" transform="translate(-1184 -216)"/><path class="cls-5" d="M2125.68,1236.26l4.35-.08c-5.42,20.84-18.91,79.25-33.14,100.46-3.14.71-5.58,1.06-7.79,1.49C2103.25,1319.38,2124.34,1243.8,2125.68,1236.26Z" transform="translate(-1184 -216)"/><path class="cls-5" d="M2178.43,1235.54c.25,0-17.81,71-32,92.16-.63.1-2,.27-4.21.7C2156.33,1309.64,2177.09,1243.08,2178.43,1235.54Z" transform="translate(-1184 -216)"/><path class="cls-5" d="M2095.2,1232.82c6.79,1.31,13.61,1.2,20.76.77-.71,1.16-.93,1.7-1.58,2.86-8.41.27-14.73.26-20.77.37C2094.1,1235.45,2094.81,1233.68,2095.2,1232.82Z" transform="translate(-1184 -216)"/><path class="cls-5" d="M2066.31,1342.56c5.47-1.07,9.42-2,15.54-3a35,35,0,0,0,1.71,6.33,32.72,32.72,0,0,0-16.28,5.4A27.86,27.86,0,0,1,2066.31,1342.56Z" transform="translate(-1184 -216)"/><path class="cls-6" d="M1882.48,984.65c24.14-4.81,36.91,20.77,28,36.54C1916.15,1002.49,1898.65,982.76,1882.48,984.65Z" transform="translate(-1184 -216)"/><path class="cls-6" d="M1886,1152.06c-14,13.79-23.24,6-21.77-12.8C1867.68,1165,1875.86,1157.57,1886,1152.06Z" transform="translate(-1184 -216)"/><path class="cls-7" d="M2204.35,948.54c21.4-5.51,35.67,10.73,29.84,35C2236.15,958.58,2220.52,946.65,2204.35,948.54Z" transform="translate(-1184 -216)"/><path class="cls-6" d="M2061.07,956.79c61.26,5.28,57.51,76.31,37.87,106C2117.4,1024,2110.69,965.22,2061.07,956.79Z" transform="translate(-1184 -216)"/><path class="cls-6" d="M2315.46,962.05c55.89,9.49,54.36,79.09,46.55,102C2365.79,1028.71,2366.34,980.22,2315.46,962.05Z" transform="translate(-1184 -216)"/><path class="cls-6" d="M2283,1137.25c-30.2,48.15-54.86,21.1-55-2.12C2232.32,1148,2244.5,1181.68,2283,1137.25Z" transform="translate(-1184 -216)"/><path class="cls-6" d="M2044.27,1061c-31.1,26.76-54.78,10.75-57.74,3.8C1996.6,1069.68,2013,1080.05,2044.27,1061Z" transform="translate(-1184 -216)"/><path class="cls-6" d="M2490,1058c-31.09,26.76-54.77,10.75-57.73,3.8C2442.36,1066.74,2458.74,1077.11,2490,1058Z" transform="translate(-1184 -216)"/><path class="cls-6" d="M2505.66,953.84c61.26,5.27,57.51,76.31,37.87,106C2562,1021.07,2555.28,962.27,2505.66,953.84Z" transform="translate(-1184 -216)"/><path class="cls-8" d="M2662,1050.45c67,2.26,70.65,76.54,51.63,103.74C2727.47,1116.35,2728.83,1065.39,2662,1050.45Z" transform="translate(-1184 -216)"/><path class="cls-7" d="M2612.25,1201.59c-125.53,53-432.77,50.07-432.77,50.07a30.68,30.68,0,0,0,2.37-10.41S2506.48,1239.74,2612.25,1201.59Z" transform="translate(-1184 -216)"/><path class="cls-6" d="M2122.35,1242c-705.55,5.62-881.8-1.65-881.8-1.65l38.57,24.71,841.15-14.47Z" transform="translate(-1184 -216)"/><path class="cls-6" d="M1766.57,954.51c27.21-.57,31.17,18.84,30.46,32.21C1797.11,971.4,1790.41,955.82,1766.57,954.51Z" transform="translate(-1184 -216)"/><path class="cls-6" d="M1783.13,1000.8c-16.6-3.94-24.92-9.87-26.69-19.73C1758.76,985.91,1761.78,993.89,1783.13,1000.8Z" transform="translate(-1184 -216)"/><path class="cls-6" d="M1702,774.34c108.07,19.22,73,121.93,29.16,153.08C1807.21,846.17,1757,789.87,1702,774.34Z" transform="translate(-1184 -216)"/><path class="cls-6" d="M1637.78,1152.61c-120,24.93-151.23-39.79-137.72-129.42C1495.13,1121.9,1532.15,1164.35,1637.78,1152.61Z" transform="translate(-1184 -216)"/><path class="cls-6" d="M2068.47,1138.09c-12.37,3.52-76.34,22.69-89-37.53C1984.5,1143,2025.11,1159.89,2068.47,1138.09Z" transform="translate(-1184 -216)"/><path class="cls-6" d="M2512.84,1134.9c-12.37,3.52-76.34,22.69-89-37.53C2428.87,1139.76,2469.48,1156.7,2512.84,1134.9Z" transform="translate(-1184 -216)"/><path class="cls-9" d="M1709,549q1.08,2,2.13,4.4c.7,1.59,1.32,3.09,1.87,4.52a10.18,10.18,0,0,1,.79,2.7,58.48,58.48,0,0,1-.84,7.68,19.34,19.34,0,0,1-2.8,7.26,27.06,27.06,0,0,1-8.56,8.46,27.55,27.55,0,0,1-10.64,3.82,32.6,32.6,0,0,1-11.56-.53,37.25,37.25,0,0,1-11.24-4.52,40.34,40.34,0,0,1-9.62-8.22,57.19,57.19,0,0,1-7.83-11.5,49.73,49.73,0,0,1-4.59-12.81,25.43,25.43,0,0,1,.3-12.3,25.69,25.69,0,0,1,5.16-9.82,28,28,0,0,1,15.89-9.19,36,36,0,0,1,7.7-.7c.66,0,1.81,0,3.46.06a17.28,17.28,0,0,1,4.49.66,3.53,3.53,0,0,1,2.5,1.78q.49,1.18-2.42,3.37a19.8,19.8,0,0,1-4.09,2.47q-2.11.93-4.34,1.73c-1.47.54-2.93,1.1-4.36,1.69a21.73,21.73,0,0,0-4.19,2.33q-10.68,7.53-2.91,23.86c.8,1.66,1.77,3.54,2.93,5.65s2.48,4.23,4,6.38a57.14,57.14,0,0,0,4.74,6,28.2,28.2,0,0,0,5.27,4.62,13.25,13.25,0,0,0,5.57,2.19,8.78,8.78,0,0,0,5.75-1.41,15.22,15.22,0,0,0,4.45-4,26.94,26.94,0,0,0,3-5.34,52,52,0,0,0,2.11-5.87c.59-2,1.11-3.93,1.54-5.81,0-.31.13-1.22.23-2.73a27,27,0,0,1,.71-4.6,16.46,16.46,0,0,1,1.41-3.91c.56-1.05,1.31-1.3,2.25-.76a5.48,5.48,0,0,1,.71.41s0,0-.12-.06-.29-.18-.59-.35A6.3,6.3,0,0,1,1709,549Z" transform="translate(-1184 -216)"/><path class="cls-9" d="M1700.66,530.68a6.22,6.22,0,0,0-2.36.49,17.17,17.17,0,0,0-1.67.86,5.8,5.8,0,0,1-1.35.61,1.87,1.87,0,0,1-1.48-.38c-.47-.33-.53-1.14-.18-2.4a11.19,11.19,0,0,1,2.1-3.9,12.89,12.89,0,0,1,4.21-3.37,10,10,0,0,1,6.07-.91,32.22,32.22,0,0,1,5.37,1.36,30.35,30.35,0,0,1,3.81,1.63,13.68,13.68,0,0,1,3,2.07,36.67,36.67,0,0,1,3-7.76,29,29,0,0,1,4.14-5.91,12.6,12.6,0,0,1,6.19-3.82,1.29,1.29,0,0,1,1.46.78,4.74,4.74,0,0,1,.41,2.47,10.57,10.57,0,0,1-.78,3.24,8.86,8.86,0,0,1-2.21,3.17,12,12,0,0,0-3.67,6.15,17.34,17.34,0,0,0-.07,6.85,27,27,0,0,0,2.29,7q1.66,3.45,3.46,6.47,3.88,6.28,3.86,10.46a7.09,7.09,0,0,1-3,6.23q-3.49,2.36-7.34-.11T1717,551.06q-3-5.32-5.37-9.22a72.38,72.38,0,0,0-4.22-6.41,17,17,0,0,0-3.5-3.66A5.26,5.26,0,0,0,1700.66,530.68Z" transform="translate(-1184 -216)"/><path class="cls-9" d="M1737.77,510.05a18.12,18.12,0,0,1,1.3-6.67,23.61,23.61,0,0,1,3.42-5.9,29.78,29.78,0,0,1,4.91-4.87,34.54,34.54,0,0,1,5.7-3.69,10.13,10.13,0,0,1,6.21-.7,10.79,10.79,0,0,1,5.42,3,14.81,14.81,0,0,1,3.54,6,19.47,19.47,0,0,1,.59,8.5,23,23,0,0,1-2.66,8.64,26.47,26.47,0,0,1-4.11,5.55,17.73,17.73,0,0,1-5.29,3.86,21.51,21.51,0,0,0,4.17,6.16,16.75,16.75,0,0,0,2.13,1.78,7.33,7.33,0,0,0,2.42,1.12,6.09,6.09,0,0,0,2.82,0,7.76,7.76,0,0,0,3.06-1.5,12.72,12.72,0,0,0,4.54-5.71,30.25,30.25,0,0,0,1.64-6.14c.29-1.93.48-3.58.59-5s.52-2.07,1.27-2.12c.91,0,1.73.61,2.46,1.94a14.74,14.74,0,0,1,1.47,5.24,29.11,29.11,0,0,1-.11,7.13,20.49,20.49,0,0,1-2.49,7.47,21.15,21.15,0,0,1-5.55,6.35,20.2,20.2,0,0,1-9.18,3.75,17.51,17.51,0,0,1-8.53-.47,22.4,22.4,0,0,1-7.26-3.94,30.2,30.2,0,0,1-5.8-6.35,40.24,40.24,0,0,1-4.16-7.75,36.94,36.94,0,0,1-2.29-8.2A27,27,0,0,1,1737.77,510.05Zm15,6.19a16.23,16.23,0,0,0,2.52-2.31,19.08,19.08,0,0,0,2.3-3.09,24.19,24.19,0,0,0,2.14-4.67,10.73,10.73,0,0,0,.13-7.72,5.45,5.45,0,0,0-1.65-2.22,6.56,6.56,0,0,0-3,1.55,12.23,12.23,0,0,0-2.31,3.23,17.14,17.14,0,0,0-1.56,5.65,19.37,19.37,0,0,0-.19,4.62,19.16,19.16,0,0,0,.52,3A4.46,4.46,0,0,0,1752.81,516.24Z" transform="translate(-1184 -216)"/><path class="cls-9" d="M1773.69,481.64a2.64,2.64,0,0,1,1.82-1.82,6.25,6.25,0,0,1,2.93-.06,14.67,14.67,0,0,1,3.19,1,14.16,14.16,0,0,1,2.46,1.3,8,8,0,0,1,2.16,2.48c.76,1.2,1.44,2.39,2.06,3.57a31.66,31.66,0,0,0,1.63,2.82c.46.71.78.79,1,.22s.29-1.54.58-3a22.72,22.72,0,0,1,1.58-4.86,20.41,20.41,0,0,1,3.36-5.18,13.07,13.07,0,0,1,6-3.76,17.72,17.72,0,0,1,5.73-.88,14,14,0,0,1,5.77,1.26,16,16,0,0,1,5.13,3.82,18.94,18.94,0,0,1,3.8,6.53,21.89,21.89,0,0,1,1.46,7.83,17,17,0,0,1-1.45,6.77,21,21,0,0,1-3.72,5.64,30.13,30.13,0,0,1-5.2,4.48c-3.37,2.32-5.75,3.66-7.13,4s-2.16-.11-2.36-1.34a3.07,3.07,0,0,1,.25-1.77,8.61,8.61,0,0,1,1.24-1.88q.86-1,2.19-2.4t3-3.45a12.42,12.42,0,0,0,2.31-4.61,13.17,13.17,0,0,0,.39-5.34,10.77,10.77,0,0,0-1.91-4.81,8,8,0,0,0-4.48-3q-4.95-1.49-7.8,1.81c-1.91,2.21-2.9,5.54-3,10a27.9,27.9,0,0,0,1.22,7.86q1.32,4.88,3.37,10.47t4.54,11.46q2.46,5.87,4.69,11t3.85,9a48,48,0,0,1,2,5.42c.41,1.56.29,2.72-.37,3.49a5,5,0,0,1-2.8,1.55,10.51,10.51,0,0,1-4,0,15.32,15.32,0,0,1-3.87-1.13q-.6-.25-2.34-3.51t-4.15-8.36q-2.4-5.08-5.24-11.53t-5.69-13.19q-2.85-6.75-5.49-13.28t-4.61-11.8q-2-5.26-3.13-8.72C1773.93,483.34,1773.6,482,1773.69,481.64Z" transform="translate(-1184 -216)"/><path class="cls-9" d="M1824.87,470.59a18,18,0,0,1,2.28-6.4,23.8,23.8,0,0,1,4.25-5.33,30.4,30.4,0,0,1,5.57-4.09,35,35,0,0,1,6.19-2.8,10.07,10.07,0,0,1,6.25.23,10.74,10.74,0,0,1,4.91,3.73,14.76,14.76,0,0,1,2.61,6.49,19.48,19.48,0,0,1-.67,8.5,23.09,23.09,0,0,1-3.9,8.15,27,27,0,0,1-4.89,4.88,17.71,17.71,0,0,1-5.81,3,21.62,21.62,0,0,0,3.22,6.71,16.85,16.85,0,0,0,1.84,2.07,7.09,7.09,0,0,0,2.23,1.47,6.06,6.06,0,0,0,2.78.44,7.77,7.77,0,0,0,3.25-1,12.68,12.68,0,0,0,5.34-5,29.7,29.7,0,0,0,2.52-5.83c.57-1.86,1-3.47,1.32-4.81s.83-2,1.57-1.91c.91.09,1.62.85,2.14,2.27a14.77,14.77,0,0,1,.69,5.4,29.57,29.57,0,0,1-1.16,7.05,20.53,20.53,0,0,1-3.57,7,21,21,0,0,1-6.43,5.46,20.06,20.06,0,0,1-9.63,2.35,17.35,17.35,0,0,1-8.37-1.73,21.91,21.91,0,0,1-6.59-5,29.52,29.52,0,0,1-4.8-7.13,39.61,39.61,0,0,1-3-8.28,37.45,37.45,0,0,1-1-8.46A27.44,27.44,0,0,1,1824.87,470.59Zm14,8.36a16.38,16.38,0,0,0,2.83-1.91,19.4,19.4,0,0,0,2.74-2.72,24.84,24.84,0,0,0,2.81-4.3,10.67,10.67,0,0,0,1.26-7.62,5.39,5.39,0,0,0-1.3-2.44,6.53,6.53,0,0,0-3.23,1.09,12.27,12.27,0,0,0-2.75,2.84,17.24,17.24,0,0,0-2.39,5.37,19.29,19.29,0,0,0-.86,4.54,17.78,17.78,0,0,0,.06,3A4.41,4.41,0,0,0,1838.83,479Z" transform="translate(-1184 -216)"/><path class="cls-9" d="M1865.47,456.14a6.41,6.41,0,0,0-2.39-.19,15.9,15.9,0,0,0-1.85.37,6,6,0,0,1-1.47.21,1.86,1.86,0,0,1-1.31-.77c-.36-.45-.19-1.24.49-2.36a11.41,11.41,0,0,1,3.1-3.17,12.94,12.94,0,0,1,5-2.06,10,10,0,0,1,6.08.81,31.16,31.16,0,0,1,4.78,2.79,31.68,31.68,0,0,1,3.22,2.62,13.46,13.46,0,0,1,2.26,2.81,36.82,36.82,0,0,1,5.07-6.62,29.32,29.32,0,0,1,5.62-4.53,12.53,12.53,0,0,1,7-1.95,1.28,1.28,0,0,1,1.19,1.15,4.71,4.71,0,0,1-.29,2.49,10.54,10.54,0,0,1-1.64,2.89,8.64,8.64,0,0,1-3,2.43,12,12,0,0,0-5.23,4.9,17.45,17.45,0,0,0-2,6.57,27.46,27.46,0,0,0,.28,7.32q.64,3.76,1.53,7.17,2,7.11.81,11.12a7.1,7.1,0,0,1-4.63,5.15q-4,1.29-7-2.15t-5.49-12.88q-1.46-6-2.61-10.35a72.72,72.72,0,0,0-2.27-7.33,17.53,17.53,0,0,0-2.36-4.49A5.26,5.26,0,0,0,1865.47,456.14Z" transform="translate(-1184 -216)"/><path class="cls-9" d="M1900.42,420.64a5.46,5.46,0,0,1,3.09-3.78,10.25,10.25,0,0,1,9.51.49,4.09,4.09,0,0,1,2.17,3.43,7.11,7.11,0,0,1-1.91,5q-2,2.34-6.87,2.9a4.25,4.25,0,0,1-2.6-.49,7.25,7.25,0,0,1-2.18-1.81,6.81,6.81,0,0,1-1.32-2.68A5.33,5.33,0,0,1,1900.42,420.64Zm3.36,40.72c-.15-1.82-.21-3.59-.18-5.3a31.16,31.16,0,0,1,.42-4.85,19.47,19.47,0,0,1,1.08-4,6.61,6.61,0,0,1,1.76-2.64,29.93,29.93,0,0,1,2.92-1.83,9.41,9.41,0,0,1,3.58-1.22,3.4,3.4,0,0,1,2.94,1c.78.8,1.09,2.42.9,4.85a43.44,43.44,0,0,0,.22,4.89q.27,2.91.9,6.19t1.55,6.52a41.44,41.44,0,0,0,2.11,5.88,18.14,18.14,0,0,0,2.66,4.37,5.14,5.14,0,0,0,3.14,2,6.69,6.69,0,0,0,5.51-1.4,14.25,14.25,0,0,0,3.46-5,8.1,8.1,0,0,1,1.46-2.46,2.65,2.65,0,0,1,1.68-1.1c.5,0,.84.4,1,1.29a13,13,0,0,1-.51,4.75,22,22,0,0,1-2.75,6.5,18.86,18.86,0,0,1-4.53,4.95,17.58,17.58,0,0,1-5.94,2.94,16.45,16.45,0,0,1-6.87.4,14.16,14.16,0,0,1-6.11-2,13.77,13.77,0,0,1-4.44-4.81,36.07,36.07,0,0,1-3.33-8.06A112.09,112.09,0,0,1,1903.78,461.36Z" transform="translate(-1184 -216)"/><path class="cls-9" d="M1959.33,432.71a3.83,3.83,0,0,1-1.56,2.69c-1,.79-2.06,1.62-3.31,2.49s-2.53,1.82-3.83,2.85a11.57,11.57,0,0,0-3.13,3.78,20.81,20.81,0,0,0-2,8.21,40.67,40.67,0,0,0,.4,8.72,24.46,24.46,0,0,0,2,6.94c.92,1.89,1.87,2.77,2.84,2.62a5.93,5.93,0,0,0,3.52-2.23,21.87,21.87,0,0,0,3-4.39,25.22,25.22,0,0,0,1.94-4.87,9.86,9.86,0,0,0,.5-3.68c-.12-.83-.33-2-.61-3.41a32.67,32.67,0,0,1-.57-4.34,16.61,16.61,0,0,1,.13-3.81,2.09,2.09,0,0,1,1.5-1.93,19.79,19.79,0,0,0,2.9-1,7.37,7.37,0,0,1,3.3-.59,3.79,3.79,0,0,1,2.84,1.83q1.23,1.71,1.66,6.24,1,9.15,2.89,13.64t5.62,4.75a5.29,5.29,0,0,0,4.27-1.82,24.3,24.3,0,0,0,3-4.17q1.27-2.25,2.17-4c.59-1.19,1.13-1.71,1.61-1.55s.88,1.05,1,2.72a17.14,17.14,0,0,1-.88,5.81,25.08,25.08,0,0,1-3.44,6.81,19,19,0,0,1-6.67,5.84,12.25,12.25,0,0,1-4.25,1.53,11.06,11.06,0,0,1-3.73,0,9.39,9.39,0,0,1-3.1-1.16,15.49,15.49,0,0,1-2.57-1.92,22.13,22.13,0,0,1-4.61-6.45,14.74,14.74,0,0,1-2.46,5.18,18.34,18.34,0,0,1-3.9,3.95,15.35,15.35,0,0,1-6.38,2.7,11.74,11.74,0,0,1-7.78-1.4,18.41,18.41,0,0,1-6.57-6.16,25.43,25.43,0,0,1-3.72-9.85,29.68,29.68,0,0,1,.76-12.56,22.78,22.78,0,0,1,3.7-7.76,29.09,29.09,0,0,1,5.55-5.68,27.48,27.48,0,0,1,6.24-3.66,30.56,30.56,0,0,1,5.82-1.82,13.25,13.25,0,0,1,4.32-.22C1958.86,431.69,1959.39,432.09,1959.33,432.71Z" transform="translate(-1184 -216)"/><path class="cls-9" d="M2072.43,450.28c-.17,1.52-.4,3.13-.72,4.84s-.64,3.3-1,4.79a10.14,10.14,0,0,1-.86,2.68,62.23,62.23,0,0,1-5,5.88,19.42,19.42,0,0,1-6.4,4.41,26.93,26.93,0,0,1-11.83,2.18,27.4,27.4,0,0,1-10.95-2.83,32.63,32.63,0,0,1-9.26-7,37.24,37.24,0,0,1-6.75-10,40.51,40.51,0,0,1-3.32-12.21,56.87,56.87,0,0,1,0-13.92,50,50,0,0,1,3.42-13.17,25.34,25.34,0,0,1,7.17-10,25.64,25.64,0,0,1,9.79-5.21,28,28,0,0,1,18.31,1.35,36.67,36.67,0,0,1,6.76,3.75c.54.37,1.47,1,2.82,2a17.51,17.51,0,0,1,3.34,3.07,3.56,3.56,0,0,1,1.07,2.88c-.18.84-1.48,1.31-3.9,1.42a19.23,19.23,0,0,1-4.77-.26c-1.52-.28-3-.61-4.56-1s-3-.75-4.56-1.07a21.87,21.87,0,0,0-4.78-.43q-13,.21-15.83,18.09c-.28,1.82-.53,3.93-.75,6.31s-.34,4.89-.33,7.5A55,55,0,0,0,2030,452a27.89,27.89,0,0,0,1.75,6.79,13,13,0,0,0,3.38,4.94,8.77,8.77,0,0,0,5.54,2.07,15.18,15.18,0,0,0,6-.83,26.65,26.65,0,0,0,5.52-2.71,51.92,51.92,0,0,0,5.05-3.66q2.42-2,4.54-3.93c.22-.23.79-.94,1.72-2.13a27.3,27.3,0,0,1,3.18-3.4,16.87,16.87,0,0,1,3.37-2.44,1.47,1.47,0,0,1,2.29.64,6.81,6.81,0,0,1,.35.73s0,0-.06-.11-.14-.32-.29-.62A6.43,6.43,0,0,1,2072.43,450.28Z" transform="translate(-1184 -216)"/><path class="cls-9" d="M2090,432c-.14.75-.32,2-.54,3.83s-.43,3.82-.61,6.05-.29,4.55-.34,7a54.13,54.13,0,0,0,.26,6.68,15,15,0,0,0,1.3,5.06,3.34,3.34,0,0,0,2.78,2.17,6,6,0,0,0,4.63-1.57,17.41,17.41,0,0,0,3.62-4.6,32.3,32.3,0,0,0,2.69-6.45c.73-2.4,1.35-4.77,1.88-7.08s.94-4.48,1.22-6.51.5-3.6.67-4.73A3.94,3.94,0,0,1,2109,429a4.22,4.22,0,0,1,2.74-.75,8.89,8.89,0,0,1,3.35.9,18,18,0,0,1,3.25,2,10.66,10.66,0,0,1,2.42,2.53,4.87,4.87,0,0,1,.92,2.64,38.81,38.81,0,0,1-.51,4.92c-.33,2.14-.65,4.54-1,7.21s-.61,5.42-.84,8.25a46.87,46.87,0,0,0,0,7.86,21.6,21.6,0,0,0,1.43,6.27,5.57,5.57,0,0,0,3.42,3.41,5.87,5.87,0,0,1,2.83,1.71,1.29,1.29,0,0,1,0,1.77,4.24,4.24,0,0,1-2.6,1.09,12.77,12.77,0,0,1-5-.52,15.06,15.06,0,0,1-7.74-4.27,19.19,19.19,0,0,1-3.73-6,21.8,21.8,0,0,1-1.31-7.63,28,28,0,0,1-4.49,7.5,18.68,18.68,0,0,1-5.67,4.61,11.07,11.07,0,0,1-8,.77,16,16,0,0,1-7.4-3.62,18.85,18.85,0,0,1-4.41-6,26.59,26.59,0,0,1-2.19-7.42,56,56,0,0,1-.6-8,58.71,58.71,0,0,1,.17-6.37c.17-2.11.41-4.07.7-5.87a33.09,33.09,0,0,1,1.06-4.58A5.7,5.7,0,0,1,2077,429a9.53,9.53,0,0,1,2.93-1,16.35,16.35,0,0,1,4.54-.37,9.83,9.83,0,0,1,4.07,1.07A3,3,0,0,1,2090,432Z" transform="translate(-1184 -216)"/><path class="cls-9" d="M2130.79,435.39a6.29,6.29,0,0,0-2.13-1.14c-.66-.17-1.27-.31-1.83-.4a5.19,5.19,0,0,1-1.43-.39,1.84,1.84,0,0,1-.9-1.23c-.15-.56.32-1.21,1.39-2a11.37,11.37,0,0,1,4.11-1.66,12.62,12.62,0,0,1,5.39.09,10,10,0,0,1,5.25,3.17,31.52,31.52,0,0,1,3.27,4.47,30.51,30.51,0,0,1,1.9,3.68,14,14,0,0,1,1,3.48,37.26,37.26,0,0,1,7.29-4,29.41,29.41,0,0,1,7-1.91,12.53,12.53,0,0,1,7.2,1,1.28,1.28,0,0,1,.62,1.53,4.59,4.59,0,0,1-1.25,2.16,10.46,10.46,0,0,1-2.66,2,8.8,8.8,0,0,1-3.73,1,12,12,0,0,0-6.75,2.4,17.42,17.42,0,0,0-4.42,5.23,27.13,27.13,0,0,0-2.67,6.83c-.61,2.47-1.1,4.87-1.46,7.18q-1,7.32-3.7,10.52a7.1,7.1,0,0,1-6.3,2.88c-2.79-.28-4.65-1.88-5.58-4.78s-.9-7.57.1-14q1-6,1.74-10.53a69.8,69.8,0,0,0,.84-7.63,17.45,17.45,0,0,0-.37-5.06A5.19,5.19,0,0,0,2130.79,435.39Z" transform="translate(-1184 -216)"/><path class="cls-9" d="M2163.83,455.46q.89-2.61,1.94-4.93a31.43,31.43,0,0,1,2.33-4.28,20.61,20.61,0,0,1,2.58-3.24,6.64,6.64,0,0,1,2.67-1.71,31.85,31.85,0,0,1,3.41-.52,9.4,9.4,0,0,1,3.76.31,3.41,3.41,0,0,1,2.3,2.1q.6,1.57-1.11,4.81a42.61,42.61,0,0,0-1.75,4.57q-.91,2.78-1.65,6c-.48,2.18-.88,4.38-1.18,6.59a43.31,43.31,0,0,0-.41,6.24,18.41,18.41,0,0,0,.7,5.07,5.1,5.1,0,0,0,2.1,3,6.68,6.68,0,0,0,5.61.92,14.29,14.29,0,0,0,5.18-3.23,8.3,8.3,0,0,1,2.31-1.67,2.75,2.75,0,0,1,2-.34c.46.17.61.7.42,1.59a12.93,12.93,0,0,1-2.36,4.16,21.76,21.76,0,0,1-5.11,4.86,18.79,18.79,0,0,1-6.13,2.74,17.66,17.66,0,0,1-6.61.32,16.43,16.43,0,0,1-6.47-2.37,14.21,14.21,0,0,1-4.8-4.29,13.79,13.79,0,0,1-2.15-6.18,36,36,0,0,1,.16-8.72A113,113,0,0,1,2163.83,455.46ZM2177,416.78a5.4,5.4,0,0,1,4.34-2.24,10.21,10.21,0,0,1,8.52,4.24,4.1,4.1,0,0,1,.62,4,7.06,7.06,0,0,1-3.74,3.81q-2.76,1.35-7.46-.08a4.26,4.26,0,0,1-2.18-1.49,7.12,7.12,0,0,1-1.28-2.53,6.61,6.61,0,0,1-.14-3A5.22,5.22,0,0,1,2177,416.78Z" transform="translate(-1184 -216)"/><path class="cls-9" d="M2208.32,411.81a2.49,2.49,0,0,1,2.86-1.62,7.79,7.79,0,0,1,4,1.93,14.69,14.69,0,0,1,3.28,4.17,7.16,7.16,0,0,1,.86,5c-.35,1.7-.71,3.45-1.08,5.23s-.69,3.37-1,4.79c-.35,1.71-.67,3.3-1,4.79a53.9,53.9,0,0,1,6.66,1.44,21.36,21.36,0,0,1,4.36,1.79c1.22.71,1.72,1.53,1.48,2.48a3.23,3.23,0,0,1-2.59,2.16,22.18,22.18,0,0,1-4.82.78,59.68,59.68,0,0,1-6.78-.06q-1.64,7.44-3.16,14.43-1.41,6.07-3.12,12.68t-3.4,11.44a23.65,23.65,0,0,1-3.54,6.84,6.31,6.31,0,0,1-3.33,2.32,4.5,4.5,0,0,1-3.05-.47,20.64,20.64,0,0,1-2.62-1.66c-.41-.25-.62-1.13-.63-2.61a36.79,36.79,0,0,1,.47-5.62q.5-3.39,1.32-7.57c.54-2.8,1.14-5.63,1.79-8.51q2.21-10.21,5.36-22.77a26.08,26.08,0,0,1-5.67-.73,11.59,11.59,0,0,1-3.89-1.74,3.65,3.65,0,0,1-1.64-3.28q.06-1.62,2.07-2.4a19.5,19.5,0,0,1,4.44-1.11,42.05,42.05,0,0,1,6.39-.27l.44-1.76c.13-.52.28-1.05.46-1.59s.3-1,.4-1.36c.73-2.94,1.3-5.33,1.68-7.19s.74-3.38,1-4.59.59-2.2.86-2.95A17.18,17.18,0,0,1,2208.32,411.81Z" transform="translate(-1184 -216)"/><path class="cls-9" d="M2220.75,468.69c.75-1.67,1.54-3.24,2.39-4.73a31.61,31.61,0,0,1,2.72-4,19.67,19.67,0,0,1,2.86-3,6.68,6.68,0,0,1,2.82-1.45,28.47,28.47,0,0,1,3.44-.2,9.68,9.68,0,0,1,3.72.65,3.38,3.38,0,0,1,2.09,2.3c.3,1.09-.21,2.65-1.55,4.69a46.42,46.42,0,0,0-2.16,4.39c-.78,1.78-1.51,3.74-2.2,5.86s-1.28,4.28-1.79,6.46a42.45,42.45,0,0,0-1,6.17,18.21,18.21,0,0,0,.22,5.11,5.08,5.08,0,0,0,1.81,3.22,6.63,6.63,0,0,0,5.5,1.44,14.5,14.5,0,0,0,5.46-2.73,7.9,7.9,0,0,1,2.46-1.45,2.71,2.71,0,0,1,2-.16c.44.22.54.76.27,1.63a13.08,13.08,0,0,1-2.73,3.91,21.72,21.72,0,0,1-5.54,4.37,18.89,18.89,0,0,1-6.36,2.16,17.82,17.82,0,0,1-6.62-.29,16.5,16.5,0,0,1-6.22-3,14.4,14.4,0,0,1-4.38-4.72,13.91,13.91,0,0,1-1.57-6.35,35.57,35.57,0,0,1,1-8.67A110,110,0,0,1,2220.75,468.69Zm16.69-37.29a5.44,5.44,0,0,1,4.53-1.83,10.18,10.18,0,0,1,4.75,1.56,9.92,9.92,0,0,1,3.34,3.45,4.09,4.09,0,0,1,.25,4.06,7.08,7.08,0,0,1-4.07,3.44c-1.92.72-4.4.47-7.42-.77a4.2,4.2,0,0,1-2-1.69,7.22,7.22,0,0,1-1-2.63,6.58,6.58,0,0,1,.14-3A5.31,5.31,0,0,1,2237.44,431.4Z" transform="translate(-1184 -216)"/><path class="cls-9" d="M2269.89,438.08a18.25,18.25,0,0,1,6.11-4.62,19.49,19.49,0,0,1,6.55-1.79,15,15,0,0,1,6,.67,10,10,0,0,1,4.43,2.75,9.32,9.32,0,0,1,2.14,4.14,12.84,12.84,0,0,1,.08,4.64,25.13,25.13,0,0,1-1.35,5.07,48.86,48.86,0,0,1-2.3,5.15,56.7,56.7,0,0,1-4.19,7,66.65,66.65,0,0,1-4.94,6.21q-2.61,2.91-5.34,5.52t-5.33,4.67a94.07,94.07,0,0,1-12.55,8.88,25.21,25.21,0,0,0-2,8.12,18.25,18.25,0,0,0,.73,6.46,12.55,12.55,0,0,0,2.44,4.49,7.9,7.9,0,0,0,3,2.29,5.19,5.19,0,0,0,4.79-.81,18.63,18.63,0,0,0,4.75-4.59,33.5,33.5,0,0,0,3.78-6.52,22.55,22.55,0,0,0,1.92-6.74,7.94,7.94,0,0,0-.58-4.59,10.34,10.34,0,0,0-1.92-2.48,15.46,15.46,0,0,1-1.63-1.64c-.39-.46-.29-1.16.29-2.07a5.88,5.88,0,0,1,3.1-2.11,11,11,0,0,1,4.37-.49,10.79,10.79,0,0,1,4.35,1.33,6.74,6.74,0,0,1,3,3.44,31.26,31.26,0,0,0,2.34,4.76,30.79,30.79,0,0,0,3.08,4.24,22.56,22.56,0,0,0,3.4,3.22,8.78,8.78,0,0,0,3.32,1.67,2.64,2.64,0,0,1,2,1.29,1.61,1.61,0,0,1-.32,1.83,4.9,4.9,0,0,1-2.62,1.32,10,10,0,0,1-4.64-.23,9.45,9.45,0,0,1-3.49-1.37,22.63,22.63,0,0,1-2.75-2.06,20.19,20.19,0,0,1-2.41-2.6,8.88,8.88,0,0,1,.22,3.6,18.35,18.35,0,0,1-.86,3.92,27.49,27.49,0,0,1-2.42,5.16,32.4,32.4,0,0,1-3.75,4.65,20.07,20.07,0,0,1-5.45,4,18.95,18.95,0,0,1-15.87.6,20.66,20.66,0,0,1-10.57-8,25.79,25.79,0,0,1-4-12.22,47,47,0,0,1,1.39-14.7,83.4,83.4,0,0,1,5.43-15.43,91.53,91.53,0,0,1,8.31-14.41A76.29,76.29,0,0,1,2269.89,438.08Zm-9.17,39a75.67,75.67,0,0,0,9.06-7,99.81,99.81,0,0,0,8.1-9,59.2,59.2,0,0,0,7.62-12.55,16.4,16.4,0,0,0,1.53-5.06,4.66,4.66,0,0,0-.51-3.16,2,2,0,0,0-2.17-.7,8.26,8.26,0,0,0-3.49,2.21,42.29,42.29,0,0,0-4.07,4.54q-2,2.53-3.78,5.37t-3.41,5.88q-1.62,3-3,5.78Q2263.38,470,2260.72,477.09Z" transform="translate(-1184 -216)"/><path class="cls-9" d="M2334,492.5a3.87,3.87,0,0,1-2.79,1.37c-1.24.13-2.61.2-4.14.23s-3.11.11-4.77.24a11.82,11.82,0,0,0-4.69,1.41,20.81,20.81,0,0,0-6.25,5.71,41,41,0,0,0-4.5,7.47,24.41,24.41,0,0,0-2.16,6.9c-.28,2.09,0,3.34.91,3.77a6,6,0,0,0,4.17.1,22.23,22.23,0,0,0,4.91-2,25.1,25.1,0,0,0,4.31-3,9.62,9.62,0,0,0,2.47-2.79c.36-.75.82-1.81,1.39-3.17a31,31,0,0,1,1.93-3.92,16.67,16.67,0,0,1,2.22-3.09,2.1,2.1,0,0,1,2.33-.78,19.08,19.08,0,0,0,3,.78,7.2,7.2,0,0,1,3.07,1.34,3.8,3.8,0,0,1,1.35,3.1q.07,2.1-2.09,6.11-4.26,8.15-5.17,12.94t2,7.08a5.25,5.25,0,0,0,4.56.85,23.67,23.67,0,0,0,4.82-1.79c1.54-.78,2.89-1.49,4.05-2.16s1.89-.8,2.2-.4.15,1.37-.71,2.81a16.75,16.75,0,0,1-4,4.34,24.87,24.87,0,0,1-6.63,3.76,19,19,0,0,1-8.79,1.15,12.47,12.47,0,0,1-4.39-1.08,11.49,11.49,0,0,1-3.09-2.1,9.4,9.4,0,0,1-1.92-2.68,16.32,16.32,0,0,1-1.08-3,22.22,22.22,0,0,1-.25-7.92,14.82,14.82,0,0,1-4.92,2.94,18.5,18.5,0,0,1-5.44,1.11,15.26,15.26,0,0,1-6.81-1.29,11.79,11.79,0,0,1-5.69-5.48,18.28,18.28,0,0,1-2-8.77,25.33,25.33,0,0,1,2.37-10.26,29.44,29.44,0,0,1,7.61-10,22.77,22.77,0,0,1,7.38-4.41,29,29,0,0,1,7.77-1.64,27.52,27.52,0,0,1,7.22.42,29.84,29.84,0,0,1,5.85,1.72,13,13,0,0,1,3.72,2.22C2334.15,491.38,2334.37,492,2334,492.5Z" transform="translate(-1184 -216)"/><path class="cls-9" d="M2352.55,508.91a7.51,7.51,0,0,1,2.78-.81,20.27,20.27,0,0,1,3.21-.1,14.55,14.55,0,0,1,3,.45,8.87,8.87,0,0,1,2.21.83c.27.15.32.54.19,1.16a22.57,22.57,0,0,1-.72,2.34,26.41,26.41,0,0,1-1.34,3.1l-1.72,3.4q-2.08,4-5.11,9c1.84-1.2,3.73-2.34,5.67-3.4q2.48-1.32,5.43-2.55a29.76,29.76,0,0,1,5.63-1.78,14.51,14.51,0,0,1,5-.11,10.72,10.72,0,0,1,4.44,1.74,8.89,8.89,0,0,1,3.09,3.84,13.64,13.64,0,0,1,1,6.09,18.54,18.54,0,0,1-1.25,5.52c-.76,2-1.65,4.16-2.69,6.31l-3.14,6.52a43.53,43.53,0,0,0-2.5,6.3,18.37,18.37,0,0,0-.86,5.54,5.75,5.75,0,0,0,1.91,4.27,7.61,7.61,0,0,0,3.46,2.08,19.37,19.37,0,0,0,3.92.71l3.39.27c1,.08,1.55.31,1.76.7s-.45,1.05-1.7,1.9a15,15,0,0,1-4.86,2,19.51,19.51,0,0,1-6.66.39,13.88,13.88,0,0,1-7.11-3,15.11,15.11,0,0,1-6.17-13.78q.63-8.51,6.37-19.49a22.43,22.43,0,0,0,2.39-6.23c.23-1.53,0-2.56-.77-3.08a4.38,4.38,0,0,0-3.47-.25,27.77,27.77,0,0,0-5.66,2.15,28.14,28.14,0,0,0-6.59,4.31,37.34,37.34,0,0,0-4.64,4.92c-1.26,1.63-2.32,3.12-3.19,4.45a11.47,11.47,0,0,1-2.26,2.76,3.27,3.27,0,0,1-2.92.27,16.39,16.39,0,0,1-3.61-1.58,18,18,0,0,1-3.3-2.45,6.7,6.7,0,0,1-1.84-2.39c-.11-.41.22-1.47,1-3.16s1.78-3.7,3-6,2.64-4.73,4.18-7.29,3-5,4.49-7.24,2.77-4.19,4-5.78A12.33,12.33,0,0,1,2352.55,508.91Z" transform="translate(-1184 -216)"/><path class="cls-9" d="M2429.08,549.35a3.88,3.88,0,0,1-3,.88c-1.23-.08-2.6-.24-4.11-.47s-3.09-.42-4.74-.57a11.7,11.7,0,0,0-4.87.59,21.08,21.08,0,0,0-7.12,4.57,41.51,41.51,0,0,0-5.7,6.61,24.38,24.38,0,0,0-3.29,6.43c-.64,2-.55,3.3.25,3.87a6,6,0,0,0,4.09.8,21.76,21.76,0,0,0,5.19-1.14,24.59,24.59,0,0,0,4.75-2.2,9.82,9.82,0,0,0,2.9-2.33c.48-.68,1.11-1.65,1.9-2.9a34.06,34.06,0,0,1,2.57-3.54,16.93,16.93,0,0,1,2.72-2.67,2.08,2.08,0,0,1,2.42-.37,18.86,18.86,0,0,0,2.79,1.27,7.24,7.24,0,0,1,2.8,1.84,3.85,3.85,0,0,1,.81,3.28q-.3,2.09-3.1,5.67-5.58,7.32-7.28,11.89t.81,7.31a5.26,5.26,0,0,0,4.35,1.62,24.07,24.07,0,0,0,5.05-.95c1.65-.51,3.11-1,4.36-1.45s2-.46,2.24,0-.1,1.38-1.18,2.65a17,17,0,0,1-4.63,3.61,25.32,25.32,0,0,1-7.18,2.58,19,19,0,0,1-8.86-.35,12.5,12.5,0,0,1-4.14-1.81,11.5,11.5,0,0,1-2.69-2.59,9.48,9.48,0,0,1-1.44-3,16.18,16.18,0,0,1-.55-3.17,22,22,0,0,1,1.09-7.84,14.79,14.79,0,0,1-5.34,2.06,18.6,18.6,0,0,1-5.55.18,15.18,15.18,0,0,1-6.49-2.43,11.8,11.8,0,0,1-4.69-6.36,18.37,18.37,0,0,1-.53-9,25.42,25.42,0,0,1,4.08-9.71,29.49,29.49,0,0,1,9.19-8.59,22.67,22.67,0,0,1,8-3.09,28.45,28.45,0,0,1,7.93-.31,27.14,27.14,0,0,1,7,1.64,29.36,29.36,0,0,1,5.47,2.68,13,13,0,0,1,3.3,2.81C2429.44,548.28,2429.55,548.94,2429.08,549.35Z" transform="translate(-1184 -216)"/><path class="cls-9" d="M1778.55,1688.12q-1.26,1.92-2.85,4c-1.06,1.38-2.09,2.64-3.09,3.8a9.76,9.76,0,0,1-2,2,58.63,58.63,0,0,1-7.15,2.92,19.24,19.24,0,0,1-7.72,1,27,27,0,0,1-11.51-3.49,27.52,27.52,0,0,1-8.43-7.54,32.62,32.62,0,0,1-5-10.42,37,37,0,0,1-1.39-12,40.6,40.6,0,0,1,2.65-12.38,56.84,56.84,0,0,1,6.39-12.36,49.41,49.41,0,0,1,9.08-10.13,25.66,25.66,0,0,1,22-5.74,28,28,0,0,1,15.65,9.6,36.38,36.38,0,0,1,4.28,6.44q.46.86,1.59,3.06a17.36,17.36,0,0,1,1.56,4.27,3.55,3.55,0,0,1-.37,3c-.54.67-1.91.49-4.12-.52a19.84,19.84,0,0,1-4.12-2.42q-1.83-1.41-3.59-3t-3.56-3a21.84,21.84,0,0,0-4-2.58q-11.7-5.8-22.37,8.81-1.6,2.24-3.56,5.27c-1.3,2-2.54,4.19-3.74,6.51a57.59,57.59,0,0,0-3.05,7,28.13,28.13,0,0,0-1.55,6.84,13.24,13.24,0,0,0,.73,5.94,8.75,8.75,0,0,0,4,4.38,15.12,15.12,0,0,0,5.67,2,26.2,26.2,0,0,0,6.14.14,55.32,55.32,0,0,0,6.17-.94q3-.65,5.83-1.41c.31-.1,1.14-.47,2.51-1.1a27.08,27.08,0,0,1,4.39-1.56,17,17,0,0,1,4.11-.63q1.79,0,1.74,1.62a4.94,4.94,0,0,1,0,.82s0,0,0-.13a5.08,5.08,0,0,0,0-.69A6.36,6.36,0,0,1,1778.55,1688.12Z" transform="translate(-1184 -216)"/><path class="cls-9" d="M1790.74,1670.88a6.27,6.27,0,0,0-1.81-1.59,16,16,0,0,0-1.7-.81,5.62,5.62,0,0,1-1.3-.71,1.82,1.82,0,0,1-.6-1.4c0-.58.59-1.11,1.81-1.6a11.18,11.18,0,0,1,4.38-.68,12.73,12.73,0,0,1,5.22,1.31,10,10,0,0,1,4.4,4.28,32.16,32.16,0,0,1,2.16,5.1,31.39,31.39,0,0,1,1,4,14,14,0,0,1,.14,3.61,36.62,36.62,0,0,1,8-2.27,28.59,28.59,0,0,1,7.21-.27,12.45,12.45,0,0,1,6.78,2.61,1.29,1.29,0,0,1,.26,1.64,4.53,4.53,0,0,1-1.71,1.81,10.3,10.3,0,0,1-3,1.34,8.73,8.73,0,0,1-3.86.16,12,12,0,0,0-7.12.8,17.29,17.29,0,0,0-5.51,4.09,27.19,27.19,0,0,0-4.15,6q-1.74,3.4-3.06,6.67-2.65,6.88-6,9.4a7.1,7.1,0,0,1-6.79,1.36c-2.66-.91-4.1-2.89-4.35-5.92s.86-7.58,3.29-13.62q2.4-5.64,4.1-9.85a71.19,71.19,0,0,0,2.56-7.24,17.13,17.13,0,0,0,.79-5A5.22,5.22,0,0,0,1790.74,1670.88Z" transform="translate(-1184 -216)"/><path class="cls-9" d="M1829.71,1687.43a18,18,0,0,1,5.66-3.75A23.77,23.77,0,0,1,1842,1682a30.17,30.17,0,0,1,6.91.07,34.82,34.82,0,0,1,6.63,1.47,10.1,10.1,0,0,1,4.86,3.94,10.8,10.8,0,0,1,1.69,5.94,14.76,14.76,0,0,1-1.82,6.75,19.23,19.23,0,0,1-5.64,6.39,22.72,22.72,0,0,1-8,4.17,26.41,26.41,0,0,1-6.84,1,17.67,17.67,0,0,1-6.46-1.05,21.65,21.65,0,0,0-1.46,7.29,16.61,16.61,0,0,0,.23,2.77,7.09,7.09,0,0,0,.9,2.5,6.11,6.11,0,0,0,2,2,7.9,7.9,0,0,0,3.22,1.12,12.72,12.72,0,0,0,7.25-.77,29.93,29.93,0,0,0,5.52-3.14c1.58-1.16,2.89-2.18,3.95-3.07s1.85-1.08,2.4-.58.79,1.66.35,3.11a14.75,14.75,0,0,1-2.7,4.73,29.38,29.38,0,0,1-5.15,4.93,20.39,20.39,0,0,1-7.07,3.47,21.21,21.21,0,0,1-8.42.51,20.23,20.23,0,0,1-9.11-3.91,17.47,17.47,0,0,1-5.66-6.41,22.5,22.5,0,0,1-2.29-7.93,29.79,29.79,0,0,1,.45-8.59,39.82,39.82,0,0,1,2.6-8.41,37.44,37.44,0,0,1,4.23-7.39A27,27,0,0,1,1829.71,1687.43Zm6.15,15.06a15.83,15.83,0,0,0,3.41.17,18.62,18.62,0,0,0,3.82-.53,24.17,24.17,0,0,0,4.83-1.75,10.8,10.8,0,0,0,5.58-5.33,5.46,5.46,0,0,0,.43-2.73,6.47,6.47,0,0,0-3.24-1.07,11.87,11.87,0,0,0-3.91.62,17.39,17.39,0,0,0-5.13,2.85,20,20,0,0,0-3.42,3.12,18.24,18.24,0,0,0-1.77,2.46A4.35,4.35,0,0,0,1835.86,1702.49Z" transform="translate(-1184 -216)"/><path class="cls-9" d="M1873.76,1692a2.62,2.62,0,0,1,2.54-.36,6.33,6.33,0,0,1,2.39,1.71,15.47,15.47,0,0,1,2,2.71,14.23,14.23,0,0,1,1.19,2.52,8.21,8.21,0,0,1,.23,3.28c-.12,1.41-.28,2.78-.49,4.09s-.35,2.39-.4,3.23.15,1.1.63.75l2.27-2.07a22.67,22.67,0,0,1,4.19-2.93,20.4,20.4,0,0,1,5.8-2.12,13.08,13.08,0,0,1,7,.59,17.73,17.73,0,0,1,5.11,2.74,14.17,14.17,0,0,1,3.86,4.47,16.17,16.17,0,0,1,1.8,6.13,19,19,0,0,1-.88,7.51,21.93,21.93,0,0,1-3.54,7.13,17.09,17.09,0,0,1-5.23,4.55,21,21,0,0,1-6.36,2.27,30.11,30.11,0,0,1-6.85.45q-6.13-.24-8.09-1.08c-1.31-.56-1.67-1.39-1.08-2.5a3,3,0,0,1,1.25-1.26,8.74,8.74,0,0,1,2.12-.76c.88-.21,1.94-.41,3.2-.61s2.76-.5,4.5-.92a12.36,12.36,0,0,0,4.62-2.3,13,13,0,0,0,3.52-4,10.8,10.8,0,0,0,1.36-5,7.93,7.93,0,0,0-1.76-5.12c-2-2.78-4.48-3.85-7.33-3.24s-5.64,2.69-8.4,6.21a28.5,28.5,0,0,0-3.74,7q-1.87,4.68-3.59,10.39t-3.27,11.89q-1.53,6.16-2.83,11.58t-2.31,9.49a46.73,46.73,0,0,1-1.63,5.56c-.6,1.49-1.4,2.35-2.39,2.57a5,5,0,0,1-3.17-.44,10.56,10.56,0,0,1-3.21-2.39,15.47,15.47,0,0,1-2.41-3.23c-.22-.37-.14-1.77.23-4.22s1-5.5,1.71-9.17,1.67-7.79,2.74-12.36,2.19-9.23,3.37-14,2.38-9.37,3.59-13.91,2.34-8.6,3.4-12.2,2-6.55,2.74-8.85S1873.46,1692.28,1873.76,1692Z" transform="translate(-1184 -216)"/><path class="cls-9" d="M1921.21,1712.83a17.82,17.82,0,0,1,5-4.54,23.42,23.42,0,0,1,6.27-2.67,30.58,30.58,0,0,1,6.85-.95,35.75,35.75,0,0,1,6.78.48,10,10,0,0,1,5.38,3.17,10.79,10.79,0,0,1,2.55,5.63,14.64,14.64,0,0,1-.8,7,19.26,19.26,0,0,1-4.63,7.15,22.92,22.92,0,0,1-7.31,5.31,26.85,26.85,0,0,1-6.62,2,18,18,0,0,1-6.55-.09,21.36,21.36,0,0,0-.36,7.43,16.61,16.61,0,0,0,.63,2.7,7.36,7.36,0,0,0,1.27,2.35,6,6,0,0,0,2.24,1.71,7.72,7.72,0,0,0,3.34.63,12.65,12.65,0,0,0,7.06-1.83,30,30,0,0,0,5-3.93c1.39-1.37,2.53-2.57,3.44-3.61s1.68-1.34,2.3-.93,1,1.52.8,3a14.77,14.77,0,0,1-2,5.08,29.45,29.45,0,0,1-4.37,5.64,20.28,20.28,0,0,1-6.48,4.47,21.09,21.09,0,0,1-8.25,1.75,20.19,20.19,0,0,1-9.59-2.52,17.39,17.39,0,0,1-6.54-5.5,22.19,22.19,0,0,1-3.43-7.51,29.81,29.81,0,0,1-.83-8.55,40.21,40.21,0,0,1,1.33-8.71,37.12,37.12,0,0,1,3.09-7.93A27.37,27.37,0,0,1,1921.21,1712.83Zm8.3,14a17.51,17.51,0,0,0,3.4-.34,19.17,19.17,0,0,0,3.7-1.09,24.2,24.2,0,0,0,4.52-2.45,11.19,11.19,0,0,0,3.38-3.22,11.31,11.31,0,0,0,1.36-2.88,5.49,5.49,0,0,0,0-2.76,6.5,6.5,0,0,0-3.36-.58,12.23,12.23,0,0,0-3.77,1.19,17.08,17.08,0,0,0-4.65,3.58,19.45,19.45,0,0,0-2.93,3.59,18.27,18.27,0,0,0-1.38,2.7A4.38,4.38,0,0,0,1929.51,1726.83Z" transform="translate(-1184 -216)"/><path class="cls-9" d="M1990.25,1710.63c.23.63.15,1.1-.27,1.4a7.06,7.06,0,0,1-1.74.84c-.75.26-1.61.59-2.56,1a10.22,10.22,0,0,0-2.82,1.82,11.25,11.25,0,0,0-2.46,3.27,14.94,14.94,0,0,0-1.42,5.33,12.28,12.28,0,0,0,.85,6.49,36.21,36.21,0,0,0,3.38,6.36,70.51,70.51,0,0,0,4.59,6.19,58.39,58.39,0,0,1,4.48,6.19,26.88,26.88,0,0,1,2.93,6.25,11.24,11.24,0,0,1,.2,6.24,8.52,8.52,0,0,1-4.13,5,22,22,0,0,1-7.64,2.61,38.31,38.31,0,0,1-9.4.32,39.33,39.33,0,0,1-9.23-1.84,23,23,0,0,1-7.19-3.79,8.6,8.6,0,0,1-3.4-5.62,19.06,19.06,0,0,1,.1-7.87,13.43,13.43,0,0,1,2.42-5,11.68,11.68,0,0,1,3.39-3,31.8,31.8,0,0,1,3.14-1.55q2.74-1.18,3.44.37c.46,1-.06,2.54-1.56,4.51a4.74,4.74,0,0,0-.83,3.51,8.1,8.1,0,0,0,1.69,3.95,14.15,14.15,0,0,0,3.86,3.44,15.74,15.74,0,0,0,9.84,2,8.9,8.9,0,0,0,3.61-1.21,4.29,4.29,0,0,0,1.91-2.42,4.51,4.51,0,0,0-.82-3.58,32.33,32.33,0,0,0-4.56-5.39q-3.32-3.32-6.71-7.28a53,53,0,0,1-5.86-8.27,13.88,13.88,0,0,1-2-8.38q.86-8,4.13-11.44t9.83-3.87a26.16,26.16,0,0,1,5.25,0,9.88,9.88,0,0,1,3.16.85,4.39,4.39,0,0,1,1.64,1.26A8,8,0,0,1,1990.25,1710.63Z" transform="translate(-1184 -216)"/><path class="cls-9" d="M2059.12,1767.11a26.65,26.65,0,0,1-8.25,2.39,17.9,17.9,0,0,1-6.77-.55,15.56,15.56,0,0,1-5.33-2.73,16,16,0,0,1-3.84-4.41,20.8,20.8,0,0,1-3.44-10,20.34,20.34,0,0,1,1.48-8.55,27.24,27.24,0,0,1,4.45-7.3c1.88-2.24,3.72-4.32,5.49-6.25.23-.23-.19-.94-1.23-2.13s-2.23-2.7-3.56-4.53a56.92,56.92,0,0,1-3.87-6.23,16.78,16.78,0,0,1-2.08-7.22,34.51,34.51,0,0,1,.27-6.54,20.13,20.13,0,0,1,1.86-6.28,19,19,0,0,1,3.76-5.25A15,15,0,0,1,2044,1688a24,24,0,0,1,5.94-1.15,27.45,27.45,0,0,1,7.17.37,19.25,19.25,0,0,1,6.69,2.59,11.77,11.77,0,0,1,4.66,5.53,16.79,16.79,0,0,1,1.33,7,23.82,23.82,0,0,1-1.17,6.72,32.87,32.87,0,0,1-2.71,6.13,52.57,52.57,0,0,1-3.31,5.13c-1.1,1.49-2.06,2.73-2.88,3.69s-1.29,1.56-1.44,1.79c-.37.61-.2,1.4.5,2.37a18.91,18.91,0,0,0,2.79,3q1.74,1.56,3.7,3l3.23,2.49c.29-.61.76-1.58,1.42-2.92s1.43-2.81,2.35-4.42,1.92-3.28,3-5a37,37,0,0,1,3.43-4.62,17.16,17.16,0,0,1,3.62-3.19,4.54,4.54,0,0,1,3.57-.76,10.29,10.29,0,0,1,5.1,2.51,5.34,5.34,0,0,1,1.84,3.6,8.51,8.51,0,0,1-1,1.84l-2.58,4q-1.54,2.35-3.42,5.07l-3.59,5.18c-1.14,1.65-2.12,3.07-2.92,4.26s-1.33,1.94-1.55,2.25.09.9,1.17,1.79a28.63,28.63,0,0,0,4.15,2.76,46.67,46.67,0,0,0,5.45,2.61,14.64,14.64,0,0,0,5,1.26,2.65,2.65,0,0,1,2.31,1.78,3.78,3.78,0,0,1-.39,3.07,7.13,7.13,0,0,1-2.9,2.73,7.72,7.72,0,0,1-5.1.61,24.24,24.24,0,0,1-4.79-1.09,28.91,28.91,0,0,1-3.5-1.52,33.4,33.4,0,0,1-2.93-1.76,33,33,0,0,0-3.22-1.92c-.3,0-.71.43-1.22,1.27a30.93,30.93,0,0,1-2.27,3.11,31.43,31.43,0,0,1-4,4A27.25,27.25,0,0,1,2059.12,1767.11Zm-8.56-30q-1.56,1.86-3.6,4.39a41.28,41.28,0,0,0-3.59,5.19,16.84,16.84,0,0,0-2,5.21,5.41,5.41,0,0,0,.88,4.47,5.72,5.72,0,0,0,5.22,2.56,14.67,14.67,0,0,0,6.27-2.06,22.46,22.46,0,0,0,5.64-4.66,13.48,13.48,0,0,0,3.13-5.23c.14-.45-.39-1.24-1.58-2.35s-2.55-2.26-4.05-3.44a47.41,47.41,0,0,0-4.2-3A7.26,7.26,0,0,0,2050.56,1737.07Zm9.27-36a7.54,7.54,0,0,0-2-2.74,7.05,7.05,0,0,0-2.35-1.32,6.36,6.36,0,0,0-2.39-.29c-.8,0-1.5.13-2.1.21-2.42.43-4,1.54-4.65,3.33a11.52,11.52,0,0,0-.5,6,26.22,26.22,0,0,0,2,6.49,18.65,18.65,0,0,0,2.82,4.77,19.83,19.83,0,0,0,3-2.39,30.93,30.93,0,0,0,3.72-4.16,18.37,18.37,0,0,0,2.68-5A6.23,6.23,0,0,0,2059.83,1701.11Z" transform="translate(-1184 -216)"/><path class="cls-9" d="M2164.42,1691.55c-.87.3-2,.66-3.51,1.1a19.75,19.75,0,0,0-4.65,2.14,25.42,25.42,0,0,0-5,4.1,26.32,26.32,0,0,0-4.57,6.85q-2.82,5.88-.56,8.84t10.32,5A71.74,71.74,0,0,0,2165,1721a35.08,35.08,0,0,1,8.38,2,20.72,20.72,0,0,1,7.28,4.67q3.29,3.2,5.23,9.43a11.66,11.66,0,0,1-.35,8.7,19.53,19.53,0,0,1-5.49,6.83,32,32,0,0,1-8.35,4.83,43.54,43.54,0,0,1-8.85,2.55,39.24,39.24,0,0,1-14.81.2,33.81,33.81,0,0,1-10.27-3.66,13.41,13.41,0,0,1-5.3-4.94q-1.35-2.6.07-3.75a3.47,3.47,0,0,1,2.74-.45c1.22.18,2.73.45,4.51.81s3.79.66,6,.9a30,30,0,0,0,7.34-.17,37.63,37.63,0,0,0,8.59-2.34,39.74,39.74,0,0,0,9.7-5.74,4.57,4.57,0,0,0,1.88-3.59,6.32,6.32,0,0,0-1.67-4.21,13.44,13.44,0,0,0-5.25-3.57,26.47,26.47,0,0,0-8.87-1.76q-4.65-.27-9.14-.68a31.36,31.36,0,0,1-8.31-1.85,18.31,18.31,0,0,1-6.56-4.21,16.39,16.39,0,0,1-4-7.63,15.32,15.32,0,0,1,.74-8.06,45.22,45.22,0,0,1,4.46-9.6,56.48,56.48,0,0,1,7-9.27,36.9,36.9,0,0,1,8.57-7,17.79,17.79,0,0,1,8.83-2.61,10.8,10.8,0,0,1,8,3.75,20.69,20.69,0,0,0,5,4.07q2.61,1.47,4.54,2.42a10.88,10.88,0,0,1,2.84,1.83c.59.59.59,1.36,0,2.31a3,3,0,0,1-2.54,1.39,16.5,16.5,0,0,1-3.48-.52c-1.31-.32-2.74-.6-4.28-.84A10.15,10.15,0,0,0,2164.42,1691.55Z" transform="translate(-1184 -216)"/><path class="cls-9" d="M2199.26,1706.64c.11.75.36,2,.74,3.79s.86,3.75,1.42,5.91,1.22,4.4,2,6.71a55.18,55.18,0,0,0,2.44,6.23,15.14,15.14,0,0,0,2.89,4.35,3.36,3.36,0,0,0,3.34,1.13,6.05,6.05,0,0,0,3.86-3,17.41,17.41,0,0,0,1.91-5.53,32.52,32.52,0,0,0,.42-7q-.16-3.76-.55-7.31c-.26-2.35-.59-4.54-1-6.54s-.72-3.57-.93-4.69a3.94,3.94,0,0,1,.42-3.16,4.23,4.23,0,0,1,2.34-1.6,8.75,8.75,0,0,1,3.45-.25,17.8,17.8,0,0,1,3.73.79,10.5,10.5,0,0,1,3.11,1.6,4.87,4.87,0,0,1,1.74,2.19,37.68,37.68,0,0,1,1.13,4.81q.6,3.18,1.44,7.13c.57,2.63,1.2,5.32,1.92,8.07a45.74,45.74,0,0,0,2.57,7.43,21.66,21.66,0,0,0,3.41,5.45,5.51,5.51,0,0,0,4.35,2.09,6,6,0,0,1,3.23.69,1.28,1.28,0,0,1,.61,1.66,4.23,4.23,0,0,1-2.09,1.89,12.63,12.63,0,0,1-4.92,1.16,15.09,15.09,0,0,1-8.72-1.49,18.8,18.8,0,0,1-5.49-4.44,21.69,21.69,0,0,1-3.75-6.77,27.83,27.83,0,0,1-1.77,8.55,18.93,18.93,0,0,1-3.84,6.22,11.1,11.1,0,0,1-7.29,3.35,16.06,16.06,0,0,1-8.17-1,18.87,18.87,0,0,1-6.14-4.22,26.5,26.5,0,0,1-4.5-6.28,55.9,55.9,0,0,1-3.2-7.33,58.56,58.56,0,0,1-1.92-6.07c-.53-2-1-4-1.26-5.77a32.32,32.32,0,0,1-.51-4.68,5.65,5.65,0,0,1,.36-2.67,9.21,9.21,0,0,1,2.43-1.92,16,16,0,0,1,4.16-1.84,9.58,9.58,0,0,1,4.2-.33A3,3,0,0,1,2199.26,1706.64Z" transform="translate(-1184 -216)"/><path class="cls-9" d="M2268.25,1687.25c-.09.44-.75.76-1.95,1a19.9,19.9,0,0,0-4,1.24,11.76,11.76,0,0,0-4.05,2.93,9.41,9.41,0,0,0-2.07,5.92,34.08,34.08,0,0,0,.7,7.91,29.73,29.73,0,0,0,2.49,7.37,19.87,19.87,0,0,0,3.89,5.46,7.77,7.77,0,0,0,4.81,2.33,11.5,11.5,0,0,0,6.1-1.1,17.28,17.28,0,0,0,4.13-3,19.78,19.78,0,0,0,2.75-3.39,9.79,9.79,0,0,1,1.8-2.29c1.22-.89,2-.58,2.36.94s0,3.74-1.1,6.67a23.28,23.28,0,0,1-2.51,5,20.55,20.55,0,0,1-4.09,4.57,20.08,20.08,0,0,1-5.68,3.24,18.76,18.76,0,0,1-7.38,1,17.74,17.74,0,0,1-7.65-2.08,25.8,25.8,0,0,1-6.85-5.18,32.66,32.66,0,0,1-5.26-7.39,27.51,27.51,0,0,1-2.88-8.86,27.83,27.83,0,0,1,.34-9.64,26.29,26.29,0,0,1,4.23-9.64,15.41,15.41,0,0,1,7-5.73,18.27,18.27,0,0,1,7.25-1.25,12.15,12.15,0,0,1,5.61,1.52C2267.71,1685.66,2268.39,1686.49,2268.25,1687.25Z" transform="translate(-1184 -216)"/><path class="cls-9" d="M2298.07,1671.89a23.68,23.68,0,0,1,10.41,4.13,26.62,26.62,0,0,1,7.08,7.53,25.65,25.65,0,0,1,3.56,9.4,27.3,27.3,0,0,1-.09,9.8,22.73,22.73,0,0,1-3.73,8.71,17.63,17.63,0,0,1-7.58,6.06,18.8,18.8,0,0,1-11.34,1.53,20.22,20.22,0,0,1-9.27-4.49,26,26,0,0,1-6.43-8.34,26.57,26.57,0,0,1-2.82-10,19.31,19.31,0,0,1,1.7-9.6,14.12,14.12,0,0,1,7-6.92,33,33,0,0,0,6.31-3.76,16.41,16.41,0,0,0,2.53-2.51l1-1.33C2296.56,1671.85,2297.12,1671.78,2298.07,1671.89Zm-8.54,14.18a6.85,6.85,0,0,0,.2,3.48,51,51,0,0,0,1.75,5.91,70.55,70.55,0,0,0,2.86,6.81,54,54,0,0,0,3.46,6.19,17.83,17.83,0,0,0,3.61,4.16c1.22,1,2.29,1.19,3.22.65a5,5,0,0,0,2-3.11,20.48,20.48,0,0,0,.7-5.32,34.59,34.59,0,0,0-.54-6.41,40,40,0,0,0-1.64-6.38,21.82,21.82,0,0,0-2.57-5.21,7.89,7.89,0,0,0-3.29-2.95c-2.8-1.22-4.91-1.64-6.35-1.26S2290.39,1684.17,2289.53,1686.07Z" transform="translate(-1184 -216)"/><path class="cls-9" d="M2334.54,1644.84c.53.41.71.85.52,1.33a7.12,7.12,0,0,1-1,1.64q-.75.93-1.65,2.19a9.88,9.88,0,0,0-1.42,3,11.33,11.33,0,0,0-.35,4.09,15,15,0,0,0,1.63,5.27,12.35,12.35,0,0,0,4.17,5,36.3,36.3,0,0,0,6.24,3.59,70.05,70.05,0,0,0,7.18,2.81,59.21,59.21,0,0,1,7.09,2.86,27.14,27.14,0,0,1,5.8,3.74,11.16,11.16,0,0,1,3.48,5.18,8.49,8.49,0,0,1-.84,6.42,22.28,22.28,0,0,1-5.09,6.28,38,38,0,0,1-7.79,5.25,39.11,39.11,0,0,1-8.8,3.35,22.88,22.88,0,0,1-8.1.61,8.58,8.58,0,0,1-5.86-3,19.16,19.16,0,0,1-4.11-6.71,13.69,13.69,0,0,1-.63-5.57,11.79,11.79,0,0,1,1.31-4.31,33,33,0,0,1,1.83-3q1.7-2.46,3.11-1.52t1.08,4.66a4.79,4.79,0,0,0,1.16,3.42A8.16,8.16,0,0,0,2337,1694a14.06,14.06,0,0,0,5.1.86,15.69,15.69,0,0,0,9.4-3.52,8.8,8.8,0,0,0,2.41-2.95,4.31,4.31,0,0,0,.34-3.07,4.51,4.51,0,0,0-2.59-2.58,32.47,32.47,0,0,0-6.74-2.15q-4.56-1.06-9.55-2.6a52.35,52.35,0,0,1-9.36-3.9,13.81,13.81,0,0,1-6.16-6q-3.54-7.24-2.59-11.89t6.28-8.5a27.18,27.18,0,0,1,4.47-2.75,10.29,10.29,0,0,1,3.13-1,4.48,4.48,0,0,1,2.06.2A8,8,0,0,1,2334.54,1644.84Z" transform="translate(-1184 -216)"/><path class="cls-4" d="M2115.62,544.71C2125.29,550,2125.69,580,2122,608s-13.25,98.82-15.63,115-19.87,17.75-43.72,13-68.09-28.35-82.4-46.9-8.43-31.57,3.71-43.71c17-17,65.76-60.73,79.22-74.19C2078.79,555.57,2104,538.35,2115.62,544.71Z" transform="translate(-1184 -216)"/><path class="cls-6" d="M1980.23,689.1c14.31,18.55,58.56,42.13,82.4,46.9,22.36,4.47,39.12,3.35,43.09-10.13-3.86,13.07-19.64,11.24-42,6.78-23.85-4.77-68.09-28.35-82.4-46.9-8.14-10.56-10.1-18.24-8-25.14C1970.33,668.79,1971.62,677.94,1980.23,689.1Z" transform="translate(-1184 -216)"/><path class="cls-6" d="M2064.87,724.82c-23.85-4.76-51.36-20.15-71.23-38-17.12-15.34-25.3-31.29-13.62-43.39-.68.66-1.33,1.31-1.93,1.91-12.14,12.14-4,28.24,13.32,43.71,19.87,17.8,48.49,34.31,72.34,39.08,23.15,4.63,40.24,8,42.51-4.73C2101.63,732.15,2085.7,729,2064.87,724.82Z" transform="translate(-1184 -216)"/><path class="cls-4" d="M2115.62,544.71C2125.29,550,2125.69,580,2122,608s-12.13,95.47-14.52,111.63c-1.95,13.27-19.18,9.85-42.59,5.16-23.85-4.76-51.36-20.15-71.23-38-17.27-15.47-25.46-31.57-13.32-43.72,17-17,63.53-58.49,77-71.95C2072.76,555.75,2098.18,535.19,2115.62,544.71Z" transform="translate(-1184 -216)"/><rect class="cls-10" x="2023.7" y="1457.42" width="207.83" height="73.06" rx="1.12" transform="translate(-1617.22 1726.02) rotate(-45)"/><g class="cls-11"><path class="cls-10" d="M2164.25,1440.09l19.93-2.7-2.71,19.92-19.92,2.7Z" transform="translate(-1184 -216)"/><path class="cls-12" d="M2161.55,1460l19.92-2.7-2.7,19.92-19.92,2.7Z" transform="translate(-1184 -216)"/><path class="cls-13" d="M2144.33,1442.79l19.92-2.7-2.7,19.92-19.92,2.7Z" transform="translate(-1184 -216)"/><path class="cls-10" d="M2119,1485.34l19.92-2.7-2.7,19.92-19.92,2.7Z" transform="translate(-1184 -216)"/><path class="cls-14" d="M2136.22,1502.56l19.92-2.7-2.7,19.92-19.92,2.7Z" transform="translate(-1184 -216)"/><path class="cls-15" d="M2101.78,1468.12l19.93-2.7-2.71,19.92-19.92,2.7Z" transform="translate(-1184 -216)"/><path class="cls-12" d="M2138.92,1482.64l19.93-2.71-2.71,19.93-19.92,2.7Z" transform="translate(-1184 -216)"/><path class="cls-13" d="M2121.71,1465.42l19.92-2.71-2.71,19.93-19.92,2.7Z" transform="translate(-1184 -216)"/><path class="cls-8" d="M2104.49,1448.2l19.92-2.71-2.7,19.93-19.93,2.7Z" transform="translate(-1184 -216)"/><path class="cls-8" d="M2081.86,1470.82l19.92-2.7-2.7,19.92-19.92,2.71Z" transform="translate(-1184 -216)"/><path class="cls-8" d="M2059.23,1493.45l19.93-2.7-2.71,19.92-19.92,2.7Z" transform="translate(-1184 -216)"/><path class="cls-10" d="M2141.63,1462.71l19.92-2.7-2.7,19.92-19.93,2.71Z" transform="translate(-1184 -216)"/><path class="cls-14" d="M2158.85,1479.93l19.92-2.7-2.7,19.92-19.93,2.71Z" transform="translate(-1184 -216)"/><path class="cls-15" d="M2124.41,1445.49l19.92-2.7-2.7,19.92-19.92,2.71Z" transform="translate(-1184 -216)"/><path class="cls-13" d="M2167,1420.17l19.92-2.71-2.7,19.93-19.93,2.7Z" transform="translate(-1184 -216)"/><path class="cls-8" d="M2127.11,1425.57l19.92-2.7-2.7,19.92-19.92,2.7Z" transform="translate(-1184 -216)"/><path class="cls-15" d="M2147,1422.87l19.93-2.7-2.71,19.92-19.92,2.7Z" transform="translate(-1184 -216)"/><path class="cls-10" d="M2096.38,1508l19.92-2.71-2.7,19.92-19.93,2.71Z" transform="translate(-1184 -216)"/><path class="cls-14" d="M2113.6,1525.18l19.92-2.7-2.7,19.92-19.93,2.71Z" transform="translate(-1184 -216)"/><path class="cls-12" d="M2093.67,1527.89l19.93-2.71-2.71,19.93-19.92,2.7Z" transform="translate(-1184 -216)"/><path class="cls-16" d="M2110.89,1545.11l19.93-2.71-2.71,19.93-19.92,2.7Z" transform="translate(-1184 -216)"/><path class="cls-16" d="M2133.52,1522.48l19.92-2.7-2.7,19.92-19.92,2.7Z" transform="translate(-1184 -216)"/><path class="cls-16" d="M2156.14,1499.86l19.93-2.71-2.71,19.93-19.92,2.7Z" transform="translate(-1184 -216)"/><path class="cls-12" d="M2184.18,1437.39l19.92-2.71-2.7,19.93-19.93,2.7Z" transform="translate(-1184 -216)"/><path class="cls-14" d="M2181.47,1457.31l19.93-2.7-2.71,19.92-19.92,2.7Z" transform="translate(-1184 -216)"/><path class="cls-16" d="M2178.77,1477.23l19.92-2.7-2.7,19.92-19.92,2.7Z" transform="translate(-1184 -216)"/><path class="cls-15" d="M2079.16,1490.75l19.92-2.71-2.7,19.93-19.93,2.7Z" transform="translate(-1184 -216)"/><path class="cls-13" d="M2076.45,1510.67l19.93-2.7-2.71,19.92-19.92,2.7Z" transform="translate(-1184 -216)"/><path class="cls-15" d="M2056.53,1513.37l19.92-2.7-2.7,19.92-19.92,2.7Z" transform="translate(-1184 -216)"/><path class="cls-13" d="M2053.83,1533.29l19.92-2.7-2.7,19.92-19.92,2.71Z" transform="translate(-1184 -216)"/><path class="cls-12" d="M2116.3,1505.26l19.92-2.7-2.7,19.92-19.92,2.7Z" transform="translate(-1184 -216)"/><path class="cls-13" d="M2099.08,1488l19.92-2.7-2.7,19.92-19.92,2.71Z" transform="translate(-1184 -216)"/><path class="cls-10" d="M2073.75,1530.59l19.92-2.7-2.7,19.92-19.92,2.7Z" transform="translate(-1184 -216)"/><path class="cls-14" d="M2091,1547.81l19.92-2.7-2.7,19.92-19.92,2.7Z" transform="translate(-1184 -216)"/><path class="cls-12" d="M2071.05,1550.51l19.92-2.7-2.7,19.92-19.92,2.71Z" transform="translate(-1184 -216)"/></g><rect class="cls-12" x="2050.84" y="1558.18" width="22.49" height="2.6" transform="translate(-1682.75 1698.87) rotate(-45)"/><rect class="cls-15" x="1958.65" y="1605.69" width="111.87" height="2.58" transform="translate(-1730.25 1679.2) rotate(-45)"/><path class="cls-15" d="M2184.18,1437.39h0a26.63,26.63,0,0,1,0,37.66l-75.47,75.46a26.63,26.63,0,0,1-37.66,0h0a26.63,26.63,0,0,1,0-37.66l75.46-75.46a26.64,26.64,0,0,1,37.67,0m1.13-1.14a28.26,28.26,0,0,0-39.93,0l-75.46,75.47a28.23,28.23,0,0,0,39.93,39.93l75.46-75.47a28.26,28.26,0,0,0,0-39.93Z" transform="translate(-1184 -216)"/><rect class="cls-10" x="1931.86" y="1390.03" width="73.06" height="207.83" rx="1.12" transform="translate(-1663.85 1613.43) rotate(-45)"/><g class="cls-17"><path class="cls-10" d="M1934.45,1460l-19.92-2.7-2.7-19.92,19.92,2.7Z" transform="translate(-1184 -216)"/><path class="cls-12" d="M1937.15,1479.93l-19.92-2.7-2.7-19.92,19.92,2.7Z" transform="translate(-1184 -216)"/><path class="cls-13" d="M1954.37,1462.71l-19.92-2.7-2.7-19.92,19.92,2.7Z" transform="translate(-1184 -216)"/><path class="cls-10" d="M1979.7,1505.26l-19.92-2.7-2.7-19.92,19.92,2.7Z" transform="translate(-1184 -216)"/><path class="cls-14" d="M1962.48,1522.48l-19.92-2.7-2.7-19.92,19.92,2.7Z" transform="translate(-1184 -216)"/><path class="cls-15" d="M1996.92,1488l-19.92-2.7-2.7-19.92,19.92,2.7Z" transform="translate(-1184 -216)"/><path class="cls-12" d="M1959.78,1502.56l-19.92-2.7-2.71-19.93,19.93,2.71Z" transform="translate(-1184 -216)"/><path class="cls-13" d="M1977,1485.34l-19.92-2.7-2.71-19.93,19.93,2.71Z" transform="translate(-1184 -216)"/><path class="cls-8" d="M1994.22,1468.12l-19.92-2.7-2.71-19.93,19.93,2.71Z" transform="translate(-1184 -216)"/><path class="cls-8" d="M2016.84,1490.75l-19.92-2.71-2.7-19.92,19.92,2.7Z" transform="translate(-1184 -216)"/><path class="cls-8" d="M2039.47,1513.37l-19.92-2.7-2.71-19.92,19.93,2.7Z" transform="translate(-1184 -216)"/><path class="cls-10" d="M1957.08,1482.64l-19.93-2.71-2.7-19.92,19.92,2.7Z" transform="translate(-1184 -216)"/><path class="cls-14" d="M1939.86,1499.86l-19.92-2.71-2.71-19.92,19.92,2.7Z" transform="translate(-1184 -216)"/><path class="cls-15" d="M1974.3,1465.42l-19.93-2.71-2.7-19.92,19.92,2.7Z" transform="translate(-1184 -216)"/><path class="cls-13" d="M1931.75,1440.09l-19.92-2.7-2.71-19.93,19.93,2.71Z" transform="translate(-1184 -216)"/><path class="cls-8" d="M1971.59,1445.49l-19.92-2.7-2.7-19.92,19.92,2.7Z" transform="translate(-1184 -216)"/><path class="cls-15" d="M1951.67,1442.79l-19.92-2.7-2.7-19.92,19.92,2.7Z" transform="translate(-1184 -216)"/><path class="cls-10" d="M2002.33,1527.89l-19.92-2.71-2.71-19.92,19.93,2.71Z" transform="translate(-1184 -216)"/><path class="cls-14" d="M1985.11,1545.11l-19.92-2.71-2.71-19.92,19.93,2.7Z" transform="translate(-1184 -216)"/><path class="cls-12" d="M2005,1547.81l-19.92-2.7-2.7-19.93,19.92,2.71Z" transform="translate(-1184 -216)"/><path class="cls-16" d="M1987.81,1565l-19.92-2.7-2.7-19.93,19.92,2.71Z" transform="translate(-1184 -216)"/><path class="cls-16" d="M1965.19,1542.4l-19.93-2.7-2.7-19.92,19.92,2.7Z" transform="translate(-1184 -216)"/><path class="cls-16" d="M1942.56,1519.78l-19.92-2.7-2.7-19.93,19.92,2.71Z" transform="translate(-1184 -216)"/><path class="cls-12" d="M1914.53,1457.31l-19.92-2.7-2.71-19.93,19.93,2.71Z" transform="translate(-1184 -216)"/><path class="cls-14" d="M1917.23,1477.23l-19.92-2.7-2.7-19.92,19.92,2.7Z" transform="translate(-1184 -216)"/><path class="cls-16" d="M1919.94,1497.15l-19.93-2.7-2.7-19.92,19.92,2.7Z" transform="translate(-1184 -216)"/><path class="cls-15" d="M2019.55,1510.67l-19.92-2.7-2.71-19.93,19.92,2.71Z" transform="translate(-1184 -216)"/><path class="cls-13" d="M2022.25,1530.59l-19.92-2.7-2.7-19.92,19.92,2.7Z" transform="translate(-1184 -216)"/><path class="cls-15" d="M2042.17,1533.29l-19.92-2.7-2.7-19.92,19.92,2.7Z" transform="translate(-1184 -216)"/><path class="cls-13" d="M2044.88,1553.22l-19.93-2.71-2.7-19.92,19.92,2.7Z" transform="translate(-1184 -216)"/><path class="cls-12" d="M1982.41,1525.18l-19.93-2.7-2.7-19.92,19.92,2.7Z" transform="translate(-1184 -216)"/><path class="cls-13" d="M1999.63,1508l-19.93-2.71-2.7-19.92,19.92,2.7Z" transform="translate(-1184 -216)"/><path class="cls-10" d="M2025,1550.51l-19.92-2.7-2.7-19.92,19.92,2.7Z" transform="translate(-1184 -216)"/><path class="cls-14" d="M2007.73,1567.73l-19.92-2.7-2.7-19.92,19.92,2.7Z" transform="translate(-1184 -216)"/><path class="cls-12" d="M2027.66,1570.44l-19.93-2.71-2.7-19.92,19.92,2.7Z" transform="translate(-1184 -216)"/></g><rect class="cls-12" x="2032.62" y="1548.24" width="2.6" height="22.49" transform="translate(-1691 1678.96) rotate(-45)"/><rect class="cls-15" x="2080.13" y="1551.05" width="2.58" height="111.87" transform="translate(-1710.67 1726.46) rotate(-45)"/><path class="cls-15" d="M1911.83,1437.39a26.63,26.63,0,0,1,37.66,0l75.46,75.46a26.63,26.63,0,0,1,0,37.66h0a26.63,26.63,0,0,1-37.66,0l-75.46-75.46a26.63,26.63,0,0,1,0-37.66h0m-1.14-1.14a28.26,28.26,0,0,0,0,39.93l75.47,75.47a28.23,28.23,0,0,0,39.93-39.93l-75.47-75.47a28.26,28.26,0,0,0-39.93,0Z" transform="translate(-1184 -216)"/><path class="cls-4" d="M2662,981.07c-21.82,0-40.25-18.43-40.25-40.25s18.43-40.25,40.25-40.25,40.25,18.43,40.25,40.25S2683.85,981.07,2662,981.07Zm33.61-40.25A33.61,33.61,0,1,0,2662,974.43,33.6,33.6,0,0,0,2695.64,940.82Zm-20.19,22.9c-1.76,0-2.58-1.35-3.39-3l-6.92-13.42c-1.08-2-1.76-3-3.52-3h-7v13.14h5c.54,0,.82.28.82.68v4.75a.72.72,0,0,1-.82.81h-15.86c-.4,0-.67-.27-.67-.81v-4.75a.64.64,0,0,1,.67-.68h4.21V922.93h-4.21c-.4,0-.67-.27-.67-.81v-4.75a.64.64,0,0,1,.67-.68h20.06c8.81,0,15.45,4.34,15.45,14,0,6.78-3.39,11.25-9.35,12.88a24.85,24.85,0,0,1,2.44,4.06l5,9.76h4.34a.64.64,0,0,1,.68.68v4.88c0,.54-.27.81-.68.81Zm-12.07-25.2c6.1,0,9.09-2.58,9.09-7.73s-3.53-7.86-9.09-7.86h-8.8v15.59Z" transform="translate(-1184 -216)"/></svg>
